<?xml version="1.0" standalone="no"?>
<!DOCTYPE svg PUBLIC "-//W3C//DTD SVG 1.1//EN" "http://www.w3.org/Graphics/SVG/1.1/DTD/svg11.dtd" >
<svg xmlns="http://www.w3.org/2000/svg" xmlns:xlink="http://www.w3.org/1999/xlink" version="1.1">
<metadata></metadata>
<defs>
<font id="todayshop-boldregular" horiz-adv-x="1007" >
<font-face units-per-em="2048" ascent="1638" descent="-410" />
<missing-glyph horiz-adv-x="327" />
<glyph horiz-adv-x="0" />
<glyph horiz-adv-x="682" />
<glyph unicode=" "  horiz-adv-x="327" />
<glyph unicode="&#x09;" horiz-adv-x="327" />
<glyph unicode="&#xa0;" horiz-adv-x="327" />
<glyph unicode="!" horiz-adv-x="489" d="M78 1343h379l-68 -907h-237zM80 172q0 85 53 137.5t139 52.5q85 0 138 -52.5t53 -137.5q0 -84 -53.5 -138t-137.5 -54q-85 0 -138.5 53.5t-53.5 138.5z" />
<glyph unicode="&#x22;" horiz-adv-x="872" d="M23 803q159 283 198 579l256 -22q-20 -157 -83 -316t-158 -290zM387 803q160 285 199 579l254 -22q-20 -157 -83.5 -315.5t-158.5 -290.5z" />
<glyph unicode="#" horiz-adv-x="1269" d="M61 381l27 166h215l39 254h-213l25 166h215l59 376h188l-61 -376h256l59 376h189l-60 -376h211l-26 -166h-211l-41 -254h215l-27 -166h-215l-59 -381h-189l60 381h-254l-60 -381h-188l61 381h-215zM489 547h254l41 254h-256z" />
<glyph unicode="$" horiz-adv-x="933" d="M8 150l33 292q121 -94 196 -128.5t164 -34.5q55 0 91.5 34t33.5 80q-3 37 -29 66.5t-81 60.5q-137 75 -176 98q-199 116 -187 324q6 126 86.5 212.5t220.5 117.5v192h222v-184q98 -17 161 -41t129 -68l-71 -245q-143 100 -258 100q-50 0 -83 -26.5t-34 -67.5 q-2 -37 19.5 -65t72.5 -54q145 -73 197.5 -106t93.5 -74q53 -54 75.5 -111.5t22.5 -136.5q0 -129 -92 -229.5t-233 -126.5v-215h-222v206q-113 13 -187 40.5t-165 89.5z" />
<glyph unicode="%" horiz-adv-x="1835" d="M23 911q0 175 102.5 291t269.5 131q173 15 295.5 -100t122.5 -293q0 -183 -111.5 -303.5t-281.5 -120.5q-172 0 -284.5 111.5t-112.5 283.5zM272 924q7 -98 50 -157.5t106 -59.5q66 0 101.5 61t29.5 164q-6 100 -51 159.5t-111 55.5q-63 -3 -98 -66t-27 -157zM537 0 l567 1333h194l-567 -1333h-194zM1020 395q0 175 103 291t272 131q173 15 295 -100t122 -293q0 -183 -112.5 -303.5t-282.5 -120.5q-172 0 -284.5 111.5t-112.5 283.5zM1270 410q8 -98 51 -159t106 -61q66 0 102 61.5t30 164.5q-6 100 -51.5 160.5t-112.5 56.5 q-62 -3 -97 -66t-28 -157z" />
<glyph unicode="&#x26;" horiz-adv-x="1765" d="M33 662q0 163 73.5 302.5t200 220.5t275.5 81q332 0 487 -287v-195l-565 -393q112 -115 287 -115q150 0 243 40.5t158 132.5q33 49 50.5 95t27.5 118h-135v317h614v-317h-141q-25 -129 -58.5 -213t-93.5 -166q-114 -148 -272 -224q-83 -40 -184 -64t-183 -24 q-203 0 -344 51.5t-250 165.5q-92 97 -141 219.5t-49 254.5zM357 683.5q6 -39.5 28 -99.5l410 280q-90 139 -234 121q-82 -11 -136.5 -67t-66.5 -144q-7 -51 -1 -90.5z" />
<glyph unicode="'" horiz-adv-x="507" d="M23 803q159 283 198 579l256 -22q-20 -157 -83 -316t-158 -290z" />
<glyph unicode="(" horiz-adv-x="573" d="M33 672q0 195 70 375.5t225 384.5l235 -89q-246 -322 -246 -671q0 -340 246 -672l-262 -88q-146 211 -207 385.5t-61 374.5z" />
<glyph unicode=")" horiz-adv-x="573" d="M14 0q246 325 246 672q0 343 -246 671l260 89q148 -212 209.5 -385.5t61.5 -374.5q0 -195 -70 -374.5t-225 -385.5z" />
<glyph unicode="*" horiz-adv-x="835" d="M27 1087l63 187l234 -88l-5 250h195l-4 -250l233 88l64 -187l-238 -77l146 -195l-156 -110l-141 204l-144 -204l-155 110l145 195z" />
<glyph unicode="+" horiz-adv-x="1204" d="M96 557v231h379v390h252v-390h381v-231h-381v-391h-252v391h-379z" />
<glyph unicode="," horiz-adv-x="423" d="M-119 -307q105 176 158.5 323t75.5 320l278 -19q-35 -381 -278 -677z" />
<glyph unicode="-" horiz-adv-x="602" d="M37 367v270h526v-270h-526z" />
<glyph unicode="." horiz-adv-x="438" d="M33 168q0 82 52.5 134t135.5 52q82 0 134.5 -52t52.5 -134q0 -83 -52.5 -135.5t-134.5 -52.5q-83 0 -135.5 52.5t-52.5 135.5z" />
<glyph unicode="/" horiz-adv-x="864" d="M18 -63l586 1472h240l-586 -1472h-240z" />
<glyph unicode="0" horiz-adv-x="1163" d="M37 641q0 351 190 541q73 72 167 111.5t190 39.5q276 0 424 -219q54 -74 86 -197t32 -249q0 -332 -146.5 -517.5t-408.5 -185.5q-244 0 -389 183.5t-145 492.5zM393 666q0 -175 50.5 -282t138.5 -116q109 -12 157 127q27 85 27 264q0 163 -52.5 265t-138.5 106 q-96 3 -151 -119q-31 -82 -31 -245z" />
<glyph unicode="1" horiz-adv-x="780" d="M0 1063q156 50 334 133q123 60 207 102l22 13l25 12l24 12l97 -35v-1300h-353v938q-138 -77 -282 -123z" />
<glyph unicode="2" horiz-adv-x="1050" d="M4 174q137 110 291 252q136 126 207 219q70 85 76 178q5 74 -52 125t-143 51q-61 0 -113.5 -23.5t-136.5 -86.5l-90 248q87 81 156 118q64 36 139.5 57t140.5 21q230 0 359 -149q102 -114 102 -277q0 -141 -100.5 -287.5t-329.5 -338.5h534l-47 -281h-952z" />
<glyph unicode="3" horiz-adv-x="999" d="M0 109l43 258q92 -69 166.5 -100.5t157.5 -35.5q86 -4 144 40.5t58 115.5q0 78 -63 120t-182 42h-117v227h231q41 0 77 49.5t32 100.5q-6 59 -56 95t-126 36q-56 0 -107 -17.5t-127 -62.5l-84 221q125 74 223 104.5t213 30.5q187 0 314 -96.5t127 -237.5q0 -128 -78 -215 q-38 -41 -119 -82q67 -27 102.5 -49.5t65.5 -60.5q76 -91 76 -225q0 -110 -66 -202.5t-179.5 -146t-248.5 -53.5q-289 0 -477 144z" />
<glyph unicode="4" horiz-adv-x="1153" d="M4 543l694 794l232 -41v-768h221l-45 -256h-176v-272h-336v272h-539zM264 502h336v391z" />
<glyph unicode="5" horiz-adv-x="985" d="M0 76l51 266q148 -92 295 -98q99 -5 164 50t59 138q-4 69 -58 125t-134 76q-95 22 -244 24l107 643l704 -2v-282h-409l-33 -172q223 -29 338.5 -136.5t115.5 -285.5q0 -204 -144.5 -330.5t-377.5 -126.5t-434 111z" />
<glyph unicode="6" horiz-adv-x="1105" d="M33 512q0 189 102 365.5t287 308.5q95 68 183 108t214 74l197 -211q-168 -55 -295 -131q-73 -43 -116.5 -85t-96.5 -116q51 17 83.5 22t94.5 5q167 0 282 -113.5t115 -279.5q0 -117 -46 -215.5t-132 -169.5q-133 -109 -358 -109q-114 0 -224 49t-178 129 q-112 136 -112 369zM391.5 494q-6.5 -38 1.5 -80q13 -73 62 -115.5t118 -42.5q88 0 138.5 53.5t50.5 145.5q0 83 -56 135.5t-141 46.5q-56 -3 -112 -35q-31 -14 -31 -18q-24 -52 -30.5 -90z" />
<glyph unicode="7" horiz-adv-x="1058" d="M14 1016v284h979l62 -145q-134 -255 -172 -330q-137 -268 -265 -544q-12 -26 -34.5 -75.5t-110.5 -238.5l-387 60q129 269 258 512q106 202 188 350l25 41l25 43l22 43h-590z" />
<glyph unicode="8" horiz-adv-x="1134" d="M29 358q0 78 37.5 149.5t101.5 117.5q37 26 88 47q-89 50 -130.5 118t-41.5 168q0 83 43 162.5t115 130.5q54 39 140 62.5t173 23.5q224 0 358 -95t134 -253q0 -106 -43.5 -175.5t-137.5 -115.5q80 -32 123 -67q53 -43 83.5 -105.5t33.5 -134.5q9 -189 -140.5 -308.5 t-396.5 -119.5q-239 0 -389.5 110t-150.5 285zM369 358q0 -72 51.5 -121t126.5 -49q83 0 134 46.5t46 117.5q-6 106 -149 172l-64 33q-145 -80 -145 -199zM434 981q6 -45 40.5 -85t92.5 -67l62 -30q65 51 89.5 90t24.5 90q0 61 -47.5 100t-122.5 39q-61 0 -103 -41.5 t-36 -95.5z" />
<glyph unicode="9" horiz-adv-x="1112" d="M23 870q0 96 52 195t136 162q66 49 154 77.5t176 28.5q248 0 398.5 -158.5t135.5 -402.5q-12 -197 -118 -375.5t-283 -298.5q-85 -59 -174 -98t-209 -70l-207 207q99 33 164.5 64.5t136.5 79.5q76 49 120.5 91.5t88.5 108.5q-79 -30 -150 -35q-144 -12 -260 72 q-161 116 -161 352zM344 854q0 -91 54.5 -144t146.5 -53q56 0 106 31q18 10 31 23q34 76 29 145q-7 86 -57 135t-128 49q-76 0 -129 -54.5t-53 -131.5z" />
<glyph unicode=":" horiz-adv-x="503" d="M88 188q0 82 52.5 134.5t135.5 52.5q82 0 134.5 -52.5t52.5 -134.5q0 -83 -52.5 -135.5t-134.5 -52.5q-83 0 -135.5 52.5t-52.5 135.5zM90 764q0 82 53 134t136 52q82 0 134 -52t52 -134q0 -83 -52 -136t-134 -53q-83 0 -136 53t-53 136z" />
<glyph unicode=";" horiz-adv-x="507" d="M-78 -307q105 176 158.5 323t75.5 320l278 -19q-35 -381 -278 -677zM88 764q0 82 52.5 134t135.5 52q82 0 134.5 -52t52.5 -134q0 -83 -52.5 -136t-134.5 -53q-83 0 -135.5 53t-52.5 136z" />
<glyph unicode="&#x3c;" horiz-adv-x="923" d="M23 477l356 467l131 -162l-219 -297l219 -297l-131 -178zM403 477l357 467l129 -162l-219 -297l219 -297l-129 -178z" />
<glyph unicode="=" horiz-adv-x="1204" d="M121 360v232h964v-232h-964zM121 752v231h964v-231h-964z" />
<glyph unicode="&#x3e;" horiz-adv-x="923" d="M33 172l219 297l-219 297l129 178l358 -467l-358 -467zM414 172l219 297l-219 297l129 178l356 -467l-356 -467z" />
<glyph unicode="?" horiz-adv-x="897" d="M33 1212q99 86 192.5 121t220.5 35q170 0 294 -113t124 -270q0 -85 -33 -154t-118 -161q-102 -113 -125 -146.5t-35 -87.5h-266q5 80 39 139q15 29 104 142q85 110 74 194q-8 66 -60.5 106t-124.5 34q-53 -5 -94.5 -21.5t-105.5 -58.5zM223 170q0 85 53 137.5t138 52.5 t137.5 -52.5t52.5 -137.5q0 -83 -53.5 -136.5t-136.5 -53.5t-137 53.5t-54 136.5z" />
<glyph unicode="@" horiz-adv-x="2377" d="M188 393q0 228 107 428q74 141 188.5 249t253 174t290 99t312.5 33q134 0 252.5 -27t223 -82.5t187 -147.5t132.5 -214q55 -132 55 -272q0 -206 -91 -357.5t-275 -224.5q-122 -51 -271 -51h-6l-278 2l22 164q-33 -74 -111.5 -120t-162.5 -46q-254 0 -254 346 q0 115 37 221.5t103 189.5t166.5 133t219.5 50q176 0 330 -53l-92 -682h73q95 0 171.5 60.5t115.5 148.5t39 180q0 282 -165.5 426.5t-454.5 144.5q-237 0 -442 -111t-318 -311q-88 -154 -88 -317q0 -315 161.5 -478t479.5 -163q251 0 407 43l43 -207q-189 -51 -499 -51 q-194 0 -353 55t-272 158t-174.5 259t-61.5 351zM1006 350q0 -33 3.5 -56t13.5 -45t32 -33t55 -11q84 0 160 131q0 1 5.5 10.5t10 18t4.5 10.5l53 356q-42 10 -73 10q-63 0 -115.5 -40t-83.5 -101t-48 -126.5t-17 -123.5z" />
<glyph unicode="A" horiz-adv-x="1415" d="M-25 0l578 1343h317l570 -1343h-387l-117 295h-496l-121 -295h-344zM524 516h330l-160 418z" />
<glyph unicode="B" horiz-adv-x="1171" d="M66 16v1315q262 31 446 31q272 0 416.5 -94t144.5 -271q0 -97 -44.5 -162.5t-145.5 -119.5q126 -35 193 -122.5t67 -213.5q0 -129 -76 -222t-215 -134q-125 -39 -338 -39q-219 0 -448 32zM414 233q7 -1 21 -2t18 -2q23 -2 71 -2h35q99 0 156 44.5t57 121.5q0 88 -64 135 t-184 47h-110v-342zM414 795h174q44 0 87.5 50.5t43.5 102.5q0 81 -54 125.5t-153 44.5q-42 0 -98 -6v-317z" />
<glyph unicode="C" horiz-adv-x="1208" d="M33 684q0 145 54.5 274t148.5 221.5t225 146.5t278 54q137 0 247 -33t220 -108l-186 -283q-69 47 -128.5 67.5t-131.5 20.5q-148 0 -243 -102.5t-95 -263.5q0 -160 101 -269.5t249 -109.5q85 0 151.5 21.5t133.5 72.5l153 -280q-215 -151 -467 -151q-19 0 -38 1 q-198 9 -351 102t-237 254t-84 365z" />
<glyph unicode="D" horiz-adv-x="1368" d="M66 10v1325q78 8 88 8q119 12 233 15h119q192 0 385 -62q209 -67 326.5 -239.5t117.5 -407.5q0 -167 -82 -317.5t-219 -233.5q-180 -112 -547 -112q-178 0 -421 24zM430 270q7 0 17 -1t12 -1q23 -4 67 -4h35q182 0 286.5 103.5t104.5 283.5q0 108 -53.5 205.5 t-142.5 149.5q-61 35 -127.5 49t-171.5 14h-27v-799z" />
<glyph unicode="E" d="M66 0v1343h854v-276h-500v-242h448v-262h-448v-280h588l-33 -283h-909z" />
<glyph unicode="F" horiz-adv-x="919" d="M66 0v1343h839v-299h-475v-272h420v-283h-420v-489h-364z" />
<glyph unicode="G" horiz-adv-x="1368" d="M33 676q0 146 56.5 277t154 224.5t233 148t287.5 54.5q165 0 290 -45t232 -143l-219 -256q-133 121 -293 121q-157 0 -253.5 -108t-96.5 -283q0 -161 105 -273.5t262 -120.5h13q75 0 146 31v197h-223l27 256h551v-629q-123 -85 -259 -124.5t-305 -39.5 q-157 0 -302.5 62.5t-239.5 169.5q-166 187 -166 481z" />
<glyph unicode="H" horiz-adv-x="1357" d="M66 0v1343h364v-514h498v514h364v-1343h-364v547h-498v-547h-364z" />
<glyph unicode="I" horiz-adv-x="495" d="M66 0v1343h364v-1343h-364z" />
<glyph unicode="J" horiz-adv-x="825" d="M6 49l39 287q108 -45 186 -45q125 0 154 100q12 43 12 146v806h365v-876q0 -132 -12 -199.5t-45 -122.5q-47 -78 -143 -125t-208 -47q-105 0 -183 17t-165 59z" />
<glyph unicode="K" horiz-adv-x="1306" d="M66 0v1343h364v-555l494 580l391 -57l-514 -584l528 -727h-442l-346 506l-111 -135v-371h-364z" />
<glyph unicode="L" horiz-adv-x="989" d="M66 0v1343h364v-1038h555l-39 -305h-880z" />
<glyph unicode="M" horiz-adv-x="1714" d="M8 0l203 1343h293l356 -827l357 827h290l201 -1343h-362l-89 719l-313 -719h-229l-312 715l-90 -715h-305z" />
<glyph unicode="N" horiz-adv-x="1396" d="M66 0v1315l235 53l696 -764l-6 739h342v-1314l-233 -52l-699 758l7 -735h-342z" />
<glyph unicode="O" horiz-adv-x="1499" d="M33 666q0 150 54.5 282.5t149 227t226 149.5t280.5 55q330 0 537 -219q88 -94 137 -219.5t49 -257.5q0 -159 -52.5 -293.5t-146.5 -228.5t-229 -146.5t-295 -52.5q-203 0 -365.5 90t-253.5 251t-91 362zM426 686q0 -80 31 -163.5t80 -137.5q85 -94 213 -100q12 -1 24 -1 q132 0 212 92q87 100 87 279q0 175 -98 291.5t-246 116.5q-139 0 -221 -102t-82 -275z" />
<glyph unicode="P" horiz-adv-x="1134" d="M66 0v1337q30 2 68.5 6t49.5 5q238 14 289 14q184 0 298 -30t194 -99q151 -133 151 -356q0 -129 -63 -236.5t-174 -169.5q-131 -70 -349 -70q-6 0 -21 1t-38.5 2t-40.5 2v-406h-364zM430 682q35 -2 90 -2q114 0 178 49.5t64 138.5q0 91 -63 143t-173 52q-26 0 -96 -4 v-377z" />
<glyph unicode="Q" horiz-adv-x="1499" d="M33 666q0 150 54.5 282.5t149 227t226 149.5t280.5 55q333 0 537 -219q88 -94 137 -219.5t49 -257.5q0 -364 -260 -569q113 -78 221 -126t269 -91l-223 -236q-144 43 -246 92t-217 127q-79 54 -129 101q-87 -17 -138 -17q-339 0 -538 228q-83 95 -127.5 217t-44.5 256z M426 688q0 -82 30.5 -165t80.5 -136q85 -94 213 -100q12 -1 24 -1q132 0 212 92q87 100 87 277q0 175 -97.5 291.5t-246.5 116.5q-140 0 -221.5 -101t-81.5 -274z" />
<glyph unicode="R" horiz-adv-x="1236" d="M63 0v1337q12 1 87 9q184 16 333 16q312 0 471.5 -110.5t159.5 -327.5q0 -233 -219 -349l362 -575h-419l-260 461h-150v-461h-365zM428 709h180q60 0 106 57t46 131q0 86 -60 136t-163 50q-48 0 -109 -4v-370z" />
<glyph unicode="S" horiz-adv-x="1032" d="M4 111l39 323q187 -163 369 -178q10 -1 20 -1q60 -1 101 31q47 36 47 101q0 43 -31 76t-109 74q-111 59 -145 75q-126 69 -183 156t-57 211q0 100 48.5 185t136.5 139q57 34 135.5 55.5t146.5 21.5q125 0 218 -25t227 -95l-80 -277q-94 62 -159.5 87.5t-129.5 25.5 q-54 0 -92 -30.5t-41 -76.5v-9q0 -42 27 -72q30 -32 120 -77q204 -106 269 -161q57 -49 90 -124t33 -155q0 -189 -143 -308.5t-369 -119.5q-245 0 -488 148z" />
<glyph unicode="T" horiz-adv-x="1157" d="M14 1044v299h1131v-299h-383v-1044h-365v1044h-383z" />
<glyph unicode="U" horiz-adv-x="1363" d="M66 557v786h364v-786q0 -92 17 -145t57 -88q69 -60 190 -60q67 0 120.5 26.5t82.5 74.5q35 59 35 192v786h364v-804q0 -162 -37.5 -265.5t-121.5 -173.5q-73 -63 -199 -100t-264 -37q-191 0 -328 56.5t-205 162.5q-75 124 -75 375z" />
<glyph unicode="V" horiz-adv-x="1396" d="M0 1313l373 57l338 -838l342 838l342 -57l-557 -1313h-283z" />
<glyph unicode="W" horiz-adv-x="2031" d="M0 1313l369 57l360 -917l150 401l-183 459l355 57l321 -840l318 840l344 -57l-525 -1313h-284l-209 528l-201 -528h-289z" />
<glyph unicode="X" horiz-adv-x="1396" d="M0 33l494 651l-467 629l387 57l297 -405l290 405l353 -57l-459 -606l504 -674l-389 -62l-328 453l-330 -453z" />
<glyph unicode="Y" horiz-adv-x="1325" d="M0 1315l375 55l305 -473l311 473l334 -55l-489 -731v-584h-365v584z" />
<glyph unicode="Z" horiz-adv-x="1218" d="M4 152l660 892h-590v299h1063l61 -149l-661 -889h675l-34 -305h-1115z" />
<glyph unicode="[" horiz-adv-x="606" d="M66 -63v1472l526 -2l-25 -203h-215v-1065h240l-25 -202h-501z" />
<glyph unicode="]" horiz-adv-x="606" d="M14 -63l25 202h215v1065h-240l25 203l502 2v-1472h-527z" />
<glyph unicode="^" horiz-adv-x="1415" d="M-25 0l437 1016h6q71 9 106.5 25.5t61.5 52.5q39 53 39 125q0 71 -41 124h247q-40 -52 -40 -124q0 -90 55 -144.5t151 -58.5h13l430 -1016h-387l-117 295h-496l-121 -295h-344zM233 1223q0 78 52 129t131 51q78 0 129 -51t51 -129q0 -82 -50 -132.5t-130 -50.5t-131.5 52 t-51.5 131zM524 516h330l-160 418zM815 1223q0 78 51.5 129t130.5 51q78 0 129.5 -51t51.5 -129q0 -81 -50.5 -132t-130.5 -51q-79 0 -130.5 51.5t-51.5 131.5z" />
<glyph unicode="_" horiz-adv-x="813" d="M0 -242h813v-47h-813v47z" />
<glyph unicode="`" horiz-adv-x="0" d="M-369 1260l244 92l336 -248l-178 -74z" />
<glyph unicode="a" horiz-adv-x="1026" d="M18 256q0 132 88 212.5t259 106.5q56 10 208 19q-3 82 -51 117q-40 29 -114 29q-15 0 -31 -1q-140 -12 -291 -88v230q198 100 406 100q233 0 344 -123q71 -83 71 -266v-225q0 -62 3.5 -94t17.5 -52.5t35 -25.5t63 -5l-41 -198q-94 -22 -158 -22q-12 0 -24 1 q-75 5 -121.5 34t-71.5 87q-92 -71 -158.5 -97t-154.5 -26q-123 0 -201 80.5t-78 206.5zM328 291v-11q0 -44 30 -74q29 -29 71 -29q6 0 13 1q33 3 60.5 14t72.5 39v211q-131 -19 -187 -53t-60 -98z" />
<glyph unicode="b" horiz-adv-x="1112" d="M66 78v1331h342v-479q105 47 180 47q250 0 387 -174q100 -126 100 -324q0 -124 -59.5 -238t-159.5 -182q-137 -90 -358 -90q-146 0 -283 45q-56 21 -149 64zM408 262q59 -29 116 -29q94 0 150.5 62.5t56.5 165.5q0 100 -61 164.5t-156 64.5q-49 0 -106 -24v-404z" />
<glyph unicode="c" horiz-adv-x="886" d="M33 481q0 133 65.5 246t180.5 181.5t253 74.5q15 1 31 1q177 0 320 -97l-115 -248q-55 34 -95.5 46.5t-90.5 12.5q-82 0 -137.5 -59t-55.5 -145q0 -99 57 -163.5t144 -64.5q55 0 94.5 10.5t97.5 40.5l105 -233q-153 -115 -361 -115q-220 0 -356.5 141.5t-136.5 370.5z " />
<glyph unicode="d" horiz-adv-x="1163" d="M33 459q0 217 131 360.5t340 157.5q18 1 35 1q36 0 64 -4q42 -6 99 -28v463h342v-1042q0 -62 3.5 -94t17.5 -52.5t35 -25.5t63 -5l-41 -198q-70 -16 -106 -20q-21 -3 -45 -2q-15 0 -31 1q-72 5 -117 32.5t-73 84.5q-118 -118 -289 -118q-12 0 -25 1q-183 9 -293 142.5 t-110 345.5zM377 489q0 -106 57 -168.5t152 -62.5q37 0 60.5 8t55.5 31v375q-55 39 -118 39q-95 0 -151 -59.5t-56 -162.5z" />
<glyph unicode="e" d="M33 481q0 138 67.5 254t184.5 183t256 67q198 0 319 -117t123 -309l-98 -135h-514q9 -82 78.5 -139.5t158.5 -57.5q87 0 154 21t153 74l72 -187q-168 -168 -450 -168q-223 0 -363.5 143.5t-140.5 370.5zM360 596h351q-5 80 -51 126t-121 46q-72 0 -120.5 -46.5 t-58.5 -125.5z" />
<glyph unicode="f" horiz-adv-x="774" d="M14 705v243h174v68q0 179 119 294.5t314 125.5q13 1 26 1q91 0 205 -30l-47 -231q-50 11 -93 11q-10 0 -20 -1q-173 -12 -176 -180v-58h246v-243h-232v-705h-342v705h-174z" />
<glyph unicode="g" horiz-adv-x="1021" d="M-29 -188q0 96 63 171.5t163 100.5q-13 29 -13 43v10q0 41 21 73q24 37 80 71q-120 35 -189 121t-69 200q0 184 141 291q51 38 125.5 63t140.5 25q74 0 108 -5.5t99 -27.5h381v-192l-174 6q32 -43 43.5 -78.5t11.5 -83.5q0 -93 -40.5 -168t-114.5 -119 q-58 -34 -116 -46.5t-149 -12.5q-23 -23 -20 -41q3 -17 29 -27.5t112 -31.5q141 -35 202 -60t99 -63q72 -72 72 -189q0 -160 -144 -265t-362 -105q-221 0 -360.5 94.5t-139.5 245.5zM268 -188q0 -66 56.5 -109t144.5 -43q81 0 130.5 36t49.5 95q0 46 -36 71.5t-140 53.5 l-117 31q-47 -34 -67.5 -65.5t-20.5 -69.5zM334 635q0 -89 42 -145t109 -56q62 0 97.5 44t35.5 120q0 89 -41 144t-108 55q-61 0 -98 -45t-37 -117z" />
<glyph unicode="h" horiz-adv-x="1112" d="M66 0v1409h342v-567q135 141 309 141q155 0 241 -95t86 -265v-623h-342v522q0 91 -31.5 131.5t-101.5 40.5q-82 0 -161 -88v-606h-342z" />
<glyph unicode="i" horiz-adv-x="477" d="M55 1194q0 78 52 129t131 51q78 0 129 -51t51 -129q0 -81 -50 -131.5t-130 -50.5t-131.5 51.5t-51.5 130.5zM68 0v948h342v-948h-342z" />
<glyph unicode="j" horiz-adv-x="475" d="M-174 -440l43 235q40 -4 55 -4q47 0 81.5 23.5t49.5 66.5q13 37 13 129v938h342v-934q0 -117 -15 -183.5t-53 -125.5q-47 -73 -130 -114.5t-194 -47.5q-16 -1 -32 -1q-73 0 -160 18zM55 1194q0 78 52 129t131 51q78 0 129 -51t51 -129q0 -81 -50 -131.5t-130 -50.5 t-131.5 51.5t-51.5 130.5z" />
<glyph unicode="k" horiz-adv-x="1091" d="M66 0v1409h342v-774l294 330l371 -47l-356 -390l397 -528h-399l-238 338l-74 -92v-246h-337z" />
<glyph unicode="l" horiz-adv-x="471" d="M66 0v1409h342v-1409h-342z" />
<glyph unicode="m" horiz-adv-x="1726" d="M10 911l291 72q46 -31 67.5 -71t24.5 -99q125 170 328 170q106 0 174 -41t109 -129q66 74 114 105q97 65 209 65q100 0 176.5 -34t114.5 -95q25 -38 35 -89.5t10 -137.5v-627h-342v539q0 84 -29 118.5t-100 34.5q-42 0 -75.5 -18.5t-78.5 -67.5v-606h-342v535 q0 87 -30 125q-27 33 -84 33q-7 0 -15 -1q-43 -3 -75.5 -21t-77.5 -65v-606h-342v580q0 164 -10.5 219t-51.5 112z" />
<glyph unicode="n" horiz-adv-x="1116" d="M10 911l291 72q43 -31 64.5 -69t27.5 -97q60 80 146 123t186 43q155 0 241.5 -95t86.5 -265v-623h-342v522q0 90 -32.5 131t-103.5 41q-82 0 -161 -88v-606h-342v580q0 164 -10.5 219t-51.5 112z" />
<glyph unicode="o" horiz-adv-x="1138" d="M33 461q0 223 143.5 366.5t378.5 155.5q18 1 36 1q127 0 235 -50q122 -58 196 -168.5t82 -253.5q1 -18 1 -35q1 -207 -141 -351q-154 -156 -393 -157q-264 0 -411 156q-60 64 -93.5 153t-33.5 183zM375 492q0 -109 60 -185t147 -76q86 0 132 61t46 175q0 103 -60 175.5 t-145 72.5q-78 0 -129 -62.5t-51 -160.5z" />
<glyph unicode="p" horiz-adv-x="1116" d="M10 911l291 72q61 -43 80 -102q128 98 268 98q199 0 316.5 -138.5t117.5 -373.5q0 -110 -48.5 -216.5t-127.5 -170.5q-61 -49 -143.5 -77t-165.5 -28q-92 0 -184 25v-459h-342v1039q0 164 -10.5 219t-51.5 112zM414 264q37 -20 61 -25.5t66 -5.5q90 0 144 62.5t54 165.5 q0 101 -57.5 164t-149.5 63q-48 0 -118 -22v-402z" />
<glyph unicode="q" horiz-adv-x="1105" d="M33 477q11 227 167 366.5t402 139.5q112 0 196.5 -15t243.5 -61v-1366h-342v484q-91 -48 -186 -48q-224 0 -358 139q-124 129 -124 328q0 16 1 33zM375 500q0 -103 52.5 -168.5t141.5 -71.5q7 -1 15 -1q54 0 116 32v403q-57 26 -109 26q-9 0 -18 -1q-88 -6 -143 -67 t-55 -152z" />
<glyph unicode="r" horiz-adv-x="831" d="M8 911l291 72q51 -35 72.5 -83t25.5 -140q46 104 116.5 163.5t148.5 59.5q46 0 78 -8.5t87 -36.5l-73 -315q-85 30 -123 32h-12q-54 0 -100 -32q-51 -36 -107 -121v-502h-342v580q0 164 -10.5 219t-51.5 112z" />
<glyph unicode="s" horiz-adv-x="821" d="M0 86l84 223q136 -98 246 -104h10q37 1 65 19q32 22 33 55q2 32 -19.5 53t-82.5 47q-129 56 -174 90q-105 73 -105 225q0 120 107.5 205.5t259.5 85.5q101 0 175 -17.5t192 -70.5l-64 -227q-97 49 -130 60t-89 11q-36 0 -63.5 -19t-28.5 -46q-2 -27 19 -46.5t79 -43.5 q118 -53 148.5 -69.5t60.5 -43.5q40 -32 62 -82t22 -106q0 -173 -154 -256q-50 -28 -118.5 -45t-131.5 -17q-115 0 -203.5 26.5t-199.5 92.5z" />
<glyph unicode="t" horiz-adv-x="845" d="M0 705v210q157 13 235.5 85.5t116.5 238.5h168l-6 -291h279v-243h-279v-281q0 -100 29.5 -138t107.5 -38q58 0 164 33l53 -218q-160 -88 -358 -88q-104 0 -180.5 38.5t-110.5 107.5q-22 44 -29.5 90.5t-7.5 136.5v357h-182z" />
<glyph unicode="u" horiz-adv-x="1142" d="M66 375v573h342v-522q0 -86 34 -128q31 -39 90 -38h9q40 1 71 18t74 60v610h342v-581q0 -62 3.5 -94t17.5 -52.5t35 -25.5t63 -5l-41 -198q-103 -22 -164 -22q-10 0 -18 1q-84 4 -130 39t-77 115q-131 -157 -314 -157q-13 0 -26 1q-89 4 -162 45.5t-109 104.5 q-23 40 -31.5 97.5t-8.5 158.5z" />
<glyph unicode="v" horiz-adv-x="1079" d="M0 920l342 49l203 -535l211 535l323 -51l-397 -918h-295z" />
<glyph unicode="w" horiz-adv-x="1615" d="M0 920l330 49l241 -596l113 289l-104 258l299 49l208 -549l220 549l309 -49l-383 -920h-281l-147 371l-146 -371h-284z" />
<glyph unicode="x" horiz-adv-x="1073" d="M0 31l334 450l-318 437l361 51l174 -260l176 260l326 -51l-318 -426l340 -461l-368 -47l-191 272l-197 -276z" />
<glyph unicode="y" horiz-adv-x="1083" d="M0 920l346 49l199 -531l200 531l338 -49l-485 -1092q-77 -169 -200 -242q-89 -51 -197 -51q-43 0 -90 8q-42 6 -91 21l52 235q9 -2 51 -8q11 -1 21 -1q114 0 184 155l49 108z" />
<glyph unicode="z" horiz-adv-x="937" d="M4 123l432 582h-387v243h811l43 -119l-424 -579h457l-45 -250h-850z" />
<glyph unicode="{" horiz-adv-x="1499" d="M33 666q0 222 114 401q60 -51 144 -51q92 0 149.5 56.5t57.5 146.5q0 58 -29 108q145 53 274 53q157 0 289 -51q-31 -50 -31 -110q0 -89 58 -146t149 -57q89 0 146 51q53 -87 82.5 -187.5t29.5 -195.5q0 -159 -52.5 -293.5t-146.5 -228.5t-229 -146.5t-295 -52.5 q-203 0 -365.5 90t-253.5 251t-91 362zM109 1223q0 78 51.5 129t130.5 51q78 0 129 -51t51 -129q0 -82 -50 -132.5t-130 -50.5q-79 0 -130.5 51.5t-51.5 131.5zM426 686q0 -80 31 -163.5t80 -137.5q85 -94 213 -100q149 -9 236 91t87 279q0 175 -98 291.5t-246 116.5 q-139 0 -221 -102t-82 -275zM1024 1223q0 78 51.5 129t130.5 51q78 0 129 -51t51 -129q0 -82 -50 -132.5t-130 -50.5q-79 0 -130.5 51.5t-51.5 131.5z" />
<glyph unicode="}" horiz-adv-x="1363" d="M66 557v786h213q-41 -56 -41 -124q0 -86 52 -141.5t140 -61.5v-459q0 -92 17 -145t57 -88q69 -60 190 -60q67 0 120.5 26.5t82.5 74.5q35 59 35 192v459q86 4 139 60.5t53 142.5q0 71 -41 124h213v-804q0 -162 -37.5 -265.5t-121.5 -173.5q-73 -63 -199 -100t-264 -37 q-191 0 -328 56.5t-205 162.5q-75 124 -75 375zM262 1223q0 78 51.5 129t130.5 51q78 0 129.5 -51t51.5 -129q0 -81 -50.5 -132t-130.5 -51q-79 0 -130.5 51.5t-51.5 131.5zM733 1223q0 78 51.5 129t130.5 51q78 0 129.5 -51t51.5 -129q0 -81 -50.5 -132t-130.5 -51 q-79 0 -130.5 51.5t-51.5 131.5z" />
<glyph unicode="~" horiz-adv-x="1415" d="M-25 0l486 1130q37 -53 102.5 -83.5t143.5 -30.5q82 0 148 32.5t101 90.5l484 -1139h-387l-117 295h-496l-121 -295h-344zM451 1245q0 89 73 148t183 59t183 -59t73 -148t-73 -148t-183 -59q-109 0 -182.5 59t-73.5 148zM524 516h330l-160 418zM604 1245q0 -40 28.5 -65 t74.5 -25q44 0 72 25t28 65t-28 65t-72 25q-46 0 -74.5 -25t-28.5 -65z" />
<glyph unicode="&#xa1;" horiz-adv-x="495" d="M29 1174q0 85 53.5 138.5t136.5 53.5q86 0 139.5 -53.5t53.5 -138.5t-53.5 -138t-139.5 -53q-85 0 -137.5 53t-52.5 138zM37 0l67 907h238l74 -907h-379z" />
<glyph unicode="&#xa2;" horiz-adv-x="886" d="M33 653q0 173 111 312t280 176v198h221v-188q128 -17 238 -90l-115 -250q-75 47 -141 55q-100 11 -169 -47.5t-69 -154.5q0 -103 68.5 -166.5t173.5 -57.5q39 1 71 11.5t80 37.5l105 -233q-115 -83 -242 -104v-207h-221v205q-177 29 -284 166.5t-107 336.5z" />
<glyph unicode="&#xa3;" horiz-adv-x="1083" d="M14 0v184q86 20 128 64t73 147l37 121h-201v217h264l39 137q66 235 198 340t359 105q14 0 88 -4l54 -269q-71 12 -117 7q-111 -9 -163 -60.5t-87 -187.5l-18 -68h260v-217h-322l-37 -117q-20 -64 -28.5 -83t-30.5 -46h563l-37 -270h-1022z" />
<glyph unicode="&#xa4;" horiz-adv-x="1204" d="M92 332l76 76q11 11 80 67q-51 94 -51 197q0 102 51 196q-8 6 -80 68l-76 76l172 172l76 -76q49 -52 70 -78q95 49 194 49q98 0 193 -49q34 41 71 78l74 76l172 -172l-76 -76q-25 -25 -80 -68q52 -96 52 -196q0 -101 -52 -197q68 -53 80 -67l76 -76l-172 -170l-74 74 q-42 42 -71 79q-94 -51 -193 -51q-98 0 -194 51q-19 -24 -70 -79l-76 -74zM410 672q0 -82 56 -138.5t138 -56.5q80 0 136.5 57t56.5 138t-56.5 137.5t-136.5 56.5q-82 0 -138 -56t-56 -138z" />
<glyph unicode="&#xa7;" horiz-adv-x="1079" d="M33 555q0 225 237 338q-52 64 -70 109.5t-18 111.5q0 130 118.5 226t279.5 96q109 0 185 -16.5t171 -59.5l-55 -248q-108 39 -170 39q-50 0 -84.5 -28.5t-34.5 -69.5q0 -26 12 -47.5t43 -49.5q37 -37 68 -61l45 -33l43 -35l45 -32q99 -76 145 -150t51 -164 q9 -229 -247 -370q53 -57 74.5 -101t25.5 -104q10 -151 -112.5 -257t-307.5 -106q-94 0 -169.5 16.5t-170.5 57.5l51 242q112 -43 181 -43q60 0 96.5 29.5t36.5 78.5q0 39 -28 72.5t-114 97.5q-107 79 -158 122.5t-83 82.5q-46 56 -66 114.5t-20 141.5zM369 567 q0 -52 25.5 -102.5t70.5 -87.5l143 -117q97 82 97 199q0 81 -117 180l-129 106q-90 -90 -90 -178z" />
<glyph unicode="&#xa8;" horiz-adv-x="0" d="M-397 1192q0 72 47 119t119 47q71 0 117 -47t46 -119q0 -71 -46.5 -117.5t-116.5 -46.5q-72 0 -119 46.5t-47 117.5zM63 1192q0 72 46.5 119t117.5 47q72 0 119 -47t47 -119q0 -71 -47 -117.5t-119 -46.5q-71 0 -117.5 47t-46.5 117z" />
<glyph unicode="&#xab;" horiz-adv-x="923" d="M23 477l356 467l131 -162l-219 -297l219 -297l-131 -178zM403 477l357 467l129 -162l-219 -297l219 -297l-129 -178z" />
<glyph unicode="&#xad;" horiz-adv-x="602" d="M37 367v270h526v-270h-526z" />
<glyph unicode="&#xaf;" horiz-adv-x="0" d="M-295 1106v172h592v-172h-592z" />
<glyph unicode="&#xb4;" horiz-adv-x="0" d="M-186 1104l333 248l246 -92l-401 -230z" />
<glyph unicode="&#xb6;" horiz-adv-x="1073" d="M84 1020q0 91 47.5 167t130.5 116q49 23 102.5 31.5t143.5 8.5h528v-49h-248v-1697h-47v1697h-196v-1697h-47v1105q-93 -1 -147 9t-105 37q-75 43 -118.5 115.5t-43.5 156.5z" />
<glyph unicode="&#xb8;" horiz-adv-x="0" d="M-186 -430q110 168 153 346l217 -14q-49 -206 -188 -381z" />
<glyph unicode="&#xbb;" horiz-adv-x="923" d="M33 172l219 297l-219 297l129 178l358 -467l-358 -467zM414 172l219 297l-219 297l129 178l356 -467l-356 -467z" />
<glyph unicode="&#xbf;" horiz-adv-x="897" d="M33 362q0 85 33 154.5t118 161.5q103 114 125.5 147t34.5 86h266q-5 -80 -39 -139q-14 -27 -104 -141q-85 -110 -74 -195q7 -66 60 -105.5t125 -33.5q53 5 94.5 21.5t105.5 58.5l86 -242q-99 -86 -192.5 -120.5t-220.5 -34.5q-171 0 -294.5 113t-123.5 269zM293 1178 q0 83 53.5 136.5t136.5 53.5t137 -53.5t54 -136.5q0 -85 -53 -138t-138 -53t-137.5 53t-52.5 138z" />
<glyph unicode="&#xc0;" horiz-adv-x="1415" d="M-25 0l578 1343h317l570 -1343h-387l-117 295h-496l-121 -295h-344zM342 1599l244 93l336 -248l-179 -72zM524 516h330l-160 418z" />
<glyph unicode="&#xc1;" horiz-adv-x="1415" d="M-25 0l578 1343h317l570 -1343h-387l-117 295h-496l-121 -295h-344zM524 516h330l-160 418zM524 1444l334 248l246 -93l-402 -227z" />
<glyph unicode="&#xc2;" horiz-adv-x="1415" d="M-25 0l578 1343h317l570 -1343h-387l-117 295h-496l-121 -295h-344zM375 1384l264 316h168l264 -316l-215 -18l-141 170l-142 -166zM524 516h330l-160 418z" />
<glyph unicode="&#xc3;" horiz-adv-x="1415" d="M-25 0l578 1343h317l570 -1343h-387l-117 295h-496l-121 -295h-344zM356 1528q70 119 205 125q66 3 158 -31q62 -22 86.5 -28.5t52.5 -6.5q36 0 61.5 13t59.5 49l86 -119q-51 -57 -96 -84t-97 -31q-49 -3 -98 12l-26 9l-27 10l-27 8q-89 30 -139 27q-64 -6 -115 -68z M524 516h330l-160 418z" />
<glyph unicode="&#xc4;" horiz-adv-x="1415" d="M-25 0l578 1343h317l570 -1343h-387l-117 295h-496l-121 -295h-344zM313 1534q0 72 47 119t119 47q71 0 117.5 -47t46.5 -119q0 -70 -46.5 -117t-117.5 -47q-72 0 -119 46.5t-47 117.5zM524 516h330l-160 418zM774 1534q0 72 46.5 119t117.5 47q72 0 119 -47t47 -119 q0 -71 -47 -117.5t-119 -46.5q-70 0 -117 47t-47 117z" />
<glyph unicode="&#xc5;" horiz-adv-x="1415" d="M-25 0l578 1343h25q-115 60 -115 170q0 86 71.5 143.5t178.5 57.5t178.5 -57.5t71.5 -143.5q0 -109 -113 -170h20l570 -1343h-387l-117 295h-496l-121 -295h-344zM524 516h330l-160 418zM610 1516q0 -40 28.5 -65.5t72.5 -25.5t72 25.5t28 65.5q0 38 -28 63t-72 25 t-72.5 -25t-28.5 -63z" />
<glyph unicode="&#xc6;" horiz-adv-x="1914" d="M-25 0l783 1343h1063v-276h-500v-242h446v-262h-446v-280h586l-33 -283h-903v334h-424l-193 -334h-379zM664 571h307v541z" />
<glyph unicode="&#xc7;" horiz-adv-x="1208" d="M33 684q0 145 54.5 274t148.5 221.5t225 146.5t278 54q137 0 247 -33t220 -108l-186 -283q-69 47 -128.5 67.5t-131.5 20.5q-148 0 -243 -102.5t-95 -263.5q0 -160 101 -269.5t249 -109.5q85 0 151.5 21.5t133.5 72.5l153 -280q-231 -162 -505 -150q-198 9 -351 102 t-237 254t-84 365zM418 -430q106 157 155 346l215 -14q-46 -205 -188 -381z" />
<glyph unicode="&#xc8;" d="M66 0v1343h854v-276h-500v-242h448v-262h-448v-280h588l-33 -283h-909zM137 1599l244 93l334 -248l-178 -72z" />
<glyph unicode="&#xc9;" d="M66 0v1343h854v-276h-500v-242h448v-262h-448v-280h588l-33 -283h-909zM317 1444l336 248l244 -93l-401 -227z" />
<glyph unicode="&#xca;" d="M66 0v1343h854v-276h-500v-242h448v-262h-448v-280h588l-33 -283h-909zM168 1384l266 316h166l264 -316l-213 -18l-141 170l-141 -166z" />
<glyph unicode="&#xcb;" d="M66 0v1343h854v-276h-500v-242h448v-262h-448v-280h588l-33 -283h-909zM109 1534q0 72 46.5 119t118.5 47q71 0 117.5 -47t46.5 -119q0 -70 -47 -117t-117 -47q-72 0 -118.5 46.5t-46.5 117.5zM569 1534q0 72 46.5 119t117.5 47q72 0 119 -47t47 -119q0 -71 -47 -117.5 t-119 -46.5q-71 0 -117.5 47t-46.5 117z" />
<glyph unicode="&#xcc;" horiz-adv-x="495" d="M-121 1599l244 93l336 -248l-178 -72zM66 0v1343h364v-1343h-364z" />
<glyph unicode="&#xcd;" horiz-adv-x="495" d="M61 1444l334 248l246 -93l-401 -227zM66 0v1343h364v-1343h-364z" />
<glyph unicode="&#xce;" horiz-adv-x="495" d="M-88 1384l264 316h168l264 -316l-215 -18l-141 170l-141 -166zM66 0v1343h364v-1343h-364z" />
<glyph unicode="&#xcf;" horiz-adv-x="495" d="M-150 1534q0 72 47 119t119 47q71 0 117.5 -47t46.5 -119q0 -70 -47 -117t-117 -47q-72 0 -119 46.5t-47 117.5zM66 0v1343h364v-1343h-364zM311 1534q0 72 46.5 119t117.5 47q72 0 119 -47t47 -119q0 -71 -47 -117.5t-119 -46.5q-71 0 -117.5 47t-46.5 117z" />
<glyph unicode="&#xd1;" horiz-adv-x="1396" d="M66 0v1315l235 53l696 -764l-6 739h342v-1314l-233 -52l-699 758l7 -735h-342zM344 1528q70 119 205 125q66 3 156 -31q61 -22 86.5 -28.5t54.5 -6.5q35 0 60 13t61 49l84 -119q-49 -57 -94.5 -83.5t-98.5 -31.5q-49 -3 -96 12l-27 9l-26 10l-27 8q-89 30 -139 27 q-63 -6 -117 -68z" />
<glyph unicode="&#xd2;" horiz-adv-x="1499" d="M33 666q0 201 92 364.5t255 256.5t363 93h25l-387 219l244 93l336 -248l-162 -66q165 -12 282 -69q175 -85 280 -255.5t105 -369.5q0 -159 -52.5 -293.5t-146.5 -228.5t-229 -146.5t-295 -52.5q-203 0 -365.5 90t-253.5 251t-91 362zM426 686q0 -80 31 -163.5t80 -137.5 q85 -94 213 -100q149 -9 236 91t87 279q0 175 -98 291.5t-246 116.5q-139 0 -221 -102t-82 -275z" />
<glyph unicode="&#xd3;" horiz-adv-x="1499" d="M33 666q0 197 88 357.5t245 254.5t355 102l-158 66l334 246l246 -90l-387 -222q186 -3 325 -71q175 -85 280 -254.5t105 -370.5q0 -159 -52.5 -293.5t-146.5 -228.5t-229 -146.5t-295 -52.5q-203 0 -365.5 90t-253.5 251t-91 362zM426 688q0 -82 30.5 -165.5t80.5 -137.5 q85 -94 213 -100q149 -9 236 91t87 279q0 177 -98 293.5t-246 116.5q-139 0 -221 -102t-82 -275z" />
<glyph unicode="&#xd4;" horiz-adv-x="1499" d="M33 666q0 150 54.5 282.5t149 227t226 149.5t280.5 55q330 0 537 -219q88 -94 137 -219.5t49 -257.5q0 -159 -52.5 -293.5t-146.5 -228.5t-229 -146.5t-295 -52.5q-203 0 -365.5 90t-253.5 251t-91 362zM414 1384l264 316h168l264 -316l-215 -18l-141 170l-142 -166z M426 686q0 -80 31 -163.5t80 -137.5q85 -94 213 -100q149 -9 236 91t87 279q0 175 -98 291.5t-246 116.5q-139 0 -221 -102t-82 -275z" />
<glyph unicode="&#xd5;" horiz-adv-x="1499" d="M33 666q0 150 54.5 282.5t149 227t226 149.5t280.5 55q330 0 537 -219q88 -94 137 -219.5t49 -257.5q0 -159 -52.5 -293.5t-146.5 -228.5t-229 -146.5t-295 -52.5q-203 0 -365.5 90t-253.5 251t-91 362zM395 1528q70 119 205 125q66 3 158 -31q62 -22 86.5 -28.5 t52.5 -6.5q36 0 61.5 13t59.5 49l86 -119q-51 -57 -96 -84t-97 -31q-49 -3 -98 12l-27 9l-26 10l-27 8q-89 30 -139 27q-64 -6 -115 -68zM426 686q0 -80 31 -163.5t80 -137.5q85 -94 213 -100q149 -9 236 91t87 279q0 175 -98 291.5t-246 116.5q-139 0 -221 -102t-82 -275z " />
<glyph unicode="&#xd6;" horiz-adv-x="1499" d="M33 666q0 150 54.5 282.5t149 227t226 149.5t280.5 55q330 0 537 -219q88 -94 137 -219.5t49 -257.5q0 -159 -52.5 -293.5t-146.5 -228.5t-229 -146.5t-295 -52.5q-203 0 -365.5 90t-253.5 251t-91 362zM352 1534q0 72 47 119t119 47q71 0 117.5 -47t46.5 -119 q0 -70 -47 -117t-117 -47q-72 0 -119 46.5t-47 117.5zM426 686q0 -80 31 -163.5t80 -137.5q85 -94 213 -100q149 -9 236 91t87 279q0 175 -98 291.5t-246 116.5q-139 0 -221 -102t-82 -275zM813 1534q0 72 46.5 119t117.5 47q72 0 119 -47t47 -119q0 -71 -47 -117.5 t-119 -46.5q-71 0 -117.5 47t-46.5 117z" />
<glyph unicode="&#xd7;" horiz-adv-x="1204" d="M131 373l299 299l-299 301l172 170l299 -299l301 299l170 -170l-299 -301l299 -299l-170 -172l-301 299l-299 -299z" />
<glyph unicode="&#xd8;" horiz-adv-x="1499" d="M33 666q0 151 54.5 283.5t149 227t226 149t280.5 54.5q194 0 371 -88l80 101l225 -35l-147 -187q91 -95 142.5 -225t51.5 -262q0 -159 -52.5 -293.5t-146.5 -228.5t-229 -146.5t-295 -52.5q-190 0 -360 86l-78 -98l-225 35l145 184q-92 95 -142 224t-50 272zM426 688 q0 -105 51 -217l428 541q-80 51 -176 51q-140 0 -221.5 -101t-81.5 -274zM596 336q69 -45 154 -51q148 -10 235.5 90.5t87.5 279.5q0 106 -51 217z" />
<glyph unicode="&#xd9;" horiz-adv-x="1363" d="M66 557v786h364v-786q0 -92 17 -145t57 -88q69 -60 190 -60q67 0 120.5 26.5t82.5 74.5q35 59 35 192v786h364v-804q0 -162 -37.5 -265.5t-121.5 -173.5q-73 -63 -199 -100t-264 -37q-191 0 -328 56.5t-205 162.5q-75 124 -75 375zM313 1599l244 93l336 -248l-178 -72z " />
<glyph unicode="&#xda;" horiz-adv-x="1363" d="M66 557v786h364v-786q0 -92 17 -145t57 -88q69 -60 190 -60q67 0 120.5 26.5t82.5 74.5q35 59 35 192v786h364v-804q0 -162 -37.5 -265.5t-121.5 -173.5q-73 -63 -199 -100t-264 -37q-191 0 -328 56.5t-205 162.5q-75 124 -75 375zM496 1444l333 248l244 -93l-399 -227z " />
<glyph unicode="&#xdb;" horiz-adv-x="1363" d="M66 557v786h364v-786q0 -92 17 -145t57 -88q69 -60 190 -60q67 0 120.5 26.5t82.5 74.5q35 59 35 192v786h364v-804q0 -162 -37.5 -265.5t-121.5 -173.5q-73 -63 -199 -100t-264 -37q-191 0 -328 56.5t-205 162.5q-75 124 -75 375zM346 1384l264 316h166l266 -316 l-215 -18l-141 170l-141 -166z" />
<glyph unicode="&#xdc;" horiz-adv-x="1363" d="M66 557v786h364v-786q0 -92 17 -145t57 -88q69 -60 190 -60q67 0 120.5 26.5t82.5 74.5q35 59 35 192v786h364v-804q0 -162 -37.5 -265.5t-121.5 -173.5q-73 -63 -199 -100t-264 -37q-191 0 -328 56.5t-205 162.5q-75 124 -75 375zM285 1534q0 72 47 119t119 47 q71 0 117 -47t46 -119q0 -71 -46.5 -117.5t-116.5 -46.5q-72 0 -119 46.5t-47 117.5zM745 1534q0 72 46.5 119t117.5 47q72 0 119 -47t47 -119q0 -71 -47 -117.5t-119 -46.5q-71 0 -117.5 47t-46.5 117z" />
<glyph unicode="&#xdd;" horiz-adv-x="1325" d="M0 1315l375 55l305 -473l311 473l334 -55l-489 -731v-584h-365v584zM477 1444l334 248l244 -93l-402 -227z" />
<glyph unicode="&#xdf;" horiz-adv-x="1163" d="M66 0v844q0 122 27.5 208t88.5 156q63 72 168.5 118t208.5 46q123 0 206.5 -26t149.5 -84q101 -87 101 -201q0 -51 -21.5 -98.5t-72.5 -114.5q-46 -57 -57 -74.5t-11 -32.5q0 -21 17 -40.5t61 -49.5q115 -76 163 -152.5t48 -181.5q0 -69 -33.5 -138.5t-87.5 -112.5 q-113 -91 -287 -91q-69 0 -142.5 22.5t-127.5 59.5l63 219q80 -51 156 -51q51 0 84.5 28.5t36.5 74.5q3 53 -45 96q-20 16 -51 39q-12 8 -34 23.5t-34 23.5q-79 56 -105.5 93t-23.5 89q1 35 16 64.5t52 72.5q54 62 69 84q39 52 39 111q0 49 -38 82.5t-91 30.5 q-50 -3 -86 -33t-51 -82q-12 -44 -12 -148v-874h-344z" />
<glyph unicode="&#xe0;" horiz-adv-x="1026" d="M18 256q0 132 88 212.5t259 106.5q56 10 208 19q-3 82 -50.5 117t-145.5 28q-140 -12 -291 -88v230q198 100 406 100q233 0 344 -123q71 -83 71 -266v-225q0 -62 3.5 -94t17.5 -52.5t35 -25.5t63 -5l-41 -198q-112 -26 -182 -21q-75 5 -121.5 34t-71.5 87 q-92 -71 -158.5 -97t-154.5 -26q-123 0 -201 80.5t-78 206.5zM145 1260l244 92l336 -248l-178 -74zM328 291q-4 -51 29.5 -84.5t84.5 -28.5q33 3 60.5 14t72.5 39v211q-131 -19 -187 -53t-60 -98z" />
<glyph unicode="&#xe1;" horiz-adv-x="1026" d="M18 256q0 132 88 212.5t259 106.5q56 10 208 19q-3 82 -50.5 117t-145.5 28q-140 -12 -291 -88v230q198 100 406 100q233 0 344 -123q71 -83 71 -266v-225q0 -62 3.5 -94t17.5 -52.5t35 -25.5t63 -5l-41 -198q-112 -26 -182 -21q-75 5 -121.5 34t-71.5 87 q-92 -71 -158.5 -97t-154.5 -26q-123 0 -201 80.5t-78 206.5zM328 291q-4 -51 29.5 -84.5t84.5 -28.5q33 3 60.5 14t72.5 39v211q-131 -19 -187 -53t-60 -98zM328 1104l334 248l245 -92l-401 -230z" />
<glyph unicode="&#xe2;" horiz-adv-x="1026" d="M18 256q0 132 88 212.5t259 106.5q56 10 208 19q-3 82 -50.5 117t-145.5 28q-140 -12 -291 -88v230q198 100 406 100q233 0 344 -123q71 -83 71 -266v-225q0 -62 3.5 -94t17.5 -52.5t35 -25.5t63 -5l-41 -198q-112 -26 -182 -21q-75 5 -121.5 34t-71.5 87 q-92 -71 -158.5 -97t-154.5 -26q-123 0 -201 80.5t-78 206.5zM178 1044l264 316h168l264 -316l-215 -18l-141 168l-141 -166zM328 291q-4 -51 29.5 -84.5t84.5 -28.5q33 3 60.5 14t72.5 39v211q-131 -19 -187 -53t-60 -98z" />
<glyph unicode="&#xe3;" horiz-adv-x="1026" d="M18 256q0 132 88 212.5t259 106.5q56 10 208 19q-3 82 -50.5 117t-145.5 28q-140 -12 -291 -88v230q198 100 406 100q233 0 344 -123q71 -83 71 -266v-225q0 -62 3.5 -94t17.5 -52.5t35 -25.5t63 -5l-41 -198q-112 -26 -182 -21q-75 5 -121.5 34t-71.5 87 q-92 -71 -158.5 -97t-154.5 -26q-123 0 -201 80.5t-78 206.5zM160 1186q70 119 205 125q65 3 157 -31q62 -22 86.5 -28.5t53.5 -6.5q36 0 61 13.5t59 50.5l86 -121q-51 -57 -95.5 -84t-96.5 -31q-49 -3 -98 12l-27 9l-27 10l-26 8q-86 30 -140 27q-63 -6 -114 -68zM328 291 q-4 -51 29.5 -84.5t84.5 -28.5q33 3 60.5 14t72.5 39v211q-131 -19 -187 -53t-60 -98z" />
<glyph unicode="&#xe4;" horiz-adv-x="1026" d="M18 256q0 132 88 212.5t259 106.5q56 10 208 19q-3 82 -50.5 117t-145.5 28q-140 -12 -291 -88v230q198 100 406 100q233 0 344 -123q71 -83 71 -266v-225q0 -62 3.5 -94t17.5 -52.5t35 -25.5t63 -5l-41 -198q-112 -26 -182 -21q-75 5 -121.5 34t-71.5 87 q-92 -71 -158.5 -97t-154.5 -26q-123 0 -201 80.5t-78 206.5zM117 1192q0 72 47 119t119 47q71 0 117 -47t46 -119q0 -71 -46.5 -117.5t-116.5 -46.5q-72 0 -119 46.5t-47 117.5zM328 291q-4 -51 29.5 -84.5t84.5 -28.5q33 3 60.5 14t72.5 39v211q-131 -19 -187 -53t-60 -98 zM578 1192q0 72 46 119t117 47q72 0 119 -47t47 -119q0 -71 -47 -117.5t-119 -46.5q-70 0 -116.5 46.5t-46.5 117.5z" />
<glyph unicode="&#xe5;" horiz-adv-x="1026" d="M18 256q0 132 88 212.5t259 106.5q56 10 208 19q-3 80 -50.5 115t-145.5 28q-135 -11 -291 -86v228q173 89 373 100q-93 19 -143 69.5t-50 125.5q0 86 71.5 143t178.5 57t178.5 -57t71.5 -143q0 -77 -52.5 -128.5t-148.5 -68.5q182 -22 262 -112.5t80 -274.5v-223 q0 -62 3.5 -94t17.5 -52.5t35 -25.5t63 -5l-41 -198q-112 -26 -182 -21q-75 5 -121.5 34t-71.5 87q-92 -71 -158.5 -97t-154.5 -26q-123 0 -201 80.5t-78 206.5zM328 291q-4 -51 29.5 -84.5t84.5 -28.5q33 3 60.5 14t72.5 39v211q-131 -19 -187 -53t-60 -98zM414 1174 q0 -40 28 -65.5t72 -25.5t72 25.5t28 65.5t-28 65t-72 25t-72 -25t-28 -65z" />
<glyph unicode="&#xe6;" horiz-adv-x="1554" d="M18 274q6 118 89 195t237 106q93 18 246 21q0 75 -42.5 111t-131.5 36q-137 0 -322 -90v228q109 52 190.5 74.5t170.5 27.5q219 12 329 -119q148 119 318 119q117 0 214 -49.5t152 -138.5q34 -52 48 -107t16 -133l-102 -131h-515q19 -89 81 -140.5t155 -56.5 q79 -3 151 18t160 74l68 -178q-159 -170 -440 -170q-207 0 -367 156q-93 -83 -185 -120.5t-200 -37.5q-148 0 -238 85.5t-82 219.5zM334 291q0 -52 35 -82t92 -27q43 3 78.5 19.5t87.5 58.5q-23 52 -30 85t-9 95q-111 -15 -164 -37q-40 -15 -65 -46.5t-25 -65.5zM905 596 h352q-10 85 -54 129.5t-116 44.5q-74 0 -123.5 -47.5t-58.5 -126.5z" />
<glyph unicode="&#xe7;" horiz-adv-x="886" d="M33 481q0 133 65.5 246t180.5 181.5t253 74.5q195 9 351 -96l-115 -248q-55 34 -95.5 46.5t-90.5 12.5q-82 0 -137.5 -59t-55.5 -145q0 -99 57 -163.5t144 -64.5q55 0 94.5 10.5t97.5 40.5l105 -233q-153 -115 -361 -115q-220 0 -356.5 141.5t-136.5 370.5zM258 -430 q106 162 154 346l217 -14q-49 -205 -191 -381z" />
<glyph unicode="&#xe8;" d="M33 481q0 138 67.5 254t184.5 183t256 67q198 0 319 -117t123 -309l-98 -135h-514q9 -82 78.5 -139.5t158.5 -57.5q87 0 154 21t153 74l72 -187q-168 -168 -450 -168q-223 0 -363.5 143.5t-140.5 370.5zM135 1260l244 92l336 -248l-178 -74zM360 596h351q-5 80 -51 126 t-121 46q-72 0 -120.5 -46.5t-58.5 -125.5z" />
<glyph unicode="&#xe9;" d="M33 481q0 138 67.5 254t184.5 183t256 67q198 0 319 -117t123 -309l-98 -135h-514q9 -82 78.5 -139.5t158.5 -57.5q87 0 154 21t153 74l72 -187q-168 -168 -450 -168q-223 0 -363.5 143.5t-140.5 370.5zM317 1104l334 248l246 -92l-401 -230zM360 596h351q-5 80 -51 126 t-121 46q-72 0 -120.5 -46.5t-58.5 -125.5z" />
<glyph unicode="&#xea;" d="M33 481q0 138 67.5 254t184.5 183t256 67q198 0 319 -117t123 -309l-98 -135h-514q9 -82 78.5 -139.5t158.5 -57.5q87 0 154 21t153 74l72 -187q-168 -168 -450 -168q-223 0 -363.5 143.5t-140.5 370.5zM168 1044l264 316h168l264 -316l-215 -18l-141 168l-141 -166z M360 596h351q-5 80 -51 126t-121 46q-72 0 -120.5 -46.5t-58.5 -125.5z" />
<glyph unicode="&#xeb;" d="M33 481q0 138 67.5 254t184.5 183t256 67q198 0 319 -117t123 -309l-98 -135h-514q9 -82 78.5 -139.5t158.5 -57.5q87 0 154 21t153 74l72 -187q-168 -168 -450 -168q-223 0 -363.5 143.5t-140.5 370.5zM109 1192q0 72 46.5 119t118.5 47q71 0 117.5 -47t46.5 -119 q0 -70 -47 -117t-117 -47q-72 0 -118.5 46.5t-46.5 117.5zM360 596h351q-5 80 -51 126t-121 46q-72 0 -120.5 -46.5t-58.5 -125.5zM569 1192q0 72 46.5 119t117.5 47q72 0 119 -47t47 -119q0 -71 -47 -117.5t-119 -46.5q-71 0 -117.5 47t-46.5 117z" />
<glyph unicode="&#xec;" horiz-adv-x="471" d="M-133 1260l244 92l335 -248l-178 -74zM66 0v948h342v-948h-342z" />
<glyph unicode="&#xed;" horiz-adv-x="471" d="M49 1104l334 248l246 -92l-402 -230zM66 0v948h342v-948h-342z" />
<glyph unicode="&#xee;" horiz-adv-x="471" d="M-100 1044l264 316h168l264 -316l-215 -18l-141 168l-142 -166zM66 0v948h342v-948h-342z" />
<glyph unicode="&#xef;" horiz-adv-x="471" d="M-162 1192q0 72 47 119t119 47q71 0 117.5 -47t46.5 -119q0 -70 -47 -117t-117 -47q-72 0 -119 46.5t-47 117.5zM63 0v948h343v-948h-343zM299 1192q0 72 46.5 119t117.5 47q72 0 119 -47t47 -119q0 -71 -47 -117.5t-119 -46.5q-71 0 -117.5 47t-46.5 117z" />
<glyph unicode="&#xf1;" horiz-adv-x="1116" d="M10 911l291 72q43 -31 64.5 -69t27.5 -97q60 80 146 123t186 43q155 0 241.5 -95t86.5 -265v-623h-342v522q0 90 -32.5 131t-103.5 41q-82 0 -161 -88v-606h-342v580q0 164 -10.5 219t-51.5 112zM205 1186q70 119 205 125q65 3 157 -31q62 -22 86.5 -28.5t53.5 -6.5 q36 0 61 13.5t59 50.5l86 -121q-51 -57 -95.5 -84t-96.5 -31q-49 -3 -98 12l-27 9l-27 10l-26 8q-86 30 -140 27q-63 -6 -114 -68z" />
<glyph unicode="&#xf2;" horiz-adv-x="1138" d="M33 461q0 223 143.5 366.5t378.5 155.5q149 8 271.5 -49.5t196 -168t81.5 -253.5q13 -230 -140.5 -386.5t-392.5 -156.5q-264 0 -411 156q-60 64 -93.5 153t-33.5 183zM201 1260l243 92l336 -248l-178 -74zM375 492q0 -109 60 -185t147 -76q86 0 132 61t46 175 q0 103 -60 175.5t-145 72.5q-78 0 -129 -62.5t-51 -160.5z" />
<glyph unicode="&#xf3;" horiz-adv-x="1138" d="M33 461q0 223 143.5 366.5t378.5 155.5q149 8 271.5 -49.5t196 -168t81.5 -253.5q13 -230 -140.5 -386.5t-392.5 -156.5q-264 0 -411 156q-60 64 -93.5 153t-33.5 183zM375 492q0 -109 60 -185t147 -76q86 0 132 61t46 175q0 103 -60 175.5t-145 72.5q-78 0 -129 -62.5 t-51 -160.5zM383 1104l334 248l246 -92l-402 -230z" />
<glyph unicode="&#xf4;" horiz-adv-x="1138" d="M33 461q0 223 143.5 366.5t378.5 155.5q149 8 271.5 -49.5t196 -168t81.5 -253.5q13 -230 -140.5 -386.5t-392.5 -156.5q-264 0 -411 156q-60 64 -93.5 153t-33.5 183zM233 1044l265 316h168l264 -316l-215 -18l-142 168l-141 -166zM375 492q0 -109 60 -185t147 -76 q86 0 132 61t46 175q0 103 -60 175.5t-145 72.5q-78 0 -129 -62.5t-51 -160.5z" />
<glyph unicode="&#xf5;" horiz-adv-x="1138" d="M33 461q0 223 143.5 366.5t378.5 155.5q149 8 271.5 -49.5t196 -168t81.5 -253.5q13 -230 -140.5 -386.5t-392.5 -156.5q-264 0 -411 156q-60 64 -93.5 153t-33.5 183zM215 1186q70 119 205 125q66 3 158 -31q62 -22 86.5 -28.5t52.5 -6.5q36 0 61.5 13.5t59.5 50.5 l86 -121q-51 -57 -96 -84t-97 -31q-49 -3 -98 12l-27 9l-26 10l-27 8q-86 30 -139 27q-65 -6 -115 -68zM375 492q0 -109 60 -185t147 -76q86 0 132 61t46 175q0 103 -60 175.5t-145 72.5q-78 0 -129 -62.5t-51 -160.5z" />
<glyph unicode="&#xf6;" horiz-adv-x="1138" d="M33 461q0 223 143.5 366.5t378.5 155.5q149 8 271.5 -49.5t196 -168t81.5 -253.5q13 -230 -140.5 -386.5t-392.5 -156.5q-264 0 -411 156q-60 64 -93.5 153t-33.5 183zM172 1192q0 72 47 119t119 47q71 0 117.5 -47t46.5 -119q0 -70 -47 -117t-117 -47q-72 0 -119 46.5 t-47 117.5zM375 492q0 -109 60 -185t147 -76q86 0 132 61t46 175q0 103 -60 175.5t-145 72.5q-78 0 -129 -62.5t-51 -160.5zM633 1192q0 72 46.5 119t117.5 47q72 0 119 -47t47 -119q0 -71 -47 -117.5t-119 -46.5q-71 0 -117.5 47t-46.5 117z" />
<glyph unicode="&#xf7;" horiz-adv-x="1204" d="M121 557v231h964v-231h-964zM453 289q0 61 43.5 105t105.5 44q63 0 106.5 -43t43.5 -106q0 -61 -44 -105.5t-106 -44.5q-61 0 -105 44t-44 106zM453 1055q0 61 43.5 105t105.5 44t106 -44t44 -105t-44 -105.5t-106 -44.5q-61 0 -105 44t-44 106z" />
<glyph unicode="&#xf8;" horiz-adv-x="1134" d="M33 461q0 221 150 371.5t370 150.5q83 0 138.5 -10.5t125.5 -38.5l74 92l199 -57l-117 -144q117 -132 129 -313q9 -150 -58 -275t-192.5 -196.5t-282.5 -71.5q-141 0 -254 47l-73 -90l-197 58l117 143q-60 64 -94.5 153.5t-34.5 180.5zM373 492q0 -54 16 -103l248 307 q-46 19 -84 19q-78 0 -129 -62.5t-51 -160.5zM494 252q47 -21 86 -21q85 0 135.5 67t44.5 171q-2 38 -17 92z" />
<glyph unicode="&#xf9;" horiz-adv-x="1142" d="M66 375v573h342v-522q0 -86 33.5 -127.5t99.5 -38.5q40 1 71 18t74 60v610h342v-581q0 -62 3.5 -94t17.5 -52.5t35 -25.5t63 -5l-41 -198q-119 -25 -182 -21q-84 4 -130 39t-77 115q-140 -168 -340 -156q-89 4 -162 45.5t-109 104.5q-23 40 -31.5 97.5t-8.5 158.5z M205 1260l244 92l335 -248l-178 -74z" />
<glyph unicode="&#xfa;" horiz-adv-x="1142" d="M66 375v573h342v-522q0 -86 33.5 -127.5t99.5 -38.5q40 1 71 18t74 60v610h342v-581q0 -62 3.5 -94t17.5 -52.5t35 -25.5t63 -5l-41 -198q-119 -25 -182 -21q-84 4 -130 39t-77 115q-140 -168 -340 -156q-89 4 -162 45.5t-109 104.5q-23 40 -31.5 97.5t-8.5 158.5z M385 1104l334 248l246 -92l-402 -230z" />
<glyph unicode="&#xfb;" horiz-adv-x="1142" d="M66 375v573h342v-522q0 -86 33.5 -127.5t99.5 -38.5q40 1 71 18t74 60v610h342v-581q0 -62 3.5 -94t17.5 -52.5t35 -25.5t63 -5l-41 -198q-119 -25 -182 -21q-84 4 -130 39t-77 115q-140 -168 -340 -156q-89 4 -162 45.5t-109 104.5q-23 40 -31.5 97.5t-8.5 158.5z M238 1044l264 316h168l264 -316l-215 -18l-141 168l-142 -166z" />
<glyph unicode="&#xfc;" horiz-adv-x="1142" d="M66 375v573h342v-522q0 -86 33.5 -127.5t99.5 -38.5q40 1 71 18t74 60v610h342v-581q0 -62 3.5 -94t17.5 -52.5t35 -25.5t63 -5l-41 -198q-119 -25 -182 -21q-84 4 -130 39t-77 115q-140 -168 -340 -156q-89 4 -162 45.5t-109 104.5q-23 40 -31.5 97.5t-8.5 158.5z M176 1192q0 72 47 119t119 47q71 0 117.5 -47t46.5 -119q0 -70 -47 -117t-117 -47q-72 0 -119 46.5t-47 117.5zM637 1192q0 72 46.5 119t117.5 47q72 0 119 -47t47 -119q0 -71 -47 -117.5t-119 -46.5q-71 0 -117.5 47t-46.5 117z" />
<glyph unicode="&#xfd;" horiz-adv-x="1083" d="M0 920l346 49l199 -531l200 531l338 -49l-485 -1092q-77 -169 -200.5 -241.5t-286.5 -43.5q-42 6 -91 21l52 235q9 -2 51 -8q129 -15 205 154l49 108zM354 1104l336 248l244 -92l-402 -230z" />
<glyph unicode="&#xff;" horiz-adv-x="1083" d="M0 920l346 49l199 -531l200 531l338 -49l-485 -1092q-77 -169 -200.5 -241.5t-286.5 -43.5q-42 6 -91 21l52 235q9 -2 51 -8q129 -15 205 154l49 108zM145 1192q0 72 47 119t119 47q71 0 117.5 -47t46.5 -119q0 -70 -46.5 -117t-117.5 -47q-72 0 -119 46.5t-47 117.5z M606 1192q0 72 46.5 119t117.5 47q72 0 119 -47t47 -119q0 -71 -47 -117.5t-119 -46.5q-70 0 -117 47t-47 117z" />
<glyph unicode="&#x152;" horiz-adv-x="2011" d="M31 666q0 181 75.5 332t215.5 249q93 67 190.5 96t228.5 29q95 0 196 -38.5t181 -104.5v114h801v-276h-500v-242h447v-262h-447v-280h586l-33 -283h-854v106q-45 -43 -98 -67q-57 -29 -136.5 -48.5t-142.5 -19.5q-180 0 -309 53.5t-229 168.5q-83 95 -127.5 218 t-44.5 255zM424 688q0 -80 31 -163.5t80 -137.5q85 -94 213 -100q148 -9 234.5 90.5t86.5 279.5q0 175 -97.5 291.5t-244.5 116.5q-137 0 -220 -103.5t-83 -273.5z" />
<glyph unicode="&#x153;" horiz-adv-x="1726" d="M33 461q0 255 188 405q68 54 157 85.5t175 31.5q232 0 379 -115q155 117 330 117q198 0 319 -117t123 -309l-105 -133h-507q10 -88 76.5 -143.5t160.5 -55.5q88 0 154.5 20.5t152.5 74.5l72 -187q-171 -168 -451 -168q-87 0 -178.5 32t-156.5 85q-74 -55 -166.5 -85 t-184.5 -30q-241 0 -389.5 136t-148.5 356zM375 492q0 -109 60 -185t147 -76q88 0 134 61t46 177q0 103 -60 174.5t-147 71.5q-78 0 -129 -62.5t-51 -160.5zM1081 596h351q-5 78 -52.5 125t-122.5 47q-72 0 -119.5 -46.5t-56.5 -125.5z" />
<glyph unicode="&#x178;" horiz-adv-x="1325" d="M0 1315l375 55l305 -473l311 473l334 -55l-489 -731v-584h-365v584zM266 1534q0 72 47 119t119 47q71 0 117.5 -47t46.5 -119q0 -70 -47 -117t-117 -47q-72 0 -119 46.5t-47 117.5zM727 1534q0 72 46.5 119t117.5 47q72 0 119 -47t47 -119q0 -71 -47 -117.5t-119 -46.5 q-71 0 -117.5 47t-46.5 117z" />
<glyph unicode="&#x2c6;" horiz-adv-x="0" d="M-336 1044l264 316h168l264 -316l-215 -18l-141 168l-141 -166z" />
<glyph unicode="&#x2dc;" horiz-adv-x="0" d="M-354 1186q70 119 204 125q66 3 158 -31q62 -22 86.5 -28.5t52.5 -6.5q36 0 61.5 13.5t59.5 50.5l86 -121q-51 -57 -95.5 -84t-96.5 -31q-50 -3 -99 12l-26 9l-27 10l-26 8q-86 30 -140 27q-63 -6 -114 -68z" />
<glyph unicode="&#x2000;" horiz-adv-x="857" />
<glyph unicode="&#x2001;" horiz-adv-x="1714" />
<glyph unicode="&#x2002;" horiz-adv-x="857" />
<glyph unicode="&#x2003;" horiz-adv-x="1714" />
<glyph unicode="&#x2004;" horiz-adv-x="571" />
<glyph unicode="&#x2005;" horiz-adv-x="428" />
<glyph unicode="&#x2006;" horiz-adv-x="285" />
<glyph unicode="&#x2007;" horiz-adv-x="285" />
<glyph unicode="&#x2008;" horiz-adv-x="214" />
<glyph unicode="&#x2009;" horiz-adv-x="342" />
<glyph unicode="&#x200a;" horiz-adv-x="95" />
<glyph unicode="&#x2010;" horiz-adv-x="602" d="M37 367v270h526v-270h-526z" />
<glyph unicode="&#x2011;" horiz-adv-x="602" d="M37 367v270h526v-270h-526z" />
<glyph unicode="&#x2012;" horiz-adv-x="602" d="M37 367v270h526v-270h-526z" />
<glyph unicode="&#x2013;" horiz-adv-x="1134" d="M37 375v252h1059v-252h-1059z" />
<glyph unicode="&#x2014;" horiz-adv-x="1134" d="M37 375v252h1059v-252h-1059z" />
<glyph unicode="&#x2018;" horiz-adv-x="507" d="M33 776q20 156 83 314.5t158 291.5l213 -49q-159 -283 -198 -579z" />
<glyph unicode="&#x2019;" horiz-adv-x="507" d="M23 803q159 283 198 579l256 -22q-20 -157 -83 -316t-158 -290z" />
<glyph unicode="&#x201c;" horiz-adv-x="872" d="M33 776q20 157 83 316t158 290l213 -49q-159 -283 -198 -579zM397 776q19 154 82.5 313.5t159.5 292.5l211 -49q-160 -285 -199 -579z" />
<glyph unicode="&#x201d;" horiz-adv-x="872" d="M23 803q159 283 198 579l256 -22q-20 -157 -83 -316t-158 -290zM387 803q160 285 199 579l254 -22q-20 -157 -83.5 -315.5t-158.5 -290.5z" />
<glyph unicode="&#x201e;" horiz-adv-x="770" d="M-82 -240q76 135 128 286t71 292l256 -21q-20 -158 -83 -316t-159 -292zM283 -240q159 283 198 578l254 -21q-20 -159 -82.5 -317.5t-158.5 -290.5z" />
<glyph unicode="&#x202f;" horiz-adv-x="342" />
<glyph unicode="&#x2039;" horiz-adv-x="540" d="M23 477l356 467l131 -162l-219 -297l219 -297l-131 -178z" />
<glyph unicode="&#x203a;" horiz-adv-x="540" d="M33 172l219 297l-219 297l129 178l358 -467l-358 -467z" />
<glyph unicode="&#x205f;" horiz-adv-x="428" />
<glyph unicode="&#x20ac;" horiz-adv-x="1204" d="M57 471l62 143h80v33q0 33 2 49h-135l59 144h94q47 227 198 363t357 136q190 0 365 -137l-150 -274q-38 31 -52 41.5t-45 30.5t-57 27t-55 7q-78 0 -139 -54.5t-96 -139.5h405l-59 -144h-379q-2 -12 -2 -39q0 -7 1 -21.5t1 -21.5h344l-61 -143h-246q38 -86 104 -142.5 t146 -56.5q97 0 219 109l123 -272q-173 -144 -375 -144q-204 0 -354 139.5t-195 366.5h-160z" />
<glyph unicode="&#x25fc;" horiz-adv-x="972" d="M0 0v973h973v-973h-973z" />
</font>
</defs>
</svg>
