<?xml version="1.0" encoding="utf-8"?>
<!-- Generator: Adobe Illustrator 16.0.0, SVG Export Plug-In . SVG Version: 6.00 Build 0)  -->
<!DOCTYPE svg PUBLIC "-//W3C//DTD SVG 1.0//EN" "http://www.w3.org/TR/2001/REC-SVG-20010904/DTD/svg10.dtd">
<svg version="1.0" id="Capa_1" xmlns="http://www.w3.org/2000/svg" xmlns:xlink="http://www.w3.org/1999/xlink" x="0px" y="0px"
	 width="209.989px" height="284.985px" viewBox="0 0 209.989 284.985" enable-background="new 0 0 209.989 284.985"
	 xml:space="preserve">
<g>
	<path fill="#FFFFFF" d="M110.725,34.434c1.559-1.762,15.376-4.863,20.092-0.972c0,0,6.902,3.421,8.508,5.152
		c1.598,1.726,5.887,11.051,5.887,11.051s9.318,18.407,11.525,20.501c2.199,2.097,10.418,9.887,11.512,11.709
		c1.094,1.824,3.52,7.757,3.562,10.166c0.041,2.412-2.111,7.889-2.111,7.889s3.469,3.269,4.79,5.094
		c1.315,1.823,2.071,4.525,2.675,9.018c0.604,4.492,0.379,6.852,2.225,11.162c1.842,4.312,2.488,8.247,2.898,10.492
		c0.416,2.246,1.705,4.46,3.162,7.047c1.459,2.585,3.301,5.862,2.918,8.305c-0.387,2.438-0.816,7.904-0.795,9.098
		c0.02,1.191,0.742,6.002-0.491,7.333c-1.231,1.329,0.21,3.476-1.803,6.44c-2.015,2.967-12.225,7.125-12.225,7.125l-5.185-1.198
		c0,0-1.537-1.603-3.44-3.155c-1.897-1.551-5.218-2.456-6.468-5.692c-1.252-3.239,0.18-4.769-2.439-6.2
		c-2.623-1.434-2.412-2.959-4.239-3.893c-1.827-0.928-3.317-0.941-3.317-0.941c-3.496,0.728-4.564-1.158-5.062-2.086
		c-0.496-0.924-3.532-4.132-4.644-14.168l1.28-4.023c0,0-9.173,10.964-11.014,12.611c-1.84,1.646-5.696,3.999-6.955,5.266
		c-1.257,1.264-3.754,6.174-5.697,6.089c-1.94-0.09-10.773,2.171-11.286,2.645c-0.511,0.468-6.437-0.24-7.606-0.929
		c-1.169-0.69-8.014-2.831-10.525-4.009c-2.512-1.181-8.139-4.171-9.177-4.865c-1.042-0.69-2.62-0.408-2.62-0.408
		s0.767,3.032,0.387,5.947c-0.381,2.912-0.525,2.725-0.439,6.453c0.088,3.729,0.146,3.979,0.227,6.335
		c0.078,2.359,1.045,3.74,1.178,5.255c0.127,1.513,1.214,1.771,1.172,3.44c-0.043,1.663,0.871,1.084,1.123,2.902
		c0.252,1.817-0.372,1.873-0.031,3.104c0.348,1.241,1.193,2.126,0.686,3.75c-0.504,1.622-1.891,6.006-1.16,7.439
		c0.732,1.428-1.02,0.313,0.311,2.057c1.329,1.74-3.555,0.318-3.555,0.318l-0.039,4.279c0,0,0.614,6.063,2.184,8.573
		c1.568,2.504,2.622,10.17,2.763,12.568c0.144,2.394,0.478,12.576-0.944,17.557c-1.416,4.989-1.932,5.482-1.316,9.565
		c0.621,4.087,0.356,8.025-0.449,11.832c-0.801,3.815-0.375,8.062-0.703,8.643c-0.33,0.575,0.557,1.628,0.486,2.676
		c-0.067,1.049-3.377-0.757-3.986-1.582c-0.605-0.826-1.873-3.857-3.441-6.927c-1.568-3.073-4.458-5.51-5.043-8.47
		c-0.588-2.961-1.579-2.859-2.777-4.444c-1.199-1.585-1.273,0.199-4.249-5.477c-2.976-5.673-4.487-9.089-5.749-9.821
		c-1.262-0.738-4.285-3.884-5.082-5.047c-0.801-1.159-10.527-18.932-11.861-21.168c-1.332-2.232-2.721-2.72-2.821-2.346
		c-0.101,0.371-3.349,0.609-3.349,0.609s-0.76,2.609-1.941,0.354c-1.175-2.261-2.57-3.321-2.57-3.321s-0.791,0.151-1.373-1.692
		c-0.582-1.847-1.884-4.786-1.757-5.819c0.132-1.026-1.575-0.603-2.649-2.25c-1.068-1.645-2.568-2.889-3.128-3.965
		c-0.558-1.078-1.591-1.617-1.469-4.031c0.124-2.416,1.137-2.023,2.079-3.504c0.949-1.474,0.969-4.219,1.615-5.086
		c0.642-0.866,4.548-7.491,2.743-20.099l0.114-9.66c0,0-5.576-19.669-6.131-22.202c-0.551-2.537-1.937-16.408-1.097-17.5
		c0.843-1.09,2.946-18.803,2.528-20.444c-0.414-1.644,2.82-19.213,3.801-19.144c0.979,0.073,8.859-22.211,8.887-23.535
		c0.027-1.327,4.975-8.677,5.847-9.31c0.871-0.637,6.312-9.252,6.312-9.252s14.926-17.632,15.695-18.267
		c0.77-0.633,18.361-8.406,21.055-8.827c2.692-0.417,17.02-2.167,19.592-0.659c2.572,1.506,7.932,2.805,9.785,4.022
		c1.854,1.216,2.52,5.057,3.735,6.657c1.222,1.604,0.925,2.69,0.255,6c-0.668,3.309-0.678,8.04-0.957,8.556
		c-0.28,0.52,0.072,3.29,0.072,3.29L110.725,34.434z"/>
	<g>
		<path fill="#FFFFFF" d="M167.896,40.57l-4.326,0.994c0,0-3.193-3.725-3.408-4.117c-0.207-0.394-1.594-2.076-1.009-2.388
			c0.581-0.306,2.53,0.639,2.53,0.639s-0.021-3.044,0.257-3.504c0.276-0.46,0.978-0.871,1.461-0.269
			c0.487,0.604,2.561,2.39,2.561,2.39l0.868-1.594l1.2,2.213L167.896,40.57z"/>
		<path fill="#000100" d="M97.643,89.721c3.123,8.427,6.809,16.755,9.268,25.476c0.709,2.293,1.194,4.972-0.043,6.928
			c-1.205,2.122-3.431,3.395-5.359,3.915c-12.4,4.162-9.457-23.361-9.287-31.175c0.08-1.923-0.242-6.88,1.625-7.738
			c2.011-0.882,2.891,1.307,3.895,2.855"/>
		<g>
			<path fill="#000100" d="M82.531,83.956c-1.371-1.858-4.074-4.072-6.576-3.692c0.149-0.418,0.297-0.836,0.443-1.256
				c1.367,1.698,3.805,1.594,4.752,3.819c0.252,0.591-0.296,1.314-0.949,1.053c-0.898-0.357-1.505-1.029-2.29-1.576
				c-1.831-1.268-4.431-1.412-6.546-1.119c0.099-0.463,0.199-0.925,0.299-1.386c2.086,1.384,4.866,1.101,6.707,2.92
				c0.59,0.582-0.166,1.413-0.844,1.22c-1.889-0.544-3.527-1.418-5.502-1.755c-2.508-0.427-5.513,0.142-7.494,0.331
				c-0.094-0.502-0.185-1.005-0.275-1.506c1.998-0.091,4.779,0.534,7,1.167c0.83,0.236,0.523,1.63-0.334,1.482
				c-3.847-0.651-8.658-1.378-12.092,1.084c-0.215-0.445-0.428-0.888-0.638-1.334c0.946-0.062,1.722-0.226,2.632-0.537
				c0.162,0.481,0.314,0.962,0.471,1.443c-1.986,0.408-3.066,2.028-3.967,3.695c-0.469,0.867-1.723-0.012-1.258-0.872
				c1.118-2.071,2.553-3.841,4.951-4.329c0.832-0.17,1.297,1.154,0.468,1.441c-1.005,0.348-1.955,0.596-3.025,0.666
				c-0.674,0.043-1.326-0.84-0.635-1.333c3.827-2.75,8.88-2.188,13.224-1.45c-0.109,0.492-0.22,0.991-0.329,1.484
				c-1.817-0.522-4.285-1.223-6.208-1.101c-0.96,0.062-1.271-1.396-0.274-1.508c2.392-0.265,4.671-0.61,7.081-0.444
				c2.432,0.166,4.448,1.279,6.73,1.933c-0.281,0.405-0.564,0.81-0.843,1.218c-1.64-1.621-4.513-1.392-6.416-2.658
				c-0.546-0.357-0.366-1.288,0.296-1.379c1.516-0.207,3.053-0.253,4.547,0.128c0.868,0.222,1.709,0.463,2.504,0.891
				c0.895,0.484,1.658,1.374,2.583,1.745c-0.317,0.35-0.637,0.703-0.952,1.051c-0.828-1.945-3.299-1.951-4.535-3.482
				c-0.354-0.439-0.147-1.165,0.445-1.253c3.06-0.458,6.277,1.849,8.013,4.202C84.277,83.75,83.117,84.748,82.531,83.956
				L82.531,83.956z"/>
		</g>
		<g>
			<path fill="#000100" d="M103.389,81.117c0.154-1.785,1.842-3.132,3.039-4.305c1.855-1.82,3.146-3.812,5.73-4.67
				c0.779-0.255,1.533,0.661,0.83,1.274c-1.775,1.541-3.697,2.939-4.897,5.009c-0.322-0.376-0.645-0.753-0.962-1.127
				c1.702-0.947,3.075-2.172,4.877-2.965c1.884-0.832,3.92-1.561,5.92-2.056c0.832-0.209,1.271,1.125,0.471,1.441
				c-2.227,0.879-4.224,2.186-6.319,3.313c-0.155-0.481-0.312-0.961-0.468-1.444c1.879-0.495,3.426-1.659,5.202-2.397
				c1.644-0.678,3.345-1.122,5.126-1.211c0.854-0.043,1.253,0.99,0.47,1.44c-1.395,0.809-2.925,0.943-4.487,1.192
				c-0.822,0.131-1.314-1.148-0.47-1.445c2.981-1.039,5.886-1.108,8.981-0.537c1.91,0.347,4.758,0.72,5.99,2.414
				c0.578,0.792-0.582,1.793-1.164,0.995c-0.897-1.237-2.916-1.376-4.303-1.737c-2.914-0.764-5.993-0.748-8.841,0.247
				c-0.157-0.481-0.313-0.962-0.472-1.442c1.418-0.227,2.836-0.334,4.099-1.064c0.155,0.48,0.313,0.963,0.472,1.443
				c-3.936,0.202-6.691,2.648-10.33,3.609c-0.872,0.229-1.199-1.048-0.473-1.439c2.101-1.132,4.098-2.438,6.318-3.313
				c0.158,0.479,0.314,0.962,0.473,1.442c-1.883,0.464-3.734,1.211-5.533,1.928c-1.807,0.723-3.199,2.03-4.878,2.968
				c-0.72,0.399-1.315-0.517-0.962-1.13c1.269-2.18,3.289-3.67,5.164-5.298c0.273,0.424,0.557,0.847,0.83,1.271
				c-1.832,0.605-3.043,1.801-4.289,3.229c-1.075,1.236-3.473,2.812-3.622,4.503C104.826,82.234,103.297,82.104,103.389,81.117
				L103.389,81.117z"/>
		</g>
		<g>
			<path fill="#000100" d="M126.18,86.895c-3.418-2.093-6.316-4.036-10.564-3.271c-3.488,0.641-7.814,4.305-9.479,7.354
				c-0.475,0.864-1.73-0.016-1.262-0.872c1.796-3.28,6.034-6.691,9.63-7.741c4.917-1.433,8.532,0.811,12.542,3.269
				C127.893,86.152,127.018,87.411,126.18,86.895L126.18,86.895z"/>
		</g>
		<g>
			<path fill="#000100" d="M83.912,94.865c-2.652-2.473-7.377-4.623-11.02-4.361c-1.85,0.134-3.447,1.389-4.797,2.54
				c-0.51,0.433-4.352,3.649-3.831,4.35c0.585,0.789-0.577,1.794-1.165,0.999c-0.98-1.321-0.363-2.286,0.707-3.354
				c1.994-1.995,3.98-4.068,6.516-5.36c4.535-2.318,11.391,1.052,14.746,4.188C85.793,94.541,84.625,95.529,83.912,94.865
				L83.912,94.865z"/>
		</g>
		<g>
			<path fill="#000100" d="M70.457,86.941c0.9,0.592,1.182,1.676,1.939,2.399c0.305,0.287,0.213,0.829-0.082,1.079
				c-0.342,0.295-0.775,0.202-1.082-0.081c-0.645-0.612-0.9-1.646-1.646-2.139C68.756,87.655,69.629,86.398,70.457,86.941
				L70.457,86.941z"/>
		</g>
		<g>
			<path fill="#000100" d="M68.363,88.617c0.398,0.773,1.209,1.244,1.738,1.922c0.615,0.773-0.547,1.773-1.155,0.994
				c-0.63-0.797-1.485-1.329-1.96-2.253C66.53,88.401,67.915,87.738,68.363,88.617L68.363,88.617z"/>
		</g>
		<g>
			<path fill="#000100" d="M64.58,90.591c0.737,0.995,1.805,1.413,2.916,1.871c0.91,0.374,0.396,1.816-0.523,1.438
				c-1.342-0.552-2.665-1.109-3.553-2.312C62.833,90.797,63.992,89.793,64.58,90.591L64.58,90.591z"/>
		</g>
		<g>
			<path fill="#000100" d="M125.658,82.075c-0.467,0.988-1.011,1.993-2.166,2.249c-0.968,0.219-1.238-1.288-0.275-1.505
				c0.496-0.112,0.787-0.814,1.002-1.267c0.176-0.381,0.561-0.613,0.979-0.459C125.564,81.227,125.836,81.696,125.658,82.075
				L125.658,82.075z"/>
		</g>
		<g>
			<path fill="#000100" d="M123.045,80.564c-0.595,1.602-1.867,2.468-3.34,3.209c-0.882,0.45-1.544-0.933-0.662-1.379
				c1.102-0.555,2.109-1.139,2.562-2.359C121.951,79.113,123.393,79.633,123.045,80.564L123.045,80.564z"/>
		</g>
		<g>
			<path fill="#000100" d="M119.496,80.901c0,0-1.279-1.322-0.275-1.505C119.727,79.303,120,80.811,119.496,80.901
				C119.496,80.901,120,80.811,119.496,80.901z"/>
		</g>
		<g>
			<path fill="#000100" d="M119.824,80.453c-0.262,1.086-0.641,2.426-1.746,2.928c-0.9,0.407-1.566-0.973-0.667-1.38
				c0.642-0.291,0.822-1.444,0.978-2.067c0.098-0.403,0.621-0.59,0.982-0.459C119.789,79.628,119.926,80.049,119.824,80.453
				L119.824,80.453z"/>
		</g>
		<g>
			<path fill="#000100" d="M126.662,84.74c1.914,2.654,0.373,6.129-2.414,7.465c-2.526,1.21-5.219-0.407-5.98-2.897
				c-1.078-3.497,2.726-5.321,5.669-5.395c3.397-0.088,3.634,4.036,2.071,6.101c-3.691,4.88-8.041-4.396-4.449-4.904
				c1.732-0.248,4.246,2.498,4.039,4.148c-0.367,2.883-4.098-0.092-4.893-0.939c-0.085-0.091-0.16-0.183-0.236-0.283
				c-0.385-0.477-0.117-1.098,0.441-1.25c1.721-0.468,4.189,2.764,2.968,4.219c-1.475,1.749-3.829-1.574-3.584-3.02
				c0.066-0.391,0.392-0.752,0.829-0.69c1.506,0.207,3.414,3.098,1.85,4.267c-1.912,1.436-2.889-2.09-2.881-3.293
				c0-0.658,0.278-1.578,1.016-1.734c0.992-0.212,1.627,0.821,2.001,1.571c0.421,0.841,0.384,2.201-0.769,2.409
				c-1.193,0.217-2.107-1.113-2.358-2.105c-0.784-3.045,2.384-4.445,4.481-2.341c1.685,1.687,1.047,4.644-1.391,4.995
				c-2.232,0.324-4.121-2.486-3.093-4.442c1.101-2.1,3.612-1.751,4.763,0.02c1.818,2.809-1.42,5.587-4.039,3.759
				c-1.038-0.72-2.074-2.346-1.385-3.609c0.625-1.137,2.312-1.49,3.244-0.517c0.781,0.816,1.113,2.164,0.826,3.252
				c-0.276,1.04-1.309,1.579-2.269,0.962c-1.157-0.748-1.594-2.255-0.616-3.345c1.199-1.345,2.713-0.282,3.39,0.971
				c0.47,0.867-0.915,1.529-1.381,0.664c-0.28-0.519-1.144-1.119-1.017-0.083c0.066,0.561,0.588,0.311,0.365,0.584
				c0.084-0.107,0.076-0.336,0.09-0.461c0.033-0.431-0.11-0.865-0.301-1.242c-0.242-0.481-1.068-0.459-1.013,0.203
				c0.101,1.132,2.186,2.631,2.921,1.215c0.424-0.829-0.221-2.4-1.266-2.331c-1.931,0.124-0.922,3.099,0.854,2.844
				c0.929-0.134,0.77-1.263,0.528-1.866c-0.459-1.127-2.459-1.69-2.293,0.08c0.004,0.088,0.296,0.918,0.345,1.052
				c-0.237-0.637-0.483-0.352-0.034-0.887c-0.221,0.262-0.055,0.985-0.007,1.276c0.041,0.26,0.127,0.495,0.235,0.735
				c0.039,0.065,0.08,0.134,0.125,0.21c0.215,0.143,0.186,0.194-0.086,0.15c-0.057-0.418-0.498-1.371-0.974-1.438
				c0.276-0.232,0.556-0.461,0.831-0.696c-0.102,0.605,0.514,1.34,0.943,1.695c-0.206-0.17-1.034-1.672-1.574-1.524
				c0.146-0.418,0.292-0.835,0.443-1.252c0.609,0.762,1.414,1.508,2.333,1.86c0.267,0.104-0.479-0.935-0.599-1.069
				c-0.373-0.422-0.835-0.756-1.311-1.051c-0.793-0.489-0.193,1.193-0.053,1.523c0.5,1.153,1.523,1.898,2.628,0.958
				c1.687-1.438,0.866-4.07-1.453-3.771c-0.94,0.122-1.844,0.588-2.659,1.048c-1.16,0.656-1.001,1.937-0.559,2.996
				c1.641,3.892,7.975-0.423,5.539-3.801C124.922,84.94,126.083,83.938,126.662,84.74L126.662,84.74z"/>
		</g>
		<g>
			<path fill="#000100" d="M82.463,91.932c1.17,2.316,0.563,5.421-1.844,6.656c-2.032,1.051-5.404-0.111-6.231-2.242
				c-1.089-2.824,2.214-4.76,4.589-4.603c2.913,0.196,3.061,4,2.01,5.962c-1.404,2.616-4.613,0.693-5.459-1.297
				c-0.891-2.104,0.214-4.207,2.605-3.981c2.051,0.194,3.033,2.612,2.398,4.371c-0.705,1.95-3.604,1.884-4.557,0.196
				c-0.835-1.465-0.604-4.306,1.319-4.849c2.2-0.614,3.21,1.954,2.575,3.669c-0.803,2.154-4.018,1.156-4.002-0.948
				c0.01-0.9,0.562-1.7,1.502-1.797c1.088-0.108,1.93,1.041,2.146,1.993c0.222,0.993-0.082,1.865-1.162,2.063
				c-1.095,0.2-1.678-1.276-1.871-2.083c-0.188-0.789,0.252-1.672,1.049-1.841c0.838-0.179,1.654,0.723,2.053,1.329
				c1.021,1.544-0.426,3.164-1.814,1.699c-0.999-1.049-1.204-4.229,1.051-3.745c1.102,0.237,1.738,0.964,1.97,2.06
				c0.151,0.745-0.347,1.85-1.226,1.775c-1.971-0.175-2.115-3.467-0.825-4.457c1.632-1.249,3.946,1.529,3.272,3.137
				c-0.74,1.763-3.244,1.594-3.982-0.077c-0.621-1.415,0.377-3.563,2.083-3.435c1.962,0.151,2.835,2.165,1.456,3.662
				c-1.598,1.725-3.32,0.034-3.74-1.707c-0.17-0.698,0.105-1.96,1-2.059c1.023-0.111,1.441,0.68,1.899,1.469
				c0.495,0.857-0.89,1.512-1.382,0.664c-0.074-0.127-0.148-0.26-0.221-0.388c-0.305-0.383-0.236-0.369,0.208,0.038
				c0.055,0.483,0.479,1.479,1.071,1c0.984-0.795-0.916-1.822-1.027-0.163c-0.038,0.56,1.062,1.186,1.191,0.413
				c0.141-0.823-1.314-1.944-1.146-0.34c0.058,0.212,0.149,0.408,0.276,0.593c0.143,0.213-1.118-0.948-1.191-0.608
				c-0.074,0.344,0.143,0.721,0.297,1.011c0.289,0.52-0.165,0.786-0.504,0.274c-0.084-0.118-0.18-0.236-0.281-0.344
				c-0.484-0.543-0.075,0.057-0.016-0.333c0.006,0.232,0.062,0.448,0.178,0.649c-0.037,0.101-0.072,0.201-0.111,0.301
				c-0.035-0.211-0.102-0.409-0.198-0.594c-0.571-0.507-0.635-0.411-0.187,0.285c0.269,0.238,0.562,0.33,0.744-0.021
				c0.338-0.657-0.213-2.392-1.002-1.451c-0.547,0.651-0.532,1.851-0.045,2.518c0.73,0.992,1.789,0.151,1.836-0.768
				c0.057-1.091-0.92-1.768-1.918-1.635c-1.129,0.152-0.336,2.06,0.018,2.542c1.494,2.064,2.898,0.164,2.763-1.614
				c-0.14-1.82-2.032-2.005-3.331-1.149c-1.716,1.123-0.898,2.777,0.641,3.384c3.02,1.189,5.037-1.855,3.692-4.517
				C80.633,91.715,82.02,91.053,82.463,91.932L82.463,91.932z"/>
		</g>
		<g>
			<path fill="#000100" d="M110.465,36.812c4.453,0.197,8.908,5.06,11.676,8.167c4.119,4.619,6.52,10.568,9.671,15.829
				c0.511,0.848-0.878,1.502-1.381,0.664c-2.835-4.733-5.102-9.817-8.427-14.248c-1.512-2.013-3.359-3.763-5.312-5.343
				c-1.843-1.494-3.874-3.43-6.364-3.541C109.346,38.295,109.481,36.771,110.465,36.812L110.465,36.812z"/>
		</g>
		<g>
			<path fill="#000100" d="M118.243,163.189c-4.942,3.117-11.454,3.553-17.157,3.679c-6.393,0.142-12.769-2.929-18.404-5.606
				c-5.352-2.541-10.242-5.836-14.254-10.221c-4.721-5.162-8.584-11.275-11.723-17.5c-0.449-0.884,0.934-1.55,1.377-0.67
				c2.879,5.709,6.385,10.966,10.43,15.911c3.973,4.85,9.101,8.312,14.695,11.04c5.126,2.502,10.689,4.967,16.422,5.467
				c5.636,0.491,13.123-0.434,17.949-3.48C118.414,161.281,119.07,162.668,118.243,163.189L118.243,163.189z"/>
		</g>
		<g>
			<path fill="#000100" d="M142.19,105.314c1.579,5.617,0.509,11.485,0.169,17.198c-0.359,6.074-0.008,11.576-2.82,17.173
				c-2.244,4.464-5.892,8.02-9.559,11.318c-2.066,1.856-4.178,3.622-6.082,5.654c-1.693,1.802-2.905,4.367-5.139,5.573
				c-0.871,0.47-1.527-0.913-0.662-1.38c1.916-1.039,3.32-3.739,4.807-5.363c1.702-1.856,3.609-3.47,5.498-5.131
				c3.928-3.469,7.669-7.164,10.049-11.896c2.562-5.1,2.139-10.568,2.383-16.087c0.249-5.61,1.396-11.259-0.15-16.785
				C140.415,104.638,141.925,104.372,142.19,105.314L142.19,105.314z"/>
		</g>
		<g>
			<path fill="#000100" d="M109.219,34.42c4.451-1.066,8.824,2.238,12.164,4.751c4.367,3.282,7.585,7.116,9.969,12.031
				c2.69,5.552,4.455,11.563,6.575,17.343c1.08,2.944,2.325,5.815,3.938,8.51c1.708,2.861,3.749,5.399,4.982,8.531
				c2.164,5.5,1.414,11.873,0.433,17.528c-1.193,6.859-2.311,13.612-2.311,20.603c0.002,2.707-0.195,5.291-1.092,7.864
				c-1.092,3.109-2.43,6.056-3.285,9.261c-1.057,3.94-1.469,7.61-0.183,11.547c1.091,3.336,3.038,6.377,4.688,9.453
				c0.471,0.876-0.914,1.531-1.381,0.664c-2.693-5.008-5.821-9.934-5.744-15.813c0.08-6.071,3.328-11.515,4.951-17.175
				c0.767-2.674,0.5-5.637,0.529-8.377c0.043-3.523,0.519-7.058,0.936-10.551c0.738-6.206,2.602-12.121,2.219-18.447
				c-0.188-3.125-1.021-6.083-2.524-8.828c-1.464-2.678-3.392-5.062-4.823-7.77c-2.818-5.323-4.486-11.322-6.561-16.962
				c-2-5.47-4.27-10.758-8.383-14.993c-1.916-1.967-4.325-3.628-6.602-5.154c-2.363-1.584-5.297-3.209-8.224-2.509
				C108.531,36.156,108.262,34.647,109.219,34.42L109.219,34.42z"/>
		</g>
		<g>
			<path fill="#000100" d="M111.533,34.909c-0.051,0.181-0.105,0.365-0.156,0.547c-0.219-0.344-0.436-0.685-0.652-1.022
				c10.432,1.824,21.955,6.188,27.752,15.575c2.599,4.204,3.786,9.196,4.837,13.968c0.695,3.162,1.385,6.19,2.696,9.167
				c1.24,2.808,2.865,5.438,4.455,8.055c2.936,4.827,5.973,9.727,7.194,15.313c1.218,5.598-0.177,11.485-1.542,16.916
				c-1.553,6.187-2.732,12.44-4.299,18.622c-1.684,6.629-3.435,13.216-3.816,20.074c-0.057,0.986-1.582,0.851-1.528-0.133
				c0.323-5.788,1.589-11.407,3.014-17.001c1.45-5.697,2.556-11.449,3.931-17.152c1.376-5.675,3.121-11.265,3.137-17.152
				c0.016-6.087-3.118-11.598-6.154-16.66c-2.747-4.572-5.811-9.12-7.322-14.289c-1.484-5.074-2.109-10.294-4.082-15.237
				c-4.551-11.411-17.057-16.553-28.406-18.543c-0.508-0.089-0.801-0.521-0.653-1.021c0.052-0.183,0.106-0.367,0.161-0.55
				C110.375,33.438,111.814,33.962,111.533,34.909L111.533,34.909z"/>
		</g>
		<g>
			<path fill="#000100" d="M152.352,94.764c0.037,9.168-0.293,18.282-1.533,27.376c-0.551,4.026-1.858,7.942-3.092,11.8
				c-1.33,4.158-3.681,8.095-3.048,12.616c0.136,0.976-1.372,1.25-1.511,0.274c-0.475-3.429,0.521-6.541,1.742-9.715
				c1.668-4.325,3.117-8.761,4.065-13.305c1.974-9.481,1.89-19.547,1.852-29.183C150.821,93.638,152.348,93.784,152.352,94.764
				L152.352,94.764z"/>
		</g>
		<g>
			<path fill="#000100" d="M112.721,31.992c8.662-3.202,20.059,0.458,26.604,6.622c4.195,3.95,5.578,9.186,7.979,14.24
				c1.477,3.097,3.206,6.071,4.875,9.065c1.799,3.238,3.467,6.475,5.854,9.337c1.916,2.3,4.414,4.023,6.582,6.068
				c1.951,1.841,3.527,3.979,4.729,6.374c2.391,4.771,3.18,10.723,1.908,15.915c-1.49,6.108-5.588,11.221-8.271,16.838
				c-2.846,5.954-4.859,12.276-6.121,18.749c-0.188,0.962-1.716,0.838-1.523-0.135c1.025-5.27,2.523-10.399,4.539-15.378
				c2.133-5.263,5.056-10.008,7.823-14.943c2.883-5.131,3.175-11.148,1.646-16.733c-1.732-6.315-6.207-9.736-10.779-13.97
				c-4.103-3.795-6.463-9.118-9.139-13.916c-1.494-2.683-2.955-5.388-4.229-8.181c-1.245-2.74-2.135-5.599-3.627-8.229
				c-4.867-8.583-18.959-13.748-28.184-10.343C112.467,33.711,111.795,32.33,112.721,31.992L112.721,31.992z"/>
		</g>
		<g>
			<path fill="#000100" d="M151.635,148.277c-0.922,2.724,0.393,7.024,1.026,9.73c0.804,3.433,2.433,6.638,4.048,9.75
				c3.424,6.575,8.998,10.336,15.457,13.605c0.867,0.438,0.357,1.886-0.523,1.438c-3.416-1.729-6.726-3.639-9.76-5.987
				c-2.865-2.209-4.85-5.248-6.553-8.39c-1.89-3.497-3.474-7.129-4.379-11.005c-0.654-2.778-1.709-6.856-0.758-9.664
				C150.509,146.816,151.949,147.342,151.635,148.277L151.635,148.277z"/>
		</g>
		<g>
			<path fill="#000100" d="M169.699,99.93c7.73,5.142,9.5,15.429,10.498,23.973c0.736,6.289,2.766,12.224,6.254,17.513
				c3.146,4.759,5.286,10.257,6.366,15.841c0.188,0.972-1.32,1.244-1.507,0.273c-1.123-5.804-3.493-11.053-6.625-16.041
				c-2.84-4.517-4.623-9.383-5.594-14.623c-1.654-8.973-1.779-20.032-10.264-25.676C168.004,100.643,168.878,99.387,169.699,99.93
				L169.699,99.93z"/>
		</g>
		<g>
			<path fill="#000100" d="M173.384,133.336c1.479,3.988,2.151,8.156,3.87,12.068c1.775,4.038,4.067,7.818,5.793,11.883
				c1.567,3.693,2.581,7.61,2.807,11.615c0.225,3.944-1.021,7.632-1.838,11.443c-0.201,0.949-1.73,0.828-1.525-0.137
				c0.738-3.452,1.813-6.811,1.875-10.369c0.072-4.379-1.365-8.748-3.056-12.724c-1.601-3.776-3.718-7.321-5.435-11.046
				c-1.795-3.891-2.39-8.077-3.873-12.067C171.662,133.085,173.043,132.415,173.384,133.336L173.384,133.336z"/>
		</g>
		<g>
			<path fill="#000100" d="M93.404,32.938c0.174-1.223-2.482-2.612-3.312-3.16c-1.509-0.987-3.108-1.848-4.701-2.698
				c-4.446-2.372-9.218-4.279-14.303-4.568c-6.353-0.358-11.888,3.553-16.259,7.708c-2.186,2.08-4.334,4.142-5.663,6.889
				c-1.132,2.332-1.097,4.895-2.479,7.167c-0.514,0.844-1.771-0.033-1.262-0.872c1.719-2.816,1.715-6.17,3.514-9.007
				c1.724-2.71,4.404-4.968,6.777-7.072c4.799-4.263,10.751-6.853,17.233-6.202c5.229,0.524,10.098,2.938,14.647,5.42
				c1.959,1.066,7.756,3.578,7.332,6.533C94.792,34.047,93.268,33.92,93.404,32.938L93.404,32.938z"/>
		</g>
		<g>
			<path fill="#000100" d="M104.842,30.514c0.023-0.039,0.08-0.198,0.104-0.287c0.059-0.199,0.152-0.385,0.262-0.56
				c0.223-0.355,0.733-0.425,1.064-0.191c0.356,0.24,0.419,0.71,0.193,1.064c-0.02,0.035-0.076,0.198-0.102,0.284
				c-0.059,0.201-0.152,0.385-0.262,0.561c-0.222,0.354-0.734,0.423-1.068,0.193C104.684,31.331,104.621,30.867,104.842,30.514
				L104.842,30.514z"/>
		</g>
		<g>
			<path fill="#000100" d="M106.922,31.951c3.711-5.947,4.287-13.859-0.035-19.686c-3.152-4.252-8.786-5.403-13.754-5.66
				c-4.746-0.247-9.509,0.443-14.188,1.159c-6.223,0.953-12.189,2.425-17.719,5.535c-5.77,3.244-9.68,8.198-13.815,13.21
				c-4.396,5.326-9.106,10.386-13.077,16.051c-8.202,11.708-11.068,25.788-16.596,38.744c-0.387,0.902-1.828,0.388-1.439-0.525
				c5.599-13.129,8.625-27.14,16.777-39.088c4.053-5.943,9.061-11.182,13.627-16.72c4.005-4.86,7.803-9.335,13.23-12.685
				c5.258-3.239,11.348-4.882,17.396-5.83c4.868-0.76,9.752-1.439,14.684-1.413c4.689,0.024,9.542,0.905,13.418,3.674
				c4.398,3.136,6.133,8.792,6.031,13.978c-0.07,3.604-1.396,7.102-3.287,10.125C107.658,33.662,106.398,32.784,106.922,31.951
				L106.922,31.951z"/>
		</g>
		<g>
			<path fill="#000100" d="M56.609,27.907c-0.002-0.004-4.096,2.962-5.512,4.733c-1.447,1.814-2.622,3.757-4.026,5.596
				c-4.446,5.812-5.378,13.488-5.269,20.543c0.131,8.561,0.52,17.154,3.44,25.283c2.494,6.936,5.917,13.439,7.598,20.665
				c1.771,7.603,1.267,15.866,1.524,23.627c0.133,4.088,0.287,8.15,0.673,12.224c0.356,3.77,0.648,7.516,0.272,11.291
				c-0.904,9.133-2.83,20.441-11.307,25.645c-1.148,0.707-2.42,1.149-3.699,1.537c-0.947,0.28-1.21-1.233-0.271-1.51
				c11.278-3.367,13.553-18.484,13.941-28.562c0.152-3.949-0.454-7.921-0.775-11.854c-0.319-3.951-0.325-7.934-0.456-11.893
				c-0.284-8.596-0.132-17.081-2.825-25.345c-2.248-6.903-5.81-13.294-7.648-20.338c-1.98-7.585-1.947-15.764-2.004-23.548
				c-0.043-6.38,1.861-12.511,5.156-17.936c2.292-3.767,5.105-8.057,8.691-10.67c0.717-0.52,0.27-0.645,2.223-1L56.609,27.907
				L56.609,27.907z"/>
		</g>
		<g>
			<path fill="#000100" d="M78.377,36.81c-2.916-0.695-5.818,2.573-7.622,4.437c-2.306,2.385-4.246,5.047-6.024,7.838
				c-4.301,6.772-7.242,14.285-8.16,22.264c-0.845,7.337-0.212,14.77-0.016,22.125c0.227,8.21-0.26,16.361-0.656,24.555
				c-0.047,0.986-1.572,0.85-1.525-0.135c0.438-9.052,0.885-18.027,0.578-27.094c-0.281-8.507-0.79-17.056,1.06-25.434
				c1.712-7.727,5.749-15.241,10.482-21.52c2.626-3.484,7.423-9.66,12.411-8.475C79.863,35.601,79.329,37.036,78.377,36.81
				L78.377,36.81z"/>
		</g>
		<g>
			<path fill="#000100" d="M35.565,49.068c-0.858,11.702-2.397,23.972,0.479,35.496c1.355,5.409,3.765,10.431,5.627,15.661
				c1.895,5.331,2.915,10.945,3.318,16.576c0.381,5.356,0.016,10.76-0.046,16.122c-0.063,5.662,0.58,11.226-0.329,16.858
				c-0.746,4.606-3.422,8.892-5.752,12.843c-2.49,4.22-6.553,6.984-9.095,11.104c-0.521,0.845-1.775-0.03-1.261-0.871
				c2.414-3.913,6.354-6.48,8.709-10.456c2.602-4.393,5.512-9.021,6.064-14.207c0.582-5.463,0.086-10.871,0.151-16.353
				c0.064-5.854,0.401-11.697-0.188-17.531c-0.584-5.772-2.039-11.464-4.262-16.819c-1.934-4.656-3.701-9.4-4.845-14.315
				c-2.567-11.05-0.917-23.07-0.099-34.243C34.109,47.949,35.635,48.086,35.565,49.068L35.565,49.068z"/>
		</g>
		<g>
			<path fill="#000100" d="M47.658,136.915c-0.029,5.997-1.154,11.995-3.391,17.569c-2.1,5.24-5.635,9.793-8.611,14.54
				c-0.525,0.839-1.779-0.038-1.256-0.869c2.926-4.671,6.239-9.106,8.429-14.191c2.312-5.353,3.276-11.384,3.302-17.187
				C46.139,135.792,47.662,135.932,47.658,136.915L47.658,136.915z"/>
		</g>
		<g>
			<path fill="#000100" d="M31.045,69.875c-0.569,3.377-0.002,6.772-0.025,10.174c-0.018,3.232-1.072,6.445-2.324,9.385
				c-2.479,5.806-6.398,10.856-8.494,16.844c-2.677,7.654-2.125,16.482,0.098,24.151c1.023,3.53,2.259,6.993,3.254,10.531
				c1.062,3.774,1.253,8.067,3.076,11.563c0.457,0.88-0.928,1.541-1.381,0.664c-1.645-3.157-1.856-6.806-2.73-10.214
				c-0.987-3.838-2.258-7.583-3.442-11.363c-2.403-7.676-2.728-15.612-0.987-23.463c1.389-6.259,5.333-11.565,8.195-17.183
				c1.631-3.195,2.841-6.598,3.174-10.189c0.342-3.691-0.559-7.347,0.062-11.038C29.682,68.772,31.21,68.898,31.045,69.875
				L31.045,69.875z"/>
		</g>
		<g>
			<path fill="#000100" d="M18.283,81.019c-0.35,1.84-0.398,3.688-0.545,5.549c-0.155,1.924-0.861,3.95-1.275,5.838
				c-0.871,3.989-1.653,7.967-2.201,12.014c-1.072,7.878-1.174,15.952,0.07,23.812c1.242,7.87,3.942,15.443,6.033,23.112
				c0.98,3.587,1.307,7.194,1.096,10.899c-0.228,4.022-0.836,7.944-0.202,11.966c0.155,0.977-1.351,1.253-1.508,0.275
				c-0.515-3.271-0.312-6.508-0.025-9.79c0.365-4.167,0.299-8.084-0.639-12.181c-1.856-8.073-4.851-15.813-6.261-24.01
				c-1.33-7.665-1.119-15.631-0.206-23.33c0.476-4.017,1.243-7.98,2.106-11.93c0.42-1.947,0.848-3.895,1.27-5.841
				c0.473-2.143,0.352-4.357,0.76-6.52C16.937,79.924,18.467,80.047,18.283,81.019L18.283,81.019z"/>
		</g>
		<g>
			<path fill="#000100" d="M61.199,140.006c2.199,4.949,3.112,10.601,4.53,15.814c1.696,6.231,3.386,12.491,6.013,18.404
				c4.621,10.406,14.405,18.423,25.051,22.154c0.93,0.327,0.408,1.766-0.527,1.439c-9.99-3.501-19.25-10.703-24.449-19.999
				c-2.943-5.269-4.613-11.179-6.264-16.948c-1.002-3.505-1.949-7.035-2.891-10.563c-0.859-3.228-1.48-6.567-2.844-9.637
				C59.416,139.768,60.795,139.102,61.199,140.006L61.199,140.006z"/>
		</g>
		<g>
			<path fill="#000100" d="M57.254,152.555c-0.212,5.75-1.01,11.568-0.273,17.309c0.699,5.433,3.465,9.938,6.16,14.567
				c4.352,7.475,8.689,16.69,17.027,20.422c0.895,0.401,0.381,1.848-0.523,1.44c-8.543-3.823-13.118-12.913-17.554-20.625
				c-2.737-4.76-5.444-9.226-6.485-14.701c-1.146-6.06-0.1-12.442,0.122-18.549C55.764,151.43,57.289,151.57,57.254,152.555
				L57.254,152.555z"/>
		</g>
		<g>
			<path fill="#000100" d="M54.689,166.826c1.688,9.562,1.115,18.628-2.443,27.704c-1.166,2.964-2.57,5.843-4.14,8.609
				c-1.02,1.802-2.531,4.765-4.804,5.204c-0.969,0.186-1.245-1.321-0.275-1.508c1.98-0.379,3.547-4.055,4.41-5.619
				c1.42-2.583,2.615-5.284,3.689-8.029c3.328-8.491,3.625-17.178,2.053-26.084C53.012,166.129,54.518,165.854,54.689,166.826
				L54.689,166.826z"/>
		</g>
		<g>
			<path fill="#000100" d="M118.93,45.16c5.848,9.514,13.651,17.844,16.982,28.721c0.779,2.541,1.25,5.174,1.63,7.804
				c0.489,3.376,1.864,6.475,3.093,9.624c2.055,5.264,1.894,10.707,1.328,16.245c-0.101,0.983-1.627,0.851-1.525-0.136
				c0.624-6.112,0.412-11.454-1.879-17.205c-0.957-2.408-1.865-4.795-2.383-7.339c-0.541-2.632-0.845-5.276-1.535-7.888
				c-2.932-11.09-11.223-19.615-17.09-29.165C117.031,44.982,118.418,44.327,118.93,45.16L118.93,45.16z"/>
		</g>
		<g>
			<path fill="#000100" d="M104.879,31.485c-1.099-5.009-0.286-10.292-2.689-14.985c-1.844-3.611-5.658-5.725-9.428-6.714
				c-6.895-1.808-14.457-0.138-21.339,0.891c-0.978,0.146-1.253-1.358-0.274-1.507c7.646-1.139,15.699-2.74,23.296-0.502
				c3.479,1.023,6.429,3.222,8.509,6.168c3.373,4.789,2.241,10.957,3.432,16.379C106.598,32.182,105.09,32.452,104.879,31.485
				L104.879,31.485z"/>
		</g>
		<g>
			<path fill="#000100" d="M129.477,42.897c7.391,5.524,8.492,16.277,10.662,24.491c1.557,5.9,5.881,10.073,8.771,15.289
				c2.664,4.815,4.116,10.085,5.123,15.466c0.18,0.97-1.327,1.243-1.506,0.273c-0.99-5.293-2.477-10.301-4.999-15.074
				c-2.362-4.473-6.208-8.072-8.011-12.854c-3.209-8.513-2.879-20.33-10.912-26.332C127.812,43.563,128.682,42.303,129.477,42.897
				L129.477,42.897z"/>
		</g>
		<g>
			<path fill="#000100" d="M121.332,35.096c4.369-2.585,11.508,4.487,14.073,7.317c2.583,2.851,4.44,6.316,6.462,9.56
				c2.418,3.884,4.031,8.237,5.432,12.572c1.412,4.371,2.295,8.699,4.677,12.695c2.29,3.838,5.175,7.278,7.432,11.152
				c4.674,8.025,4.805,17.791,3.659,26.736c-0.127,0.976-1.65,0.846-1.529-0.135c1.145-8.896,0.842-17.888-3.514-25.938
				c-3.563-6.592-8.795-11.675-10.748-19.11c-2.127-8.087-5.374-15.188-9.834-22.229c-2.09-3.3-4.578-5.758-7.578-8.211
				c-1.787-1.461-5.496-4.432-7.867-3.028C121.143,36.98,120.486,35.595,121.332,35.096L121.332,35.096z"/>
		</g>
		<g>
			<path fill="#000100" d="M137.295,67.504c3.51,10.901,6.751,22.992,8.559,32.748c0.356,1.953-1.152,2.225-1.507,0.273
				c-1.803-9.754-5.091-22.076-8.598-32.973C135.446,66.614,137,66.579,137.295,67.504L137.295,67.504z"/>
		</g>
		<g>
			<path fill="#000100" d="M135.498,68.168c3.293,3.488,3.879,9.24,4.977,13.715c1.693,6.878,2.853,13.878,4.514,20.762
				c0.232,0.96-1.273,1.228-1.506,0.272c-1.426-5.901-2.52-11.87-3.827-17.8c-0.611-2.759-1.377-5.472-2.031-8.215
				c-0.673-2.801-1.255-5.58-3.29-7.74C133.654,68.446,134.82,67.455,135.498,68.168L135.498,68.168z"/>
		</g>
		<g>
			<path fill="#000100" d="M121.08,32.159c5.164-0.047,10.16,3.37,14.251,6.202c2.162,1.498,3.972,3.534,5.873,5.34
				c1.792,1.702,3.315,3.562,4.007,5.964c0.271,0.95-1.239,1.215-1.51,0.277c-0.688-2.393-2.484-4.126-4.232-5.784
				c-1.631-1.551-3.197-3.197-5.012-4.535c-3.752-2.777-8.707-5.983-13.516-5.938C119.957,33.693,120.098,32.166,121.08,32.159
				L121.08,32.159z"/>
		</g>
		<g>
			<path fill="#000100" d="M114.434,32.85c1.705-0.632,3.504,0.002,5.226,0.373c2.172,0.473,4.277,1.134,6.32,2.016
				c0.901,0.388,0.384,1.831-0.522,1.438c-1.55-0.663-3.125-1.196-4.75-1.638c-1.443-0.392-4.115-1.362-5.609-0.812
				C114.181,34.567,113.508,33.189,114.434,32.85L114.434,32.85z"/>
		</g>
		<g>
			<path fill="#000100" d="M114.311,33.883c3.923-0.551,7.895,1.238,11.236,3.111c0.863,0.482-0.018,1.742-0.872,1.258
				c-2.96-1.658-6.616-3.353-10.089-2.865C113.607,35.525,113.328,34.018,114.311,33.883L114.311,33.883z"/>
		</g>
		<g>
			<path fill="#000100" d="M113.522,34.542c2.958-0.215,5.792,1.875,8.275,3.244c4.298,2.366,8.339,5.201,11.822,8.665
				c0.702,0.697-0.47,1.689-1.164,0.997c-2.755-2.735-5.868-4.991-9.165-7.027c-2.428-1.496-6.494-4.59-9.495-4.37
				C112.822,36.122,112.539,34.614,113.522,34.542L113.522,34.542z"/>
		</g>
		<g>
			<path fill="#000100" d="M116.044,36.266c2.811,1.043,5.321,4.24,7.374,6.306c3.227,3.233,5.821,7.021,7.834,11.117
				c0.434,0.886-0.946,1.55-1.381,0.662c-1.721-3.496-3.863-6.657-6.455-9.558c-1.258-1.408-2.674-2.634-4.01-3.96
				c-1.143-1.136-2.34-2.553-3.885-3.126C114.598,37.361,115.117,35.92,116.044,36.266L116.044,36.266z"/>
		</g>
		<g>
			<path fill="#000100" d="M116.756,37.193c3.717,4.635,8.154,8.656,11.699,13.422c3.164,4.251,5.518,9.098,6.929,14.204
				c0.261,0.952-1.249,1.218-1.51,0.273c-1.499-5.433-4.175-10.401-7.62-14.849c-3.279-4.236-7.307-7.869-10.662-12.051
				C114.973,37.421,116.139,36.425,116.756,37.193L116.756,37.193z"/>
		</g>
		<g>
			<path fill="#000100" d="M117.561,40.479c2.486,5.233,6.92,9.627,10.227,14.374c3.592,5.155,6.921,10.485,10.472,15.667
				c0.556,0.811-0.604,1.811-1.165,0.994c-3.546-5.18-6.904-10.488-10.469-15.663c-3.373-4.894-7.889-9.318-10.447-14.708
				C115.756,40.249,117.135,39.588,117.561,40.479L117.561,40.479z"/>
		</g>
		<g>
			<path fill="#000100" d="M129.314,44.9c4.686,5.876,7.371,12.209,9.105,19.496c0.229,0.961-1.279,1.23-1.509,0.271
				c-1.675-7.041-4.231-13.093-8.761-18.771C127.537,45.122,128.697,44.127,129.314,44.9L129.314,44.9z"/>
		</g>
		<g>
			<path fill="#000100" d="M147.797,61.184c3.354,7.644,6.686,15.303,10.018,22.958c0.395,0.905-0.986,1.571-1.383,0.668
				c-3.328-7.659-6.659-15.317-10.014-22.96C146.018,60.945,147.398,60.279,147.797,61.184L147.797,61.184z"/>
		</g>
		<g>
			<path fill="#000100" d="M153.674,71.059c3.756,3.066,5.808,7.769,8.004,11.979c2.896,5.558,5.473,11.254,6.785,17.407
				c0.207,0.966-1.301,1.239-1.506,0.275c-1.154-5.417-3.33-10.437-5.809-15.368c-2.23-4.427-4.428-9.834-8.346-13.034
				C152.043,71.695,152.91,70.432,153.674,71.059L153.674,71.059z"/>
		</g>
		<g>
			<path fill="#000100" d="M160.48,78.515c7.377,4.913,8.799,14.153,8.036,22.388c-0.088,0.981-1.614,0.853-1.523-0.135
				c0.711-7.685-0.472-16.387-7.382-20.994C158.787,79.224,159.66,77.966,160.48,78.515L160.48,78.515z"/>
		</g>
		<g>
			<path fill="#000100" d="M166.822,85.878c3.43,5.677,1.742,14.087,0.558,20.164c-0.187,0.958-1.716,0.832-1.526-0.136
				c1.138-5.837,2.867-13.94-0.412-19.365C164.931,85.691,166.318,85.039,166.822,85.878L166.822,85.878z"/>
		</g>
		<g>
			<path fill="#000100" d="M164.188,94.921c2.236,5.434,1.7,11.428,0.908,17.114c-0.133,0.974-1.663,0.846-1.525-0.135
				c0.752-5.394,1.36-11.153-0.762-16.315C162.432,94.673,163.811,94.005,164.188,94.921L164.188,94.921z"/>
		</g>
		<g>
			<path fill="#000100" d="M158.479,87.785c2.27,4.659,3.473,10.236,4.175,15.348c0.703,5.125,0.239,10.344-1.138,15.32
				c-0.264,0.95-1.704,0.424-1.438-0.523c1.402-5.059,1.658-10.203,0.947-15.399c-0.639-4.655-1.872-9.858-3.928-14.082
				C156.663,87.562,158.045,86.898,158.479,87.785L158.479,87.785z"/>
		</g>
		<g>
			<path fill="#000100" d="M158.106,91.307c0.229,2.762,1.043,5.458,1.425,8.213c0.393,2.811,0.521,5.658,0.553,8.5
				c0.055,5.789-1.428,11.468-2.815,17.044c-0.237,0.958-1.675,0.427-1.438-0.526c1.287-5.191,2.536-10.365,2.717-15.736
				c0.109-3.002-0.155-6.031-0.523-9.008c-0.34-2.765-1.193-5.444-1.423-8.213C156.521,90.604,158.023,90.315,158.106,91.307
				L158.106,91.307z"/>
		</g>
		<g>
			<path fill="#000100" d="M154.146,90.212c0.984,5.709,0.977,11.417,0.241,17.155c-0.742,5.782-2.51,11.332-2.578,17.207
				c-0.012,0.988-1.539,0.847-1.525-0.135c0.062-5.534,1.502-10.859,2.429-16.28c1.003-5.837,0.928-11.854-0.072-17.675
				C152.471,89.509,153.979,89.232,154.146,90.212L154.146,90.212z"/>
		</g>
		<g>
			<path fill="#000100" d="M150.355,90.768c0.555,2.791,0.202,5.677,0.124,8.501c-0.101,3.548-0.263,7.077-0.567,10.616
				c-0.59,6.812-1.307,13.609-2.656,20.32c-0.193,0.955-1.722,0.834-1.525-0.138c1.287-6.388,1.99-12.86,2.573-19.349
				c0.284-3.218,0.503-6.434,0.597-9.667c0.102-3.265,0.585-6.794-0.053-10.013C148.653,90.074,150.162,89.8,150.355,90.768
				L150.355,90.768z"/>
		</g>
		<g>
			<path fill="#000100" d="M148.902,91.497c-0.522,11.386-1.018,22.769-1.569,34.149c-0.048,0.99-1.573,0.854-1.526-0.133
				c0.549-11.383,1.045-22.766,1.572-34.15C147.42,90.378,148.943,90.514,148.902,91.497L148.902,91.497z"/>
		</g>
		<g>
			<path fill="#000100" d="M145.766,82.649c0.668,6.063,1.206,12.199,1.095,18.306c-0.053,2.854-0.88,5.676-1.173,8.512
				c-0.357,3.387,0.059,6.834,0.174,10.222c0.033,0.985-1.495,0.842-1.529-0.134c-0.094-2.788-0.297-5.562-0.267-8.354
				c0.027-2.929,0.729-5.781,1.122-8.674c0.863-6.329-0.232-13.285-0.93-19.601C144.148,81.951,145.654,81.671,145.766,82.649
				L145.766,82.649z"/>
		</g>
		<g>
			<path fill="#000100" d="M144.337,92.641c0.382,4.229,0.194,8.503,0.055,12.741c-0.147,4.458,0.009,8.922,0.13,13.384
				c0.031,0.983-1.497,0.841-1.527-0.136c-0.111-4.144-0.219-8.285-0.152-12.424c0.072-4.429,0.392-8.872-0.012-13.29
				C142.742,91.939,144.25,91.659,144.337,92.641L144.337,92.641z"/>
		</g>
		<g>
			<path fill="#000100" d="M164.095,109.936c2.056,6.404,1.71,13.477,1.226,20.107c-0.252,3.48-0.682,6.95-1.018,10.423
				c-0.35,3.59-0.295,7.195-0.766,10.777c-0.124,0.976-1.654,0.85-1.523-0.136c0.836-6.383,1.025-12.902,1.625-19.318
				c0.658-7.074,1.146-14.736-1.053-21.58C162.287,109.273,163.798,109.009,164.095,109.936L164.095,109.936z"/>
		</g>
		<g>
			<path fill="#000100" d="M164.709,115.609c-1.031,6.541-1.306,13.244-1.818,19.842c-0.557,7.188-0.923,14.396-0.629,21.604
				c0.039,0.983-1.486,0.839-1.527-0.136c-0.276-6.885,0.053-13.757,0.556-20.625c0.509-6.919,0.817-13.965,1.89-20.823
				C163.336,114.506,164.864,114.63,164.709,115.609L164.709,115.609z"/>
		</g>
		<g>
			<path fill="#000100" d="M162.473,118.999c-1.314,7.558-2.195,15.162-2.694,22.813c-0.509,7.806-1.733,15.545-1.616,23.385
				c0.018,0.985-1.51,0.842-1.525-0.136c-0.113-7.524,0.956-14.974,1.549-22.459c0.629-7.966,1.391-15.858,2.76-23.739
				C161.113,117.904,162.644,118.025,162.473,118.999L162.473,118.999z"/>
		</g>
		<g>
			<path fill="#000100" d="M158.293,127.416c0.017,3.609-0.619,7.132-1.221,10.682c-0.646,3.804-0.871,7.571-0.789,11.43
				c0.17,7.677,1.801,15.439,5.771,22.074c0.507,0.849-0.876,1.504-1.38,0.664c-3.953-6.612-5.514-14.178-5.874-21.799
				c-0.175-3.59-0.044-7.166,0.462-10.722c0.592-4.163,1.525-8.236,1.508-12.467C156.762,126.295,158.289,126.435,158.293,127.416
				L158.293,127.416z"/>
		</g>
		<g>
			<path fill="#000100" d="M161.457,141.242c-0.65,5.195-1.746,10.343-1.412,15.605c0.32,5.125,1.943,10.129,4.088,14.764
				c0.414,0.898-0.965,1.562-1.381,0.666c-2.228-4.812-3.74-9.863-4.213-15.153c-0.484-5.375,0.727-10.714,1.396-16.021
				C160.055,140.132,161.586,140.26,161.457,141.242L161.457,141.242z"/>
		</g>
		<g>
			<path fill="#000100" d="M162.774,149.748c0.566,3.453-0.601,6.967-0.583,10.455c0.021,4.714,1.565,9.325,3.38,13.609
				c0.387,0.908-0.994,1.576-1.382,0.668c-1.546-3.658-2.756-7.372-3.305-11.318c-0.276-1.99-0.272-4.02-0.123-6.015
				c0.18-2.397,0.906-4.71,0.507-7.123C161.109,149.049,162.618,148.772,162.774,149.748L162.774,149.748z"/>
		</g>
		<g>
			<path fill="#000100" d="M160.291,112.572c0.222,3.089-1.557,6.433-2.465,9.319c-1.574,4.998-2.962,10.048-3.706,15.241
				c-0.739,5.159-0.177,10.246,0.401,15.389c0.561,4.921,0.74,10.065,2.955,14.596c0.434,0.887-0.951,1.549-1.383,0.664
				c-2.023-4.142-2.373-8.689-2.873-13.205c-0.513-4.614-1.146-9.211-0.992-13.859c0.154-4.712,1.322-9.438,2.557-13.969
				c0.657-2.4,1.407-4.782,2.162-7.154c0.661-2.073,1.994-4.543,1.84-6.746C158.717,111.876,160.221,111.588,160.291,112.572
				L160.291,112.572z"/>
		</g>
		<g>
			<path fill="#000100" d="M155.992,126.596c-1.693,5.684-3.207,10.945-3.168,16.941c0.037,5.84,1.271,11.658,3.001,17.208
				c0.292,0.941-1.218,1.206-1.509,0.276c-1.785-5.741-2.865-11.605-3.018-17.621c-0.155-6.125,1.527-11.532,3.25-17.329
				C154.833,125.122,156.271,125.654,155.992,126.596L155.992,126.596z"/>
		</g>
		<g>
			<path fill="#000100" d="M153.283,132.407c-3.234,7.093-4.34,14.995-3.796,22.743c0.069,0.974-1.438,1.259-1.506,0.273
				c-0.563-8.017,0.509-16.19,3.865-23.542C152.254,130.99,153.697,131.509,153.283,132.407L153.283,132.407z"/>
		</g>
		<g>
			<path fill="#000100" d="M167.922,106.176c4.527,7.122,4.124,15.405,3.627,23.499c-0.059,0.983-1.584,0.85-1.521-0.138
				c0.475-7.838,0.898-15.791-3.484-22.693C166.01,106.009,167.4,105.354,167.922,106.176L167.922,106.176z"/>
		</g>
		<g>
			<path fill="#000100" d="M169.713,108.014c0,0,1.82,11.1,2.043,17.106c0.243,6.601-0.508,12.867-1.396,19.402
				c-0.131,0.977-1.689,0.673-1.555-0.309c0.805-5.928,1.494-11.263,1.48-17.252c-0.015-6.496-1.014-12.819-2.08-18.675
				C167.85,106.332,169.355,106.06,169.713,108.014C169.713,108.014,169.355,106.06,169.713,108.014z"/>
		</g>
		<g>
			<path fill="#000100" d="M172.252,131.938c0.479,2.713,0.094,5.617,0.062,8.363c-0.039,3-0.199,5.997-0.441,8.987
				c-0.489,6.122-2.733,11.459-4.183,17.347c-0.235,0.957-1.673,0.425-1.438-0.525c1.34-5.442,3.424-10.424,4.014-16.07
				c0.282-2.674,0.409-5.381,0.486-8.069c0.09-3.123,0.533-6.692-0.006-9.758C170.568,131.239,172.079,130.961,172.252,131.938
				L172.252,131.938z"/>
		</g>
		<g>
			<path fill="#000100" d="M169.008,146.355c-1.465,6.812-3.24,13.939-1.016,20.792c0.299,0.927-1.074,1.601-1.383,0.665
				c-2.33-7.182-0.666-14.427,0.869-21.596C167.686,145.271,169.214,145.387,169.008,146.355L169.008,146.355z"/>
		</g>
		<g>
			<path fill="#000100" d="M169.76,105.584c3.203,4.927,4.722,10.777,5.805,16.496c1.229,6.494,0.979,13.281,2.75,19.648
				c0.264,0.956-1.246,1.219-1.508,0.276c-1.684-6.062-1.527-12.519-2.577-18.705c-1.007-5.913-2.551-11.978-5.85-17.05
				C167.84,105.419,169.23,104.766,169.76,105.584L169.76,105.584z"/>
		</g>
		<g>
			<path fill="#000100" d="M172.729,106.21c7.468,11.424,6.263,25.719,8.23,38.671c0.151,0.975-1.356,1.252-1.503,0.273
				c-1.95-12.799-0.732-26.994-8.108-38.28C170.809,106.05,172.197,105.396,172.729,106.21L172.729,106.21z"/>
		</g>
		<g>
			<path fill="#000100" d="M87.443,32.986c0.014-1.54-2.961-2.225-4.047-2.543c-2.678-0.782-5.501-1.095-8.269-1.352
				c-3.917-0.363-8.95-1.084-12.79,0.103c-0.945,0.295-1.209-1.216-0.275-1.501c1.871-0.581,4.074-0.453,6.008-0.459
				c3.295-0.004,6.598,0.217,9.866,0.618c2.861,0.355,11.075,0.995,11.038,5.27C88.959,34.107,87.438,33.967,87.443,32.986
				L87.443,32.986z"/>
		</g>
		<g>
			<path fill="#000100" d="M88.655,32.066c-1.712-2.609-5.345-3.653-8.185-4.529c-3.627-1.117-7.928-1.469-11.695-1.046
				c-3.537,0.403-6.48,1.776-9.122,4.1c-2.132,1.873-5.175,4.601-5.573,7.583c-0.129,0.975-1.656,0.848-1.525-0.137
				c0.414-3.106,3.027-5.656,5.166-7.741c2.914-2.849,6.006-4.438,10.031-5.194c4.072-0.769,8.545-0.136,12.531,0.806
				c3.232,0.763,7.621,2.242,9.535,5.157C90.354,31.887,89.193,32.889,88.655,32.066L88.655,32.066z"/>
		</g>
		<g>
			<path fill="#000100" d="M86.016,32.413c-2.51,0.812-4.947-0.77-7.435-1.082c-3.058-0.392-6.138-0.622-9.218-0.743
				c-3.41-0.137-6.734,0.077-9.777,1.754c-2.421,1.331-3.878,3.953-5.388,6.155c-0.558,0.813-1.817-0.056-1.257-0.873
				c3.136-4.585,5.969-7.706,11.771-8.453c3.395-0.44,6.951-0.037,10.338,0.249c1.857,0.156,3.707,0.379,5.555,0.63
				c1.84,0.256,3.14,1.505,5.137,0.856C86.68,30.604,86.943,32.112,86.016,32.413L86.016,32.413z"/>
		</g>
		<g>
			<path fill="#000100" d="M78.885,35.4c-1.766-1.583-5.226-0.977-7.359-0.819c-2.135,0.151-4.186,0.342-6.273,0.84
				c-4.967,1.183-10.088,4.181-11.24,9.511c-0.203,0.95-1.732,0.834-1.525-0.136c1.283-5.943,6.375-9.135,11.891-10.726
				c2.755-0.794,5.581-0.918,8.424-1.104c2.443-0.159,5.309-0.307,7.247,1.438C80.778,35.064,79.605,36.055,78.885,35.4L78.885,35.4
				z"/>
		</g>
		<g>
			<path fill="#000100" d="M75.079,38.068c-2.217-1.223-5.655,0.01-7.739,1.002c-2.604,1.24-4.459,3.6-5.893,6.021
				c-2.773,4.669-3.85,10.254-5.191,15.446c-0.245,0.958-1.684,0.429-1.438-0.521c1.595-6.191,2.952-12.705,6.799-17.966
				c2.799-3.835,9.584-7.862,14.334-5.242C76.814,37.287,75.936,38.543,75.079,38.068L75.079,38.068z"/>
		</g>
		<g>
			<path fill="#000100" d="M70.236,35.255c-2.502-0.231-4.896,1.818-6.691,3.312c-1.887,1.56-3.721,3.365-4.997,5.464
				c-1.831,3.012-2.72,6.602-3.641,9.968c-1.051,3.854-2.765,7.72-2.522,11.783c0.061,0.972-1.447,1.261-1.504,0.272
				c-0.249-4.144,1.301-7.867,2.373-11.798c1.115-4.083,2.242-8.149,4.459-11.792c1.383-2.279,3.772-4.24,5.824-5.869
				c1.893-1.506,4.311-3.103,6.836-2.867C71.357,33.824,71.223,35.348,70.236,35.255L70.236,35.255z"/>
		</g>
		<g>
			<path fill="#000100" d="M61.262,39.666c-11.648,10.189-10.55,25.051-8.346,38.994c0.15,0.975-1.354,1.252-1.509,0.275
				c-2.29-14.521-3.222-29.869,8.854-40.431C61.012,37.853,62,39.02,61.262,39.666L61.262,39.666z"/>
		</g>
		<g>
			<path fill="#000100" d="M62.782,47.489c-0.22,3.021-1.999,6.011-3.032,8.833c-1.237,3.381-2.533,6.773-3.401,10.269
				c-1.718,6.931-2.671,14.823,0.089,21.602c0.371,0.912-1.008,1.581-1.379,0.665c-2.617-6.424-2.049-13.533-0.729-20.193
				c0.694-3.506,1.838-6.834,3.023-10.199c0.631-1.783,1.281-3.564,1.947-5.338c0.708-1.875,1.807-3.755,1.957-5.775
				C61.331,46.366,62.852,46.507,62.782,47.489L62.782,47.489z"/>
		</g>
		<g>
			<path fill="#000100" d="M57.831,47.798c-0.851,3.351-2.114,6.469-2.712,9.897c-0.652,3.741-1.123,6.92-1.338,10.709
				c-0.463,8.251,0.508,16.24,1.905,24.056c0.352,1.952-1.155,2.227-1.51,0.273c-1.04-5.86-2.278-15.431-1.964-23.517
				c0.158-4.112,0.659-7.906,1.325-11.967c0.589-3.591,1.937-6.631,2.824-10.129C56.604,46.161,58.07,46.846,57.831,47.798
				L57.831,47.798z"/>
		</g>
		<g>
			<path fill="#000100" d="M54.654,43.188c-2.84,7.148-3.652,14.812-4.406,22.412c-0.799,8.084,0.385,17.091,3.197,24.695
				c0.34,0.917-1.038,1.585-1.382,0.662c-2.814-7.615-3.595-15.773-3.403-23.847c0.191-8.117,1.551-16.885,4.555-24.453
				C53.575,41.746,55.021,42.265,54.654,43.188L54.654,43.188z"/>
		</g>
		<g>
			<path fill="#000100" d="M53.082,41.656c-1.922,7.588-4.955,14.881-5.914,22.689c-1.033,8.373,1.689,17.059,4.998,24.624
				c0.395,0.905-0.984,1.569-1.379,0.664c-3.403-7.78-5.582-15.882-5.212-24.437c0.354-8.24,4.065-16.157,6.063-24.066
				C51.881,40.176,53.318,40.704,53.082,41.656L53.082,41.656z"/>
		</g>
		<g>
			<path fill="#000100" d="M56.281,35.125c-2.453,1.7-3.54,4.927-4.635,7.576c-1.176,2.854-2.479,5.621-3.426,8.562
				c-2.541,7.901-2.742,16.57,0.222,24.371c0.351,0.918-1.029,1.588-1.381,0.664c-3.046-8.026-2.836-16.525-0.532-24.718
				c0.979-3.47,2.564-6.698,3.938-10.022c1.107-2.691,2.334-5.875,4.816-7.597C56.091,33.4,57.093,34.562,56.281,35.125
				L56.281,35.125z"/>
		</g>
		<g>
			<path fill="#000100" d="M56.982,33.838c-3.508,4.355-7.419,8.437-9.838,13.549c-2.941,6.217-1.521,12.611,0.863,18.726
				c0.357,0.917-1.021,1.583-1.377,0.667c-2.368-6.067-3.723-12.1-1.535-18.433c2.051-5.941,6.773-10.596,10.63-15.382
				C56.343,32.198,57.604,33.068,56.982,33.838L56.982,33.838z"/>
		</g>
		<g>
			<path fill="#000100" d="M52.106,87.059c0.015-0.002,2.37,11.67,3.097,15.573c0.355,1.951-1.152,2.226-1.51,0.273
				c-0.725-3.9-2.368-11.669-3.092-15.569C50.243,85.38,51.752,85.107,52.106,87.059C52.106,87.059,51.752,85.104,52.106,87.059z"/>
		</g>
		<g>
			<path fill="#000100" d="M47.9,76.926c0.207,7.483,4.498,14.017,6.918,20.904c0.324,0.922-1.053,1.594-1.381,0.662
				c-2.529-7.186-6.846-13.887-7.065-21.701C46.347,75.804,47.873,75.947,47.9,76.926L47.9,76.926z"/>
		</g>
		<g>
			<path fill="#000100" d="M58.275,135.348c0.715,1.548,0.929,3.215,1.084,4.898c0.242,2.709,0.588,5.405,0.948,8.104
				c0.761,5.764,2.222,11.322,4.055,16.83c1.653,4.966,3.851,9.723,6.858,14.018c3.173,4.531,7.205,8.374,10.293,12.974
				c0.545,0.814-0.616,1.82-1.166,0.999c-3.082-4.599-7.021-8.514-10.291-12.975c-3.004-4.092-5.101-8.762-6.787-13.518
				c-1.756-4.938-3.195-10.041-4.053-15.212c-0.477-2.865-0.789-5.76-1.158-8.639c-0.295-2.285-0.181-4.679-1.166-6.817
				C56.48,135.117,57.86,134.449,58.275,135.348L58.275,135.348z"/>
		</g>
		<g>
			<path fill="#000100" d="M62.662,146.639c-0.198,11.282,4.684,21.965,9.684,31.816c0.455,0.885-0.931,1.546-1.377,0.664
				c-5.135-10.11-10.035-21.041-9.83-32.617C61.154,145.515,62.684,145.653,62.662,146.639L62.662,146.639z"/>
		</g>
		<g>
			<path fill="#000100" d="M59.276,142.119c0.628,9.764,1.624,20.074,5.772,29.044c3.76,8.146,9.455,15.229,13.328,23.322
				c0.428,0.89-0.953,1.558-1.379,0.666c-3.877-8.101-9.443-15.233-13.33-23.325c-4.327-8.999-5.266-19.594-5.9-29.436
				C57.705,141.418,59.21,141.133,59.276,142.119L59.276,142.119z"/>
		</g>
		<g>
			<path fill="#000100" d="M58.83,154.083c0.17,8.783,2.42,17.915,6.746,25.58c4.295,7.602,10.482,13.935,14.336,21.812
				c0.436,0.89-0.947,1.549-1.381,0.664c-3.975-8.119-10.326-14.715-14.756-22.561c-4.295-7.6-6.307-16.97-6.473-25.632
				C57.285,152.961,58.812,153.104,58.83,154.083L58.83,154.083z"/>
		</g>
		<g>
			<path fill="#000100" d="M59.263,160.749c0.458,14.489,9.676,26.692,16.423,38.897c0.48,0.868-0.902,1.525-1.379,0.667
				c-6.922-12.519-16.1-24.848-16.564-39.695C57.707,159.631,59.23,159.777,59.263,160.749L59.263,160.749z"/>
		</g>
		<g>
			<path fill="#000100" d="M58.46,167.75c1.755,4.963,3.288,9.817,5.783,14.474c2.735,5.096,6.463,9.623,10.444,13.785
				c0.682,0.717-0.486,1.71-1.164,1c-3.68-3.847-6.986-7.976-9.748-12.527c-3.071-5.056-4.742-10.53-6.693-16.065
				C56.754,167.494,58.135,166.818,58.46,167.75L58.46,167.75z"/>
		</g>
		<g>
			<path fill="#000100" d="M41.162,75.994c1.883,1.741,2.781,4.137,3.547,6.522c1.049,3.265,1.863,6.638,2.783,9.941
				c2.324,8.3,4.975,16.653,6.279,25.188c2.355,15.434,0.417,31.477-4.666,46.18c-0.32,0.932-1.762,0.408-1.441-0.524
				c5.027-14.54,6.766-30.123,4.602-45.379c-1.123-7.89-3.619-15.629-5.75-23.294c-0.85-3.062-1.762-6.111-2.566-9.181
				c-0.784-2.982-1.605-6.289-3.949-8.455C39.275,76.321,40.443,75.334,41.162,75.994L41.162,75.994z"/>
		</g>
		<g>
			<path fill="#000100" d="M45.381,88.596c3.67,15.721,5.639,31.805,5.805,47.947c0.137,13.409-1.678,26.533-8.221,38.419
				c-0.477,0.863-1.73-0.016-1.254-0.872c6.561-11.926,8.074-25.111,7.939-38.521c-0.162-15.709-2.206-31.409-5.777-46.7
				C43.65,87.908,45.158,87.637,45.381,88.596L45.381,88.596z"/>
		</g>
		<g>
			<path fill="#000100" d="M55.787,124.535c0.334,9.922-0.48,20.001-2.164,29.78c-1.418,8.232-4.77,16.328-10.291,22.657
				c-0.642,0.734-1.908-0.13-1.259-0.876c5.769-6.608,8.95-14.97,10.296-23.563c1.453-9.271,2.205-18.75,1.89-28.135
				C54.226,123.412,55.752,123.559,55.787,124.535L55.787,124.535z"/>
		</g>
		<g>
			<path fill="#000100" d="M56.146,149.178c0.504,5.32-1.469,10.281-3.592,15.056c-2.256,5.068-4.874,9.872-8.148,14.359
				c-0.58,0.796-1.844-0.073-1.26-0.874c2.844-3.898,5.24-8.042,7.266-12.421c2.271-4.927,4.754-10.289,4.229-15.849
				C54.551,148.474,56.055,148.191,56.146,149.178L56.146,149.178z"/>
		</g>
		<g>
			<path fill="#000100" d="M52.014,105.24c-1.766,13.619,0.073,27.4-1.938,41.006c-0.879,5.933-2.088,11.813-4.166,17.449
				c-2.195,5.951-5.857,10.836-9.63,15.855c-0.597,0.787-1.858-0.079-1.263-0.87c3.715-4.942,7.195-9.692,9.453-15.509
				c2.34-6.026,3.418-12.466,4.336-18.834c1.875-12.998-0.004-26.213,1.684-39.234C50.615,104.129,52.143,104.259,52.014,105.24
				L52.014,105.24z"/>
		</g>
		<g>
			<path fill="#000100" d="M51.189,134.769c0.32,3.262-1.146,6.817-2.049,9.901c-1.26,4.299-2.939,8.397-4.758,12.483
				c-3.291,7.409-6.673,14.851-12.166,20.925c-0.662,0.732-1.648-0.442-0.996-1.166c5.11-5.646,8.305-12.609,11.375-19.497
				c1.564-3.509,3.074-7.009,4.287-10.661c0.585-1.749,1.09-3.523,1.58-5.299c0.568-2.045,1.429-4.271,1.219-6.414
				C49.586,134.067,51.092,133.783,51.189,134.769L51.189,134.769z"/>
		</g>
		<g>
			<path fill="#000100" d="M38.783,75.316c2.438,5.314,3.547,11.191,5.072,16.806c1.788,6.569,3.346,13.139,4.428,19.864
				c2.117,13.161,2.771,26.548,1.568,39.837c-0.084,0.985-1.613,0.853-1.523-0.134c1.164-12.856,0.521-25.716-1.4-38.466
				c-0.971-6.418-2.395-12.708-4.076-18.978c-1.63-6.071-2.818-12.529-5.449-18.266C36.993,75.086,38.371,74.423,38.783,75.316
				L38.783,75.316z"/>
		</g>
		<g>
			<path fill="#000100" d="M38.834,79.874c0.053,5.739,2.035,11.188,3.856,16.56c1.868,5.506,2.966,11.159,3.705,16.917
				c1.603,12.481,1.342,25.112,2.814,37.607c0.108,0.975-1.397,1.255-1.512,0.273c-1.464-12.493-1.303-25.113-2.81-37.606
				c-0.754-6.225-2.116-12.224-4.131-18.154c-1.742-5.114-3.396-10.282-3.453-15.736C37.299,78.753,38.825,78.892,38.834,79.874
				L38.834,79.874z"/>
		</g>
		<g>
			<path fill="#000100" d="M65.049,18.613c-1.414-1.2-4.865,0.537-6.15,1.237c-2.422,1.319-4.455,3.392-6.271,5.435
				c-3.215,3.617-5.779,7.754-8.861,11.476c-0.631,0.757-1.896-0.11-1.264-0.87c3.771-4.546,6.854-9.61,11.044-13.801
				c2.06-2.057,4.47-3.743,7.2-4.771c1.407-0.53,3.913-1.036,5.176,0.038C66.666,17.992,65.801,19.255,65.049,18.613L65.049,18.613z
				"/>
		</g>
		<g>
			<path fill="#000100" d="M63.133,20.461c-4.986,0.018-10.253,4.206-13.768,7.364c-4.066,3.648-6.965,8.289-9.012,13.318
				c-3.665,8.991-2.953,18.755-1.098,28.063c0.195,0.974-1.314,1.244-1.504,0.277c-2.11-10.561-2.422-21.126,2.132-31.115
				c2.276-4.98,5.604-9.259,9.749-12.816c3.607-3.1,8.729-6.602,13.637-6.619C64.256,18.932,64.113,20.457,63.133,20.461
				L63.133,20.461z"/>
		</g>
		<g>
			<path fill="#000100" d="M47.553,34.775c-1.691,3.044-3.285,6.015-4.135,9.419c-0.908,3.654-1.543,7.338-1.924,11.085
				c-0.744,7.294-0.314,14.699,1.28,21.854c0.214,0.965-1.294,1.236-1.506,0.275C39.572,69.795,39.268,62,40.057,54.253
				c0.363-3.572,1.049-7.104,1.925-10.586c0.886-3.529,2.554-6.607,4.309-9.762C46.773,33.039,48.031,33.918,47.553,34.775
				L47.553,34.775z"/>
		</g>
		<g>
			<path fill="#000100" d="M41.832,42.012c0.799,7.074-2.85,13.493-2.945,20.471c-0.104,7.81,0.604,16.194,4.373,23.18
				c0.475,0.871-0.91,1.528-1.377,0.663c-3.418-6.327-4.275-13.636-4.494-20.721c-0.113-3.691,0.307-7.106,1.17-10.683
				c1.002-4.162,2.254-8.311,1.768-12.636C40.215,41.311,41.721,41.03,41.832,42.012L41.832,42.012z"/>
		</g>
		<g>
			<path fill="#000100" d="M39.059,52.584c-0.174,5.564-0.885,10.916-0.518,16.506c0.387,5.812,1.559,11.566,3.511,17.051
				c0.327,0.92-1.052,1.596-1.381,0.666c-2.011-5.65-3.163-11.473-3.637-17.444c-0.454-5.715,0.319-11.222,0.495-16.913
				C37.562,51.461,39.089,51.601,39.059,52.584L39.059,52.584z"/>
		</g>
		<g>
			<path fill="#000100" d="M36.777,49.034c-2.193,5.427-1.911,11.595-1.471,17.323c0.502,6.506,2.189,12.988,5.26,18.756
				c0.465,0.874-0.92,1.534-1.381,0.66c-3.293-6.185-4.914-13.064-5.451-20.022c-0.441-5.71-0.574-11.843,1.604-17.236
				C35.703,47.598,37.148,48.119,36.777,49.034L36.777,49.034z"/>
		</g>
		<g>
			<path fill="#000100" d="M32.873,68.502c-0.314,4.346,0.15,8.654,0.318,12.992c0.176,4.654-0.164,9.299-0.656,13.922
				c-0.98,9.145-2.951,18.185-5.496,27.01c-0.275,0.951-1.713,0.425-1.439-0.521c2.518-8.719,4.377-17.603,5.408-26.623
				c0.488-4.305,0.797-8.666,0.689-13c-0.113-4.651-0.688-9.258-0.352-13.917C31.418,67.383,32.941,67.518,32.873,68.502
				L32.873,68.502z"/>
		</g>
		<g>
			<path fill="#000100" d="M31.617,77.295c-1.191,7.318-1.855,14.711-3.527,21.944c-1.732,7.506-5.033,14.536-6.35,22.151
				c-0.169,0.964-1.695,0.84-1.527-0.137c1.186-6.857,3.833-13.301,5.762-19.965c2.273-7.851,2.805-16.093,4.119-24.133
				C30.25,76.191,31.779,76.315,31.617,77.295L31.617,77.295z"/>
		</g>
		<g>
			<path fill="#000100" d="M31.278,82.989c-6.593,14.282-11.533,29.549-9.522,45.457c0.122,0.977-1.385,1.256-1.506,0.272
				c-2.047-16.188,2.875-31.705,9.591-46.252C30.252,81.578,31.695,82.09,31.278,82.989L31.278,82.989z"/>
		</g>
		<g>
			<path fill="#000100" d="M35.543,91.735c3.766,10.103,3.344,21.919,2.845,32.539c-0.548,11.617-2.394,23.244-6.066,34.301
				c-0.309,0.939-1.753,0.413-1.44-0.52c3.541-10.673,5.277-21.804,5.936-33.006c0.305-5.264,0.27-10.536,0.099-15.804
				c-0.19-5.688-0.757-11.477-2.752-16.844C33.822,91.48,35.199,90.809,35.543,91.735L35.543,91.735z"/>
		</g>
		<g>
			<path fill="#000100" d="M44.678,108.964c1.158,10.325,1.453,21.06-0.433,31.312c-1.761,9.54-5.799,18.471-9.775,27.251
				c-0.405,0.894-1.85,0.38-1.442-0.522c3.938-8.693,7.822-17.461,9.689-26.864c1.992-10.046,1.59-20.782,0.453-30.899
				C43.057,108.264,44.566,107.982,44.678,108.964L44.678,108.964z"/>
		</g>
		<g>
			<path fill="#000100" d="M44.623,130.201c-2.219,13.887-7.455,26.962-13.646,39.518c-0.435,0.877-1.876,0.366-1.441-0.524
				c6.129-12.428,11.365-25.378,13.562-39.129C43.25,129.099,44.775,129.223,44.623,130.201L44.623,130.201z"/>
		</g>
		<g>
			<path fill="#000100" d="M42.48,133.113c-3.123,12.587-7.675,24.727-11.963,36.948c-0.324,0.933-1.768,0.411-1.437-0.521
				c4.286-12.224,8.837-24.363,11.958-36.95C41.274,131.633,42.716,132.164,42.48,133.113L42.48,133.113z"/>
		</g>
		<g>
			<path fill="#000100" d="M37.266,98.771c-2.865,10.188-2.478,20.869-3.67,31.301c-1.309,11.432-3.234,22.79-5.637,34.041
				c-0.203,0.952-1.735,0.832-1.529-0.135c2.402-11.256,4.295-22.612,5.641-34.041c1.238-10.578,0.85-21.359,3.754-31.692
				C36.092,97.297,37.529,97.822,37.266,98.771L37.266,98.771z"/>
		</g>
		<g>
			<path fill="#000100" d="M35.875,106.808c-0.965,3.925-2.297,7.749-3.159,11.7c-0.876,4.014-1.549,8.08-2.142,12.146
				c-1.131,7.743-1.705,15.582-1.592,23.414c0.014,0.982-1.51,0.841-1.525-0.138c-0.12-8.159,0.552-16.292,1.727-24.358
				c0.593-4.062,1.333-8.107,2.209-12.116c0.822-3.773,2.121-7.425,3.043-11.173C34.668,105.324,36.109,105.854,35.875,106.808
				L35.875,106.808z"/>
		</g>
		<g>
			<path fill="#000100" d="M35.852,96.691c-3.1,6.996-3.895,15.359-4.939,22.881c-1.178,8.509-1.844,17.092-1.973,25.681
				c-0.018,0.985-1.545,0.845-1.529-0.135c0.137-8.913,0.882-17.794,2.105-26.62c1.02-7.344,1.871-15.498,4.895-22.33
				C34.808,95.269,36.249,95.786,35.852,96.691L35.852,96.691z"/>
		</g>
		<g>
			<path fill="#000100" d="M35.949,89.53c0.533,3.946-0.604,8.001-1.311,11.867c-0.812,4.472-1.662,8.936-2.422,13.414
				c-0.163,0.966-1.69,0.839-1.52-0.135c0.697-4.162,1.473-8.309,2.242-12.457c0.73-3.975,2.051-8.358,1.502-12.412
				C34.309,88.832,35.818,88.553,35.949,89.53L35.949,89.53z"/>
		</g>
		<g>
			<path fill="#000100" d="M34.234,84.395c0.719,5.023-0.197,10.371-0.812,15.36c-0.711,5.819-1.606,11.612-2.597,17.388
				c-0.164,0.967-1.694,0.839-1.525-0.137c0.881-5.134,1.672-10.278,2.349-15.443c0.713-5.435,1.862-11.42,1.079-16.892
				C32.588,83.695,34.097,83.418,34.234,84.395L34.234,84.395z"/>
		</g>
		<g>
			<path fill="#000100" d="M31.167,94.764c-0.118,3.582-1.247,6.921-2.158,10.355c-1.108,4.186-1.896,8.453-2.396,12.76
				c-0.98,8.439-0.688,17.021,0.441,25.433c0.131,0.976-1.375,1.253-1.507,0.274c-1.075-7.985-1.331-16.042-0.64-24.068
				c0.334-3.885,0.979-7.729,1.848-11.526c1.012-4.421,2.733-8.799,2.881-13.363C29.67,93.64,31.196,93.779,31.167,94.764
				L31.167,94.764z"/>
		</g>
		<g>
			<path fill="#000100" d="M24.928,115.932c0.373,6.003-0.338,11.99,0.104,17.992c0.489,6.613,1.074,13.206,2.846,19.618
				c0.266,0.954-1.246,1.22-1.502,0.276c-1.689-6.096-2.304-12.355-2.775-18.645c-0.482-6.334,0.219-12.641-0.179-18.966
				C23.356,115.232,24.862,114.949,24.928,115.932L24.928,115.932z"/>
		</g>
		<g>
			<path fill="#000100" d="M14.427,122.567c1.958,4.894,3.253,9.984,4.409,15.117c1.281,5.682,2.688,11.343,3.88,17.04
				c2.348,11.184,2.919,22.777,0.907,34.051c-0.174,0.966-1.7,0.842-1.525-0.135c1.999-11.198,1.352-22.529-0.886-33.642
				c-1.03-5.104-2.376-10.151-3.483-15.241c-1.225-5.604-2.549-11.189-4.682-16.524C12.684,122.318,14.059,121.65,14.427,122.567
				L14.427,122.567z"/>
		</g>
		<g>
			<path fill="#000100" d="M20.932,135.344c5.094,16.68,8.01,34.295,5.226,51.676c-0.153,0.969-1.681,0.841-1.524-0.139
				c2.768-17.254-0.152-34.706-5.207-51.263C19.137,134.676,20.648,134.412,20.932,135.344L20.932,135.344z"/>
		</g>
		<g>
			<path fill="#000100" d="M22.219,135.422c1.598,3.606,3.412,7.117,4.661,10.866c1.239,3.721,1.976,7.604,2.421,11.494
				c0.933,8.236,0.312,16.596-0.309,24.829c-0.076,0.981-1.604,0.846-1.527-0.137c0.589-7.825,1.1-15.675,0.42-23.514
				c-0.338-3.885-1.205-7.594-2.195-11.355c-1.057-4.018-3.184-7.741-4.854-11.52C20.438,135.186,21.816,134.52,22.219,135.422
				L22.219,135.422z"/>
		</g>
		<g>
			<path fill="#000100" d="M21.604,147.73c2.108,6.135,1.979,12.888,2.175,19.306c0.217,7.118,0.215,14.259-0.748,21.331
				c-0.132,0.973-1.657,0.846-1.524-0.139c0.879-6.463,0.943-12.969,0.799-19.479c-0.154-6.675,0.115-13.965-2.078-20.354
				C19.908,147.472,21.28,146.799,21.604,147.73L21.604,147.73z"/>
		</g>
		<g>
			<path fill="#000100" d="M53.627,168.266c-2.691,12.748-7.354,24.922-13.146,36.571c-0.434,0.876-1.881,0.362-1.439-0.522
				c5.723-11.518,10.395-23.576,13.06-36.186C52.301,167.177,53.83,167.299,53.627,168.266L53.627,168.266z"/>
		</g>
		<g>
			<path fill="#000100" d="M50.591,170.115c-0.171,5.895-2.601,11.819-4.587,17.301c-1.934,5.349-4.48,10.729-8.939,14.434
				c-0.761,0.631-1.758-0.532-1-1.166c4.283-3.557,6.602-8.68,8.502-13.791c1.977-5.324,4.332-11.192,4.496-16.911
				C49.094,168.993,50.615,169.131,50.591,170.115L50.591,170.115z"/>
		</g>
		<g>
			<path fill="#000100" d="M47.118,173.863c-0.558,3.514-2.624,6.779-3.972,10.046c-1.682,4.071-3.145,8.235-4.471,12.433
				c-0.295,0.946-1.737,0.422-1.441-0.521c1.143-3.61,2.395-7.177,3.774-10.698c1.438-3.675,3.967-7.496,4.586-11.397
				C45.746,172.759,47.275,172.883,47.118,173.863L47.118,173.863z"/>
		</g>
		<g>
			<path fill="#000100" d="M42.496,171.123c1.162,3.611-0.613,8.061-1.602,11.559c-1.27,4.524-2.905,8.944-4.612,13.317
				c-0.364,0.921-1.805,0.403-1.441-0.521c1.48-3.797,2.873-7.62,4.079-11.512c1.135-3.652,3.283-8.79,2.068-12.569
				C40.688,170.457,42.199,170.197,42.496,171.123L42.496,171.123z"/>
		</g>
		<g>
			<path fill="#000100" d="M38.761,173.566c-0.659,3.109-1.925,6.022-2.583,9.141c-0.742,3.514-1.298,7.065-1.863,10.613
				c-0.159,0.967-1.687,0.842-1.527-0.139c0.569-3.547,1.15-7.086,1.863-10.613c0.633-3.124,1.926-6.03,2.584-9.139
				C37.438,172.478,38.965,172.598,38.761,173.566L38.761,173.566z"/>
		</g>
		<g>
			<path fill="#000100" d="M35.074,174.545c0.373,3.32-0.824,6.699-1.303,9.969c-0.555,3.787-0.807,7.617-1.058,11.433
				c-0.064,0.985-1.591,0.851-1.529-0.136c0.233-3.51,0.501-7.015,0.937-10.508c0.422-3.392,1.832-7.062,1.447-10.48
				C33.459,173.847,34.965,173.566,35.074,174.545L35.074,174.545z"/>
		</g>
		<g>
			<path fill="#000100" d="M33.646,174.423c-1.633,7.245-2.617,14.548-1.606,21.956c0.134,0.974-1.372,1.256-1.505,0.275
				c-1.051-7.688-0.019-15.237,1.674-22.754C32.428,172.94,33.863,173.473,33.646,174.423L33.646,174.423z"/>
		</g>
		<g>
			<path fill="#000100" d="M29.095,181.606c0.495,4.621-0.026,9.287,0.71,13.882c0.154,0.976-1.352,1.254-1.509,0.277
				c-0.735-4.606-0.213-9.263-0.706-13.886C27.482,180.903,28.988,180.625,29.095,181.606L29.095,181.606z"/>
		</g>
		<g>
			<path fill="#000100" d="M42.743,36.291c-1.53,1.296-2.284,4.211-3.151,6.006c-1.099,2.259-2.123,4.545-3.213,6.81
				c-2.298,4.808-3.914,9.917-5.273,15.062c-2.749,10.403-2.998,21.329-6.059,31.635c-0.279,0.948-1.72,0.424-1.439-0.523
				c1.619-5.448,2.251-11.073,3.082-16.676c0.793-5.34,1.84-10.646,3.213-15.863c1.457-5.492,3.423-10.73,5.848-15.862
				c1.168-2.471,2.324-4.945,3.521-7.397c0.75-1.538,1.123-3.207,2.473-4.352C42.498,34.488,43.492,35.653,42.743,36.291
				L42.743,36.291z"/>
		</g>
		<g>
			<path fill="#000100" d="M39.748,38.391c-1.811,1.729-2.705,4.121-3.773,6.331c-1.183,2.447-2.283,4.936-3.267,7.466
				c-1.853,4.766-3.159,9.816-4.606,14.72c-3,10.177-5.09,20.598-3.818,31.236c0.115,0.979-1.393,1.256-1.508,0.273
				c-1.305-10.936,0.842-21.569,3.889-32.038c1.596-5.493,3.13-11.098,5.275-16.405c0.994-2.467,2.178-4.854,3.307-7.259
				c0.93-1.993,1.889-3.949,3.506-5.486C39.469,36.545,40.461,37.713,39.748,38.391L39.748,38.391z"/>
		</g>
		<g>
			<path fill="#000100" d="M34.217,46.388c-2.903,9.827-6.881,19.304-9.472,29.231c-2.677,10.271-4.642,20.822-4.309,31.479
				c0.027,0.982-1.497,0.838-1.528-0.141c-0.326-10.508,1.627-20.824,4.17-30.975c2.57-10.245,6.71-19.998,9.703-30.121
				C33.059,44.916,34.495,45.441,34.217,46.388L34.217,46.388z"/>
		</g>
		<g>
			<path fill="#000100" d="M30.842,56.344c-0.475,1.882-1.408,3.574-2.07,5.389c-0.747,2.063-1.391,4.167-2.006,6.275
				c-1.33,4.565-2.393,9.205-3.49,13.828c-1.141,4.815-2.336,9.624-3.443,14.45c-1.061,4.618-2.269,9.4-2.16,14.167
				c0.023,0.988-1.501,0.842-1.528-0.138c-0.097-4.248,0.888-8.478,1.81-12.606c1.082-4.852,2.268-9.674,3.43-14.503
				c1.117-4.644,2.186-9.294,3.435-13.903c0.656-2.423,1.396-4.827,2.203-7.209c0.725-2.121,1.835-4.101,2.38-6.274
				C29.639,54.86,31.076,55.395,30.842,56.344L30.842,56.344z"/>
		</g>
		<g>
			<path fill="#000100" d="M27.965,70.198c-2.232,1.159-2.994,4.829-3.762,7.021c-1.137,3.258-2.469,6.428-3.496,9.729
				c-1.256,4.056-2.293,8.214-3.063,12.388c-0.745,4-1.431,8.033-0.802,12.102c0.15,0.971-1.359,1.249-1.506,0.275
				c-1.277-8.251,1.579-17.449,3.936-25.287c1.109-3.693,2.612-7.224,3.885-10.853c0.823-2.351,1.764-5.52,4.146-6.754
				C28.182,68.363,28.84,69.745,27.965,70.198L27.965,70.198z"/>
		</g>
		<g>
			<path fill="#000100" d="M28.49,59.104c-3.871,8.737-5.963,18.087-8.408,27.288c-2.569,9.683-3.923,19.616-2.672,29.611
				c0.125,0.976-1.379,1.254-1.508,0.273c-1.212-9.68-0.027-19.214,2.289-28.641c2.404-9.787,4.768-19.814,8.859-29.053
				C27.445,57.688,28.891,58.199,28.49,59.104L28.49,59.104z"/>
		</g>
		<g>
			<path fill="#000100" d="M24.042,78.858c-4.032,10.708-6.646,22.149-5.968,33.651c0.057,0.971-1.451,1.258-1.508,0.273
				c-0.693-11.785,1.9-23.467,6.034-34.446C22.947,77.415,24.389,77.932,24.042,78.858L24.042,78.858z"/>
		</g>
		<g>
			<path fill="#000100" d="M97.547,25.9c-0.75-4.758-5.226-8.833-9.187-11.152c-4.577-2.685-10.243-3.393-15.453-3.334
				c-0.989,0.014-0.845-1.513,0.136-1.524c5.863-0.067,11.74,0.99,16.85,3.983c4.064,2.388,8.402,6.959,9.16,11.755
				C99.209,26.605,97.701,26.881,97.547,25.9L97.547,25.9z"/>
		</g>
		<g>
			<path fill="#000100" d="M102.381,28.087c-2-5.408-4.292-10.925-8.18-15.27c-1.938-2.168-10.955-6.909-12.587-2.564
				c-0.345,0.924-1.786,0.402-1.436-0.523c1.796-4.798,9.032-1.945,12.143-0.3c6.161,3.258,9.175,11.875,11.441,17.988
				C104.104,28.338,102.727,29.007,102.381,28.087L102.381,28.087z"/>
		</g>
		<g>
			<path fill="#000100" d="M108.291,31.596c0.377-1.49-0.158-2.834-0.297-4.288c-0.137-1.45-0.176-2.909-0.288-4.364
				c-0.242-3.153-1.105-6.078-3.125-8.558c-2.98-3.671-8.175-4.942-12.483-6.281c-0.941-0.292-0.416-1.731,0.522-1.44
				c5.183,1.613,10.653,3.218,13.975,7.827c1.728,2.397,2.335,5.297,2.618,8.178c0.166,1.729,0.205,3.468,0.368,5.194
				c0.153,1.594,0.548,2.668,0.151,4.263C109.491,33.08,108.052,32.551,108.291,31.596L108.291,31.596z"/>
		</g>
		<g>
			<path fill="#000100" d="M75.666,10.914c-3.986,0.086-7.6,0.271-11.148,2.285c-3.992,2.269-7.246,5.807-10.612,8.863
				c-0.735,0.665-1.726-0.502-0.997-1.164c3.533-3.208,6.904-6.493,10.945-9.08c3.58-2.295,7.85-2.342,11.95-2.429
				C76.791,9.365,76.648,10.894,75.666,10.914L75.666,10.914z"/>
		</g>
		<g>
			<path fill="#000100" d="M72.261,36.965c-6.89,3.354-9.997,10.09-14.11,16.123c-0.559,0.814-1.813-0.058-1.258-0.874
				c4.285-6.282,7.541-13.144,14.705-16.627C72.484,35.152,73.148,36.534,72.261,36.965L72.261,36.965z"/>
		</g>
		<g>
			<path fill="#000100" d="M72.838,39.115c-2.289,2.137-4.742,4.021-6.713,6.479c-1.893,2.359-3.324,5.083-4.824,7.699
				c-0.49,0.854-1.746-0.021-1.259-0.873c1.509-2.635,2.993-5.27,4.827-7.698c1.964-2.607,4.604-4.56,6.971-6.768
				C72.564,37.277,73.558,38.445,72.838,39.115L72.838,39.115z"/>
		</g>
		<g>
			<path fill="#000100" d="M84.337,33.468c-1.888,1.034-4.095,0.64-6.104,0.164c-2.709-0.644-5.383-0.926-8.153-1.146
				c-6.392-0.507-14.027-0.63-18.979,4.101c-0.717,0.685-1.711-0.486-0.998-1.163c4.174-3.986,10.053-4.674,15.582-4.667
				c3.131,0.002,6.256,0.339,9.361,0.649c2.746,0.278,5.99,2.122,8.632,0.684C84.545,31.613,85.204,33,84.337,33.468L84.337,33.468z
				"/>
		</g>
		<g>
			<path fill="#000100" d="M65.434,31.779c-0.764,0.846-1.813,0.724-2.88,1.074c-1.755,0.583-3.244,1.848-4.589,3.071
				c-2.739,2.487-4.888,5.675-6.779,8.826c-0.507,0.853-1.766-0.027-1.261-0.871c1.854-3.09,3.963-5.99,6.479-8.575
				c1.099-1.129,2.339-2.08,3.658-2.928c0.761-0.49,1.593-0.822,2.443-1.104c0.287-0.097,1.501-0.181,1.665-0.364
				C64.824,30.186,66.088,31.045,65.434,31.779L65.434,31.779z"/>
		</g>
		<g>
			<path fill="#000100" d="M34.902,50.154c-2.014,4.471-4.076,8.906-5.293,13.679c-0.245,0.959-1.684,0.427-1.441-0.521
				c1.221-4.777,3.277-9.211,5.294-13.684C33.867,48.735,35.311,49.252,34.902,50.154L34.902,50.154z"/>
		</g>
		<g>
			<path fill="#000100" d="M17.467,107.896c-1.793,8.796,0.391,17.771,2.231,26.376c0.21,0.966-1.301,1.237-1.507,0.276
				c-1.867-8.729-4.07-17.866-2.25-26.788C16.135,106.806,17.662,106.927,17.467,107.896L17.467,107.896z"/>
		</g>
		<g>
			<path fill="#000100" d="M16.247,113.878c0.703,2.61-0.405,5.783-0.396,8.491c0.014,3.797,0.928,7.576,1.91,11.217
				c0.254,0.956-1.254,1.221-1.513,0.273c-0.854-3.182-1.55-6.373-1.834-9.66c-0.133-1.548-0.104-3.103-0.017-4.648
				c0.102-1.768,0.812-3.646,0.341-5.398C14.482,113.198,15.992,112.93,16.247,113.878L16.247,113.878z"/>
		</g>
		<g>
			<path fill="#000100" d="M57.41,123.462c-0.832,8.263,0.676,16.485,1.66,24.663c0.118,0.976-1.391,1.258-1.508,0.275
				c-1.002-8.313-2.524-16.68-1.684-25.072C55.98,122.346,57.508,122.477,57.41,123.462L57.41,123.462z"/>
		</g>
		<g>
			<path fill="#000100" d="M58.906,137.256c0.846,4.973,0.854,10.03,1.691,15.002c0.168,0.975-1.341,1.248-1.504,0.273
				c-0.84-4.969-0.849-10.029-1.691-15.004C57.234,136.555,58.744,136.279,58.906,137.256L58.906,137.256z"/>
		</g>
		<g>
			<path fill="#000100" d="M103.699,132.667c1.348-1.117,2.09-1.874,3.912-1.62c1.154,0.155,2.294,0.476,3.457,0.635
				c1.523,0.215,2.938-0.407,4.369-0.824c0.951-0.276,1.213,1.234,0.275,1.508c-1.676,0.488-3.02,0.924-4.783,0.84
				c-2.43-0.111-4.066-1.174-6.236,0.627C103.936,134.461,102.936,133.301,103.699,132.667L103.699,132.667z"/>
		</g>
		<g>
			<path fill="#000100" d="M103.879,134.153c-2.455-1.173-4.397,0.915-6.643,1.796c-1.828,0.72-3.822,0.97-5.775,0.715
				c-0.974-0.125-0.846-1.652,0.139-1.525c2.946,0.378,5.718-0.603,8.15-2.219c1.851-1.229,2.74-1.121,4.656-0.208
				C105.288,133.131,104.775,134.579,103.879,134.153L103.879,134.153z"/>
		</g>
		<g>
			<path fill="#000100" d="M116.65,132.521c-5.608,5.271-16.322,5.953-23.561,4.538c-0.955-0.186-0.831-1.712,0.139-1.523
				c6.834,1.338,17.1,0.828,22.426-4.179C116.377,130.678,117.37,131.847,116.65,132.521L116.65,132.521z"/>
		</g>
		<g>
			<path fill="#000100" d="M117.497,132.502c-1.651,2.121-2.435,4.522-4.474,6.39c-1.918,1.755-4.607,2.441-7.083,2.983
				c-2.733,0.6-4.963,0.196-7.532-0.829c-2.607-1.034-4.689-2.778-7.215-3.892c-0.896-0.395-0.384-1.84,0.525-1.438
				c4.402,1.938,7.854,5.517,13.082,4.806c2.58-0.352,5.17-1.167,7.226-2.794c2.034-1.613,2.677-4.123,4.216-6.096
				C116.848,130.854,118.109,131.725,117.497,132.502L117.497,132.502z"/>
		</g>
		<g>
			<path fill="#000100" d="M56.793,94.274c0,0,1.714,13.902,3.136,20.687c1.443,6.886,4.11,13.426,7.325,19.662
				c2.971,5.762,5.768,11.482,6.887,17.922c1.274,7.343,1.213,14.863,2.49,22.211c0.174,0.97-1.334,1.25-1.504,0.279
				c-1.223-7.031-1.324-14.182-2.34-21.236c-1.004-6.986-4.126-13.064-7.318-19.251c-3.006-5.827-5.348-12.042-6.854-18.424
				c-1.652-7.033-1.91-13.765-3.328-21.573C54.93,92.598,56.438,92.322,56.793,94.274C56.793,94.274,56.438,92.322,56.793,94.274z"
				/>
		</g>
		<g>
			<path fill="#000100" d="M56.732,109.623c0.319,2.422,1.027,4.718,1.765,7.039c0.909,2.869,1.538,5.807,2.499,8.656
				c1.802,5.359,4.41,10.367,6.738,15.504c4.386,9.681,7.353,20.133,7.264,30.818c-0.006,0.989-1.533,0.847-1.525-0.138
				c0.087-11.066-3.271-21.711-7.879-31.67c-2.25-4.864-4.564-9.647-6.28-14.74c-0.807-2.398-1.331-4.862-2.05-7.281
				c-0.787-2.631-1.682-5.181-2.038-7.913C55.102,108.924,56.605,108.645,56.732,109.623L56.732,109.623z"/>
		</g>
		<g>
			<path fill="#000100" d="M56.672,117.991c3.879,6.56,6.037,14.509,8.261,21.762c2.608,8.489,4.371,17.218,6.153,25.905
				c0.195,0.971-1.307,1.241-1.51,0.275c-1.649-8.053-3.328-16.097-5.586-24.006c-1.216-4.259-2.762-8.398-4.168-12.592
				c-1.236-3.682-2.547-7.326-4.531-10.679C54.785,117.807,56.172,117.15,56.672,117.991L56.672,117.991z"/>
		</g>
		<g>
			<path fill="#000100" d="M58.268,126.44c1.438,1.212,2.018,2.934,2.562,4.679c0.998,3.162,1.726,6.42,2.619,9.615
				c2.084,7.432,4.27,14.835,5.876,22.391c0.206,0.965-1.302,1.237-1.508,0.275c-1.399-6.566-3.22-13.027-5.055-19.484
				c-0.874-3.094-1.712-6.196-2.569-9.297c-0.611-2.22-0.933-5.35-2.797-6.921C56.648,127.07,57.513,125.805,58.268,126.44
				L58.268,126.44z"/>
		</g>
		<g>
			<path fill="#000100" d="M66.45,146.055c1.403,3.312,1.589,7.223,2.298,10.729c0.838,4.164,1.783,8.302,2.726,12.438
				c0.22,0.966-1.286,1.233-1.51,0.272c-0.864-3.819-1.728-7.641-2.526-11.477c-0.762-3.646-0.911-7.857-2.369-11.297
				C64.686,145.811,66.066,145.146,66.45,146.055L66.45,146.055z"/>
		</g>
		<g>
			<path fill="#000100" d="M75.045,160.473c0.083,3.605-0.441,7.166-0.64,10.757c-0.056,0.986-1.579,0.853-1.525-0.138
				c0.202-3.588,0.721-7.148,0.636-10.751C73.49,159.354,75.02,159.499,75.045,160.473L75.045,160.473z"/>
		</g>
		<g>
			<path fill="#000100" d="M68.568,190.477c2.111,5.759,4.826,11.273,6.913,17.051c2.015,5.595,3.044,11.49,3.665,17.387
				c0.609,5.761,0.77,11.65,0.255,17.421c-0.552,6.203-1.503,12.183,0.233,18.303c0.271,0.949-1.238,1.219-1.506,0.276
				c-1.441-5.088-1.164-10.164-0.607-15.36c0.672-6.183,0.77-12.284,0.287-18.491c-0.492-6.397-1.609-12.8-3.711-18.872
				c-2.006-5.799-4.8-11.29-6.909-17.052C66.85,190.222,68.23,189.553,68.568,190.477L68.568,190.477z"/>
		</g>
		<g>
			<path fill="#000100" d="M72.85,236.819c0.164,10.194,2.236,20.269,1.744,30.479c-0.047,0.987-1.576,0.848-1.529-0.134
				c0.495-10.211-1.582-20.292-1.738-30.479C71.311,235.697,72.836,235.841,72.85,236.819L72.85,236.819z"/>
		</g>
		<g>
			<path fill="#000100" d="M72.84,232.812c1.816,8.674,0.529,17.59,1.684,26.335c0.127,0.979-1.379,1.256-1.508,0.275
				c-1.152-8.746,0.133-17.671-1.684-26.34C71.133,232.119,72.637,231.845,72.84,232.812L72.84,232.812z"/>
		</g>
		<g>
			<path fill="#000100" d="M66.143,184.757c-0.006,2.716,0.265,5.423,0.227,8.137c-0.049,3.256-0.775,6.57-1.154,9.803
				c-0.77,6.54-1.48,12.372-1.354,18.968c0.248,12.968,3.07,28.099,4.846,37.86c0.354,1.952-1.15,2.228-1.506,0.275
				c-1.777-9.762-4.4-24.497-4.846-37.296c-0.223-6.595,0.427-12.753,1.158-19.297c0.371-3.289,0.957-6.393,1.254-9.684
				c0.268-3.008-0.172-5.972-0.168-8.984C64.604,183.554,66.146,183.774,66.143,184.757L66.143,184.757z"/>
		</g>
		<g>
			<path fill="#000100" d="M63.818,187.049c0.945,6.109-0.672,12.464-1.291,18.541c-0.797,7.769-1.252,15.472-0.529,23.264
				c0.689,7.323,1.959,14.592,2.997,21.869c1.017,7.119,3.188,13.928,7.347,19.845c0.567,0.806-0.596,1.808-1.164,0.998
				c-3.633-5.171-5.824-10.903-7.092-17.073c-1.506-7.363-2.392-15.002-3.283-22.467c-0.904-7.582-0.84-15.064-0.181-22.662
				c0.323-3.706,0.709-7.415,1.224-11.102c0.508-3.629,1.028-7.285,0.469-10.938C62.163,186.35,63.672,186.073,63.818,187.049
				L63.818,187.049z"/>
		</g>
		<g>
			<path fill="#000100" d="M64.092,191.702c-5.664,10.146-5.729,23.716-4.533,34.963c0.729,6.854,2.182,13.622,3.422,20.396
				c1.232,6.732,2.508,13.458,5.938,19.475c0.492,0.859-0.895,1.517-1.379,0.662c-3.34-5.851-4.696-12.387-5.902-18.946
				c-1.416-7.734-3.027-15.441-3.785-23.281c-1.07-11.085-0.564-24.204,4.981-34.141C63.314,189.967,64.572,190.847,64.092,191.702
				L64.092,191.702z"/>
		</g>
		<g>
			<path fill="#000100" d="M60.379,202.948c-0.955,2.604-1.727,4.86-1.854,7.674c-0.144,3.113-0.359,6.222-0.481,9.335
				c-0.263,6.66,0.497,13.262,1.278,19.864c0.763,6.438,1.825,12.946,4.16,19.024c2.413,6.282,6.228,11.986,10.232,17.354
				c0.587,0.792-0.573,1.791-1.165,0.997c-3.922-5.271-7.512-10.779-10.104-16.838c-2.613-6.107-3.678-12.821-4.52-19.365
				c-0.864-6.715-1.604-13.474-1.438-20.249c0.082-3.421,0.338-6.843,0.508-10.261c0.15-2.971,0.93-5.3,1.943-8.062
				C59.278,201.497,60.719,202.018,60.379,202.948L60.379,202.948z"/>
		</g>
		<g>
			<path fill="#000100" d="M56.77,205.494c-0.692,5.536-1.752,10.707-1.398,16.335c0.354,5.659,1.685,11.231,2.947,16.737
				c0.222,0.963-1.287,1.237-1.508,0.274c-1.336-5.835-2.63-11.678-3.006-17.663c-0.34-5.43,0.773-10.484,1.441-15.818
				C55.367,204.381,56.893,204.513,56.77,205.494L56.77,205.494z"/>
		</g>
		<g>
			<path fill="#000100" d="M56.484,204.348c-4.639,9.682-2.892,21.529,0.281,31.388c0.301,0.938-1.207,1.201-1.506,0.275
				c-3.246-10.081-4.961-22.291-0.215-32.186C55.465,202.942,56.91,203.456,56.484,204.348L56.484,204.348z"/>
		</g>
		<g>
			<path fill="#000100" d="M50.64,207.788c1.077,4.241,0.864,8.611,0.655,12.949c-0.227,4.682-0.168,9.142,0.782,13.745
				c1.628,7.898,4.032,16.514,9.21,22.874c0.623,0.765-0.538,1.765-1.162,0.996c-5.091-6.245-7.486-14.475-9.252-22.205
				c-0.983-4.303-1.371-8.466-1.225-12.88c0.168-5.086,0.754-10.208-0.514-15.206C48.891,207.102,50.4,206.836,50.64,207.788
				L50.64,207.788z"/>
		</g>
		<g>
			<path fill="#000100" d="M53.035,209.751c-12.004,10.036-6.757,26.427,1.492,37.073c0.604,0.779-0.561,1.778-1.162,0.996
				c-8.773-11.322-14.008-28.627-1.33-39.229C52.798,207.958,53.795,209.117,53.035,209.751L53.035,209.751z"/>
		</g>
		<g>
			<path fill="#000100" d="M51.096,205.833c-3.252,5.335-6.262,10.544-5.953,16.997c0.303,6.339,3.424,12.296,6.265,17.826
				c0.45,0.881-0.931,1.542-1.38,0.664c-3.096-6.024-6.107-12.236-6.438-19.12c-0.305-6.438,3.021-11.939,6.249-17.238
				C50.35,204.115,51.607,204.99,51.096,205.833L51.096,205.833z"/>
		</g>
		<g>
			<path fill="#000100" d="M45.305,198.079c-2.1,6.556-3.969,13.384-3.035,20.305c0.896,6.68,3.865,13.007,7.127,18.835
				c0.484,0.861-0.901,1.52-1.381,0.662c-3.369-6.014-6.154-12.377-7.252-19.223c-1.141-7.101,0.953-14.389,3.105-21.102
				C44.168,196.613,45.608,197.139,45.305,198.079L45.305,198.079z"/>
		</g>
		<g>
			<path fill="#000100" d="M41.881,194.019c-0.16,3.12-2.004,6.032-2.769,9.051c-1.019,4.024-1.087,8.091-0.493,12.182
				c1.076,7.401,4.456,14.698,8.748,20.764c0.568,0.805-0.592,1.804-1.16,0.997c-4.365-6.172-7.537-13.25-8.959-20.686
				c-0.697-3.637-0.719-7.334-0.15-10.985c0.275-1.801,0.752-3.579,1.271-5.319c0.627-2.107,1.867-3.893,1.984-6.139
				C40.404,192.896,41.93,193.032,41.881,194.019L41.881,194.019z"/>
		</g>
		<g>
			<path fill="#000100" d="M39.918,195.756c-7.072,9.76-3.791,22.895,1.957,32.451c0.51,0.85-0.878,1.5-1.379,0.663
				c-6.032-10.027-9.224-23.796-1.838-33.984C39.236,194.083,40.5,194.957,39.918,195.756L39.918,195.756z"/>
		</g>
		<g>
			<path fill="#000100" d="M35.624,190.499c-5.688,11.091-1.78,23.586,4.452,33.536c0.525,0.84-0.861,1.49-1.379,0.665
				c-6.426-10.262-10.366-23.312-4.516-34.728C34.629,189.109,36.074,189.619,35.624,190.499L35.624,190.499z"/>
		</g>
		<g>
			<path fill="#000100" d="M32.062,188.033c-2.844,11.358,0.233,22.304,5.943,32.228c0.496,0.855-0.893,1.514-1.382,0.664
				c-5.937-10.315-8.949-21.647-6.001-33.415C30.859,186.552,32.3,187.084,32.062,188.033L32.062,188.033z"/>
		</g>
		<g>
			<path fill="#000100" d="M28.572,187.447c-0.15,2.76-0.556,5.496-0.635,8.266c-0.094,3.258,0.643,6.585,1.549,9.697
				c1.753,6.001,5.201,11.436,9.051,16.298c0.61,0.774-0.555,1.773-1.166,0.996c-3.846-4.856-7.232-10.215-9.121-16.159
				c-1.018-3.215-1.637-6.463-1.82-9.825c-0.175-3.138,0.446-6.285,0.617-9.412C27.096,186.322,28.627,186.458,28.572,187.447
				L28.572,187.447z"/>
		</g>
		<g>
			<path fill="#000100" d="M23.752,163.955c-1.711,0.6-1.457,5.442-1.564,6.92c-0.201,2.85-0.832,5.62-1.893,8.27
				c-2.729,6.808-8.742,10.854-12.893,16.648c-0.573,0.805-1.838-0.066-1.259-0.87c2.044-2.853,4.567-5.263,6.976-7.798
				c3.122-3.281,5.434-6.963,6.715-11.321c0.799-2.708,0.805-5.55,1.094-8.339c0.162-1.561,0.387-4.27,2.16-4.891
				C24.009,162.251,24.684,163.626,23.752,163.955L23.752,163.955z"/>
		</g>
		<g>
			<path fill="#000100" d="M24.965,181.367c-2.174,6.499-7.074,10.715-11.441,15.736c-0.645,0.734-1.908-0.128-1.261-0.872
				c4.265-4.905,9.136-9.042,11.265-15.389C23.84,179.904,25.279,180.43,24.965,181.367L24.965,181.367z"/>
		</g>
		<g>
			<path fill="#000100" d="M24.635,182.764c1.498,7.758-5.479,14.352-12.305,16.514c-0.941,0.299-1.204-1.215-0.277-1.508
				c6.043-1.911,12.402-7.869,11.074-14.732C22.943,182.068,24.443,181.795,24.635,182.764L24.635,182.764z"/>
		</g>
		<g>
			<path fill="#000100" d="M26.398,187.335c-1.601,5.284-4.851,13.056-10.84,14.468c-0.967,0.229-1.232-1.28-0.275-1.506
				c5.342-1.262,8.26-8.809,9.676-13.484C25.244,185.863,26.684,186.393,26.398,187.335L26.398,187.335z"/>
		</g>
		<g>
			<path fill="#000100" d="M23.69,179.189c-2.066,0.034-2.587,3.234-3.108,4.708c-0.604,1.692-1.691,3.296-2.637,4.812
				c-2.273,3.661-4.98,7.243-5.353,11.678c-0.083,0.983-1.612,0.85-1.527-0.136c0.44-5.211,3.81-9.404,6.427-13.725
				c1.26-2.082,1.783-4.351,2.897-6.461c0.781-1.482,1.724-2.375,3.435-2.402C24.814,177.646,24.67,179.17,23.69,179.189
				L23.69,179.189z"/>
		</g>
		<g>
			<path fill="#000100" d="M11.849,189.795c-6.554,9.038-2.545,23.446,5.012,30.672c0.715,0.68-0.46,1.672-1.163,0.996
				c-8.051-7.697-12.048-22.969-5.111-32.539C11.167,188.125,12.426,188.994,11.849,189.795L11.849,189.795z"/>
		</g>
		<g>
			<path fill="#000100" d="M23.356,194.762c0.282,2.344-0.311,4.518-0.868,6.78c-0.775,3.12-0.836,6.483-0.836,9.686
				c0,6.589,3.562,11.982,5.243,18.184c0.259,0.951-1.247,1.217-1.505,0.271c-1.533-5.632-5.001-10.768-5.217-16.714
				c-0.111-3.139,0.111-6.213,0.36-9.34c0.237-2.924,1.673-5.599,1.314-8.594C21.736,194.062,23.238,193.778,23.356,194.762
				L23.356,194.762z"/>
		</g>
		<g>
			<path fill="#000100" d="M27.162,192.196c-4.426,6.763-3.004,16.478-1.304,23.908c0.22,0.962-1.286,1.233-1.505,0.274
				c-1.8-7.854-3.116-17.922,1.548-25.055C26.443,190.497,27.699,191.373,27.162,192.196L27.162,192.196z"/>
		</g>
		<g>
			<path fill="#000100" d="M80.686,139.204c-0.328,2.766,2.186,4.857,4.09,6.459c0.752,0.631-0.117,1.897-0.873,1.262
				c-2.354-1.981-5.148-4.468-4.744-7.855C79.279,138.094,80.808,138.227,80.686,139.204L80.686,139.204z"/>
		</g>
		<g>
			<path fill="#000100" d="M128.629,133.088c-0.641,1.717-1.19,3.463-1.828,5.178c-0.344,0.925-1.785,0.405-1.441-0.524
				c0.643-1.714,1.188-3.46,1.83-5.173C127.529,131.639,128.974,132.164,128.629,133.088L128.629,133.088z"/>
		</g>
		<g>
			<path fill="#000100" d="M181.066,47.884c4.186,3.044,3.684,4.706,3.793,10.046c0.105,5.345-3.379,11.863-9.041,13.065
				c-13.105,3.077-22.703-19.222-11.592-26.609c6.592-4.659,12.057-0.29,17.66,3.88"/>
			<path fill="#000100" d="M160.322,55.445c-0.305-0.039-0.225-0.286-0.534-0.321c-0.489,2.48-3.757,5.625-5.702,7.663
				c2.453,0.312,10.256-3.008,12.574-4.235"/>
			<g>
				<path fill="#000100" d="M178.542,69.807c1.077,3.323,3.062,5.258,5.68,7.428c0.239,0.2,0.446,0.574,0.282,0.895
					c-0.012,0.021-0.027,0.049-0.041,0.073c-0.443,0.868-1.891,0.357-1.439-0.52c0.016-0.027,0.027-0.052,0.041-0.077
					c0.096,0.295,0.188,0.593,0.283,0.893c-1.272-1.06-2.521-2.097-3.666-3.302c-1.354-1.428-2.051-3.278-2.644-5.111
					C176.733,69.143,178.244,68.881,178.542,69.807L178.542,69.807z"/>
			</g>
			<g>
				<path fill="#000100" d="M171.941,70.283c0.867,1.399,1.303,3.051,2.251,4.396c0.862,1.229,2.372,1.981,3.437,3.035
					c0.703,0.692-0.465,1.684-1.164,0.997c-1.094-1.082-2.426-1.858-3.434-3.032c-1.146-1.332-1.551-3.251-2.47-4.731
					C170.043,70.108,171.428,69.452,171.941,70.283L171.941,70.283z"/>
			</g>
			<path fill="#000100" d="M179.775,48.998c1.886-0.088,4.109,0.72,5.866,1.353c3.038,1.005,6.121,2.259,8.588,4.401
				c0.51,0.431,4.749,5.197,3.316,5.889c-0.554,0.272-2.508-1.445-2.909-1.721c-0.904-0.697-1.893-1.385-2.866-1.984
				c0.671,0.824,1.407,1.559,1.844,2.517c0.173,0.485,0.651,1.698,0.396,2.178c-0.996,1.651-4.996-2.726-5.717-3.367
				c0.64,0.657,2.664,3.23,1.78,4.084c-0.881,0.851-2.565-0.312-3.19-0.891c-1.33-1.142-2.371-2.595-3.705-3.737"/>
			<path fill="#000100" d="M176.238,44.591c1.616-0.983,3.951-1.345,5.801-1.636c3.146-0.574,6.45-0.957,9.643-0.26
				c0.652,0.131,6.664,2.27,5.74,3.564c-0.357,0.506-2.898-0.062-3.377-0.111c-1.132-0.18-2.329-0.305-3.473-0.363
				c0.988,0.404,1.986,0.693,2.826,1.326c0.391,0.344,1.391,1.176,1.395,1.719c-0.08,1.928-5.689,0.008-6.635-0.208
				c0.879,0.272,3.891,1.554,3.527,2.729c-0.363,1.168-2.4,0.955-3.225,0.749c-1.717-0.362-3.33-1.138-5.047-1.497"/>
			<g>
				<path fill="#000100" d="M184.756,78.281c0.237,1.455,0.18,3.006-0.082,4.455c-0.164,0.969-1.697,0.839-1.524-0.135
					c0.231-1.318,0.314-2.722,0.099-4.048C183.093,77.578,184.596,77.303,184.756,78.281L184.756,78.281z"/>
			</g>
			<g>
				<path fill="#000100" d="M184.037,78.823c-0.467,0.354-0.656,1-0.94,1.501c-0.407,0.714-1.077,1.275-1.562,1.944
					c-0.578,0.802-1.84-0.069-1.26-0.87c0.49-0.676,1.111-1.245,1.561-1.949c0.402-0.622,0.594-1.32,1.203-1.79
					C183.82,77.06,184.82,78.221,184.037,78.823L184.037,78.823z"/>
			</g>
			<g>
				<path fill="#000100" d="M177.959,78.479c0.115,0.756,0.09,1.514,0.041,2.275c-0.035,0.538,0.057,1.072-0.136,1.594
					c-0.335,0.928-1.776,0.404-1.438-0.521c0.135-0.371-0.004-0.821,0.049-1.211c0.082-0.609,0.07-1.254-0.02-1.862
					C176.308,77.775,177.812,77.5,177.959,78.479L177.959,78.479z"/>
			</g>
			<g>
				<path fill="#000100" d="M177.69,78.729c-0.624,1.05-1.749,1.528-2.495,2.442c-0.62,0.764-1.885-0.102-1.262-0.87
					c0.74-0.905,1.893-1.428,2.497-2.442C176.938,77.01,178.193,77.885,177.69,78.729L177.69,78.729z"/>
			</g>
			<g>
				<path fill="#000100" d="M176.644,79.036c-1.204-0.232-2.354,0.708-3.601,0.655c-0.989-0.044-0.848-1.572,0.133-1.527
					c1.258,0.057,2.301-0.903,3.602-0.654C177.739,77.691,177.617,79.22,176.644,79.036L176.644,79.036z"/>
			</g>
			<g>
				<path fill="#000100" d="M183.742,78.234c-0.284,0.455-1.029,0.64-1.475,0.885c-0.777,0.421-1.461,0.991-2.263,1.38
					c-0.894,0.433-1.554-0.949-0.663-1.379c0.638-0.311,1.207-0.728,1.807-1.104c0.303-0.192,0.605-0.363,0.925-0.521
					c0.095-0.048,0.192-0.093,0.292-0.14c0.25-0.114,0.301-0.282,0.121,0.008C183.008,76.526,184.266,77.403,183.742,78.234
					L183.742,78.234z"/>
			</g>
			<g>
				<path fill="#000100" d="M168.526,39.635c0.637,1.772-3.23,3.422-4.608,3.129c-1.5-0.324-2.535-1.944-3.329-3.115
					c-1.158-1.712-2.289-3.316-2.493-5.434c-0.049-0.525,0.439-1.119,1.015-0.855c1.55,0.707,2.749,1.82,4.058,2.883
					c-0.402,0.188-0.801,0.377-1.2,0.565c0.362-2.108-1.308-4.13-0.402-6.211c0.243-0.557,0.88-0.646,1.304-0.237
					c1.434,1.387,2.172,3.191,3.055,4.951c-0.396-0.084-0.793-0.166-1.189-0.251c0.837-0.686,0.765-2.305,1.33-3.233
					c0.264-0.441,0.893-0.409,1.213-0.064c1.777,1.926,1.939,5.9,1.381,8.315c-0.22,0.963-1.661,0.431-1.438-0.52
					c0.427-1.856,0.248-5.331-1.107-6.801c0.402-0.02,0.805-0.037,1.211-0.061c-0.727,1.196-0.428,2.574-1.592,3.522
					c-0.391,0.318-0.835,0.915-1.059,0.465c-0.82-1.635-1.641-4.105-2.712-3.913c0.433-0.074,0.868-0.155,1.302-0.235
					c-1.064,0.194,0.688,3.204,0.359,5.117c-0.088,0.52-0.779,0.6-1.264,0.206c-1.189-0.968-2.326-2.236-3.74-2.884
					c0.34-0.287,0.66-0.659,1.002-0.947c0.227,2.397,1.879,4.55,3.398,6.355c0.682,0.809,1.287,1.127,2.18,0.669
					c0.382-0.194,0.75-0.408,1.119-0.621c0.71-0.402,0.604-0.753,0.828-0.124C166.816,39.385,168.193,38.706,168.526,39.635
					L168.526,39.635z"/>
			</g>
			<g>
				<path fill="#FFFFFF" d="M165.624,49.956c0.991,0.064,1.513,1.214,1.259,2.093c-0.244,0.845-1.211,1.213-2.016,1.064
					c-0.823-0.147-1.572-0.691-1.758-1.541c-0.201-0.949,0.59-1.734,1.434-1.953c0.924-0.241,1.793,0.38,1.996,1.269
					c0.107,0.478-0.129,1.002-0.449,1.334c-0.338,0.353-0.783,0.467-1.253,0.479c-0.948,0.035-1.843-1.057-1.536-1.972
					c0.316-0.929,1.457-1.245,2.272-0.773c0.676,0.39,0.937,1.098,0.575,1.792c-0.295,0.572-1.137,0.736-1.699,0.591
					c-0.656-0.166-1.048-0.927-0.846-1.565c0.191-0.598,0.846-0.852,1.426-0.774c0.56,0.071,1.139,0.46,1.2,1.065
					c0.089,0.924-0.788,1.61-1.671,1.326c-0.877-0.284-1.359-1.188-0.867-2.018c0.451-0.751,1.645-0.655,2.123-0.008
					c0.592,0.791-0.572,1.792-1.162,1c-0.092-0.127,0.023,0.018,0.118,0.006c0.192-0.025,0.31-0.32,0.192-0.473
					c0,0,0.104,0.029-0.029,0.039c-0.191,0.01-0.232,0.211-0.217,0.352c0.012,0.076,0.046,0.141,0.098,0.198
					c-0.09-0.128,0.139,0.096,0.003,0.006c0.1,0.051,0.113,0.062,0.034,0.027c-0.164-0.063,0.168,0.021-0.011-0.002
					c-0.036-0.006-0.07-0.006-0.104-0.008c0.248,0.004-0.094,0.052,0.155-0.029c-0.117,0.039,0.095-0.101,0.118-0.128
					c0.07-0.082,0.07-0.211,0.062-0.305c0.018,0.08,0.018,0.073-0.006-0.013c-0.037-0.089-0.119-0.13-0.199-0.17
					c0.08,0.04-0.099,0.014-0.003,0c0.085-0.02,0.077-0.012-0.023,0.018c0.043-0.016,0.198-0.11,0.036,0
					c0.143-0.098-0.082,0.129,0.011-0.008c-0.099,0.148-0.101,0.274-0.043,0.421c0.043,0.11-0.035-0.021-0.047-0.029
					c-0.091-0.029-0.106-0.033-0.044-0.009c0.144,0.017-0.123,0.032,0.026-0.019c-0.081,0.043-0.091,0.041-0.024-0.002
					c-0.117,0.08-0.02,0.006,0.01-0.05c0.017-0.036-0.023-0.233,0.009-0.054c-0.017-0.089-0.019-0.072,0.059,0.016
					c0,0,0.126,0.029,0.061,0.025c0.099,0.004,0.106,0.004,0.029,0c0.202-0.025-0.086,0.051,0.097-0.035
					c-0.057,0.039-0.051,0.033,0.02-0.024c-0.039,0.03-0.07,0.146-0.016-0.009c0,0.01-0.004,0.022-0.004,0.029
					c0-0.139,0.01-0.118,0.027,0.055c-0.057-0.179,0.061,0.033-0.053-0.094c0.047,0.055-0.079,0.006-0.004,0.019
					c-0.093-0.005-0.099-0.005-0.021-0.013c-0.01,0-0.248,0.051-0.104,0.004c-0.163,0.057-0.102,0.025-0.229,0.139
					c0.09-0.082-0.041,0.119,0,0.018c-0.086,0.18-0.006-0.079-0.018,0.096c-0.004-0.084,0-0.084,0.014,0.01
					c-0.037-0.193,0.078,0.084-0.016-0.057c0.102,0.146,0.035,0.07,0.18,0.175c0.06,0.041,0.103,0.059,0.25,0.105
					c0.217,0.073-0.111-0.008,0.115,0.021c0.02,0.001,0.252-0.008,0.1,0.01c0.047-0.009,0.098-0.018,0.146-0.029
					c-0.176,0.037,0.104-0.07-0.033,0.02c0.064-0.044,0.064-0.105,0.039,0.036c0-0.091,0.008-0.101,0.016-0.023
					c-0.002-0.008-0.061-0.25-0.016-0.122c-0.066-0.187,0.062,0.039-0.051-0.103c0.021,0.029,0.084,0.079,0.127,0.082
					C164.504,51.417,164.635,49.893,165.624,49.956L165.624,49.956z"/>
			</g>
			<g>
				<path fill="#FFFFFF" d="M172.984,68.78c-0.878-0.233-1.757-0.155-2.514-0.738c-0.191-0.152,0.025-0.469,0.219-0.317
					c0.715,0.555,1.594,0.475,2.426,0.696C173.352,68.484,173.221,68.845,172.984,68.78L172.984,68.78z"/>
			</g>
			<g>
				<path fill="#FFFFFF" d="M168.403,67.152c-0.581-0.19-0.958-0.656-1.312-1.131c-0.146-0.194,0.144-0.445,0.293-0.249
					c0.314,0.417,0.63,0.852,1.151,1.021C168.77,66.866,168.639,67.226,168.403,67.152L168.403,67.152z"/>
			</g>
			<g>
				<path fill="#FFFFFF" d="M167.936,68.03c-0.604,0.247-1.135-0.107-1.396-0.657c-0.107-0.223,0.236-0.392,0.344-0.165
					c0.166,0.345,0.482,0.644,0.888,0.479C167.998,67.598,168.168,67.938,167.936,68.03L167.936,68.03z"/>
			</g>
			<g>
				<path fill="#FFFFFF" d="M171.306,65.806c0.033,0.117,0.082,0.18,0.049,0.309c-0.032,0.136-0.265,0.222-0.38,0.177
					c-0.189-0.068-0.384-0.19-0.568-0.281c-0.2-0.093-0.371-0.213-0.528-0.368c-0.177-0.171,0.114-0.419,0.29-0.247
					c0.277,0.27,0.662,0.356,0.98,0.562c-0.047-0.01-0.096-0.021-0.146-0.033c0.01,0.124-0.004,0.153-0.027,0.078
					c-0.016-0.039-0.033-0.084-0.047-0.125C170.863,65.633,171.237,65.57,171.306,65.806L171.306,65.806z"/>
			</g>
			<g>
				<path fill="#FFFFFF" d="M166.051,63.873c-0.487-0.467-0.846-1.037-1.102-1.662c-0.095-0.228,0.254-0.393,0.344-0.162
					c0.249,0.595,0.584,1.129,1.047,1.575C166.521,63.796,166.229,64.047,166.051,63.873L166.051,63.873z"/>
			</g>
			<g>
				<path fill="#FFFFFF" d="M164.817,64.559c-0.536-0.26-0.868-0.815-1.112-1.344c-0.104-0.22,0.242-0.385,0.343-0.164
					c0.2,0.421,0.464,0.938,0.901,1.148C165.168,64.307,165.041,64.668,164.817,64.559L164.817,64.559z"/>
			</g>
			<g>
				<path fill="#FFFFFF" d="M162.772,62.053c0,0-0.274-1.504-0.366-2.006c-0.088-0.504,0.412-0.595,0.504-0.092
					c0.092,0.501,0.182,1.005,0.365,2.007L162.772,62.053L162.772,62.053z"/>
			</g>
			<g>
				<path fill="#FFFFFF" d="M162.961,58.752c0.299,0.246,0.456,0.661,0.721,0.947c0.166,0.182-0.125,0.431-0.29,0.25
					c-0.147-0.158-0.272-0.334-0.39-0.513c-0.074-0.116-0.148-0.277-0.261-0.368C162.551,58.914,162.766,58.593,162.961,58.752
					L162.961,58.752z"/>
			</g>
			<g>
				<path fill="#FFFFFF" d="M165.291,57.738c-0.102,0.691,0.373,1.291,0.725,1.842c0.131,0.209-0.213,0.371-0.344,0.166
					c-0.395-0.62-0.877-1.268-0.761-2.041C164.945,57.461,165.324,57.495,165.291,57.738L165.291,57.738z"/>
			</g>
			<g>
				<path fill="#FFFFFF" d="M166.342,60.285c-0.24,0.045-0.311-0.334-0.065-0.379C166.516,59.863,166.586,60.241,166.342,60.285
					L166.342,60.285z"/>
			</g>
			<g>
				<path fill="#FFFFFF" d="M169.158,62.562c0.127,0.56,0.749,0.787,1.178,1.075c0.202,0.139-0.014,0.456-0.219,0.314
					c-0.537-0.361-1.18-0.626-1.336-1.322C168.728,62.391,169.106,62.323,169.158,62.562L169.158,62.562z"/>
			</g>
			<g>
				<path fill="#FFFFFF" d="M172.27,65.201c0.953,0.443,1.938,0.805,2.934,1.152c0.236,0.082,0.102,0.443-0.129,0.361
					c-0.996-0.35-1.982-0.709-2.936-1.152C171.914,65.459,172.046,65.097,172.27,65.201L172.27,65.201z"/>
			</g>
			<g>
				<path fill="#FFFFFF" d="M176.852,68.103c0,0-1.338,0.162-2.013-0.178c-0.218-0.108-0.122-0.464,0.099-0.355
					c0.621,0.315,1.341,0.249,1.846,0.157C177.283,67.635,177.352,68.013,176.852,68.103
					C176.852,68.103,177.352,68.013,176.852,68.103z"/>
			</g>
			<g>
				<path fill="#FFFFFF" d="M173.027,67.496c-0.335,0.213-0.687,0.07-0.987-0.129c-0.212-0.136,0.009-0.452,0.218-0.318
					c0.193,0.13,0.387,0.24,0.605,0.102C173.068,67.018,173.234,67.365,173.027,67.496L173.027,67.496z"/>
			</g>
			<g>
				<path fill="#FFFFFF" d="M175.463,70.166c-0.742,0.253-1.508-0.073-2.172-0.402c-0.217-0.109-0.09-0.467,0.131-0.362
					c0.547,0.271,1.256,0.626,1.873,0.421C175.525,69.745,175.694,70.089,175.463,70.166L175.463,70.166z"/>
			</g>
			<g>
				<path fill="#FFFFFF" d="M167.9,63.117c-0.42,0.061-0.721-0.142-0.927-0.495c-0.128-0.214,0.218-0.374,0.341-0.165
					c0.117,0.198,0.281,0.316,0.516,0.283C168.073,62.705,168.143,63.08,167.9,63.117L167.9,63.117z"/>
			</g>
			<g>
				<path fill="#FFFFFF" d="M170.027,61.553c-0.106,0.004-0.181-0.08-0.273-0.077c-0.246,0.004-0.212-0.379,0.033-0.382
					c0.104-0.002,0.182,0.08,0.273,0.08C170.307,61.171,170.273,61.553,170.027,61.553L170.027,61.553z"/>
			</g>
			<g>
				<path fill="#000100" d="M165.699,52.284c-0.049,0.064-0.095,0.132-0.14,0.199c-0.239,0.342-0.719,0.431-1.063,0.191
					c-0.346-0.237-0.433-0.724-0.197-1.068c0.047-0.062,0.094-0.13,0.139-0.194c0.238-0.344,0.723-0.432,1.066-0.194
					C165.846,51.453,165.934,51.939,165.699,52.284L165.699,52.284z"/>
			</g>
		</g>
	</g>
</g>
<g>
	<g>
		<path fill="#FFFFFF" d="M104.785,188.608c-4.773-0.381-10.251,7.774-8.547,12.071c1.098,2.777,3.631,2.309,5.549,0.738
			c3.215-2.635,3.871-6.849,3.885-10.736c0.002-0.993-1.502-1.22-1.744-0.236c-0.896,3.662,1.232,8.514,4.219,10.678
			c3.552,2.571,7.338-2.871,8.842-5.338c2.908-4.777,3.368-10.891,2.744-16.317c-0.314-2.707-1.705-9.595-5.516-5.984
			c-2.941,2.784-2.055,9.469-1.686,13.006c0.424,4.031,1.768,9.479,5.71,11.466c7.144,3.601,12.064-9.198,8.906-14.232
			c-0.324-0.521-0.944-0.544-1.396-0.179c-3.978,3.229-2.84,10.339,0.807,13.358c5.619,4.651,11.084-4.293,13.018-8.44
			c0.478-1.024-1.047-1.928-1.535-0.893c-1.57,3.364-5.271,10.677-9.967,8.233c-3.578-1.863-4.074-8.562-1.062-11.004
			c-0.469-0.061-0.931-0.119-1.395-0.18c2.538,4.052-1.369,14.384-7.025,11.53c-2.779-1.403-3.639-5.948-4.141-8.687
			c-0.567-3.113-0.603-6.533-0.121-9.651c0.216-1.403,1.728-5.063,2.811-1.949c0.598,1.711,0.836,3.552,0.988,5.347
			c0.336,4.043-0.236,8.147-1.772,11.898c-0.909,2.209-3.673,7.283-6.603,6.777c-2.953-0.515-4.721-6.499-4.116-8.97
			c-0.581-0.076-1.162-0.158-1.741-0.233c-0.008,2.594-0.215,4.923-1.524,7.232c-0.479,0.855-1.143,1.575-1.843,2.253
			c-1.568,1.512-3.027-0.28-2.797-1.935c0.392-2.793,3.799-8.107,7.053-7.847C105.927,190.473,105.917,188.698,104.785,188.608
			L104.785,188.608z"/>
	</g>
	<g>
		<path fill="#FFFFFF" d="M106.457,210.935c-3.164,0.788-5.348,3.668-6.972,6.313c-1.263,2.054-3.31,6.424-1.304,8.652
			c2.148,2.383,4.832,0.489,6.396-1.586c2.413-3.21,2.603-8.02,2.891-11.858c-0.591-0.039-1.179-0.084-1.771-0.129
			c-0.168,3.509,0.15,10.778,3.775,12.591c1.892,0.953,3.697-1.588,4.006-3.089c0.401-1.956,0.213-3.919,0.229-5.898
			c0.031-3.265,2.463-5.749,5.498-6.482c-0.188-0.557-0.376-1.114-0.561-1.67c-3.308,1.942-5.033,5.792-5.764,9.407
			c-0.536,2.631,0.078,7.178,3.422,7.671c5.65,0.838,8.096-10.483,8.816-14.341c-0.59-0.045-1.183-0.092-1.768-0.133
			c0.047,2.698-2.107,11.922,2.514,12.344c5.045,0.458,5.713-8.071,4.453-11.338c-0.714-1.865-2.756-3.832-4.926-2.949
			c-2.436,0.997-2.137,3.412-0.531,5.055c4.617,4.733,7.49-5.017,8.297-7.781c-0.544,0.025-1.088,0.059-1.633,0.091
			c1.017,1.599,2.358,2.847,3.674,4.195c0.963,0.992,1.638,2.041,1.898,3.424c0.102,0.911-0.082,1.757-0.547,2.536
			c-0.211,0.406-1.279,1.199-1.271,1.54c-0.396,0.256-0.791,0.514-1.18,0.77c2.293,0.633,4.045,1.576,6.292,0.378
			c1.659-0.882,2.351-2.918,2.726-4.617c0.547-2.486,0.512-5.157,0.744-7.684c0.35-3.759,0.8-7.507,1.096-11.267
			c-0.591-0.044-1.178-0.087-1.771-0.13c-0.279,4.837,0.262,9.748,0.596,14.58c0.221,3.068,0.894,6.637,4.342,7.322
			c5.641,1.119,5.764-10.192,6.295-13.356c-0.59-0.042-1.178-0.087-1.769-0.13c-0.374,3.719-2.185,8.942,1.056,11.897
			c2.522,2.3,5.57-0.732,6.428-3.067c1.188-3.236,0.869-7.802-1.389-10.485c-1.826-2.172-5.097-1.956-6.004,0.833
			c-0.303,0.944,0.996,1.652,1.568,0.801c1.539-2.295,2.537-1.1,3.586,0.826c0.785,1.436,1.375,2.973,2.059,4.461
			c1.109,2.427,2.871,4.109,5.73,3.963c5.91-0.305,9.09-9.169,10.708-13.749c0.384-1.083-1.292-1.677-1.671-0.599
			c-1.299,3.682-8.476,18.971-12.963,10.051c-1.643-3.268-4.721-12.217-8.91-5.956c0.523,0.266,1.045,0.532,1.566,0.799
			c0.854-2.637,3.068-0.302,3.621,0.583c0.473,0.755,0.627,1.678,0.789,2.534c0.325,1.74,0.111,3.654-0.366,5.342
			c-0.364,1.286-2.058,3.736-3.89,2.067c-1.037-0.948-0.947-2.836-0.918-4.09c0.047-2.037,0.566-4.055,0.768-6.081
			c0.117-1.154-1.58-1.241-1.769-0.13c-0.495,2.922-0.194,10.75-3.817,11.715c-4.466,1.186-3.984-18.087-3.875-20.001
			c0.066-1.142-1.677-1.272-1.771-0.13c-0.387,4.917-1.004,9.815-1.39,14.73c-0.118,1.496-0.179,2.98-0.507,4.457
			c-0.801,3.638-3.728,3.249-6.597,2.46c-0.501-0.14-1.2,0.15-1.185,0.771c0.121,3.979,3.879,0.806,4.807-0.993
			c2.521-4.896-2.979-7.873-5.193-11.352c-0.375-0.589-1.397-0.723-1.634,0.089c-0.671,2.29-1.226,4.669-2.581,6.668
			c-0.5,0.731-1.141,1.165-2.07,0.894c-2.259-0.658-0.035-4.314,1.75-0.868c0.611,1.185,0.488,2.853,0.416,4.125
			c-0.091,1.559-0.48,3.347-1.581,4.524c-1.788,1.919-2.487-1.236-2.612-2.415c-0.262-2.508,0.354-5.019,0.311-7.524
			c-0.021-1.16-1.561-1.256-1.768-0.133c-0.736,3.937-2.096,8.845-4.853,11.85c-2.763,3.009-4.14-2.086-3.95-4.24
			c0.279-3.115,2.104-6.995,4.873-8.619c0.83-0.484,0.471-1.92-0.562-1.668c-2.544,0.617-4.763,1.994-5.917,4.438
			c-1.381,2.926-0.738,5.752-1.094,8.862c-0.232,2.015-1.701,2.953-2.691,1.106c-0.615-1.154-0.873-2.506-1.124-3.773
			c-0.376-1.899-0.657-3.938-0.566-5.882c0.058-1.133-1.679-1.269-1.771-0.129c-0.17,2.291-0.373,4.571-0.883,6.823
			c-0.274,1.219-0.723,2.406-1.297,3.514c-0.495,0.951-3.385,4.573-4.262,1.245c-0.992-3.79,4.086-10.368,7.543-11.229
			C107.906,212.399,107.57,210.658,106.457,210.935L106.457,210.935z"/>
	</g>
	<g>
		<path fill="#FFFFFF" d="M138.82,199.839c2.494-1.37,5.251-1.826,7.904-2.758c2.736-0.957,5.183-2.752,7.739-4.086
			c1.014-0.528,0.239-2.127-0.78-1.595c-2.594,1.349-5.034,2.96-7.738,4.083c-2.621,1.095-5.379,1.37-7.902,2.761
			C137.045,198.797,137.818,200.395,138.82,199.839L138.82,199.839z"/>
	</g>
</g>
</svg>
