<?xml version="1.0" encoding="utf-8"?>
<!-- Generator: Adobe Illustrator 16.0.0, SVG Export Plug-In . SVG Version: 6.00 Build 0)  -->
<!DOCTYPE svg PUBLIC "-//W3C//DTD SVG 1.0//EN" "http://www.w3.org/TR/2001/REC-SVG-20010904/DTD/svg10.dtd">
<svg version="1.0" id="Capa_1" xmlns="http://www.w3.org/2000/svg" xmlns:xlink="http://www.w3.org/1999/xlink" x="0px" y="0px"
	 width="1002.362px" height="371.189px" viewBox="0 0 1002.362 371.189" enable-background="new 0 0 1002.362 371.189"
	 xml:space="preserve">
<g>
	<g>
		<path fill="#FFFFFF" d="M45.457,265.992C22.763,215.184-5.159,157.44,5.313,105.475C17.53,43.116,115.266,0.388,206.023,11.936
			c139.623,17.322,274.014,33.49,417.128,18.477c71.558-8.083,143.112-16.167,214.675-17.322
			c41.887-1.154,94.246-4.62,127.404,16.168c57.598,38.107,29.668,120.1,6.984,163.983c-31.418,64.67-95.996,69.289-188.494,81.993
			c-85.524,12.7-176.275,16.164-263.545,17.321c-68.067,0-132.643-10.395-200.708-8.085c-73.303,2.311-178.02,17.321-244.346-9.236
			c-13.959-6.928-24.434-10.395-31.414-21.944"/>
	</g>
	<g>
		<g>
			<path fill-rule="evenodd" clip-rule="evenodd" d="M416.82,102.589c-4.147,12.683-8.627,25.067-9.598,38.414
				c-1.369,18.821-2.569,37.678-6.376,56.235c-1.768,8.63-3.507,17.268-5.148,25.924c-0.616,3.259-0.949,6.573-1.337,9.875
				c-0.474,4.062-2.449,6.377-5.588,6.42c-3.111,0.043-5.412-2.194-5.758-6.255c-0.235-2.833-0.148-5.772,0.348-8.57
				c2.26-12.74,5.22-25.384,6.989-38.185c2.157-15.661,3.487-31.438,4.974-47.184c0.922-9.807,2.872-19.337,5.878-28.725
				c2.469-7.696,4.321-15.582,6.471-23.38c0.283-1.038,0.695-2.04,1.054-3.058c0.964-2.754,2.394-5.252,5.541-5.635
				c3.447-0.425,6.551,0.965,8.427,3.814c1.7,2.579,3.077,5.524,3.921,8.494c2.369,8.299,4.203,16.748,6.602,25.03
				c2.023,6.972,4.328,13.878,6.877,20.669c2.113,5.618,4.758,11.029,7.5,17.274c0.631-1.513,1.026-2.411,1.386-3.323
				c6.719-17.162,10.872-34.991,14.058-53.093c0.534-3.089,1.25-6.188,2.271-9.15c1.283-3.741,3.158-7.458,7.777-7.534
				c4.336-0.071,7.032,2.945,8.736,6.605c0.967,2.076,1.717,4.431,1.852,6.7c1.285,21.515,6.217,42.502,9.08,63.785
				c2.575,19.147,5.197,38.292,7.635,57.454c0.713,5.611,0.899,11.289,1.285,16.936c0.079,1.16,0.053,2.353-0.078,3.505
				c-0.443,3.984-3.246,6.61-6.904,6.561c-3.467-0.049-6.369-3.038-6.644-6.894c-0.409-5.646-0.548-11.326-1.231-16.933
				c-1.982-16.14-4.063-32.27-6.326-48.375c-2.158-15.395-4.587-30.758-6.91-46.13c-0.145-0.941-0.387-1.868-1.127-2.833
				c-0.251,0.913-0.476,1.837-0.766,2.734c-5.047,15.748-10.059,31.502-15.213,47.21c-0.655,2.001-1.848,3.922-3.15,5.602
				c-3.428,4.44-9.717,3.716-11.771-1.481c-9.023-22.868-20.296-44.967-24.002-69.666
				C417.408,104.463,417.07,103.535,416.82,102.589z"/>
			<path fill-rule="evenodd" clip-rule="evenodd" d="M631.977,214.564c0-1.412,0.006-2.824,0-4.231
				c-0.194-28.224-0.504-56.442-0.518-84.666c-0.002-9.517,0.688-19.038,1.189-28.548c0.24-4.487,3.081-7.223,6.9-7.035
				c3.869,0.195,6.502,3.17,6.24,7.609c-2.524,42.582-0.088,85.197-0.91,127.783c-0.041,2.069-0.08,4.134-0.129,6.203
				c-0.067,3.104-1.131,5.648-4.162,6.955c-3.078,1.334-5.954,0.93-8.598-1.167c-4.51-3.575-8.006-7.911-10.465-13.166
				c-6.141-13.091-8.912-27.074-11.457-41.17c-2.203-12.195-4.897-24.307-7.385-36.456c-0.123-0.601-0.331-1.188-1.071-1.854
				c-0.155,1.133-0.373,2.261-0.464,3.4c-1.305,16.658-2.885,33.298-3.785,49.978c-0.652,12.062-2.705,23.708-6.836,35.045
				c-0.938,2.58-1.391,5.36-1.864,8.087c-0.417,2.435-1.009,4.642-3.788,5.27c-2.193,0.492-5.24-1.021-6.026-3.565
				c-0.737-2.401-1.126-5.126-0.8-7.595c0.426-3.261,1.902-6.364,2.572-9.61c1.583-7.73,3.986-15.463,4.223-23.254
				c0.641-21.057,2.434-41.984,4.969-62.867c1.021-8.381,1.974-16.768,3.194-25.111c0.437-2.999,1.339-5.984,4.134-7.901
				c4.266-2.931,8.889-1.844,10.395,3.056c1.678,5.471,2.663,11.16,3.834,16.779c3.155,15.129,6.234,30.276,9.383,45.408
				c2.34,11.258,4.656,22.52,7.178,33.737c0.701,3.106,2.092,6.054,3.168,9.076C631.395,214.689,631.683,214.627,631.977,214.564z"
				/>
			<path fill-rule="evenodd" clip-rule="evenodd" d="M736.426,177.283c-4.535,1.935-8.555,3.69-12.607,5.362
				c-1.975,0.813-2.521,2.344-2.599,4.287c-0.516,12.39-1.009,24.78-1.634,37.169c-0.131,2.476-0.613,4.984-1.326,7.359
				c-0.663,2.215-2.422,3.594-4.842,3.655c-2.555,0.067-4.482-1.317-5.107-3.639c-0.787-2.906-1.383-5.979-1.346-8.971
				c0.153-11.68,0.416-23.368,0.963-35.034c1.049-22.348,1.877-44.723,3.705-67.01c0.82-10.045,3.713-19.93,5.885-29.84
				c0.82-3.75,2.445-7.104,6.652-8.469c3.598-1.171,6.5-0.434,9.049,2.257c3.281,3.455,5.021,7.705,5.768,12.273
				c2.213,13.479,3.993,27.031,6.365,40.482c5.119,28.982,6.416,58.204,6.074,87.552c-0.012,1.342-0.01,2.719-0.293,4.021
				c-0.703,3.197-3.422,5.336-6.575,5.359c-3.245,0.027-6.067-2.228-6.726-5.521c-0.243-1.219-0.238-2.497-0.26-3.754
				c-0.274-14.823-0.525-29.651-0.812-44.475C736.738,179.318,736.539,178.285,736.426,177.283z M721.764,168.885
				c0.283,0.135,0.566,0.261,0.846,0.387c1.221-0.716,2.409-1.474,3.654-2.133c2.219-1.169,4.373-2.573,6.733-3.308
				c1.768-0.552,2.284-1.133,2.017-2.933c-2.38-16.362-4.691-32.732-7.04-49.098c-0.099-0.711-0.353-1.398-0.536-2.097
				C723.479,129.339,723.779,149.209,721.764,168.885z"/>
			<path fill-rule="evenodd" clip-rule="evenodd" d="M515.723,146.445c-2.164,0.418-4.467-1.074-5.194-3.636
				c-0.703-2.484-1.24-5.087-1.32-7.661c-0.449-13.646,4.581-25.454,12.595-36.176c1.502-2.004,3.112-3.974,4.919-5.699
				c4.543-4.335,9.791-5.315,15.656-2.875c6.732,2.798,11.996,7.23,15.096,13.913c5.298,11.429,9.02,23.208,8.646,36.072
				c-0.619,21.769-2.353,43.411-6.805,64.762c-1.57,7.539-4.123,14.726-9.264,20.7c-6.246,7.252-16.248,7.63-22.998,0.734
				c-7.949-8.111-11.655-18.093-11.721-29.286c-0.09-15.63,0.244-31.264,0.389-46.894
				C515.732,149.147,515.723,147.9,515.723,146.445z M551.948,147.337c1.513-13.142-1.44-25.446-7.122-37.136
				c-1.156-2.368-3.418-4.275-5.412-6.139c-1.841-1.723-3.479-1.192-5.258,0.711c-2.66,2.852-2.706,6.353-3.178,9.773
				c-3.877,28.023-1.877,56.182-1.812,84.291c0.016,6.154,2.461,11.755,6.561,16.475c2.059,2.364,3.375,2.489,4.704-0.258
				c2.12-4.409,4.212-8.979,5.302-13.71C549.811,183.585,550.748,165.418,551.948,147.337z"/>
			<path fill-rule="evenodd" clip-rule="evenodd" d="M334.146,104.96c-1.062,5.329-1.707,10.79-3.268,15.97
				c-2.952,9.732-9.301,16.659-18.768,20.62c-2.404,1.005-4.714,2.23-7.117,3.229c-2.105,0.876-2.865,2.283-2.857,4.591
				c0.078,18.507,0.133,37.02-0.012,55.524c-0.044,5.464-0.531,10.945-1.204,16.372c-0.491,3.934-3.876,6.299-7.449,5.835
				c-3.656-0.481-5.997-3.483-5.933-7.461c0.354-19.395,0.767-38.789,0.99-58.188c0.238-20.479,0.361-40.964,2.702-61.348
				c0.433-3.746,0.803-7.539,1.737-11.17c0.551-2.151,1.703-4.584,3.366-5.929c4.571-3.712,9.266-7.462,14.442-10.197
				c8.545-4.518,14.404-2.004,17.926,6.979c3.143,8.022,4.779,16.368,4.676,25.013C333.633,104.853,333.892,104.907,334.146,104.96z
				 M302.837,131.955c6.98-2.155,12.835-5.605,15.771-12.662c4.892-11.77,3.1-23.394-0.918-34.951
				c-0.484-1.389-1.406-1.523-2.533-0.858c-2.865,1.678-5.695,3.414-8.557,5.087c-1.727,1.01-2.376,2.494-2.479,4.458
				c-0.375,7.176-0.981,14.339-1.244,21.522C302.669,120.262,302.837,125.996,302.837,131.955z"/>
			<path fill-rule="evenodd" clip-rule="evenodd" d="M234.562,138.642c4.568-2.347,9.004-4.642,13.455-6.899
				c0.88-0.443,1.807-0.824,2.754-1.094c3.02-0.84,6.898,0.791,8.127,3.348c1.139,2.389-0.03,6.585-2.824,7.996
				c-5.207,2.621-10.566,4.979-16.006,7.065c-1.559,0.601-3.613-0.079-5.721-0.188c0,23.125,0,46.41,0,69.925
				c5.373-2.044,10.554-4.015,15.727-5.986c2.52-0.961,5.002-2.039,7.561-2.876c3.988-1.299,7.213,0.339,8.617,4.207
				c1.1,3.01-0.468,6.396-3.92,7.86c-3.472,1.469-7.082,2.609-10.585,4.014c-6.255,2.51-12.427,5.219-18.712,7.642
				c-6.098,2.348-11.472-1.324-11.438-7.846c0.147-32.719,0.327-65.44,0.629-98.159c0.05-5.651,0.809-11.295,1.058-16.947
				c0.067-1.417-0.277-3.012-0.933-4.258c-2.18-4.143-1.044-8.391,3.166-10.12c10.06-4.131,20.169-8.137,30.272-12.156
				c1.244-0.494,2.564-0.892,3.886-1.072c2.972-0.418,5.618,1.239,6.626,3.965c0.994,2.702,0.072,5.791-2.52,7.285
				c-2.004,1.158-4.229,1.959-6.395,2.844c-6.568,2.684-13.18,5.281-19.709,8.069c-0.938,0.398-2.08,1.65-2.123,2.558
				c-0.518,9.873-0.832,19.755-1.188,29.635C234.347,137.868,234.502,138.284,234.562,138.642z"/>
			<path fill-rule="evenodd" clip-rule="evenodd" d="M203,130.956c1.414,15.562-7.293,26.223-17.504,36.05
				c-3.223,3.104-6.877,5.787-10.516,8.419c-1.736,1.259-2.187,2.522-1.814,4.54c3.396,18.292,6.72,36.596,10.068,54.897
				c0.206,1.146,0.539,2.28,0.652,3.441c0.353,3.524-1.765,6.521-5.047,7.288c-3.272,0.76-6.568-0.996-7.734-4.314
				c-0.589-1.68-0.877-3.478-1.243-5.232c-6.661-32.451-10.494-65.321-14.517-98.159c-0.434-3.57-0.875-7.135-1.362-10.701
				c-0.54-3.987,0.384-7.273,3.497-10.183c6.986-6.538,14.495-12.121,23.925-14.517c2.317-0.589,4.808-0.736,7.211-0.723
				c3.731,0.025,6.723,1.714,8.873,4.811c2.907,4.186,4.167,8.942,4.711,13.905C202.587,123.958,202.738,127.463,203,130.956z
				 M170.765,162.552c0.822-0.426,1.318-0.601,1.721-0.902c5.826-4.335,10.723-9.592,14.717-15.611
				c1.5-2.267,3.088-5.021,3.164-7.597c0.215-6.956,0.005-13.98-0.764-20.897c-0.488-4.444-2.139-5.099-6.381-3.807
				c-6.539,1.994-12.1,5.833-17.447,9.952c-0.619,0.478-0.878,1.906-0.74,2.811c1.229,8.077,2.591,16.133,3.893,24.195
				C169.55,154.56,170.129,158.427,170.765,162.552z"/>
			<path fill-rule="evenodd" clip-rule="evenodd" d="M362.259,135c1.142-0.355,2.117-0.777,3.135-0.95
				c2.105-0.351,4.24-0.812,6.358-0.79c2.816,0.035,4.663,1.796,5.229,4.596c0.507,2.484-0.396,4.643-2.596,5.7
				c-3.303,1.575-6.729,3.003-10.25,3.934c-2.074,0.552-2.652,1.323-2.823,3.345c-1.54,18.919-3.866,37.724-9.233,56.013
				c-1.484,5.063-3.318,10.026-5.218,15.716c2.452-0.676,4.378-1.198,6.308-1.728c2.254-0.615,4.471-1.39,6.763-1.812
				c3.562-0.655,7.102,1.315,7.88,4.147c0.932,3.403-0.887,7.379-4.389,8.544c-6.385,2.125-12.801,4.263-19.345,5.779
				c-7.494,1.736-12.257-2.392-11.724-9.938c0.262-3.712,0.86-7.562,2.182-11.015c10.127-26.437,14.193-53.954,14.848-82.071
				c0.326-14.103,0.295-28.214,0.258-42.324c-0.018-4.313,1.537-7.345,5.61-8.808c7.091-2.541,14.159-5.185,21.366-7.339
				c4.003-1.2,7.439,1.142,8.343,4.798c0.925,3.738-1.239,6.993-5.437,8.269c-5.242,1.598-10.451,3.274-15.707,4.834
				c-1.512,0.449-2.202,1.164-2.177,2.837c0.149,12.128,0.216,24.259,0.321,36.392C361.966,133.64,362.125,134.155,362.259,135z"/>
			<path fill-rule="evenodd" clip-rule="evenodd" d="M789.817,87.349c6.809,0.17,12.329,2.975,16.354,8.448
				c2.139,2.906,2.226,5.83,0.691,7.465c-1.736,1.856-5.31,1.966-8.217-0.061c-8.95-6.229-12.469-4.366-19.299,3.092
				c-3.52,3.838-3.752,8.117-2.172,12.553c3.012,8.454,6.205,16.855,9.59,25.173c2.334,5.736,5.451,11.167,7.615,16.961
				c3.641,9.753,7.367,19.538,9.949,29.593c1.534,5.967,1.451,12.501,1.158,18.738c-0.253,5.539-3.158,10.42-7.686,13.727
				c-7.555,5.519-16.295,7.802-25.574,8.014c-2.74,0.062-4.854-1.315-5.915-3.918c-1.016-2.487-0.651-4.97,1.372-6.668
				c1.278-1.069,3.148-1.837,4.814-1.962c5.12-0.391,9.855-1.816,14.41-4.112c3.428-1.729,4.967-4.486,5.15-8.2
				c0.385-7.962-1.869-15.353-4.125-22.903c-4.592-15.425-12.639-29.365-18.193-44.352c-2.055-5.554-4.062-11.16-5.561-16.879
				c-2.399-9.165-0.693-17.496,6.363-24.27c2.457-2.359,4.951-4.721,7.661-6.775C781.941,88.183,785.104,87.359,789.817,87.349z"/>
			<path fill-rule="evenodd" clip-rule="evenodd" d="M681.449,180.855c0.371,17.432,0.744,34.871,1.094,52.304
				c0.025,1.344,0.023,2.716-0.225,4.025c-0.637,3.297-3.361,5.544-6.648,5.655c-3.275,0.112-6.098-1.979-6.984-5.236
				c-0.211-0.771-0.351-1.587-0.353-2.385c-0.165-26.789-0.526-53.574-0.339-80.354c0.072-9.952,1.424-19.894,2.264-29.838
				c0.117-1.412,0.32-3.031,1.094-4.114c0.896-1.254,2.5-2.849,3.745-2.805c1.561,0.055,3.772,1.262,4.454,2.603
				c1.054,2.056,1.397,4.652,1.417,7.022c0.104,17.705,0.06,35.414,0.06,53.123C681.166,180.855,681.306,180.855,681.449,180.855z"
				/>
		</g>
		<g>
			<path d="M687.739,99.812c6.121-8.208,11.841-16.638,16.017-26.026c-3.05-1.284-6.1-2.569-9.15-3.855
				c-3.326,9.434-8.941,17.716-14.178,26.165c3.052,1.285,6.098,2.569,9.149,3.854c2.149-8.27,6.974-15.303,10.839-22.826
				c2.494-4.855-3.928-10.507-7.859-6.065c-5.976,6.737-11.379,13.949-17.352,20.687c-4.25,4.798,2.47,11.681,7.077,7.077
				c7.151-7.135,8.281-19.286,17.674-24.573c5.628-3.166,0.581-11.817-5.055-8.645c-5.062,2.85-8.533,7.406-11.634,12.213
				c-2.71,4.203-4.535,10.405-8.062,13.928c2.359,2.361,4.718,4.717,7.077,7.077c5.974-6.739,11.384-13.948,17.353-20.686
				c-2.618-2.021-5.238-4.043-7.859-6.065c-4.266,8.302-9.479,16.088-11.853,25.22c-1.446,5.557,6.159,8.681,9.149,3.857
				c5.717-9.232,11.554-18.254,15.188-28.558c1.874-5.32-6.84-9.042-9.15-3.856c-4.172,9.387-9.894,17.816-16.016,26.027
				C675.23,99.943,683.928,104.925,687.739,99.812L687.739,99.812z"/>
		</g>
	</g>
	<g>
		<path d="M20.781,228.002c92.041,76.444,210.607,42.123,319.811,42.123c73.324,0,146.646,12.481,219.969,12.481
			c82.684,0,165.367-3.121,246.489-18.722c40.562-6.24,78.001-23.4,115.444-39.002c62.404-28.08,59.283,9.361,43.684,56.163
			c-7.803,24.96-9.363,34.32-34.324,45.241c-24.959,10.921-54.602,15.601-81.121,17.161c-73.324,3.119-146.646,3.119-218.41,10.919
			c-123.245,14.041-249.608,3.12-371.292-4.68c-78.003-4.681-224.649,18.721-244.931-81.123c-1.561-10.92-9.358-42.122,9.359-34.32"
			/>
	</g>
	
		<text transform="matrix(1 0 0 1 213.8091 329.0811)" fill="#E50056" font-family="'ClaireHand-Bold'" font-size="26.521" letter-spacing="3">recuerdos de una infancia solitaria</text>
</g>
</svg>
