<?xml version="1.0" encoding="utf-8"?>
<!-- Generator: Adobe Illustrator 16.0.0, SVG Export Plug-In . SVG Version: 6.00 Build 0)  -->
<!DOCTYPE svg PUBLIC "-//W3C//DTD SVG 1.1//EN" "http://www.w3.org/Graphics/SVG/1.1/DTD/svg11.dtd">
<svg version="1.1" id="Capa_1" xmlns="http://www.w3.org/2000/svg" xmlns:xlink="http://www.w3.org/1999/xlink" x="0px" y="0px"
	 width="12.75px" height="8.938px" viewBox="0 0 12.75 8.938" enable-background="new 0 0 12.75 8.938" xml:space="preserve">
<g>
	<g>
		<path fill="#E50056" d="M5.824,4.64c2.227,0.409,4.778,0.609,6.456-1.194c0.559-0.601,0.446-1.526-0.253-1.963
			C9.256-0.249,0.89-0.942,0.194,3.566c-0.707,4.585,7.812,4.209,9.814,1.799c0.435-0.523,0.515-1.253,0-1.768
			C8.076,1.666,4.986,1.957,2.837,3.384c-2.353,1.562-1.85,4.295,0.72,5.22C5.878,9.44,10.367,6.52,8.702,3.833
			C7.082,1.218,3.51,3.328,2.685,5.546C2.537,5.944,2.706,6.479,3.007,6.762C4.622,8.284,6.562,8.046,8.588,7.61
			c1.576-0.338,0.907-2.748-0.664-2.41C6.892,5.422,5.648,5.817,4.774,4.994C4.882,5.399,4.989,5.805,5.096,6.21
			c0.14-0.375,0.512-0.619,0.826-0.827C6.353,5.098,6.801,4.74,6.251,5.41c-0.38,0.464-2.703,0.937-2.503,0.519
			C4.429,4.505,7.255,4.38,8.241,5.365c0-0.589,0-1.179,0-1.768C7.585,4.387,6.269,4.497,5.315,4.561
			C4.938,4.585,2.13,4.53,2.772,3.712C4.169,1.932,9.1,2.6,10.766,3.641c-0.084-0.654-0.169-1.309-0.253-1.963
			C9.509,2.757,7.795,2.469,6.488,2.229C4.913,1.94,4.24,4.349,5.824,4.64L5.824,4.64z"/>
	</g>
</g>
</svg>
