<?xml version="1.0" encoding="utf-8"?>
<!-- Generator: Adobe Illustrator 16.0.0, SVG Export Plug-In . SVG Version: 6.00 Build 0)  -->
<!DOCTYPE svg PUBLIC "-//W3C//DTD SVG 1.0//EN" "http://www.w3.org/TR/2001/REC-SVG-20010904/DTD/svg10.dtd">
<svg version="1.0" id="Capa_1" xmlns="http://www.w3.org/2000/svg" xmlns:xlink="http://www.w3.org/1999/xlink" x="0px" y="0px"
	 width="376px" height="786px" viewBox="0 0 376 786" enable-background="new 0 0 376 786" xml:space="preserve">
<g>
	<defs>
		<rect id="SVGID_1_" y="-20" width="361" height="931"/>
	</defs>
	<clipPath id="SVGID_2_">
		<use xlink:href="#SVGID_1_"  overflow="visible"/>
	</clipPath>
	<g clip-path="url(#SVGID_2_)">
		<path fill="#FFFFFF" d="M-20.688,770.188c58.826-9.051,128.217-49.779,177.994-82.964c48.27-31.677,79.947-66.37,102.572-117.656
			c22.627-48.271,43.744-90.505,43.744-146.316c0-49.78-12.068-81.457-36.201-123.691c-16.594-28.663-36.202-63.355-40.729-95.032
			c31.676,6.033,30.17-48.27,16.592-66.37c-10.559-12.068-28.658-18.101-40.727-27.152c-21.117-15.084-37.71-33.184-57.32-46.761
			c-39.217-30.168-84.471-39.22-132.741-37.709c-55.81,1.507-96.538,33.184-104.08,90.505
			c-9.052,64.861-1.509,132.741-3.018,197.602c0,64.863,7.544,129.726,21.118,193.079c12.069,58.831,33.186,117.658,34.693,179.503"
			/>
		<g>
			<path d="M212.477,203.229c25.295,37.707,44.452,78.95,58.524,122.067c14.945,45.79,24.975,93.67,21.24,142.036
				c-6.928,89.807-63.823,166.139-134.618,217.863c-32.396,23.668-68.136,43.67-105.525,58.234
				c-38.296,14.92-82.089,25.702-123.071,17.087c-4.742-0.998-6.762,6.271-2.003,7.271c43.431,9.128,89.041-2.267,129.573-18.056
				c40.34-15.713,78.574-38.006,113.037-64.131c66.984-50.779,117.64-122.52,128.965-207.07
				c6.775-50.607-3.609-101.757-18.637-149.952c-14.226-45.612-34.332-89.443-60.971-129.157
				C216.296,195.406,209.761,199.179,212.477,203.229L212.477,203.229z"/>
		</g>
		<path d="M288.513,432.419c3.77,15.826,28.638,8.288,36.928,1.508c20.345-18.087,9.795-45.213-0.756-65.558
			c-16.58-31.648-40.693-56.517-63.296-82.889c5.274,32.402,16.577,63.295,21.099,95.698c2.26,13.564-3.014,48.98,12.055,57.269"/>
		<g>
			<path d="M185.349,321.687c-3.296,9.504,0.968,29.602,14.591,22.359c12.996-6.911,4.942-29.786-6.034-34.67
				c-1.615-0.719-3.22-0.67-4.57,0.591c-6.836,6.381-7.271,15.431-3.986,23.78c1.759,4.472,9.055,2.527,7.271-2.003
				c-2.311-5.872-2.93-11.797,2.047-16.446c-1.523,0.197-3.049,0.394-4.568,0.592c5.998,2.669,12.479,15.488,7.043,21.036
				c-5.449,5.567-5.486-10.447-4.521-13.235C194.217,319.083,186.931,317.122,185.349,321.687L185.349,321.687z"/>
		</g>
		<g>
			<path d="M216.755,281.463c-3.348-9.452-14.363-18.089-23.754-20.736c-4.361-1.229-6.211,4.489-2.902,6.892
				c3.716,2.708,7.058,5.745,11.059,8.045c0.637-2.341,1.27-4.682,1.904-7.024c-16.561-1.523-37.934-11.571-51.943,2.108
				c-1.158,1.133-1.514,3.181-0.588,4.57c5.451,8.208,13.865,10.689,23.369,10.919c3.731,0.087,5.175-5.225,1.9-7.028
				c-20.582-11.338-40.355,4.069-52.422,20.461c-2.891,3.922,3.661,7.678,6.512,3.806c9.479-12.873,25.561-26.868,42.104-17.754
				c0.636-2.342,1.271-4.685,1.905-7.026c-6.605-0.156-12.945-1.291-16.857-7.184c-0.196,1.523-0.395,3.046-0.592,4.569
				c11.418-11.146,32.979-1.152,46.611,0.099c3.852,0.354,4.984-5.254,1.904-7.025c-3.982-2.292-7.363-5.354-11.062-8.047
				c-0.969,2.299-1.938,4.596-2.906,6.895c6.602,1.863,16.062,8.629,18.484,15.467C211.091,288.019,218.381,286.06,216.755,281.463
				L216.755,281.463z"/>
		</g>
		<g>
			<path d="M287.786,490.626c1.012,32.816-23.209,66.366-55.812,72.79c-29.26,5.762-60.408-9.128-85.336-22.749
				c-4.266-2.331-8.074,4.18-3.805,6.513c27.988,15.294,60.506,29.542,93.056,23.132c34.901-6.876,60.501-45.271,59.438-79.686
				C295.175,485.775,287.633,485.76,287.786,490.626L287.786,490.626z"/>
		</g>
		<g>
			<path d="M34.505,181.898c5.259,23.442,11.375,46.614,13.207,70.663c1.611,21.089,0.69,54.351-27.672,54.289
				c0.637,2.343,1.27,4.687,1.904,7.028c1.041-0.164,2.084-0.328,3.125-0.49c4.857-0.091,4.867-7.636,0-7.544
				c-2.589,0.05-4.647,0.281-6.934,1.521c-3.35,1.817-1.77,7.02,1.904,7.029c30.08,0.062,36.193-29.877,35.601-54.358
				c-0.667-27.276-7.933-53.699-13.862-80.142C40.714,175.15,33.442,177.163,34.505,181.898L34.505,181.898z"/>
		</g>
		<g>
			<path d="M58.64,194.974c6.384,21.164,18.365,51.539,40.847,59.953c4.565,1.708,6.519-5.586,2.004-7.273
				c-10.287-3.851-17.001-14.624-22.263-23.66c-5.66-9.716-10.074-20.268-13.314-31.025
				C64.511,188.325,57.231,190.304,58.64,194.974L58.64,194.974z"/>
		</g>
		<g>
			<path d="M105.133,222.132c-3.263-11.672-7.447-22.995-12.067-34.189c-1.817-4.398-9.037-2.582-7.273,2.003
				c10.498,27.283,36.449,62.601,70.325,49.136c26.438-10.512-11.487-46.441-19.776-56.827c-1.779,1.778-3.555,3.554-5.332,5.331
				c28.504,23.03,63.15,41.778,100.207,28.124c4.523-1.669,2.567-8.958-2.004-7.274c-34.436,12.688-66.385-4.784-92.871-26.181
				c-3.808-3.076-8.373,1.525-5.332,5.331c5.412,6.785,38.099,38.263,21.748,44.764c-28.787,11.44-51.074-22.006-59.691-44.406
				c-2.426,0.665-4.849,1.335-7.273,2.003c4.622,11.194,8.805,22.52,12.064,34.19C99.167,228.812,106.442,226.823,105.133,222.132
				L105.133,222.132z"/>
		</g>
		<g>
			<path d="M195.124,169.07c13.484,9.421,22.646,23.548,35.551,33.684c5.014,3.936,13.489,11.122,19.535,4.987
				c6.082-6.17,4.281-20.998,3.203-28.537c-1.694-11.836-8.475-19.743-17.515-27.12c-3.714-3.026-9.062,2.142-5.335,5.335
				c7.361,6.305,14.986,13.176,24.795,15.049c1.893,0.359,4.224-0.502,4.639-2.635c4.389-22.559-20.927-42.559-36.221-54.855
				c-10.736-8.635-22.23-16.235-33.458-24.202c-15.558-11.039-30.747-22.823-47.062-32.728
				C90.807,26.202,20.874,9.354-38.282,31.449c-4.514,1.685-2.562,8.977,2.008,7.272c56.384-21.059,121.133-5.355,171.82,23.541
				c13.789,7.861,26.48,17.537,39.37,26.754c12.55,8.974,25.446,17.531,37.763,26.815c9.07,6.831,17.752,14.218,25.596,22.432
				c7.032,7.373,16.604,18.492,14.451,29.563c1.544-0.877,3.092-1.756,4.637-2.633c-8.558-1.633-15.042-7.606-21.464-13.11
				c-1.78,1.778-3.558,3.556-5.335,5.335c6.982,5.695,12.975,11.5,15.049,20.534c1.038,4.531,0.92,9.384,0.943,14.007
				c0.006,1.504,0.023,10.002-1.885,10.713c-1.762,0.656-6.671-3.768-7.898-4.676c-4.859-3.584-9.144-7.67-13.303-12.035
				c-7.871-8.267-15.117-16.817-24.538-23.404C194.934,159.764,191.171,166.304,195.124,169.07L195.124,169.07z"/>
		</g>
	</g>
</g>
</svg>
