<?xml version="1.0" encoding="utf-8"?>
<!-- Generator: Adobe Illustrator 16.0.0, SVG Export Plug-In . SVG Version: 6.00 Build 0)  -->
<!DOCTYPE svg PUBLIC "-//W3C//DTD SVG 1.0//EN" "http://www.w3.org/TR/2001/REC-SVG-20010904/DTD/svg10.dtd">
<svg version="1.0" id="Capa_1" xmlns="http://www.w3.org/2000/svg" xmlns:xlink="http://www.w3.org/1999/xlink" x="0px" y="0px"
	 width="573px" height="519px" viewBox="0 0 573 519" enable-background="new 0 0 573 519" xml:space="preserve">
<g>
	<defs>
		<rect id="SVGID_1_" x="-115" y="-1" width="798" height="640"/>
	</defs>
	<clipPath id="SVGID_2_">
		<use xlink:href="#SVGID_1_"  overflow="visible"/>
	</clipPath>
	<g clip-path="url(#SVGID_2_)">
		<g>
			<path fill="#FFE0DF" d="M365.057,327.953c45.975,15.324,90.416-30.648,119.532-61.299
				c36.779-38.312,33.714-84.285,41.377-134.857c3.064-30.648,9.194-61.299,9.194-91.947c0-26.053-3.064-50.572-6.13-76.625
				c-4.598-55.168,7.662-122.596-16.857-174.701c-7.662-18.389-18.39-36.779-24.52-58.232c-4.597-15.326-6.129-49.039-21.454-59.768
				c-10.728-7.662-22.987,4.598-35.247,6.131c-16.856,1.531-24.52-12.26-32.182-26.053c-7.662-13.791-10.728-22.986-24.52-9.195
				c-15.324,16.857-24.519,39.846-44.441,52.105c-19.922,10.727-38.312,3.064-59.767,0c-27.584-1.533-53.636,12.26-76.623,27.584
				c-9.195,6.129-39.844,36.779-49.039,22.986c-4.598-6.129,1.533-24.52,3.064-32.182c4.598-13.791,7.663-29.117,9.195-44.441
				c3.064-16.857,3.064-45.975-21.455-39.844c-19.922,4.598-33.714,29.117-38.311,47.506c-1.533,9.195-1.533,19.922-1.533,30.65
				c1.533-13.793-9.195-45.975-22.986-24.52c-7.663,12.26-4.598,39.844-7.663,53.635C57.03-226.801,50.9-188.488,49.367-150.178
				c-10.727-19.922-21.453-32.182-27.584-3.064c-9.194,41.377-6.129,84.285-6.129,125.662c1.531,49.039-7.663,102.676,3.064,150.182
				c10.727,49.039,45.974,90.416,64.363,134.857c24.52,55.17,65.896,84.287,122.598,101.143c70.494,18.391,136.39,0,199.221-32.182"
				/>
		</g>
		<g>
			<path fill="#FFFFFF" d="M525.966,176.748c-4.087,16.346-16.347,33.713-24.52,48.018c-8.175,13.281-22.477,29.627-25.542,43.93
				c-1.021,7.15,2.043,12.26,4.088,17.369c6.129,12.26,11.237,24.52,17.367,36.779c10.217,23.496,14.303,45.975,18.39,71.514
				c5.107,24.52,5.107,49.039,6.13,73.559c21.454-15.324,31.672-49.039,36.779-73.559c4.087-21.453,4.087-44.953,4.087-66.408
				c0-37.799-7.152-74.578-19.412-110.336c-4.087-14.303-10.217-31.672-19.412-42.91"/>
		</g>
		<g>
			<path fill="#FFFFFF" d="M125.479,323.865c3.065,2.041-9.194-13.283-11.237-14.305c-10.217-11.238-21.455-21.455-28.607-34.734
				c-5.107-9.195-9.194-19.414-14.302-29.629c-3.065-6.131-5.108-14.305-10.218-18.391c-11.236,19.41-20.432,41.889-27.584,64.365
				c-9.195,26.562-17.367,49.037-19.41,76.623c-2.045,27.584-3.064,50.059,3.064,76.623c5.108,20.434,11.238,38.824,18.391,58.234
				c8.172-14.305,14.303-29.629,21.454-44.955c13.28-24.52,26.562-50.059,37.8-75.6c6.13-12.26,11.239-25.543,19.412-36.779
				c4.087-6.129,10.217-18.389,16.347-21.453"/>
		</g>
		<g>
			<path fill="#FFFFFF" d="M392.129-162.945c1.532-2.557-1.532-6.131-2.553-8.686c-2.045-3.066-3.065-11.236-6.642-13.281
				c-4.086-2.553-4.086,2.553-4.598,5.617c0,5.621-1.532,10.729-3.065,16.35c-2.043,9.195,0.512,16.346-11.748,17.365
				c-7.662,0-8.174-6.639-10.727-13.279c-3.064-9.707-6.13-17.879-11.75-26.564c-6.129,3.064-8.172,14.816-10.727,20.945
				c-2.555,7.15-5.107,14.812-8.173,21.455c-5.62-6.643-6.642-14.816-8.175-22.479c-1.02-5.105-2.042-16.857-6.129-19.922
				c-5.108-4.086-9.195,7.154-11.238,10.727c-5.107,9.195-10.727,18.391-17.367,26.564c-2.555-6.643-3.064-13.793-5.109-20.943
				c-1.532-4.598-3.575-16.857-7.15-19.412c-7.152-5.619-30.139,32.693-33.715,38.822c-1.532-5.617-4.086-11.238-5.109-17.369
				c-1.02-4.084,0-9.703-2.042-13.279c-6.13,8.684-12.771,16.857-20.433,24.008c-3.064,3.576-14.305,16.348-16.857,7.662
				c-2.555-7.662,3.576-19.41-2.555-26.053c-6.129-6.639-16.347,3.578-19.411,8.688c-14.303,21.963,16.347,27.584,31.671,30.137
				c21.965,3.064,43.932,3.064,66.406,3.064c19.923,0,40.356,0,60.279-1.02c17.367-1.533,34.224-4.598,50.059-11.752
				c8.175-3.574,17.88-8.17,20.944-17.365"/>
		</g>
		<g>
			<path fill="#FFFFFF" d="M384-229h0.596c0,2-6.896,7.038-8.429,8.954c-1.916,1.916-4.598,7.159-7.663,6.008
				c-3.064-1.531-4.98-11.937-5.746-15.001c-2.682-7.279-5.747-13.438-9.578-19.952c-1.149-2.299-1.149-3.08-3.831-1.164
				c-3.065,1.914-6.13,5.355-8.812,8.037c-3.831,4.598-7.279,9.575-10.728,14.555c-1.532,1.916-6.513,9.959-9.194,9.959
				c-3.448-0.383-8.046-18.392-9.195-21.456c-1.149-2.682-4.598-14.176-7.662-14.176c-2.299,0-5.747,6.13-6.896,7.662
				c-3.831,4.98-7.279,10.346-10.727,16.092c-2.682,4.215-5.747,11.494-9.961,14.176c-3.065,2.299-5.364,0-6.896-3.064
				c-4.98-7.279-5.363-16.857-9.961-24.52c-5.363,1.914-9.578,15.324-11.494,20.305c-2.682,6.129-5.746,12.26-11.109,16.09
				c-2.299-1.914-2.299-4.598-3.449-6.895c-1.148-2.299-2.682-4.98-4.214-7.279c-0.767-1.533-2.299-5.365-4.214-5.748
				c-2.299-0.766-4.598,2.682-5.747,4.215c-2.682,2.299-5.364,4.98-7.279,8.045c-1.532,2.299-1.532,3.832-4.597,4.215
				c-4.598,0.383-8.046-2.299-11.111-4.598c11.111-7.279,20.688-18.006,32.948-22.604c15.708-6.131,32.183-10.344,48.655-13.41
				c10.729-1.914,21.072-2.299,31.799-3.064c10.345-0.766,21.072-2.299,31.416-1.531c7.662,0.383,17.623,2.682,24.52,5.746
				c8.046,3.447,14.175,9.961,21.454,14.941l0,0c0.384,0,0.661,0.624,1.427,0.624"/>
		</g>
		<g>
			<g>
				<g>
					<path d="M483.891,74.401c-15.567,18.193-40.338,30.854-64.463,29.098c-12.192-0.888-24.291-5.045-35.194-10.406
						c-4.71-2.316-8.807-6.605-13.026-9.706c-4.648-3.416-9.883-6.292-15.656-7.103c-5.796-0.815-8.295,8.044-2.443,8.866
						c12.071,1.697,20.023,12.986,30.722,17.895c12.26,5.625,25.418,9.161,38.907,9.854c24.881,1.28,51.751-13.408,67.656-31.996
						C494.225,76.425,487.752,69.889,483.891,74.401L483.891,74.401z"/>
				</g>
			</g>
			<g>
				<g>
					<path d="M491.507,72.659c-22.988-11.085-45.92-24.072-72.275-23.054c-24.271,0.938-43.803,13.919-61.003,29.901
						c-4.352,4.044,2.165,10.531,6.502,6.502c16.068-14.931,33.591-26.401,56.204-27.274c23.768-0.918,45.262,11.897,65.932,21.864
						C492.181,83.162,496.847,75.234,491.507,72.659L491.507,72.659z"/>
				</g>
			</g>
			<g>
				<g>
					<path d="M170.247,81.552c-16.039,15.749-36.791,24.153-58.893,26.869c-10.241,1.258-19.533,1.02-28.667-4.254
						C72.09,98.047,62.524,91.181,51.102,86.499c-5.488-2.25-7.854,6.649-2.445,8.866c12.09,4.956,21.97,13.347,33.602,18.978
						c9.738,4.714,20.236,4.361,30.702,3.075c23.947-2.942,46.431-12.321,63.789-29.364
						C180.985,83.895,174.479,77.396,170.247,81.552L170.247,81.552z"/>
				</g>
			</g>
			<g>
				<g>
					<path d="M178.488,79.418c-14.778-22.052-42.82-32.878-68.654-32.991c-12.807-0.056-25.333,4.437-35.37,12.301
						c-10.203,7.996-18.001,18.528-26.814,27.933c-4.05,4.321,2.439,10.836,6.502,6.502c7.394-7.89,14.073-16.466,21.988-23.856
						c8.662-8.087,19.151-12.638,30.95-13.622c22.795-1.902,50.547,9.106,63.459,28.373C173.831,88.957,181.8,84.359,178.488,79.418
						L178.488,79.418z"/>
				</g>
			</g>
			<g>
				<g>
					<path d="M287.503,90.876c10.588-30.355,13.677-62.905,18.937-94.466c2.634-15.806,5.109-31.563,8.744-47.171
						c2.767-11.875,4.655-24.633-1.435-35.771c-9.079-16.602-31.607-22.36-49.096-22.353c-17.782,0.008-34.255,8.676-42.266,24.877
						c-11.854,23.973-5.682,54.681,1.311,79.153c10.195,35.681,26.718,72.615,53.055,99.292c4.171,4.224,10.67-2.28,6.502-6.502
						c-19.732-19.986-32.57-45.512-42.584-71.474c-6.737-17.467-12.292-35.609-14.519-54.254
						c-1.957-16.393-1.969-36.267,9.287-49.605c12.044-14.271,32.976-14.31,49.476-9.28c9.87,3.009,19.752,9.233,22.905,19.569
						c2.483,8.14-0.047,17.653-1.912,25.66c-2.142,9.194-3.827,18.368-5.38,27.682c-3.13,18.78-6.261,37.556-9.173,56.372
						c-2.925,18.901-6.405,37.726-12.72,55.827C276.678,94.046,285.562,96.438,287.503,90.876L287.503,90.876z"/>
				</g>
			</g>
			<g>
				<g>
					<path d="M310.654-71.256c-30.395-0.31-58.582-15.534-89.34-9.796c-5.823,1.086-3.35,9.947,2.445,8.866
						c29.469-5.497,57.59,9.826,86.895,10.125C316.586-62,316.58-71.195,310.654-71.256L310.654-71.256z"/>
				</g>
			</g>
			<g>
				<g>
					<path d="M304.523-25.281c0.35,0.02,0.696,0.001,1.04-0.057c3.036-0.406,6.271-3.736,3.97-6.917
						c-1.53-2.114-3.279-2.299-5.68-2.604c-3.019-0.382-5.678-0.777-8.648-1.577c-9.626-2.592-19.148-4.888-28.98-6.569
						c-10.015-1.713-20.128-2.869-30.259-3.603c-5.896-0.427-13.354-1.439-18.813,1.268c-5.312,2.634-0.653,10.563,4.641,7.939
						c1.67-0.828,4.592-0.335,6.387-0.305c3.245,0.055,6.486,0.199,9.722,0.433c9.327,0.676,18.601,1.889,27.814,3.465
						c7.979,1.365,15.773,3.142,23.578,5.288c3.312,0.91,6.915,2.385,10.367,2.488c1.52,0.046,3.151,0.124,4.635,0.467
						c-0.916-0.704-1.832-1.408-2.748-2.113c0.016,0.021,0.03,0.042,0.046,0.063c1.323-2.306,2.646-4.612,3.97-6.918
						c-0.344,0.058-0.69,0.077-1.04,0.057C298.603-34.354,298.591-25.159,304.523-25.281L304.523-25.281z"/>
				</g>
			</g>
			<g>
				<g>
					<path d="M294.107,14.727c-8.103,2.769-18.587-1.543-26.734-2.71c-5.657-0.811-11.415-0.559-17.116-0.737
						c-6.941-0.216-13.877-0.519-20.823-0.547c-5.931-0.023-5.928,9.171,0,9.195c6.945,0.028,13.883,0.313,20.823,0.546
						c5.735,0.193,11.536-0.115,17.216,0.795c9.13,1.462,19.922,5.454,29.078,2.324C302.128,21.687,299.733,12.804,294.107,14.727
						L294.107,14.727z"/>
				</g>
			</g>
			<g>
				<g>
					<path d="M297.318-5.96c-11.654-3.22-23.844-5.126-35.763-7.11c-10.507-1.749-22.186-3.943-32.579-0.552
						c-5.611,1.831-3.209,10.71,2.445,8.866c9.186-2.996,19.695-0.778,28.971,0.766c11.494,1.913,23.243,3.792,34.48,6.896
						C300.599,4.488,303.025-4.383,297.318-5.96L297.318-5.96z"/>
				</g>
			</g>
			<g>
				<g>
					<path d="M285.368,55.939c0.274,0,0.549,0,0.823,0c5.929,0,5.929-9.195,0-9.195c-5.783,0-11.863-1.862-17.714-2.191
						c-7.382-0.416-14.8-0.126-22.188-0.108c-5.929,0.015-5.93,9.21,0,9.195c6.788-0.018,13.573-0.173,20.359,0.03
						c6.564,0.196,13.077,2.269,19.542,2.269c5.929,0,5.929-9.195,0-9.195c-0.274,0-0.549,0-0.823,0
						C279.438,46.744,279.438,55.939,285.368,55.939L285.368,55.939z"/>
				</g>
			</g>
			<g>
				<g>
					<path d="M475.23,146.812c1.17-2.776,0.509-5.724-0.308-8.513c-1.165-3.981-1.931-7.706-2.307-11.865
						c-0.379-4.193-1.143-8.116-2.59-12.076c-1.314-3.597-3.183-6.818-3.991-10.602c-1.24-5.797-10.104-3.338-8.867,2.444
						c1.51,7.052,5.499,12.898,6.254,20.233c0.36,3.507,0.666,6.965,1.409,10.417c0.494,2.293,2.496,5.229,1.532,7.517
						C464.062,149.829,472.964,152.189,475.23,146.812L475.23,146.812z"/>
				</g>
			</g>
			<g>
				<g>
					<path d="M449.343,154.018c0.512-8.445-2.811-16.26-3.832-24.52c-0.785-6.35-0.701-13.717-4.459-19.178
						c-3.337-4.85-11.311-0.258-7.939,4.641c3.029,4.402,2.759,10.941,3.396,16.089c0.954,7.721,4.117,15.1,3.64,22.968
						C439.788,159.943,448.985,159.908,449.343,154.018L449.343,154.018z"/>
				</g>
			</g>
			<g>
				<g>
					<path d="M415.813,159.567c4.277-5.23,3.761-13.211,3.723-19.591c-0.062-10.717-1.113-21.712,1.291-32.242
						c1.317-5.773-7.547-8.224-8.867-2.444c-2.23,9.772-1.747,19.643-1.691,29.588c0.018,3.321,0.11,6.636,0.039,9.958
						c-0.043,1.947,0.335,6.603-0.996,8.23C405.592,157.614,412.057,164.16,415.813,159.567L415.813,159.567z"/>
				</g>
			</g>
			<g>
				<g>
					<path d="M451.641,57.473c0.055,0.006,0.109,0.013,0.164,0.02c1.506,0.188,3.286-0.996,3.97-2.277
						c1.781-3.337,0.905-7.502,1.832-11.08c0.946-3.655,0.164-8.405,0.164-12.171c0-4.269,0-8.537,0-12.805
						c0-5.93-9.195-5.93-9.195,0c0,6.723,0,13.446,0,20.168c0,2.395-0.287,4.627-0.534,7.002c-0.087,0.845-0.446,4.694-0.206,4.245
						c1.323-0.759,2.646-1.518,3.97-2.277c-0.055-0.007-0.109-0.014-0.164-0.021C445.767,47.545,445.838,56.749,451.641,57.473
						L451.641,57.473z"/>
				</g>
			</g>
			<g>
				<g>
					<path d="M429.256,54.097c1.787-5.225,2.08-11.076,2.367-16.547c0.286-5.458,0.353-11.18-0.834-16.545
						c-1.281-5.789-10.145-3.333-8.867,2.444c1.862,8.417,1.258,20.047-1.533,28.204C418.464,57.279,427.348,59.673,429.256,54.097
						L429.256,54.097z"/>
				</g>
			</g>
			<g>
				<g>
					<path d="M410.265,53.641c0.745-8.165,1.476-16.314,1.532-24.52c0.04-5.931-9.154-5.927-9.195,0
						c-0.056,8.205-0.787,16.354-1.532,24.52C400.53,59.547,409.73,59.495,410.265,53.641L410.265,53.641z"/>
				</g>
			</g>
			<g>
				<g>
					<path d="M131.957,51.033c1.537-7.773,0.981-15.576,0.931-23.443c-0.038-5.927-9.233-5.931-9.195,0
						c0.045,6.978,0.761,14.104-0.603,20.999C121.945,54.379,130.807,56.847,131.957,51.033L131.957,51.033z"/>
				</g>
			</g>
			<g>
				<g>
					<path d="M94.576,49.811c0.004,0.041,0.008,0.083,0.012,0.124c0.482,5.375,7.041,6.004,9.03,1.222
						c1.404-3.376,1.116-8.516,1.445-12.122c0.679-7.437-1.883-14.723-2.06-22.173c-0.141-5.919-9.336-5.933-9.195,0
						c0.169,7.083,2.676,14.193,2.14,21.229c-0.241,3.165,0.032,7.667-1.196,10.622c3.01,0.407,6.021,0.815,9.03,1.222
						c-0.004-0.041-0.007-0.083-0.011-0.124C103.245,43.954,94.046,43.903,94.576,49.811L94.576,49.811z"/>
				</g>
			</g>
			<g>
				<g>
					<path d="M85.381,51.342c-0.805-6.654-1.575-13.765,0.603-20.231c1.897-5.635-6.985-8.033-8.867-2.444
						c-2.441,7.251-1.834,15.206-0.931,22.675C76.889,57.151,86.092,57.22,85.381,51.342L85.381,51.342z"/>
				</g>
			</g>
			<g>
				<g>
					<path d="M138.252,154.783c0.137-15.185,4.217-31.85-1.697-46.429c-2.199-5.42-11.097-3.053-8.867,2.444
						c5.57,13.73,1.498,29.659,1.369,43.985C129.004,160.715,138.198,160.709,138.252,154.783L138.252,154.783z"/>
				</g>
			</g>
			<g>
				<g>
					<path d="M110.667,145.59c0-10.983,0-21.966,0-32.949c0-5.93-9.195-5.93-9.195,0c0,10.983,0,21.966,0,32.949
						C101.472,151.52,110.667,151.52,110.667,145.59L110.667,145.59z"/>
				</g>
			</g>
			<g>
				<g>
					<path d="M76.789,139.15c3.68-9.067,6.278-18.52,9.961-27.586c2.231-5.497-6.666-7.863-8.867-2.444
						c-3.682,9.066-6.28,18.519-9.961,27.586C65.691,142.203,74.589,144.569,76.789,139.15L76.789,139.15z"/>
				</g>
			</g>
			<g>
				<path d="M484.479,75.67c-30.388-14.914-66.297-23.756-99.445-13.26c-6.63,2.209-17.129,6.076-19.337,13.26
					c-1.657,7.182,4.42,12.707,9.392,16.023c16.021,12.154,36.464,15.471,55.799,12.705c15.471-2.209,47.515-7.734,53.038-25.965"/>
			</g>
			<g>
				<path d="M103.182,114.428c22.781-1.068,50.01-10.648,66.125-27.152c4.445-4.264,7.223-8.521,3.334-13.311
					c-5.557-6.924-15.561-11.715-22.782-15.441c-17.784-9.055-39.455-6.924-57.792,0.529C81.51,62.781,44.277,79.818,60.947,93.664
					c7.225,5.855,18.338,8.516,26.672,12.779c8.893,3.723,16.117,4.256,25.006,2.66"/>
			</g>
			<g>
				<g>
					<path d="M503.606,214.271c-6.192,12.433-11.91,25.114-18.903,37.13c-7.322,12.581-16.987,23.014-26.538,33.892
						c-9.502,10.822-20.062,19.171-33.041,25.484c-12.36,6.011-25.725,9.715-38.517,14.662
						c-28.921,11.183-59.134,18.285-89.62,23.666c-15.605,2.754-31.529,5.89-47.377,6.614c-16.102,0.735-33.104-0.635-48.885-3.926
						c-15.098-3.15-30.628-5.56-44.758-12.033c-14.087-6.454-25.252-18.119-35.137-29.754c-9.906-11.662-19.634-24.078-27.83-37.004
						c-8.938-14.096-15.453-29.433-20.3-45.372c-1.721-5.657-10.597-3.244-8.867,2.444c4.087,13.437,9.328,26.445,16.054,38.785
						c6.628,12.161,15.126,22.978,23.518,33.94c8.232,10.755,16.811,21.248,26.862,30.37c10.08,9.147,21.379,15.489,34.303,19.681
						c13.217,4.287,27.385,6.991,41.112,9.024c15.836,2.345,31.8,3.771,47.811,2.838c15.338-0.894,30.819-4.107,45.938-6.74
						c15.3-2.665,30.512-5.825,45.562-9.658c18.631-4.746,36.393-11.434,54.473-17.838c17.008-6.024,33.89-11.968,48.597-22.72
						c7.172-5.243,13.084-11.923,18.896-18.581c6.351-7.274,12.931-14.279,18.586-22.126c10.687-14.83,17.89-31.854,26-48.137
						C514.181,213.622,506.25,208.963,503.606,214.271L503.606,214.271z"/>
				</g>
			</g>
			<g>
				<g>
					<path d="M474.606,277.772c4.028,2.025,5.087,8.847,6.396,12.748c2.48,7.39,5.561,14.546,8.665,21.69
						c7.176,16.507,11.052,33.374,14.902,50.882c1.885,8.57,4.212,16.993,5.651,25.661c1.402,8.451,2.036,17.022,2.615,25.562
						c0.617,9.104,1.222,18.022,0.873,27.16c-0.351,9.164-0.999,18.289-0.516,27.462c0.141,2.667,2.896,5.646,5.82,4.433
						c18.057-7.485,27.031-27.315,32.853-44.764c8.411-25.212,9.482-52.811,11.542-79.112c2.309-29.477,0.561-59.068-3.572-88.301
						c-3.827-27.064-10.783-53.841-24.793-77.573c-3.011-5.101-10.961-0.477-7.939,4.641c12.946,21.93,19.462,46.53,23.294,71.499
						c4.255,27.727,5.792,55.869,4.211,83.882c-0.745,13.192-2.061,26.412-3.388,39.558c-1.271,12.6-3.06,25.233-6.52,37.437
						c-4.352,15.35-12.05,37.2-28.133,43.868c1.94,1.478,3.88,2.956,5.82,4.433c-0.483-9.166,0.117-18.305,0.515-27.462
						c0.423-9.742-0.339-19.286-0.997-28.991c-0.594-8.764-1.465-17.495-2.819-26.176c-1.45-9.291-4.039-18.328-6.056-27.5
						c-2.03-9.229-3.876-18.487-6.459-27.584c-2.477-8.724-6.088-17.034-9.695-25.334c-3.177-7.308-5.96-14.706-8.479-22.26
						c-1.725-5.172-3.971-11.194-9.15-13.797C473.965,267.178,469.308,275.109,474.606,277.772L474.606,277.772z"/>
				</g>
			</g>
			<g>
				<g>
					<path d="M537.018,216.778c-0.737-2.631-1.077-3.347-1.021-2.149c0.017,1.147,0.216-0.968-0.094,0.474
						c-0.268,1.25-0.699,2.47-1.116,3.675c-1.186,3.431-2.651,6.765-4.12,10.081c-3.359,7.586-6.995,15.047-10.587,22.524
						c-4.043,8.417-8.216,16.718-12.79,24.869c-3.629,6.467-7.275,12.367-12.205,17.914c-2.741,3.084-7.782,7.606-7.544,12.216
						c0.106,2.066,1.327,3.859,3.375,4.434c0.776,0.218,1.557,0.263,2.356,0.278c5.933,0.108,5.922-9.087,0-9.195
						c0.029,0.017,0.059,0.034,0.088,0.051c1.125,1.478,2.25,2.956,3.375,4.433c0.126,2.422-0.169,1.239,0.475-0.438
						c0.39-1.016,1.505-1.981,2.194-2.792c2.135-2.508,4.375-4.924,6.509-7.433c4.93-5.794,8.363-13.041,12.014-19.682
						c4.501-8.189,8.459-16.609,12.502-25.025c3.838-7.988,7.622-16.001,11.044-24.178c1.735-4.149,6.248-12.546,2.048-16.558
						C539.233,206.184,532.723,212.676,537.018,216.778L537.018,216.778z"/>
				</g>
			</g>
			<g>
				<g>
					<path d="M550.485,258.99c-2.621-0.64-3.674-1.719-3.158-3.237c-0.083,0.61-0.288,1.21-0.469,1.796
						c-0.364,1.182-0.896,2.3-1.422,3.416c-1.414,2.999-3.068,5.888-4.725,8.757c-2.926,5.071-6.008,9.956-8.545,15.239
						c-7.945,16.542-15.633,37.15-32.021,47.195c-5.045,3.092-0.43,11.047,4.641,7.939c19.734-12.096,27.439-35.599,37.565-55.08
						c2.964-5.704,23.812-33.724,8.133-35.219C544.582,249.232,544.637,258.432,550.485,258.99L550.485,258.99z"/>
				</g>
			</g>
			<g>
				<g>
					<path d="M557.125,294.236c-1.265,13.213-13.01,24.589-21.072,34.232c-3.341,3.995-6.689,8.023-9.809,12.193
						c-3.2,4.279-6.243,9.923-10.773,12.947c-4.904,3.274-0.307,11.242,4.641,7.939c4.931-3.292,8.344-8.416,11.792-13.131
						c3.96-5.415,8.243-10.583,12.558-15.723c9.398-11.196,20.405-23.265,21.859-38.458
						C566.885,288.333,557.685,288.388,557.125,294.236L557.125,294.236z"/>
				</g>
			</g>
			<g>
				<g>
					<path d="M561.377,347.562c0.717,3.417-3.348,8.415-5.065,11.015c-2.796,4.234-6.039,8.15-9.25,12.07
						c-10.107,12.341-20.747,24.003-31.499,35.786c-3.986,4.37,2.497,10.891,6.502,6.502c11.549-12.657,22.907-25.234,33.732-38.516
						c6.127-7.517,16.671-18.685,14.447-29.301C569.028,339.315,560.166,341.777,561.377,347.562L561.377,347.562z"/>
				</g>
			</g>
			<g>
				<g>
					<path d="M549.117,409.481c-3.792,10.158-15.394,17.76-23.337,24.536c-4.518,3.854,2.019,10.326,6.502,6.502
						c9.502-8.105,21.178-16.475,25.702-28.593C560.062,406.359,551.172,403.978,549.117,409.481L549.117,409.481z"/>
				</g>
			</g>
			<g>
				<g>
					<path d="M123.09,317.534c-1.019,6.697-5.224,12.37-9.016,17.798c-4.183,5.985-7.788,12.128-11.354,18.503
						c-8.961,16.024-17.37,32.28-25.18,48.896c-15.497,32.976-28.325,67.119-42.312,100.742c2.802-0.366,5.603-0.732,8.403-1.098
						c-11.605-17.803-16.263-39.613-20.412-60.161c-5.221-25.85-8.586-51-4.663-77.284c3.604-24.146,9.491-47.915,18.292-70.704
						c4.209-10.898,9.544-21.167,14.63-31.655c3.843-7.924,7.42-19.461,15.023-24.644c4.867-3.318,0.273-11.29-4.641-7.939
						c-7.865,5.361-12.013,14.687-15.979,23.011c-5.134,10.773-10.647,21.31-15.289,32.317
						c-10.401,24.665-16.853,50.762-20.904,77.17c-2.049,13.357-2.904,26.533-1.9,40.029c0.984,13.231,3.467,26.334,6.008,39.337
						c4.339,22.209,9.361,45.936,21.896,65.164c2.344,3.595,6.894,2.531,8.403-1.098c13.929-33.485,26.765-67.436,42.198-100.275
						c7.805-16.605,16.328-32.793,25.282-48.804c3.507-6.271,7.176-12.197,11.288-18.083c3.941-5.642,8.037-11.842,9.093-18.777
						C132.839,314.18,123.979,311.687,123.09,317.534L123.09,317.534z"/>
				</g>
			</g>
			<g>
				<g>
					<path d="M106.416,351.247c-2.132-15.375-17.434-25.678-26.845-36.726c-11.574-13.587-23.278-26.893-32.874-42.015
						c-3.166-4.99-11.127-0.382-7.939,4.641c4.377,6.899,9.271,13.44,14.186,19.961c5.207,6.91,11.129,13.143,16.672,19.791
						c5.086,6.1,10.363,11.882,15.987,17.486c5.503,5.483,10.842,11.338,11.946,19.306
						C98.36,359.543,107.219,357.042,106.416,351.247L106.416,351.247z"/>
				</g>
			</g>
			<g>
				<g>
					<path d="M86.542,391.014c-8.972-14.9-21.733-26.86-33.685-39.309c-4.55-4.739-8.76-9.774-13.37-14.452
						c-2.312-2.345-4.612-4.695-6.806-7.151c-1.033-1.158-3.6-3.595-3.746-5.216c-0.529-5.855-9.729-5.907-9.195,0
						c0.492,5.444,4.54,9.67,8.074,13.524c4.6,5.016,9.373,9.847,13.945,14.891c12.57,13.869,27.096,26.167,36.843,42.354
						C81.656,400.726,89.609,396.107,86.542,391.014L86.542,391.014z"/>
				</g>
			</g>
			<g>
				<g>
					<path d="M68.151,428.816c-14.15-20.991-32.848-40.821-54.774-53.753c-4.751-2.802-8.767,3.359-5.571,7.221
						c1.085,1.311,1.976,2.771,3.064,4.086c3.784,4.572,10.252-1.971,6.502-6.502c-1.085-1.311-1.976-2.771-3.064-4.086
						c-1.857,2.407-3.714,4.814-5.571,7.221c20.534,12.111,38.218,30.788,51.476,50.454
						C63.507,438.344,71.477,433.749,68.151,428.816L68.151,428.816z"/>
				</g>
			</g>
			<g>
				<g>
					<path d="M56.194,465.687c-7.119-6.5-12.781-14.327-19.557-21.157c-2.693-2.715-5.717-5.23-8.746-7.564
						c-2.733-2.106-7.281-4.554-8.315-8.075c-1.668-5.676-10.542-3.258-8.867,2.444c2.297,7.815,11.18,12.416,17.013,17.434
						c8.126,6.99,14.052,16.188,21.971,23.419C54.061,476.177,60.582,469.693,56.194,465.687L56.194,465.687z"/>
				</g>
			</g>
			<g>
				<g>
					<path d="M511.546,217.891c6.369-13.469,12.524-27.062,17.036-41.283c4.629-14.588,6.477-29.721,6.657-44.983
						c0.192-16.2-1.243-32.419-2.001-48.592c-0.771-16.443-1.215-32.899-1.75-49.351c-1.062-32.664-3.469-65.179-5.812-97.769
						c-2.304-32.032-5.37-64.316-5.631-96.442c-0.13-15.978,0.848-31.947-0.722-47.886c-1.215-12.335-5.681-23.482-12.686-33.648
						c-7.427-10.778-17.435-19.487-23.005-31.49c-5.614-12.099-6.326-26.161-6.989-39.26c-0.453-8.961-0.913-17.955-2.609-26.786
						c-1.239-6.448-3.695-14.389-10.627-16.605c-9.124-2.918-17.093,9.2-21.423,15.05c-4.409,5.958-8.253,12.329-12.117,18.646
						c-1.966,3.214-3.937,6.424-5.95,9.609c-0.961,1.521-3.988,8.088-5.865,5.376c-2.561-3.701-3.085-9.055-3.576-13.393
						c-0.641-5.657-0.762-11.369-1.003-17.053c-0.393-9.26-2.111-18.812-4.315-27.81c-1.959-7.997-5.899-17.572-14.617-19.982
						c-6.271-1.734-12.039,2.472-15.834,7.021c-10.109,12.116-14.835,28.804-19.779,43.508c-2.523,7.507-4.572,13.02-8.648,20.402
						c-2.843,5.149-6.775,9.093-12.866,9.645c-7.182,0.65-14.535-3.151-20.856-6.043c-25.541-11.687-56.764-20.029-83.676-7.998
						c-23.942,10.704-39.729,32.466-57.932,50.381c-6.496,6.393-14.549,15.304-23.531,18.106c-2.258,0.705-1.862-0.998-1.911-3.336
						c-0.15-7.128,2.129-14.74,3.606-21.668c6.086-28.545,15.121-58.498,5.438-87.351c-3.462-10.317-10.962-21.34-21.242-25.75
						c-12.031-5.162-22.37,2.934-27.985,13.304c-6.452,11.915-6.328,26.457-6.607,39.623c-0.146,6.903-0.593,13.69-1.523,20.533
						c-1.208,8.891-4.129,17.501-6.71,26.06c2.956,0,5.911,0,8.867,0c-4.109-12.845-4.381-27.733-12.399-39.088
						c-3.773-5.345-9.574-7.627-15.574-4.372c-7.856,4.262-10.617,13.25-11.926,21.495c-1.598,10.071-1.706,20.323-3.123,30.432
						c-2.106,15.028-3.03,30.182-3.473,45.342c-0.871,29.814,2.984,61.428-6.303,90.242c2.956,0,5.911,0,8.867,0
						c-4.05-12.391-6.703-29.636-17.965-37.816c-6.299-4.574-13.303-2.007-18.325,3.098c-7.329,7.45-7.897,19.003-7.866,28.837
						c0.037,11.853,0.444,23.642,0.285,35.505c-0.212,15.798-0.638,31.592-0.198,47.39c0.438,15.751,2.822,31.244,4.168,46.918
						c1.359,15.847,1.725,31.765,1.488,47.664c-0.573,38.491-5.573,76.569,0.302,114.933c2.766,18.058,10.199,34.679,18.945,50.581
						c8.482,15.421,15.603,31.647,26.806,45.375c3.751,4.597,10.217-1.95,6.502-6.502c-9.212-11.287-15.24-24.632-21.987-37.434
						c-6.936-13.158-13.971-25.826-18.323-40.149c-4.536-14.93-5.361-31.21-5.791-46.718c-0.437-15.778,0.338-31.575,1.35-47.316
						c2.058-32.013,2.086-64.06-1.678-95.952c-1.831-15.518-2.772-30.897-2.795-46.53c-0.021-15.35-0.408-31.037,0.577-46.352
						c0.631-9.823-0.896-19.666-0.213-29.51c0.316-4.559,1.237-9.792,4.192-13.446c1.41-1.744,3.715-4.2,6.18-3.528
						c5.116,1.394,8.18,11.226,9.779,15.458c2.223,5.882,3.75,11.971,5.7,17.939c1.428,4.366,7.451,4.393,8.867,0
						c8.224-25.515,6.108-52.83,6.378-79.249c0.138-13.465,0.593-26.927,1.684-40.351c0.939-11.558,3.229-22.938,3.838-34.509
						c0.415-7.895,0.611-16.723,4.506-23.815c2.852-5.192,5.717-5.594,8.415-1.136c6.333,10.466,6.59,23.587,10.243,35.01
						c1.386,4.329,7.529,4.438,8.867,0c4.011-13.305,7.459-26.393,8.273-40.328c0.721-12.339-0.182-24.824,3.038-36.886
						c2.712-10.161,10.813-21.793,21.971-14.703c9.506,6.041,13.671,18.202,15.753,28.61c6.091,30.447-7.673,61.028-11.631,90.835
						c-1.007,7.578-0.267,17.232,9.176,18.026c7.956,0.668,16.433-7.401,21.843-12.159c19.064-16.769,34.134-38.645,55.668-52.459
						c26.661-17.102,59.037-8.984,85.924,3.318c11.105,5.082,24.28,10.254,35.65,2.97c8.618-5.522,12.458-16.714,16.167-25.715
						c5.548-13.461,8.829-27.606,15.905-40.472c2.16-3.927,6.143-11.269,11.091-11.067c2.605,0.106,4.781,4.441,5.822,6.58
						c2.327,4.784,3.168,10.48,4.068,15.671c1.646,9.504,2.161,18.728,2.758,28.344c0.59,9.502,1.186,21.984,9.909,27.748
						c10.892,7.195,20.159-14.539,24.045-20.893c3.869-6.327,7.834-12.582,12.248-18.547c1.99-2.69,6.168-9.17,10.018-9.321
						c3.305-0.129,4.887,14.576,5.175,17.07c1.223,10.604,1.201,21.303,2.255,31.922c1.266,12.771,4.232,25.253,10.887,36.346
						c6.592,10.989,16.614,19.485,23.197,30.583c7.302,12.31,8.25,26.108,8.49,40.106c0.274,15.986-0.434,31.911,0.395,47.895
						c3.367,65.006,9.335,129.776,11.414,194.851c0.894,27.937,3.702,56.047,3.123,83.995
						c-0.578,27.917-10.604,52.912-22.376,77.807C501.087,218.579,509.013,223.249,511.546,217.891L511.546,217.891z"/>
				</g>
			</g>
			<g>
				<g>
					<path d="M220.238-133.32c31.812-2.333,63.323,3.127,94.971,5.359c26.082,1.84,54.984,1.669,76.743-14.95
						c20.236-15.456,28.75-41.919,19.442-65.895c-7.615-19.616-25.758-34.417-44.682-42.475
						c-38.137-16.239-84.34-10.84-122.114,3.756c-16.868,6.518-33.337,14.917-48.536,24.695
						c-15.844,10.193-32.606,23.426-39.817,41.433c-7.054,17.617-1.152,40.106,16.718,48.673c17.314,8.301,38.972,2.814,56.16-3.06
						c5.577-1.906,3.182-10.789-2.445-8.866c-15.906,5.436-37.193,11.585-52.702,2.006c-7.81-4.824-11.531-14.817-11.625-23.638
						c-0.093-8.639,4.177-16.888,9.347-23.561c12.165-15.701,30.171-26.628,47.465-35.811c16.246-8.626,33.158-15.815,51.012-20.364
						c38.759-9.875,87.49-9.816,118.102,19.677c8.619,8.304,14.928,18.426,17.228,30.256c2.444,12.573-1.473,26.11-9.238,36.111
						c-17.519,22.561-47.226,24.435-73.516,23.258c-34.241-1.533-68.128-8.322-102.511-5.8
						C214.361-142.084,214.319-132.886,220.238-133.32L220.238-133.32z"/>
				</g>
			</g>
			<g>
				<g>
					<path d="M403.554-161.856c-6.718-8.024-6.644-19.795-13.073-28.187c-1.479-1.931-3.976-3.111-6.29-1.649
						c-8.349,5.271-11.733,13.734-13.275,23.14c-1.412,8.619-0.915,19.53-6.811,26.618c2.562,0.676,5.123,1.353,7.685,2.029
						c-3.907-9.515-9.11-18.241-13.764-27.38c-2.194-4.31-4.296-8.828-5.882-13.4c-1.221-3.521-2.469-6.956-5.291-9.522
						c-1.769-1.608-4.779-1.937-6.502,0c-11.76,13.225-12.094,31.366-18.04,47.238c2.802-0.366,5.603-0.732,8.403-1.098
						c-5.964-11.456-5.441-25.021-10.151-36.896c-3.086-7.778-9.879-13.478-17.956-8.375c-7.272,4.594-11.965,13.6-16.03,20.869
						c-3.92,7.009-7.069,14.514-11.308,21.336c2.801,0.366,5.602,0.732,8.403,1.098c-3.57-10.892-1.193-23.138-3.878-34.323
						c-2.141-8.918-9.226-16.94-18.615-11.801c-8.027,4.393-13.608,14.128-18.397,21.547c-4.688,7.263-8.818,16.241-14.301,22.548
						c2.562,0.676,5.123,1.353,7.685,2.029c-2.507-10.97-0.761-22.118-1.558-33.22c-0.447-6.245-3.983-13.788-11.518-10.332
						c-8.478,3.888-14.356,14.857-19.642,22.091c-6.693,9.159-14.852,17.108-20.128,27.259c2.855,0.773,5.711,1.547,8.567,2.32
						c-0.435-6.987,1.913-14.34,2.918-21.212c0.979-6.697,2.771-16.164-2.017-21.88c-4.66-5.563-11.609-1.603-16.505,1.347
						c-3.503,2.11-6.842,4.495-10.201,6.822c-1.363,0.945-2.731,1.883-4.123,2.787c-0.497,0.323-1.005,0.624-1.519,0.918
						c-0.982,0.562,0.568-0.148,0.89-0.117c1.084,0.449,2.167,0.897,3.251,1.346c-0.031-0.027-0.062-0.054-0.093-0.081
						c-4.444-3.882-10.976,2.594-6.502,6.502c4.375,3.821,9.92-1.464,13.527-3.964c3.1-2.148,6.203-4.289,9.41-6.274
						c1.297-0.803,2.63-1.543,3.99-2.234c1.384-0.704,2.633-0.182,1.087-0.947c2.466,1.221-0.201,14.332-0.572,16.666
						c-1.046,6.576-3.154,13.619-2.737,20.322c0.267,4.282,6.323,6.637,8.567,2.32c3.991-7.677,9.673-13.712,14.98-20.437
						c5.605-7.101,10.535-14.709,16.483-21.541c0.994-1.142,2.143-2.283,3.361-3.188c1.554-1.153-1.66-2.833-0.981-0.418
						c0.96,3.417,0.508,7.492,0.47,10.985c-0.098,8.949-0.281,17.821,1.725,26.604c0.742,3.245,5.441,4.609,7.685,2.029
						c10.699-12.31,15.992-28.596,27.74-40.208c0.955-0.944,1.954-1.75,3.097-2.45c1.021-0.626,1.368-0.591,1.63-0.524
						c2.441,0.618,3.748,7.794,4.188,10.211c1.846,10.156-0.081,21.027,3.168,30.942c1.242,3.788,6.248,4.568,8.403,1.098
						c7.558-12.166,11.973-26.698,22.081-37.182c1.114-1.156,3.175-2.699,3.888-2.524c2.635,0.643,4.137,8.325,4.721,10.644
						c2.722,10.799,3.653,22.096,8.877,32.129c1.996,3.833,7.111,2.35,8.403-1.098c5.261-14.044,5.307-31.521,15.675-43.18
						c-2.167,0-4.335,0-6.502,0c2.181,1.983,2.731,5.045,3.742,7.716c1.508,3.983,3.389,7.886,5.206,11.735
						c4.284,9.079,9.797,17.475,13.623,26.793c1.17,2.848,5.22,4.992,7.685,2.029c5.918-7.115,7.257-15.796,8.382-24.712
						c1.076-8.54,1.859-18.566,9.843-23.608c-2.097-0.55-4.193-1.1-6.29-1.649c6.92,9.031,7.109,21.206,14.511,30.048
						C400.862-150.803,407.332-157.343,403.554-161.856L403.554-161.856z"/>
				</g>
			</g>
			<g>
				<g>
					<path d="M387.904-234.484c-3.341,6.212-9.141,9.934-12.979,15.63c-1.39,2.062-2.858,4.052-4.479,5.938
						c-0.493,0.574-1.565,2.008-2.21,2.279c1.144,0.481,1.324,0.409,0.545-0.218c-0.388-0.573-0.736-1.168-1.047-1.786
						c-1.089-1.997-1.711-4.242-2.563-6.344c-1.313-3.236-3.234-6.259-4.756-9.411c-3.536-7.323-6.99-14.249-12.285-20.481
						c-4.604-5.419-10.664-1.583-13.46,3.216c-3.777,6.484-6.503,13.604-10.334,20.095c-1.845,3.127-4.169,5.877-7.256,7.82
						c-1.426,0.897,0.666,1.922-0.113,0.043c-0.676-1.63-1.239-3.312-1.879-4.957c-3.215-8.261-7.421-16.971-12.724-24.084
						c-2.184-2.93-5.756-2.929-7.939,0c-5.447,7.304-9.718,16.062-13.646,24.267c-0.904,1.889-4.684,11.566-6.881,9.814
						c-9.068-7.229-10.622-20.977-18.993-28.883c-1.995-1.884-5.919-1.846-7.221,0.931c-4.8,10.236-4.832,22.152-9.652,32.441
						c-0.528,1.127-1.659,3.779-2.881,4.293c-1.544,0.65-2.956-2.674-3.973-4.435c-3.985-6.907-7.578-13.426-13.819-18.671
						c-2.361-1.984-5.462-1.665-7.221,0.931c-3.989,5.887-3.115,13.604-6.371,19.752c-0.629,1.189-0.493,0.657-0.614,0.633
						c-2.428-0.49-4.398-2.536-6.094-4.184c-3.944-3.837-7.278-8.056-12.046-10.954c0.55,2.097,1.1,4.193,1.649,6.29
						c0.128-0.223,0.255-0.446,0.383-0.67c-0.916,0.704-1.832,1.409-2.747,2.113c0.127-0.032,0.255-0.064,0.383-0.096
						c5.749-1.438,3.31-10.305-2.445-8.866c-1.693,0.423-2.67,1.404-3.513,2.878c-1.259,2.204-0.506,4.98,1.649,6.29
						c7.656,4.655,16.839,21.882,27.874,14.998c7.896-4.926,5.19-16.696,9.831-23.544c-2.407,0.31-4.813,0.621-7.221,0.931
						c3.791,3.186,6.738,6.852,9.298,11.078c2.131,3.52,3.637,7.361,6.311,10.547c4.498,5.358,11.509,5.576,16.214,0.378
						c9.161-10.121,7.609-26.116,12.944-37.493c-2.407,0.31-4.813,0.621-7.221,0.931c4.496,4.246,7.013,11.169,10.009,16.479
						c3.04,5.388,7.056,13.039,13.404,15.085c7.604,2.452,12.107-4.968,15.109-10.699c4.899-9.355,9.104-19.431,15.438-27.925
						c-2.646,0-5.293,0-7.939,0c5.664,7.598,9.978,16.898,13.263,25.764c1.995,5.385,5.472,10.233,11.867,7.57
						c7.519-3.131,12.011-10.453,15.591-17.377c2.081-4.025,4.289-8.014,6.135-12.147c0.412-0.924,0.855-1.833,1.329-2.727
						c1.166-1.191,0.839-1.643-0.981-1.355c1.872,1.576,3.251,4.117,4.517,6.174c2.168,3.523,3.891,7.329,5.668,11.058
						c1.611,3.382,3.777,6.678,5.104,10.165c1.832,4.814,4.532,13.723,11.183,13.493c6.122-0.213,9.843-5.881,13.134-10.39
						c4.59-6.287,10.847-10.969,14.61-17.967C398.651-235.064,390.714-239.708,387.904-234.484L387.904-234.484z"/>
				</g>
			</g>
			<g>
				<g>
					<path d="M153.576-15.32c-1.675-24.533-21.893-41.576-40.515-54.974c-11.516-8.286-24.862-14.122-38.35-18.345
						c-5.089-1.594-10.167-2.738-15.439-3.454c-3.153-0.428-10.685-0.643-12.576-3.704c-3.108-5.033-11.065-0.419-7.939,4.641
						c4.419,7.153,14.679,7.41,22.109,8.486c12.967,1.877,26.078,7.689,37.453,13.96c10.852,5.982,20.854,14.02,29.694,22.674
						c8.475,8.296,15.539,18.576,16.367,30.716C144.782-9.438,153.98-9.399,153.576-15.32L153.576-15.32z"/>
				</g>
			</g>
			<g>
				<path d="M138.251-48.521c4.086-6.131,9.194-12.26,9.705-19.924c1.022-10.215-3.575-14.812-12.771-11.748
					c-11.238,4.598-11.238-5.107-8.174-13.791c4.088-12.771,7.662-22.479,7.662-35.76c0-5.617-0.51-27.584-11.237-18.9
					c-9.705,7.662-4.597,28.096-16.347,34.227c-11.237,6.129-5.618-19.41-4.598-23.5c3.577-11.236,7.662-22.986,9.707-34.734
					c2.043-8.684,2.043-34.734-13.282-22.986c-11.749,8.682-12.771,27.584-17.367,40.355c-1.022-3.064,0-6.643-1.532-9.195
					c-14.305,18.898-8.174,44.951-12.771,66.406c-0.511,4.596-1.021,7.662,3.064,9.705c5.109,3.066,9.707,4.086,14.305,8.174
					c8.172,6.641,16.345,9.705,25.029,14.814s17.367,10.215,25.541,15.324"/>
			</g>
			<g>
				<g>
					<path d="M478.273-73.739C467.04-61.974,453.25-53.047,439.05-45.282c-16.353,8.942-32.831,17.645-49.496,25.992
						c-5.303,2.656-0.645,10.587,4.641,7.939c16.67-8.349,33.083-17.153,49.496-25.992c14.866-8.005,29.377-17.633,41.085-29.895
						C488.867-71.523,482.375-78.035,478.273-73.739L478.273-73.739z"/>
				</g>
			</g>
			<g>
				<g>
					<path d="M480.896-29.9c-8.995-17.966-29.445-26.749-37.546-45.207c-2.378-5.419-10.299-0.734-7.939,4.641
						c8.163,18.6,28.582,27.303,37.546,45.207C475.612-19.957,483.543-24.615,480.896-29.9L480.896-29.9z"/>
				</g>
			</g>
			<g>
				<g>
					<path d="M452.593-21.636c-5.061-5.315-8.376-11.965-13.025-17.623c-5.138-6.251-11.558-11.547-17.624-16.857
						c-4.441-3.887-10.972,2.589-6.502,6.502c6.129,5.365,12.196,10.769,17.624,16.857c4.874,5.468,7.929,12.27,13.025,17.623
						C450.187-10.832,456.679-17.344,452.593-21.636L452.593-21.636z"/>
				</g>
			</g>
			<g>
				<g>
					<path d="M428.792-16.107c-6.37-8.658-13.456-16.701-20.641-24.685c-3.975-4.416-10.456,2.108-6.502,6.502
						c6.654,7.395,13.302,14.803,19.203,22.823C424.326-6.746,432.312-11.324,428.792-16.107L428.792-16.107z"/>
				</g>
			</g>
			<g>
				<path d="M417.671,322.844c5.108-45.975-10.216-95.014-39.845-131.793c-10.215-12.26-23.497-23.494-38.822-28.604
					c-6.129-2.045-19.411-8.176-25.541-5.109c-11.238,7.152-1.021,34.738,3.064,43.932c-18.389-24.52-38.822-67.428-69.471-75.602
					c-43.932-12.26-18.39,46.994-11.238,66.408c-21.454-14.305-40.865-34.738-67.428-31.674
					c-40.867,3.064-10.217,36.779-6.131,59.258c-12.26-5.109-41.888-23.5-55.168-11.24c-10.217,9.195-3.065,32.693-1.022,44.953
					c5.107,27.586,10.217,65.385,32.692,85.818c23.498,21.455,67.428,15.326,96.035,17.367c33.714,3.064,63.342-2.041,96.035-10.215
					c31.67-8.176,63.342-16.346,90.926-33.715"/>
			</g>
			<g>
				<g>
					<path d="M362.701-156.471c4.299-0.774,4.973-8.431,5.812-11.726c2.147-8.438,3.885-16.901,6.596-25.2
						c-2.956-0.815-5.911-1.629-8.867-2.444c-3.665,13.11-6.479,28.657-0.047,41.345c1.852,3.653,7.369,2.554,8.403-1.098
						c2.103-7.433,1.993-15.168,2.596-22.81c0.707-8.973,3.377-18.372,6.599-26.741c-2.956-0.815-5.911-1.629-8.867-2.444
						c-1.182,6.222-3.414,12.168-4.597,18.391c-0.758,3.992,4.577,8.475,7.685,4.473c7.088-9.129,12.084-19.499,16.507-30.126
						c2.111-5.075-5.658-7.588-8.403-3.542c-5.116,7.54-12.862,24.105-5.411,32.136c1.284,1.384,3.981,1.904,5.571,0.719
						c8.081-6.026,10.487-16.223,13.863-25.222c-2.956-0.815-5.911-1.629-8.867-2.444c-2.037,8.623-4.065,21.919,2.715,28.993
						c1.735,1.811,4.757,1.741,6.502,0c5.144-5.131,7.95-19.234,1.532-24.383c-1.798-1.442-4.79-2.086-6.502,0
						c-8.483,10.338-3.406,29.577,4.086,39.195c2.702,3.468,7.61,0.262,7.849-3.251c0.548-8.081-0.548-16.089-0.42-24.159
						c0.097-6.091-0.219-13.5-5.013-17.917c-1.697-1.563-4.872-2.001-6.502,0c-7.346,9.019-5.428,27.229,1.324,36.222
						c2.058,2.74,5.958,3.156,7.939,0c4.05-6.451,2.27-15.066,2.16-22.242c-0.116-7.603-0.858-16.974-6.454-22.661
						c-4.908-4.988-11.681-1.851-15.252,2.812c-3.794,4.953-5.961,11.176-7.758,17.094c-1.507,4.965,5.979,8.187,8.403,3.542
						c2.394-4.585,4.816-8.811,5.226-14.068c0.269-3.459-4.114-5.757-6.918-3.97c-7.349,4.685-13.499,16.188-9.823,24.681
						c0.858,1.984,3.334,2.437,5.191,2.113c7.516-1.312,12.726-8.844,15.52-15.394c1.702-3.99-1.936-8.803-6.29-6.29
						c-6.258,3.611-8.688,11.815-7.258,18.62c0.688,3.273,3.273,5.307,6.483,5.612c3.854,0.366,6.828-3.977,8.597-6.706
						c2.809-4.333-4.002-9.719-7.221-5.571c-1.254,1.616-2.972,5.031-5.318,4.487c-3.081-0.714-5.517-1.909-8.794-1.77
						c-5.757,0.245-9.963,4.378-12.863,8.966c-7.256,11.479-6.685,29.666-1.791,41.829c1.876,4.662,8.855,4.255,9.031-1.222
						c0.43-13.387-2.117-26.406-4.151-39.567c-1.559-10.09-2.897-20.335-9.455-28.557c-2.965-3.717-8.896,0.304-7.685,4.473
						c1.738,5.981,4.811,11.817,8.112,17.063c3.368,5.351,8.85,12.471,16.057,11.194c7.91-1.402,10.763-11.67,6.648-17.836
						c-4.841-7.253-14.861-6.231-18.605,1.361c-1.223,2.478-0.348,6.142,2.747,6.753c4.708,0.93,8.596-0.201,12.737-2.506
						c4.5-2.505,1.444-10.113-3.542-8.403c-11.255,3.86-14.598-9.02-17.842-17.223c-2.802,1.181-5.603,2.362-8.403,3.542
						c3.71,6.759,5.822,14.092,8.221,21.378c1.337,4.061,7.862,4.707,8.867,0c1.518-7.111-0.066-15.229-1.868-22.134
						c-1.709-6.55-5.053-14.768-12.783-15.357c-1.502-0.114-3.299,0.937-3.97,2.277c-4.681,9.344-2.828,20.004-0.449,29.747
						c2.847,11.66,7.178,23.03,13.731,33.128c3,4.623,9.133,1.471,8.403-3.542c-1.475-10.122-5.983-19.336-10.076-28.604
						c-4.691-10.625-6.821-21.829-8.825-33.205c-0.935-5.3-8.854-3.754-9.031,1.222c-0.538,15.227,5.687,30.638,10.892,44.64
						c1.842,4.952,8.552,4.015,9.031-1.222c0.719-7.862-2.041-15.476-4.083-22.948c-2.36-8.641-3.384-17.419-6.809-25.78
						c-1.474-3.597-8.165-5.091-8.867,0c-0.397,2.887-0.562,5.81-1.021,8.686c2.956,0.815,5.911,1.629,8.867,2.444
						c0.472-3.484,0.667-6.9,0.675-10.417c0.01-4.299-6.614-6.647-8.567-2.32c-3.692,8.181-3.82,16.864-3.684,25.695
						c0.14,9.038,0.838,19.42-5.814,26.499c-3.551,3.778,0.974,9.894,5.571,7.221c4.973-2.892,7.883-7.604,10.844-12.376
						c-2.646-1.547-5.293-3.094-7.939-4.641c-1.226,1.988-2.183,4.029-3.018,6.208c-1.363,3.562,2.569,6.244,5.656,5.655
						c1.745-0.333,3.457-0.784,5.181-1.212c0.891-0.221,1.687-0.368,2.601-0.413c0.371-0.019,0.004-0.551,0.191,1.276
						c0.595,5.775,9.458,6.018,9.195,0c-0.278-6.358-2.67-11.855-6.966-16.53c-2.964-3.225-7.479-0.437-7.849,3.251
						c-0.607,6.072,2.373,12.067,5.092,17.304c3.527,6.794,7.81,13.123,12.393,19.239c0.916-2.251,1.832-4.502,2.748-6.753
						c2.704,1.195,3.659,1.406,2.864,0.632c-0.483-0.677-0.829-1.466-1.19-2.21c-0.725-1.499-1.223-3.125-1.757-4.699
						c-0.884-2.604-1.596-5.26-2.435-7.878c-2.678-8.351-5.714-18.473-12.421-24.507c-1.841-1.656-4.688-1.867-6.502,0
						c-5.645,5.809-6.409,13.759-7.248,21.44c-0.99,9.066-5.715,16.78-6.869,25.743c2.307-1.323,4.612-2.646,6.918-3.97
						c-2.527-1.145-1.63-7.693-1.524-9.855c0.219-4.502,1.014-8.982,2.029-13.367c3.012-13.006,13.394-22.973,14.543-36.662
						c0.324-3.865-4.057-5.202-6.918-3.97c-3.868,1.666-5.628,5.757-7.146,9.408c-2.102,5.057-3.95,10.122-5.494,15.394
						c-3.72,12.695-4.276,25.818-4.963,38.933c3.011-0.407,6.021-0.815,9.031-1.222c-4.279-21.233,1.493-43.938,11.285-62.862
						c-2.801-1.181-5.602-2.362-8.403-3.542c-2.07,8.994-5.03,17.724-7.662,26.561c-2.424,8.139-1.56,17.112-5.155,24.953
						c2.646,0,5.293,0,7.939,0c-4.945-9.347-1.097-22.886,3.576-31.625c-2.801-1.181-5.602-2.362-8.403-3.542
						c-3.028,12.129-3.773,24.609-5.273,36.98c3.011-0.407,6.021-0.815,9.031-1.222c-1.898-9.155-1.767-18.741,1.022-27.696
						c-3.011-0.407-6.021-0.815-9.031-1.222c-0.681,9.967-3.436,19.647-4.087,29.629c3.011-0.407,6.021-0.815,9.031-1.222
						c-1.062-7.887-2.96-15.624-4.086-23.5c-2.802,1.181-5.603,2.362-8.403,3.542c3.769,8.389,5.249,17.563,7.198,26.488
						c2.956-0.815,5.911-1.629,8.867-2.444c-3.714-12.338-9.491-23.72-16.81-34.301c-0.55,2.097-1.1,4.193-1.649,6.29
						c2.446-1.467,6.159-0.607,8.917-0.905c4.458-0.483,8.477-2.437,12.537-4.204c4.822-2.099,1.361-9.922-3.542-8.403
						c-7.075,2.191-13.35,6.514-18.376,11.909c-2.303,2.472-1.427,6.794,2.028,7.684c2.835,0.73,6.31,0.72,7.425,3.807
						c0.501,1.385,0.817,2.878,0.957,4.342c-0.296,1.752,0.688,1.875,2.951,0.372c-0.433-0.431-0.776-0.924-1.031-1.481
						c-4.85-8.433-10.197-16.747-15.325-25.027c-2.646,1.547-5.293,3.094-7.939,4.641c4.665,6.916,8.227,14.421,11.748,21.963
						c2.52,5.396,10.336,0.699,7.939-4.641c-2.652-5.91-5.896-11.559-8.249-17.601c-2.385-6.128-2.796-12.429-3.383-18.899
						c-0.437-4.813-8.028-6.672-9.031-1.222c-2.059,11.188,0.1,22.406,3.577,33.093c1.826,5.611,10.691,3.218,8.867-2.444
						c-3.478-10.789-5.121-22.09-9.195-32.693c-2.147-5.586-9.763-3.404-8.867,2.444c1.354,8.833,3.071,17.722,6.649,25.96
						c1.552,3.573,3.382,6.849,5.775,9.921c2.422,3.108,6.24,5,7.961,8.639c0.55-2.097,1.1-4.193,1.649-6.29
						c-3.467,1.696-8.011-0.623-11.068-2.253c-0.74-0.414-1.464-0.855-2.17-1.325c-2.013-2.039-2.479-1.133-1.399,2.718
						c1.496-0.988,3.075-1.879,4.589-2.846c5.365-3.423,6.574-12.769-1.287-13.649c-10.922-1.224-15.783,19.816-9.258,26.46
						c5.325,5.421,10.157-2.939,11.647-7.083c1.632-4.539,2.061-15.427-5.625-14.608c-7.438,0.792-12.803,8.195-16.023,14.333
						c-4.121,7.854-4.503,17.05-4.886,25.717c-0.215,4.883,6.146,5.849,8.567,2.32c3.875-5.646,6.05-12.105,8.163-18.565
						c1.955-5.976,4.875-11.601,5.234-17.978c0.187-3.325-4.109-5.945-6.918-3.97c-9.766,6.868-15.848,21.37-17.438,32.886
						c-0.472,3.419,1.933,6.561,5.656,5.655c10.911-2.652,13.785-17.396,15.813-26.679c2.08-9.524,7.743-22.42,2.258-31.668
						c-1.6-2.697-4.982-2.844-7.221-0.931c-4.354,3.722-5.517,9.483-6.801,14.798c-1.758,7.28-4.062,14.075-4.251,21.656
						c-0.107,4.344,6.648,6.596,8.567,2.32c3.166-7.052,4.958-14.401,6.476-21.956c1.578-7.854,3.646-15.743,3.857-23.785
						c0.107-4.085-5.05-5.986-7.849-3.251c-3.011,2.942-4.519,6.798-5.83,10.722c-2.003,5.989-3.716,12.054-5.16,18.201
						c-2.854,12.141-5.495,24.735-6.702,37.158c3.065,0,6.13,0,9.195,0c0.079-11.235,1.394-22.392,2.901-33.512
						c-3.011-0.407-6.021-0.815-9.031-1.222c0.369,16.821-2.802,33.486-0.348,50.261c0.78,5.333,8.839,3.723,9.031-1.222
						c0.33-8.514-0.461-17.012-0.327-25.527c0.14-8.874,4.267-16.378,6.293-24.842c0.747-3.122-2.203-6.965-5.656-5.655
						c-8.216,3.118-9.75,11.157-15.821,16.506c2.616,1.084,5.232,2.167,7.849,3.251c-0.314-3.989,0.425-7.69,1.369-11.549
						c-3.011-0.407-6.021-0.815-9.031-1.222c0.464,6.123,0.56,12.265,1.021,18.389c0.44,5.843,9.406,5.978,9.195,0
						c-0.229-6.508-2.224-13.4-6.966-18.063c-3.102-3.05-9.339-0.019-7.685,4.473c5.931,16.097,32.135,2.749,28.789-11.64
						c-0.605-2.603-3.271-3.636-5.656-3.211c-4.082,0.728-7.315,3.191-10.48,5.717c-3.078,2.457-6.141,6.253-9.984,3.43
						c-1.181,2.801-2.361,5.602-3.543,8.403c1.048,0.402,2.311,4.046,2.872,5.038c2.646-1.547,5.293-3.094,7.939-4.641
						c-4.099-7.103-9.928-13.224-17.562-16.414c-3.554-1.485-6.215,2.654-5.655,5.655c0.889,4.755,3.35,8.981,4.085,13.793
						c0.815,5.328,8.841,3.728,9.031-1.222c0.342-8.926-2.58-16.804-7.268-24.287c-2.224-3.549-9.134-2.507-8.567,2.32
						c1.07,9.126,5.941,17.596,13.515,22.87c3.885,2.706,8.555-2.501,6.29-6.29c-4.151-6.944-9.908-12.53-14.812-18.9
						c-3.596-4.67-10.423-0.842-7.939,4.641c3.626,8.008,8.647,15.31,10.774,23.933c1.886-1.885,3.771-3.77,5.656-5.655
						c-5.422-0.888-7.433-11.542-6.843-16c-3.065,0-6.13,0-9.195,0c-1.263,11.306-7.936,21.185-11.073,31.979
						c-1.347,4.635,4.372,7.416,7.685,4.473c7.296-6.481,11.839-15.075,15.485-23.992c1.711-4.184-4.895-8.017-7.685-4.473
						c-1.897,2.411-2.957,4.67-3.736,7.648c-1.501,5.742,7.367,8.176,8.867,2.444c0.234-1.277,0.691-2.474,1.371-3.59
						c-2.562-1.491-5.123-2.982-7.685-4.473c-3.049,7.457-7.045,14.538-13.12,19.934c2.562,1.491,5.123,2.982,7.685,4.473
						c3.413-11.746,10.021-22.079,11.401-34.423c0.663-5.934-8.435-5.751-9.195,0c-1.112,8.421,4.017,23.298,13.593,24.867
						c3.422,0.561,6.558-1.999,5.656-5.655c-2.321-9.408-7.748-17.398-11.702-26.129c-2.646,1.547-5.293,3.094-7.939,4.641
						c4.888,6.349,10.685,11.994,14.812,18.9c2.097-2.097,4.193-4.193,6.29-6.29c-4.638-3.23-8.3-9.302-8.96-14.931
						c-2.856,0.773-5.712,1.547-8.567,2.32c3.878,6.191,6.296,12.25,6.012,19.646c3.011-0.407,6.021-0.815,9.031-1.222
						c-0.736-4.812-3.197-9.038-4.085-13.793c-1.886,1.885-3.771,3.77-5.655,5.655c5.248,2.193,9.31,7.413,12.065,12.188
						c2.963,5.135,10.864,0.526,7.939-4.641c-2.229-3.937-3.926-7.561-8.366-9.263c-5.247-2.011-7.406,5.564-3.543,8.403
						c4.43,3.255,9.271,3.05,13.986,0.538c4.736-2.523,8.071-7.779,13.564-8.758c-1.886-1.07-3.771-2.141-5.656-3.211
						c0.844,3.626-9.948,9.754-11.055,6.751c-2.562,1.491-5.123,2.982-7.685,4.473c2.99,2.94,4.129,7.475,4.272,11.562
						c3.065,0,6.13,0,9.195,0c-0.462-6.124-0.559-12.266-1.021-18.389c-0.376-4.963-7.736-6.516-9.031-1.222
						c-1.125,4.602-2.071,9.237-1.697,13.994c0.32,4.063,4.731,5.998,7.849,3.251c4.214-3.713,6.428-12.117,11.765-14.142
						c-1.886-1.885-3.771-3.77-5.656-5.655c-2.077,8.678-6.039,16.372-6.556,25.418c-0.521,9.125,0.616,18.264,0.262,27.396
						c3.011-0.407,6.021-0.815,9.031-1.222c-2.319-15.844,1.024-31.911,0.676-47.817c-0.109-4.987-8.312-6.517-9.031-1.222
						c-1.618,11.935-3.145,23.894-3.229,35.957c-0.042,6.033,8.633,5.788,9.195,0c1.066-10.986,3.593-22.047,5.944-32.82
						c1.257-5.755,2.797-11.437,4.619-17.038c1.085-3.338,1.846-7.191,4.436-9.721c-2.616-1.084-5.232-2.167-7.849-3.251
						c-0.189,7.212-2.136,14.288-3.528,21.34c-1.322,6.696-2.74,13.503-5.549,19.759c2.855,0.773,5.712,1.547,8.567,2.32
						c0.149-6.04,1.698-11.783,3.413-17.541c1.229-4.132,1.486-9.454,4.945-12.411c-2.407-0.31-4.813-0.621-7.221-0.931
						c2.025,3.415,0.481,9.052-0.243,12.67c-0.747,3.729-1.952,7.337-2.755,11.049c-1.205,5.568-2.813,19.477-9.579,21.121
						c1.886,1.885,3.771,3.77,5.656,5.655c0.68-4.925,2.303-9.705,4.31-14.238c2.018-4.555,4.702-10.2,8.901-13.153
						c-2.306-1.323-4.611-2.646-6.918-3.97c-0.301,5.355-3.245,10.501-4.905,15.534c-1.897,5.749-3.782,11.335-7.236,16.369
						c2.855,0.773,5.712,1.547,8.567,2.32c0.474-10.739,1.297-23.301,10.869-30.265c1.611-0.676,1.093-1.131-1.558-1.366
						c0.034,0.947-0.286,1.88-0.533,2.778c-0.255,0.925-0.594,1.817-1.002,2.684c-1.463,3.104,3.87-2.29,4.292,1.091
						c-0.389-3.118,0.645-6.899,1.975-9.677c0.2-0.411,0.436-0.801,0.703-1.17c-1.744,2.098-1.598-5.139-3.437-3.036
						c-1.223,1.397-3.522,2.182-5.065,3.201c-3.345,2.21-4.338,6.228-1.745,9.448c5.633,6.999,18.329,10.75,26.427,6.787
						c2.389-1.169,2.656-4.162,1.649-6.29c-1.453-3.074-3.995-5.301-6.472-7.549c-3.018-2.739-4.906-5.899-6.637-9.564
						c-3.667-7.769-5.061-16.793-6.35-25.21c-2.956,0.815-5.911,1.629-8.867,2.444c4.075,10.603,5.719,21.905,9.195,32.693
						c2.956-0.815,5.911-1.629,8.867-2.444c-2.926-8.988-5.32-18.735-3.577-28.204c-3.011-0.407-6.021-0.815-9.031-1.222
						c0.667,7.344,1.23,14.334,3.712,21.343c2.428,6.855,6.205,13.178,9.176,19.797c2.646-1.547,5.293-3.094,7.939-4.641
						c-3.521-7.542-7.083-15.047-11.748-21.963c-3.282-4.866-11.091-0.448-7.939,4.641c4.826,7.793,9.237,15.833,14.283,23.489
						c2.4,3.644,8.85,11.529,13.583,5.536c3.652-4.623,2.971-9.938,1.04-15.279c-2.277-6.299-7.584-7.743-13.498-9.265
						c0.676,2.561,1.352,5.123,2.028,7.684c3.954-4.244,8.728-7.813,14.317-9.544c-1.181-2.801-2.361-5.602-3.542-8.403
						c-3.87,1.685-7.351,3.099-11.604,3.119c-3.466,0.016-6.812,0.167-9.85,1.99c-2.024,1.214-3.088,4.21-1.649,6.29
						c6.88,9.947,12.39,20.499,15.882,32.105c1.716,5.699,10.129,3.332,8.867-2.444c-2.14-9.792-3.994-19.488-8.126-28.684
						c-2.331-5.188-9.07-1.127-8.403,3.542c1.127,7.876,3.024,15.613,4.086,23.5c0.729,5.41,8.714,3.636,9.031-1.222
						c0.65-9.974,3.404-19.653,4.087-29.629c0.366-5.356-7.54-6.008-9.031-1.222c-3.28,10.535-3.25,21.842-1.022,32.585
						c1.144,5.514,8.457,3.515,9.031-1.222c1.401-11.565,2.113-23.197,4.945-34.536c1.238-4.962-5.887-8.249-8.403-3.542
						c-6.334,11.845-10.181,28.425-3.576,40.906c1.518,2.868,6.503,3.134,7.939,0c3.518-7.67,3.977-15.965,5.438-24.168
						c1.781-10.006,6.021-19.614,8.308-29.542c1.133-4.921-5.923-8.337-8.403-3.542c-10.995,21.25-17.006,46.159-12.213,69.947
						c1.07,5.312,8.771,3.737,9.031-1.222c0.585-11.187,1.14-22.129,3.724-33.078c1.128-4.779,2.392-10.518,4.717-14.868
						c1.305-2.439,1.855-6.666,4.607-7.851c-2.306-1.323-4.611-2.646-6.918-3.97c-0.69,8.233-6.101,15.738-9.788,22.894
						c-2.56,4.966-4.247,9.98-5.289,15.438c-1.493,7.815-5.01,25.146,4.584,29.492c3.412,1.546,6.452-0.353,6.918-3.97
						c0.914-7.098,5.13-13.297,6.213-20.439c0.982-6.481,0.317-15.206,5.211-20.241c-2.167,0-4.335,0-6.502,0
						c6.678,6.008,8.995,17.008,11.545,25.366c1.583,5.188,4.492,17.821,12.339,15.66c2.619-0.721,4.563-4.33,2.748-6.753
						c-3.796-5.066-7.229-10.244-10.425-15.706c-2.771-4.735-6.374-10.501-5.804-16.197c-2.616,1.083-5.232,2.167-7.849,3.251
						c2.609,2.839,4.104,6.163,4.272,10.028c3.065,0,6.13,0,9.195,0c-0.49-4.753-1.917-8.231-6.534-10.096
						c-3.929-1.586-9.209,0.84-13.079,1.579c1.886,1.885,3.771,3.77,5.656,5.655c0.549-1.433,1.288-2.71,2.09-4.011
						c3.122-5.063-4.822-9.667-7.939-4.641c-2.096,3.378-4.009,7.021-7.545,9.077c1.857,2.407,3.714,4.813,5.571,7.221
						c6.468-6.883,8.222-15.574,8.531-24.75c0.321-9.566-1.666-20.286,2.404-29.305c-2.855-0.773-5.712-1.547-8.567-2.32
						c-0.006,2.66,0.012,5.331-0.347,7.973c-0.778,5.749,7.928,8.34,8.867,2.444c0.459-2.887,0.621-5.793,1.021-8.686
						c-2.956,0-5.911,0-8.867,0c3.028,7.392,4.574,15.183,6.13,22.986c1.558,7.807,5.178,15.167,4.434,23.297
						c3.011-0.407,6.021-0.815,9.031-1.222c-4.905-13.193-11.071-27.849-10.563-42.196c-3.011,0.407-6.021,0.815-9.031,1.222
						c1.874,10.634,3.826,21.157,7.951,31.187c4.145,10.079,9.361,19.705,10.95,30.622c2.802-1.181,5.603-2.362,8.403-3.542
						c-5.411-8.337-9.125-17.419-11.763-26.975c-2.22-8.039-5.508-18.656-1.52-26.619c-1.323,0.759-2.646,1.518-3.97,2.277
						c2.374,0.181,4.276,9.957,4.674,11.742c0.953,4.279,1.997,9.959,1.11,14.11c2.956,0,5.911,0,8.867,0
						c-2.647-8.039-5.057-16.12-9.148-23.575c-2.463-4.487-10.345-1.368-8.403,3.542c5.141,12.995,11.916,29.557,29.152,23.645
						c-1.181-2.801-2.361-5.602-3.542-8.403c-1.761,0.979-3.521,2-5.651,1.58c0.915,2.251,1.831,4.502,2.747,6.753
						c1.757-3.562,4.375-0.555,2.982,2.039c-1.123,2.092-3.412-1.238-4.306-2.228c-4.491-4.975-8.092-12.244-9.961-18.678
						c-2.562,1.491-5.123,2.982-7.685,4.473c5.524,6.926,5.995,17.405,7.294,25.813c1.845,11.938,4.009,23.668,3.619,35.809
						c3.011-0.407,6.021-0.815,9.031-1.222c-4.354-10.818-4.847-25.711,1.578-35.874c3.659-5.79,8.015-1.629,13.074-1.376
						c5.467,0.274,8.647-3.318,11.749-7.315c-2.407-1.857-4.813-3.714-7.221-5.571c-0.376,0.649-0.805,1.26-1.287,1.833
						c-1.383,1.655,1.209-1.428,2.935,1.415c-0.104-0.173-0.011-1.821,0.014-2.296c0.111-2.203,1.144-4.771,3.097-5.897
						c-2.097-2.097-4.193-4.193-6.29-6.29c-1.878,4.402-4.855,10.266-10.023,11.168c1.73,0.704,3.461,1.409,5.191,2.113
						c-1.408-3.255,4.033-10.513,6.524-12.101c-2.306-1.323-4.611-2.646-6.918-3.97c-0.267,3.429-2.42,6.458-3.97,9.428
						c2.801,1.181,5.602,2.362,8.403,3.542c1.113-3.67,2.404-7.26,4.144-10.684c1.669-3.286,3.414-7.166,5.309-2.377
						c1.867,4.72,1.818,10.381,2.003,15.389c0.172,4.671,1.665,11.407-0.958,15.585c2.646,0,5.293,0,7.939,0
						c-2.498-3.327-3.38-7.544-4.068-11.569c-0.637-3.732-1.301-10.309,1.307-13.51c-2.167,0-4.335,0-6.502,0
						c3.229,2.974,2.37,9.573,2.279,13.545c-0.168,7.359,0.961,14.639,0.46,22.028c2.616-1.083,5.232-2.167,7.849-3.251
						c-2.763-3.546-3.925-8.606-4.844-12.895c-0.778-3.634-1.862-10.104,0.758-13.296c-2.167,0-4.335,0-6.502,0
						c2.177,1.746,0.356,9.496-1.532,11.379c2.167,0,4.335,0,6.502,0c-3.967-4.138-1.513-15.123-0.35-20.046
						c1.384-5.857-6.812-7.923-8.867-2.444c-2.333,6.22-4.007,15.529-9.637,19.727c1.857,0.24,3.714,0.479,5.571,0.719
						c-1.782-1.921,1.247-8.856,1.936-10.816c1.233-3.506,2.818-7.091,4.913-10.177c-2.801-1.181-5.602-2.362-8.403-3.542
						c-3.761,9.04-8.108,18.298-14.142,26.069c2.562,1.491,5.123,2.982,7.685,4.473c1.182-6.222,3.414-12.168,4.597-18.391
						c1.116-5.879-6.746-7.954-8.867-2.444c-3.041,7.901-5.068,16.269-6.389,24.627c-1.309,8.289-0.504,16.791-2.806,24.923
						c2.802-0.366,5.603-0.732,8.403-1.098c-5.187-10.233-1.947-23.812,0.975-34.26c1.606-5.747-7.038-8.044-8.867-2.444
						c-2.519,7.711-4.508,15.553-6.13,23.5c-0.527,2.586-1.848,8.09-2.479,9.095c0.916-0.704,1.831-1.409,2.747-2.113
						c-0.04,0.007-0.081,0.015-0.121,0.022C354.428-164.288,356.905-155.428,362.701-156.471L362.701-156.471z"/>
				</g>
			</g>
			<g>
				<g>
					<path d="M238.558-158.675c4.748-5.584,6.949-12.298,9.079-19.202c2.575-8.343,7.337-15.585,10.494-23.69
						c2.066-5.306-5.532-7.279-8.403-3.542c-8.392,10.92-11.417,24.576-15.789,37.364c-1.697,4.966,5.951,8.096,8.403,3.542
						c6.714-12.466,12.362-25.906,14.766-39.92c1.016-5.927-6.616-7.888-8.867-2.444c-0.99,2.397-2.07,4.756-3.064,7.152
						c-2.271,5.477,6.629,7.84,8.867,2.444c0.993-2.396,2.073-4.755,3.064-7.152c-2.956-0.815-5.911-1.629-8.867-2.444
						c-2.277,13.283-7.474,25.906-13.838,37.724c2.801,1.181,5.602,2.362,8.403,3.542c4.133-12.091,6.926-24.84,14.861-35.167
						c-2.801-1.181-5.602-2.362-8.403-3.542c-2.792,7.169-7.16,13.541-9.604,20.869c-2.037,6.108-3.323,12.931-7.604,17.965
						C228.239-160.688,234.711-154.151,238.558-158.675L238.558-158.675z"/>
				</g>
			</g>
			<g>
				<g>
					<path d="M244.178-189.185c1.917,2.479,0.735,4.6,1.639,1.627c0.411-1.353,0.912-2.68,1.404-4.004
						c1.492-4.022,3.13-7.992,4.738-11.969c2.72-6.729,6.413-13.83,7.703-21.025c1.031-5.757-7.154-8.209-8.867-2.444
						c-5.063,17.043-11.339,33.685-18.436,49.982c2.801,1.181,5.602,2.362,8.403,3.542c2.193-7.65,3.852-17.282-0.464-24.484
						c-2.281-3.807-8.751-2.362-8.567,2.32c0.203,5.149,1.552,10.022,2.718,15.013c2.956-0.815,5.911-1.629,8.867-2.444
						c-3.828-9.073-7.12-18.733-17.004-22.621c-3.086-1.214-5.479,1.789-5.82,4.433c-0.921,7.127,6.38,15.302,13.082,16.693
						c2.699,0.56,6.089-1.276,5.82-4.433c-0.581-6.815-8.367-22.192-17.294-16.963c-4.638,2.717-3.863,9.083-7.318,12.785
						c-2.354,2.522-5.6,4.515-7.454,7.478c-1.892,3.022-3.3,6.291-5.921,8.774c2.407,1.857,4.813,3.714,7.221,5.571
						c4.599-6.771,9.67-13.123,12.213-21.02c1.297-4.03-3.366-6.988-6.754-5.192c-5.567,2.951-9.161,8.61-12.426,13.796
						c-4.035,6.407-7.307,13.364-11.701,19.523c2.646,1.547,5.293,3.094,7.939,4.641c9.128-15.625,17.518-31.67,23.962-48.604
						c-2.956-0.815-5.911-1.629-8.867-2.444c-1.736,8.438-7.431,17.752-15.254,21.772c2.097,2.097,4.193,4.193,6.29,6.29
						c1.594-2.962,3.514-5.721,5.107-8.684c2.863-5.322-4.509-9.355-7.939-4.641c-3.657,5.025-5.804,10.877-8.684,16.346
						c2.801,1.181,5.602,2.362,8.403,3.542c2.757-8.298,5.697-18.643-2.444-24.72c-8.339-6.225-14.575,8.123-16.64,13.592
						c-1.127,2.987,1.706,5.623,4.434,5.82c5.324,0.385,10.358-2.417,13.165-6.873c2.203-3.498-1.403-7.745-5.192-6.753
						c-5.758,1.507-9.744,6.591-11.896,11.893c-1.081,2.667,1.663,6.047,4.434,5.82c9.489-0.778,23.458-20.138,11.229-26.234
						c-12.14-6.052-25.146,14.424-28.433,23.479c-1.739,4.792,4.486,7.048,7.685,4.473c7.655-6.165,16.818-12.164,18.204-22.661
						c0.249-1.889-1.577-4.078-3.375-4.433c-6.672-1.319-11.864,3.768-15.847,8.463c-4.233,4.993-8.021,10.702-10.801,16.638
						c2.801,1.181,5.602,2.362,8.403,3.542c3.274-8.899,11.245-15.466,18.229-21.471c3.559-3.061-0.217-8.937-4.474-7.684
						c-5.75,1.692-10.052,5.725-13.627,10.399c-1.825,2.387-3.693,4.872-4.938,7.618c-1.154,2.547-1.595,6.011-3.385,8.196
						c2.562,0.676,5.123,1.353,7.685,2.029c-1.48-6.422,3.45-10.266,8.172-13.653c4.88-3.5,10.073-6.722,13.329-11.92
						c1.459-2.328,0.174-6.277-2.747-6.753c-8.725-1.422-15.294,5.226-20.326,11.516c-2.581,3.227-4.895,6.653-7.045,10.178
						c-2.699,4.425-3.177,9.761-5.916,14.132c2.646,1.547,5.293,3.094,7.939,4.641c-0.883,1.947,0.098,0.112,0.813-0.601
						c4.203-4.19-2.299-10.691-6.502-6.502c-0.878,0.875-1.703,1.253-2.251,2.462c-2.41,5.314,4.733,9.756,7.939,4.641
						c2.136-3.407,3.146-7.236,4.397-11.022c0.995-3.012,3.151-5.784,4.922-8.379c2.314-3.393,8.515-13.025,13.583-12.199
						c-0.915-2.251-1.831-4.502-2.747-6.753c-3.569,5.698-10.878,8.841-15.871,13.154c-5.865,5.066-8.3,11.944-6.558,19.503
						c0.731,3.169,5.494,4.701,7.685,2.029c2.994-3.655,3.524-8.207,5.921-12.139c2.807-4.606,6.545-10.113,11.973-11.71
						c-1.491-2.561-2.982-5.123-4.474-7.684c-8.384,7.209-16.689,14.918-20.595,25.529c-1.796,4.881,6.199,8.248,8.403,3.542
						c1.989-4.246,4.556-8.234,7.265-12.051c1.221-1.719,6.33-9.353,8.998-8.825c-1.125-1.478-2.25-2.956-3.375-4.433
						c-0.895,6.777-10.683,12.271-15.511,16.159c2.562,1.491,5.123,2.982,7.685,4.473c2.352-6.479,7.901-13.781,13.907-17.193
						c1.951-1.109,1.43,0.346,0.935-1.172c0.251,0.769-0.5,2.267-0.805,2.95c-0.836,1.872-3.268,6.331-5.7,6.53
						c1.478,1.94,2.955,3.88,4.434,5.82c0.925-2.281,3.04-4.834,5.474-5.471c-1.731-2.251-3.462-4.502-5.192-6.753
						c-1.163,1.847-3.15,2.469-5.226,2.318c1.478,1.94,2.955,3.88,4.434,5.82c0.699-1.853,1.467-3.638,2.394-5.391
						c0.487-0.923,1.044-1.734,1.746-2.5c-0.901,0.983-0.985-1.206-0.312,0.972c1.209,3.912-1.254,9.476-2.478,13.158
						c-1.647,4.959,5.983,8.139,8.403,3.542c2.88-5.468,5.026-11.32,8.684-16.346c-2.646-1.547-5.293-3.094-7.939-4.641
						c-1.594,2.962-3.514,5.721-5.107,8.684c-2.235,4.156,2.188,8.398,6.29,6.29c9.772-5.021,17.301-16.679,19.48-27.267
						c1.209-5.875-6.774-7.942-8.867-2.444c-6.156,16.179-14.315,31.482-23.034,46.408c-3.044,5.211,4.558,9.381,7.939,4.641
						c3.59-5.032,6.266-10.663,9.498-15.925c3.023-4.923,6.025-11.283,11.33-14.095c-2.251-1.73-4.502-3.461-6.754-5.192
						c-2.263,7.028-7.193,12.798-11.285,18.824c-3.027,4.458,3.545,9.055,7.221,5.571c3.346-3.171,4.673-7.548,7.695-10.863
						c3.231-3.543,7.576-6.257,9.714-10.707c0.597-1.243,0.911-2.545,1.217-3.881c0.143-0.669,0.31-1.333,0.498-1.991
						c0.465-1.728-2.619-0.535-1.479,0.517c1.922,1.774,4.417,5.666,4.646,8.35c1.94-1.478,3.88-2.956,5.82-4.433
						c-3.128-0.649-6.765-4.48-6.332-7.827c-1.94,1.478-3.88,2.956-5.82,4.433c6.027,2.371,8.308,10.807,10.582,16.199
						c2.24,5.31,10.258,3.504,8.867-2.444c-0.976-4.172-2.221-8.263-2.39-12.569c-2.856,0.773-5.712,1.547-8.567,2.32
						c2.946,4.917,1.013,12.253-0.464,17.399c-1.405,4.9,6.289,8.398,8.403,3.542c7.416-17.029,14.07-34.366,19.363-52.178
						c-2.956-0.815-5.911-1.629-8.867-2.444c-1.471,8.211-5.811,16.332-8.91,24.014c-2.047,5.073-8.257,15.07-4.209,20.303
						C241.3-177.998,247.757-184.557,244.178-189.185L244.178-189.185z"/>
				</g>
			</g>
			<g>
				<g>
					<path d="M203.838-165.155c3.129-1.146,5.129-3.146,6.275-6.275c0.701-1.916-0.445-4.215-2.113-5.192
						c-1.939-1.136-3.927-0.583-5.571,0.719c-2.296,1.817-3.539,4.502-4.806,7.06c2.801,1.181,5.602,2.362,8.403,3.542
						c-0.042,0.224-0.918,1.265-0.16,0.498c1.76-1.782,1.779-4.722,0-6.502c-1.763-1.763-4.741-1.782-6.502,0
						c-0.979,0.992-1.941,2.148-2.205,3.56c-0.383,2.052,0.224,4.085,2.113,5.192c2.048,1.2,5.179,0.595,6.29-1.649
						c0.515-1.039,1.002-2.089,1.569-3.1c0.142-0.252,1.209-1.733,0.499-0.851c0.379-0.471,0.827-0.874,1.3-1.248
						c-2.562-1.491-5.123-2.982-7.685-4.473c0.266-0.567,0.287-0.628,0.064-0.183c-0.483,0.941,0.674-0.688-0.031,0.07
						c-0.366,0.33-0.298,0.286,0.203-0.133c-0.239,0.167-1.156,0.49-0.09,0.1c-2.351,0.861-3.917,3.088-3.211,5.655
						C198.805-166.101,201.482-164.292,203.838-165.155L203.838-165.155z"/>
				</g>
			</g>
			<g>
				<g>
					<path d="M395.008-178.597c1.709,1.355,1.249,3.075,1.127,5.14c-0.171,2.88,0.127,5.765,1.731,8.234
						c3.217,4.951,11.181,0.348,7.939-4.641c-1.145-1.761-0.376-4.437-0.363-6.44c0.021-3.38-1.254-6.669-3.933-8.795
						c-1.961-1.556-4.579-1.923-6.502,0C393.389-183.479,393.042-180.157,395.008-178.597L395.008-178.597z"/>
				</g>
			</g>
			<g>
				<path fill="#E50056" d="M132.121,111.109c7.662-8.812,8.429-24.137,6.896-35.248c-1.916-16.857-14.559-24.135-30.649-22.604
					c-18.007,1.533-26.435,16.475-26.052,33.715c0.766,14.176,7.279,21.07,20.305,24.902c5.747,1.533,12.643,3.447,18.773,2.299
					c6.129-1.533,10.344-6.514,13.791-11.494"/>
			</g>
			<g>
				<path fill="#E50056" d="M449.726,106.129c10.344-6.514,10.344-19.922,8.045-30.65c-2.682-13.791-13.025-21.838-27.584-22.221
					c-18.007,0-32.948,14.559-31.033,33.332c1.533,11.877,8.429,20.305,19.923,22.604c14.175,3.064,24.52,0.766,35.246-8.812"/>
			</g>
		</g>
		<g>
			<g>
				<path d="M536.879,413.19c6.573-5.154,12.822-10.613,18.39-16.855c3.653-4.097-0.875-9.251-5.571-7.221
					c-10.879,4.704-21.483,15.468-27.701,25.401c-2.444,3.905,2.396,8.696,6.29,6.29c11.086-6.848,18.798-18.427,23.567-30.332
					c1.415-3.534-2.605-6.264-5.656-5.655c-7.19,1.436-13.085,11.015-16.809,16.535c-4.079,6.046-10.246,15.803-7.599,23.482
					c3.312,9.609,13.808,4.838,19.275,0.554c5.814-4.555,12.638-11.637,15.688-18.493c1.492-3.353-0.964-8.166-5.191-6.753
					c-10.557,3.526-22.701,13.262-27.268,23.568c-1.397,3.155,0.216,6.813,3.97,6.918c11.877,0.33,22.22-13.245,25.888-23.297
					c1.457-3.994-3.471-6.991-6.754-5.192c-6.977,3.823-11.947,10.084-17.021,16.043c2.167,2.167,4.335,4.334,6.502,6.502
					c5.968-7.185,9.259-15.664,12.676-24.25c2.194-5.515-6.702-7.884-8.867-2.444c-2.787,7.004-5.434,14.321-10.311,20.192
					c-3.748,4.512,2.639,11.039,6.502,6.502c4.537-5.328,8.92-11.186,15.16-14.605c-2.251-1.73-4.502-3.461-6.754-5.192
					c-2.232,6.121-9.68,16.75-17.021,16.546c1.323,2.306,2.646,4.612,3.97,6.918c3.618-8.166,13.33-16.522,21.771-19.342
					c-1.73-2.251-3.461-4.502-5.191-6.753c-1.979,4.447-5.858,8.409-9.149,11.888c-2.144,2.266-4.441,4.41-7.07,6.098
					c-0.601,0.386-1.607,1.063-2.315,1.155c-1.243,0.162,0.076-0.162,0.17,0.581c-0.711-5.613,4.567-12.557,7.481-16.876
					c1.851-2.743,3.919-5.313,6.168-7.738c1.312-1.414,3.583-3.486,4.544-3.678c-1.886-1.885-3.771-3.77-5.656-5.655
					c-3.847,9.603-10.425,19.329-19.341,24.836c2.097,2.097,4.193,4.193,6.29,6.29c5.45-8.708,14.893-17.99,24.402-22.103
					c-1.857-2.407-3.714-4.813-5.571-7.221c-5.567,6.243-11.816,11.701-18.39,16.855C525.714,410.345,532.27,416.804,536.879,413.19
					L536.879,413.19z"/>
			</g>
		</g>
		<g>
			<g>
				<path d="M525.987,348.015c7.688-3.878,12.217-12.245,15.987-19.608c5.408-10.564,11.753-19.735,13.108-31.869
					c0.361-3.235-3.188-4.88-5.819-4.433c-9.61,1.63-14.918,12.754-19.32,20.292c-6.727,11.515-15.162,21.611-19.904,34.257
					c-1.306,3.483,2.529,6.364,5.656,5.655c11.094-2.514,16.85-16.585,21.367-25.68c6.076-12.232,15.47-25.041,14.955-39.286
					c-0.098-2.697-2.923-5.61-5.82-4.433c-9.781,3.974-13.922,15.709-18.68,24.299c-5.768,10.41-14.594,20.063-16.11,32.239
					c-0.436,3.503,4.213,5.679,6.918,3.97c8.731-5.515,13.519-15.359,17.812-24.386c5.143-10.812,11.992-21.147,13.581-33.221
					c0.42-3.192-3.23-4.929-5.82-4.433c-8.434,1.615-11.927,11.892-14.586,18.877c-4.42,11.612-11.616,21.975-14.676,34.139
					c-0.875,3.479,2.225,6.457,5.656,5.655c7.723-1.804,13.875-11.184,15.471-18.535c0.746-3.44-2.135-6.524-5.656-5.655
					c-12.05,2.972-16.714,19.346-21.903,28.931c2.801,0.366,5.602,0.732,8.403,1.098c-0.737-1.767-1.412-2.905-2.716-4.328
					c-2.11-2.301-5.638-1.422-7.221,0.931c-1.112,1.652-2.704,2.923-3.83,4.598c2.801,1.181,5.602,2.362,8.403,3.542
					c0.166-1.096,0.5-2.003,0.766-3.064c-1.07,1.07-2.141,2.141-3.211,3.211c-1.395-0.229-1.443-0.229-0.146,0
					c5.796,1.055,8.272-7.805,2.445-8.866c-5.053-0.92-7.935,1.106-8.721,6.275c-0.771,5.078,5.359,8.067,8.403,3.542
					c1.112-1.652,2.704-2.923,3.83-4.598c-2.407,0.31-4.813,0.621-7.221,0.931c0.117,0.09,0.234,0.18,0.351,0.27
					c1.412,3.386,6.305,4.974,8.403,1.098c2.445-4.517,4.487-9.24,6.925-13.764c2.025-3.761,4.934-9.819,9.484-10.941
					c-1.886-1.885-3.771-3.77-5.656-5.655c-0.923,4.255-4.453,11.04-9.049,12.113c1.886,1.885,3.771,3.77,5.656,5.655
					c2.75-10.935,9.044-20.278,13.32-30.596c1.843-4.446,3.949-14.932,9.52-15.998c-1.94-1.478-3.88-2.956-5.82-4.433
					c-1.291,9.812-7.622,18.549-11.748,27.354c-3.628,7.744-7.562,17.557-15.091,22.313c2.306,1.323,4.612,2.646,6.918,3.97
					c0.648-5.208,3.987-10.04,6.717-14.368c2.599-4.121,5.144-8.248,7.665-12.41c2.24-3.699,4.055-7.661,6.172-11.432
					c1.664-2.965,4.098-8.086,7.486-9.462c-1.94-1.478-3.88-2.956-5.82-4.433c0.426,11.78-7.65,22.787-12.809,32.867
					c-2.332,4.558-4.533,9.162-7.155,13.565c-2.179,3.659-5.143,8.656-9.608,9.667c1.886,1.885,3.771,3.77,5.656,5.655
					c3.95-10.537,10.826-19.792,17.075-29.05c3.956-5.859,7.882-17.747,15.726-19.077c-1.939-1.478-3.879-2.956-5.819-4.433
					c-1.113,9.97-7.009,17.561-11.342,26.216c-3.131,6.251-6.665,14.026-13.199,17.322
					C516.052,342.746,520.708,350.678,525.987,348.015L525.987,348.015z"/>
			</g>
		</g>
		<g>
			<g>
				<path d="M528.242,434.599c-0.204-4.51-0.814-5.818-1.833-3.924c-0.354,0.551-0.879,1.039-1.311,1.528
					c-1.083,1.225-2.142,2.442-3.103,3.769c2.855,0.773,5.711,1.547,8.567,2.32c0.048-6.555,0.707-13.36-1.696-19.613
					c-1.291-3.356-4.896-4.38-7.685-2.029c-3.146,2.652-3.41,6.713-4.248,10.458c3.011,0.407,6.021,0.815,9.031,1.222
					c-0.095-2.83-0.673-5.601-0.767-8.43c-0.197-5.913-9.394-5.933-9.195,0c0.095,2.83,0.672,5.601,0.767,8.43
					c0.169,5.042,7.863,6.444,9.031,1.222c0.43-1.923,0.315-5.08,1.883-6.401c-2.562-0.676-5.123-1.353-7.685-2.029
					c2.112,5.496,1.411,11.404,1.368,17.168c-0.036,4.908,6.025,5.828,8.567,2.32c2.671-3.686,9.863-10.075,2.947-13.952
					C527.705,423.756,523.071,431.699,528.242,434.599L528.242,434.599z"/>
			</g>
		</g>
		<g>
			<g>
				<path d="M496.987,285.066c4.684-7.213,9.027-14.511,13.096-22.068c8.544-15.873,17.943-31.461,23.382-48.759
					c1.349-4.292-4.634-7.951-7.685-4.473c-7.233,8.247-11.777,18.022-16.26,27.93c-4.738,10.474-10.501,20.306-13.274,31.568
					c-1.075,4.368,4.4,7.874,7.685,4.473c11.997-12.422,17.812-29.252,25.608-44.335c5.527-10.69,15.861-27.973,9.591-40.16
					c-1.192-2.317-4.155-2.742-6.29-1.649c-10.77,5.51-16.178,20.625-20.848,31.041c-4.024,8.976-6.95,18.383-10.875,27.387
					c-3.371,7.733-6.162,15.632-4.871,24.154c0.229,1.511,1.808,2.849,3.211,3.211c6.918,1.785,11.651-4.9,14.699-10.059
					c4.474-7.569,7.497-16.117,10.352-24.399c2.114-6.133,4.133-12.283,6.3-18.398c2.919-8.239,7.052-20.366-0.059-27.62
					c-1.438-1.467-3.808-1.763-5.571-0.719c-10.506,6.219-15.629,18.093-19.75,29.038c-2.2,5.842-4.015,11.821-6.133,17.693
					c-2.896,8.024-6.557,15.857-8.412,24.212c-1.023,4.611,4.201,7.514,7.685,4.473c8.13-7.097,11.715-18.555,14.848-28.519
					c3.985-12.674,9.953-24.805,10.252-38.33c0.083-3.772-5.24-6.411-7.849-3.251c-4.628,5.606-6.763,12.384-8.476,19.35
					c-0.817,3.327-1.495,6.685-2.372,9.997c-1.189,4.499-3.802,8.885-5.959,12.985c-4.199,7.977-8.953,16.198-14.884,23.014
					c-4.982,5.725-8.394,11.876-4.275,19.147c1.077,1.902,3.163,2.49,5.192,2.113c9.195-1.708,11.655-11.895,14.705-19.301
					c2.073-5.035-5.703-7.685-8.403-3.542c-5.668,8.693-10.451,19.027-8.126,29.593c0.441,2.002,2.467,3.349,4.434,3.375
					c9.018,0.121,14.773-9.837,18.425-16.746c4.214-7.971,8.076-17.139,9.159-26.163c0.521-4.339-5.194-5.594-7.849-3.251
					c-11.367,10.038-16.292,28.513-17.437,43.095c-0.312,3.971,5.261,6.133,7.849,3.251c10.215-11.375,17.489-26.081,20.338-41.107
					c0.765-4.034-4.521-8.406-7.685-4.473c-5.728,7.12-8.615,15.723-9.775,24.706c-0.549,4.25,5.245,5.71,7.849,3.251
					c5.228-4.939,8.458-11.35,11.333-17.845c3.363-7.599,6.8-15.122,10.379-22.624c3.118-6.534,5.848-13.3,8.54-20.02
					c2.156-5.381,3.492-10.864-0.369-15.742c-3.679-4.647-10.14,1.906-6.502,6.502c1.372,1.733-3.572,10.279-4.352,12.202
					c-2.637,6.503-5.445,12.841-8.507,19.16c-5.058,10.44-8.396,23.712-17.024,31.865c2.616,1.083,5.232,2.167,7.849,3.251
					c0.816-6.319,3.049-13.191,7.082-18.204c-2.562-1.491-5.123-2.982-7.685-4.473c-2.554,13.478-8.781,26.814-17.973,37.049
					c2.616,1.083,5.232,2.167,7.849,3.251c0.96-12.237,5.23-28.193,14.743-36.593c-2.616-1.083-5.232-2.167-7.849-3.251
					c-0.649,5.415-3.806,12.902-6.383,18.448c-1.834,3.949-6.509,15.338-12.006,15.265c1.478,1.125,2.955,2.25,4.434,3.375
					c-1.744-7.921,3.03-16.117,7.198-22.508c-2.801-1.181-5.602-2.362-8.403-3.542c-1.72,4.176-3.08,11.913-8.283,12.879
					c1.731,0.704,3.462,1.408,5.192,2.113c-2.614-4.617,5.404-10.811,7.882-14.416c4.775-6.95,9.117-14.191,12.955-21.699
					c3.209-6.279,5.393-12.405,6.95-19.246c1.378-6.059,2.679-13.07,6.741-17.991c-2.616-1.083-5.232-2.167-7.849-3.251
					c-0.271,12.24-6.036,23.154-9.539,34.644c-2.704,8.871-5.634,19.388-12.867,25.703c2.562,1.491,5.123,2.982,7.685,4.473
					c2.786-12.545,8.577-24.73,12.759-36.91c3.454-10.06,7.611-22.797,17.31-28.538c-1.857-0.24-3.714-0.479-5.571-0.719
					c4.246,4.331-1.464,16.356-3.122,20.958c-1.732,4.808-3.311,9.646-4.932,14.491c-2.108,6.297-4.411,12.543-7.232,18.559
					c-1.343,2.863-2.857,5.647-4.637,8.263c-0.619,0.909-1.366,1.698-2.163,2.453c-0.599,0.567-1.009,0.192-0.259,0.386
					c1.07,1.07,2.141,2.141,3.211,3.211c-1.009-6.655,2.495-13.819,5.111-19.729c3.582-8.088,6.164-16.606,9.707-24.727
					c2.215-5.077,4.797-10.097,7.347-15.015c2.435-4.695,5.311-10.225,10.202-12.728c-2.097-0.55-4.193-1.1-6.29-1.649
					c2.109,4.099-0.803,10.756-2.191,14.657c-2.215,6.22-5.274,12.14-8.314,17.988c-7.15,13.755-12.298,29.361-23.256,40.708
					c2.562,1.491,5.123,2.982,7.685,4.473c2.584-10.496,7.916-19.619,12.347-29.372c4.135-9.102,8.163-18.477,14.822-26.068
					c-2.562-1.491-5.123-2.982-7.685-4.473c-5.36,17.052-14.834,32.407-23.258,48.055c-3.295,6.121-7.807,13.667-12.292,20.575
					C485.809,285.415,493.771,290.019,496.987,285.066L496.987,285.066z"/>
			</g>
		</g>
		<g>
			<g>
				<path d="M535.764,206.578c2.023-9.006,0.988-22.62-8.244-27.413c-3.084-1.602-6.865,0.367-6.918,3.97
					c-0.066,4.617-0.741,8.934-2.135,13.336c3.011,0.407,6.021,0.815,9.031,1.222c0-2.809,0-5.619,0-8.428
					c0-2.03-1.401-3.91-3.375-4.433c-0.18-0.048-0.359-0.095-0.539-0.143c-2.578-0.683-4.784,0.843-5.655,3.211
					c-0.256,0.695-0.335,1.392-0.392,2.13c-0.454,5.917,8.744,5.873,9.195,0c0.021,0.104,0.041,0.209,0.062,0.314
					c-1.885,1.07-3.771,2.141-5.655,3.211c0.18,0.047,0.359,0.095,0.538,0.143c-1.125-1.478-2.25-2.956-3.375-4.433
					c0,2.809,0,5.619,0,8.428c0,5.301,7.482,6.115,9.031,1.222c1.628-5.145,2.385-10.39,2.463-15.781
					c-2.307,1.323-4.612,2.646-6.918,3.97c5.245,2.723,5.131,12.076,4.018,17.029C525.599,209.909,534.463,212.362,535.764,206.578
					L535.764,206.578z"/>
			</g>
		</g>
		<g>
			<g>
				<path d="M563.649,297.281c-3.546-7.574-3.998-16.293-4.735-24.496c-0.531-5.903-8.709-5.936-9.195,0
					c-0.796,9.729-2.268,19.386-3.064,29.115c3.065,0,6.13,0,9.195,0c0.054-8.69,0.716-17.36,0.766-26.051
					c0.025-4.43-6.441-6.472-8.567-2.32c-3.59,7.011-5.806,14.443-7.558,22.098c-1.836,8.019-2.713,16.745-5.981,24.341
					c-2.89,6.715-7.836,12.313-12.681,17.674c-4.105,4.542-8.678,12.302-14.709,14.229c1.886,1.07,3.771,2.141,5.656,3.211
					c-1.617-4.29-2.757-8.74-2.9-13.336c-2.855,0.773-5.712,1.547-8.567,2.32c3.336,5.202,3.396,11.453,4.899,17.291
					c1.106,4.293,7.886,4.502,8.867,0c2.079-9.54,4.136-20.562,0.767-30.028c-1.04-2.92-3.962-4.128-6.754-2.748
					c-4.045,2-5.147,5.867-5.343,10.099c3.065,0,6.13,0,9.195,0c0-0.907,0-1.814,0-2.721c0-5.93-9.195-5.93-9.195,0
					c0,0.141,0,0.282,0,0.422c0,5.93,9.195,5.93,9.195,0c0-0.141,0-0.282,0-0.422c0-5.93-9.195-5.93-9.195,0
					c0,0.907,0,1.814,0,2.721c0,5.956,8.924,5.894,9.195,0c-0.285-0.99-0.022-1.709,0.788-2.159
					c-2.251-0.916-4.502-1.832-6.754-2.748c2.824,7.935,0.977,17.145-0.767,25.14c2.956,0,5.911,0,8.867,0
					c-1.722-6.682-1.998-13.516-5.827-19.487c-2.371-3.698-8.716-2.443-8.567,2.32c0.169,5.402,1.325,10.73,3.229,15.781
					c0.854,2.266,3.106,4.026,5.656,3.211c7.058-2.255,11.101-8.091,15.811-13.395c5.343-6.017,10.826-11.785,14.999-18.72
					c9.158-15.222,7.51-34.626,15.613-50.453c-2.855-0.773-5.712-1.547-8.567-2.32c-0.049,8.69-0.712,17.361-0.766,26.051
					c-0.037,6.005,8.718,5.826,9.195,0c0.796-9.729,2.268-19.386,3.064-29.115c-3.065,0-6.13,0-9.195,0
					c0.895,9.949,1.702,19.974,5.991,29.137C558.223,307.289,566.147,302.617,563.649,297.281L563.649,297.281z"/>
			</g>
		</g>
		<g>
			<g>
				<path d="M545.308,413.958c4.435-4.157,6.778-10.446,8.558-16.109c1.74-5.538,3.19-12.624,1.054-18.247
					c-1.199-3.154-5.054-4.64-7.685-2.029c-1.41,1.401-2.808,2.722-4.434,3.877c-4.79,3.403-0.205,11.382,4.641,7.939
					c2.266-1.609,4.323-3.357,6.295-5.314c-2.562-0.676-5.123-1.353-7.685-2.029c1.606,4.225,0.146,9.206-1.054,13.358
					c-1.201,4.158-2.959,9.021-6.192,12.051C534.472,411.519,540.987,418.008,545.308,413.958L545.308,413.958z"/>
			</g>
		</g>
		<g>
			<g>
				<path d="M121.996,327.497c-1.157-3.141-3.907-5.325-5.827-7.993c-3.115-4.328-5.616-9.133-8.22-13.775
					c-5.224-9.312-10.778-18.797-19.317-25.468c-4.641-3.625-10.345,1.869-6.502,6.502c11.042,13.312,21.212,27.291,31.463,41.212
					c2.862,3.887,10.275,1.75,8.403-3.542c-3.978-11.239-11.339-20.672-18.658-29.921c-8.641-10.918-17.414-21.895-25.481-33.241
					c-3.458-4.864-10.393-0.757-7.939,4.641c5.412,11.907,11.669,23.376,18.151,34.728c5.976,10.463,11.505,21.343,19.347,30.566
					c3.386,3.982,10.115-1.25,7.221-5.571c-12.431-18.558-26.146-36.199-39.077-54.402c-2.646,1.547-5.293,3.094-7.939,4.641
					c15.126,19.875,25.877,42.49,39.077,63.598c2.647,4.234,10.471,1.441,8.403-3.542c-8.462-20.397-25.145-34.973-38.009-52.436
					c-2.407,1.857-4.813,3.714-7.221,5.571c8.019,7.674,13.407,17.374,18.753,26.985c5.817,10.458,12.594,20.462,18.073,31.084
					c2.097-2.097,4.193-4.193,6.29-6.29c-4.946-2.128-7.319-8.3-10.562-12.307c-5.064-6.258-9.689-12.842-14.343-19.407
					c-8.514-12.01-19.341-23.062-25.086-36.799c-2.252,1.73-4.503,3.461-6.754,5.192c10.813,7.021,17.957,20.079,23.637,31.298
					c2.097-2.097,4.193-4.193,6.29-6.29c-9.64-5.449-16.116-15.704-20.963-25.358c-2.83-5.637-9.909-19.058-5.738-25.053
					c-2.407,0.31-4.813,0.621-7.221,0.931c7.586,7.326,8.834,19.213,12.609,28.622c1.757,4.377,7.096,4.331,8.867,0
					c2.669-6.526,0.415-14.435-0.595-21.102c-1.24-8.185-0.235-16.037-3.7-23.817c-1.727-3.875-7.329-2.343-8.403,1.098
					c-3.607,11.562,2.667,26.412,8.126,36.49c1.729,3.191,6.112,2.758,7.939,0c5.938-8.964,2.82-24.21-1.068-33.425
					c-1.425-3.375-6.295-4.982-8.403-1.098c-4.538,8.359-1.721,17.979-0.628,26.84c2.856-0.773,5.712-1.547,8.567-2.32
					c-3.513-6.203-8.434-15.723-16.768-15.816c-8.864-0.099-14.788,9.572-13.847,17.739c2.097,18.167,21.072,29.78,32.588,41.96
					c1.491-2.562,2.982-5.123,4.474-7.684c-12.023-4.599-18.969-17.275-26.37-27.004c-3.021-3.971-9.769-1.843-8.403,3.542
					c3.296,12.995,12.87,27.072,24.334,34.164c5.058,3.128,9.672-4.828,4.641-7.939c-9.465-5.854-17.396-17.978-20.107-28.668
					c-2.802,1.181-5.603,2.362-8.403,3.542c9.114,11.982,17.131,25.594,31.864,31.23c4.543,1.738,7.407-4.581,4.474-7.684
					c-8.775-9.282-19.577-16.813-26.546-27.698c-3.267-5.101-5.11-10.754-0.661-15.713c3.4-3.79,9.639,8.634,10.792,10.67
					c2.11,3.726,9.146,2.382,8.567-2.32c-0.818-6.638-4.026-15.94-0.628-22.199c-2.801-0.366-5.602-0.732-8.403-1.098
					c2.902,6.876,6.502,19.539,1.996,26.34c2.646,0,5.293,0,7.939,0c-4.252-7.849-10.019-20.368-7.198-29.405
					c-2.802,0.366-5.603,0.732-8.403,1.098c2.797,6.279,1.695,13.696,2.601,20.357c0.745,5.478,2.951,12.137,0.767,17.478
					c2.956,0,5.911,0,8.867,0c-4.426-11.027-6.057-24.067-14.975-32.679c-2.256-2.178-5.524-1.508-7.221,0.931
					c-6.295,9.048,0.743,23.134,4.576,31.865c5.245,11.948,13.851,24.584,25.424,31.126c4.164,2.354,8.336-2.249,6.29-6.29
					c-6.446-12.733-14.704-26.655-26.936-34.597c-3.149-2.045-8.338,1.403-6.754,5.192c6.335,15.146,17.65,27.197,27.043,40.448
					c4.758,6.711,9.713,13.225,14.7,19.761c3.698,4.845,6.557,11.253,12.474,13.799c4.144,1.783,8.546-1.917,6.29-6.29
					c-5.479-10.622-12.257-20.625-18.073-31.084c-5.717-10.28-11.617-20.64-20.19-28.846c-3.64-3.483-10.416,1.233-7.221,5.571
					c12.229,16.601,29.05,30.879,37.081,50.24c2.802-1.181,5.603-2.362,8.403-3.542c-13.2-21.108-23.951-43.723-39.077-63.598
					c-3.507-4.607-11.421-0.26-7.939,4.641c12.931,18.203,26.646,35.845,39.077,54.402c2.407-1.857,4.813-3.714,7.221-5.571
					c-7.675-9.027-12.986-20.086-18.836-30.328c-6.172-10.808-12.072-21.769-17.225-33.104c-2.646,1.547-5.293,3.094-7.939,4.641
					c7.296,10.262,15.147,20.272,22.968,30.142c7.541,9.517,16.133,19.207,20.244,30.825c2.802-1.181,5.603-2.362,8.403-3.542
					c-10.715-14.552-21.359-29.158-32.9-43.073c-2.167,2.167-4.335,4.334-6.502,6.502c7.587,5.927,12.462,14.035,17.143,22.296
					c2.422,4.274,4.783,8.577,7.401,12.736c1.096,1.74,2.293,3.379,3.569,4.988c0.517,0.626,1.041,1.246,1.572,1.86
					c-0.044-0.051,1.831,2.702,1.313,1.297C115.16,335.456,124.049,333.073,121.996,327.497L121.996,327.497z"/>
			</g>
		</g>
		<g>
			<g>
				<path d="M68.71,411.659c3.309-2.762,5.648-6.325,7.615-10.126c2.428-4.692-3.303-9.094-7.221-5.571
					c-5.577,5.015-10.354,13.151-9.776,20.874c0.214,2.852,2.792,5.395,5.82,4.433c9.642-3.063,18.152-15.183,18.7-25.121
					c0.156-2.84-3.082-5.425-5.819-4.433c-8.503,3.082-19.031,16.687-14.241,25.91c1.241,2.389,4.102,2.639,6.29,1.649
					c6.487-2.932,9.803-9.975,12.244-16.25c2.636-6.776,3.592-13.612-1.505-19.408c-5.348-6.081-14.878-9.003-21.634-13.141
					c-8.902-5.453-17.026-12.136-24.188-19.721c-1.491,2.562-2.982,5.123-4.474,7.684c8.78,1.871,14.403,10.138,19.218,17.065
					c5.159,7.423,9.847,15.935,17.066,21.596c3.8,2.979,10.316-0.832,7.221-5.571c-12.202-18.684-24.864-37.166-39.797-53.802
					c-3.658-4.075-9.461,1.104-7.221,5.571c10.771,21.483,22.725,43.429,40.562,59.931c3.671,3.396,10.413-1.178,7.221-5.571
					c-10.671-14.688-22.394-28.669-35.965-40.774c-4.056-3.618-9.343,0.867-7.221,5.571c7.958,17.643,23.26,30.213,32.947,46.74
					c2.097-2.097,4.193-4.193,6.29-6.29c-7.438-5.12-11.007-15.403-15.586-22.848c-5.992-9.741-13.695-18.306-20.31-27.606
					c-3.445-4.844-10.459-0.75-7.939,4.641c8.692,18.598,21.997,34.863,29.419,54.07c2.562-1.491,5.123-2.982,7.685-4.473
					c-14.405-12.057-26.938-27.807-34.527-45.042c-2.646,1.547-5.293,3.094-7.939,4.641c11.271,17.99,23.279,35.597,38.264,50.735
					c2.167-2.167,4.335-4.334,6.502-6.502c-9.638-7.516-16.247-18.045-26.216-25.238c-3.709-2.677-8.874,2.588-6.29,6.29
					c4.913,7.04,9.76,14.113,15.101,20.84c5.195,6.543,12.07,11.592,17.081,18.238c2.097-2.097,4.193-4.193,6.29-6.29
					c-14.283-8.41-26.662-19.444-37.757-31.696c-3.418-3.774-6.099-8.147-8.443-12.652c-1.998-3.84-5.085-10.245-2.723-14.493
					c-2.407,0.31-4.813,0.621-7.221,0.931c2.186,2.004,2.452,5.233,3.415,7.932c1.467,4.107,7.637,4.65,8.867,0
					c2.783-10.521,4.882-22.335,2.299-33.093c-0.899-3.744-6.617-4.665-8.403-1.098c-6.018,12.017-3.917,27.713-2.927,40.633
					c0.312,4.057,6.564,6.909,8.567,2.32c3.323-7.613,4.335-16.01,4.722-24.248c0.399-8.492-0.082-17.877-3.955-25.602
					c-1.888-3.765-7.256-2.437-8.403,1.098c-3.934,12.128-1.086,24.873-0.164,37.236c0.437,5.844,9.195,5.994,9.195,0
					c0-2.554,0-5.108,0-7.662c-3.011,0.407-6.021,0.815-9.031,1.222c3.052,8.038,7.533,15.483,9.961,23.752
					c2.802-1.181,5.603-2.362,8.403-3.542c-2.334-4.215-5.81-7.49-8.429-11.492c-2.312-3.534-8.972-2.541-8.567,2.32
					c0.152,1.829,0.465,3.025,1.394,4.619c2.982,5.12,10.93,0.494,7.939-4.641c-0.046,0.007-0.092,0.014-0.138,0.021
					c-2.855,0.773-5.712,1.547-8.567,2.32c2.615,3.998,6.106,7.298,8.429,11.492c2.531,4.573,9.873,1.462,8.403-3.542
					c-2.437-8.296-6.906-15.703-9.961-23.752c-1.771-4.667-9.031-4.248-9.031,1.222c0,2.554,0,5.108,0,7.662c3.065,0,6.13,0,9.195,0
					c-0.854-11.444-3.803-23.575-0.164-34.792c-2.802,0.366-5.603,0.732-8.403,1.098c2.933,5.85,2.858,13.228,2.744,19.605
					c-0.123,6.852-0.732,14.598-3.511,20.963c2.855,0.773,5.712,1.547,8.567,2.32c-0.45-5.866-0.821-11.73-0.872-17.616
					c-0.051-5.92-0.175-12.949,2.543-18.376c-2.801-0.366-5.602-0.732-8.403-1.098c2.188,9.11,0.052,19.322-2.299,28.204
					c2.956,0,5.911,0,8.867,0c-1.557-4.359-2.221-8.724-5.78-11.99c-2.134-1.958-5.729-1.751-7.221,0.931
					c-6.3,11.328,3.117,26.286,9.991,35.173c11.168,14.438,26.56,27.021,42.23,36.248c3.714,2.187,9.183-2.454,6.29-6.29
					c-4.834-6.412-11.095-11.46-16.359-17.495c-5.857-6.715-10.731-14.289-15.822-21.583c-2.097,2.097-4.193,4.193-6.29,6.29
					c9.278,6.695,15.349,16.778,24.354,23.801c4.541,3.541,10.794-2.166,6.502-6.502c-14.452-14.599-25.957-31.526-36.826-48.874
					c-3.219-5.137-10.281-0.677-7.939,4.641c7.852,17.83,21.062,34.431,35.965,46.903c3.145,2.632,9.509,0.249,7.685-4.473
					c-7.731-20.006-21.303-36.916-30.347-56.266c-2.646,1.547-5.293,3.094-7.939,4.641c7.116,10.006,15.346,19.223,21.639,29.804
					c5.06,8.508,9.14,18.156,17.556,23.949c3.914,2.694,8.52-2.486,6.29-6.29c-9.687-16.527-24.998-29.116-32.947-46.74
					c-2.407,1.857-4.813,3.714-7.221,5.571c12.98,11.578,24.317,24.859,34.527,38.913c2.407-1.857,4.813-3.714,7.221-5.571
					c-17.277-15.982-28.694-37.265-39.125-58.069c-2.407,1.857-4.813,3.714-7.221,5.571c14.415,16.059,26.581,33.906,38.359,51.94
					c2.407-1.857,4.813-3.714,7.221-5.571c-14.862-11.653-19.815-36.652-40.341-41.026c-4.473-0.953-7.727,4.239-4.474,7.684
					c10.715,11.347,23.646,20.779,37.71,27.537c5.358,2.575,10.375,5.157,8.614,11.664c-1.452,5.367-3.978,12.436-9.38,14.877
					c2.097,0.55,4.193,1.1,6.29,1.649c-1.297-2.497,5.759-11.32,8.745-12.403c-1.939-1.478-3.879-2.956-5.819-4.433
					c-0.312,5.677-6.423,14.499-11.95,16.254c1.94,1.478,3.88,2.956,5.82,4.433c-0.409-5.467,3.169-10.853,7.083-14.372
					c-2.407-1.857-4.813-3.714-7.221-5.571c-1.639,3.167-3.415,5.958-6.178,8.265C57.651,408.962,64.192,415.431,68.71,411.659
					L68.71,411.659z"/>
			</g>
		</g>
		<g>
			<g>
				<path d="M43.424,483.313c-1.315-1.354,1.26-10.008,1.347-12.075c-3.065,0-6.13,0-9.195,0c-0.069,5.885-0.697,11.74-0.767,17.625
					c-0.062,5.312,7.502,6.099,9.031,1.222c1.417-4.522,2.283-9.125,3.065-13.793c0.968-5.778-7.809-8.296-8.867-2.444
					c-0.882,4.883-2.183,9.676-3.065,14.559c3.011,0.407,6.021,0.815,9.031,1.222c-0.84-8.18-1.069-16.446-5.225-23.775
					c-1.96-3.457-7.391-2.73-8.403,1.098c-2.491,9.421-0.91,19.233,1.532,28.497c1.318,4.998,9.168,4.001,9.031-1.222
					c-0.282-10.729-4.473-21.488-9.823-30.672c-2.646,1.547-5.293,3.094-7.939,4.641c3.509,4.674,5.92,10.693,11.611,13.144
					c2.274,0.979,4.945,0.725,6.29-1.649c5.56-9.818-1.688-20.86-6.896-29.16c-2.682-4.274-10.16-1.551-8.403,3.542
					c2.514,7.286,5.872,14.023,10.425,20.254c2.997,4.103,9.68,1.773,8.403-3.542c-2.521-10.497-9.602-18.128-15.021-27.151
					c-2.407,1.857-4.813,3.714-7.221,5.571c6.319,5.788,11.29,12.687,16.856,19.156c3.149,3.661,8.718-0.265,7.685-4.473
					c-2.206-8.976-9.036-15.303-15.74-21.185c-4.438-3.893-10.967,2.584-6.502,6.502c5.455,4.786,11.571,9.786,13.375,17.127
					c2.562-1.491,5.123-2.982,7.685-4.473c-5.566-6.469-10.537-13.368-16.856-19.156c-3.778-3.461-9.988,0.963-7.221,5.571
					c4.97,8.275,11.786,15.343,14.094,24.955c2.802-1.181,5.603-2.362,8.403-3.542c-4.085-5.591-7.238-11.509-9.497-18.058
					c-2.802,1.181-5.603,2.362-8.403,3.542c3.037,4.84,10.256,13.947,6.896,19.879c2.097-0.55,4.193-1.1,6.29-1.649
					c-4.078-1.756-5.774-6.464-8.312-9.845c-3.464-4.613-11.004-0.62-7.939,4.641c4.524,7.765,8.329,16.936,8.567,26.031
					c3.011-0.407,6.021-0.815,9.031-1.222c-2.021-7.66-3.6-15.794-1.532-23.608c-2.802,0.366-5.603,0.732-8.403,1.098
					c3.301,5.823,3.303,12.643,3.969,19.135c0.489,4.766,8.038,6.714,9.031,1.222c0.883-4.883,2.183-9.676,3.065-14.559
					c-2.956-0.815-5.911-1.629-8.867-2.444c-0.782,4.667-1.647,9.271-3.065,13.793c3.011,0.407,6.021,0.815,9.031,1.222
					c0.069-5.885,0.697-11.74,0.767-17.625c0.07-5.951-8.948-5.898-9.195,0c-0.256,6.114-3.602,13.483,1.347,18.577
					C41.06,494.074,47.556,487.566,43.424,483.313L43.424,483.313z"/>
			</g>
		</g>
		<g>
			<g>
				<path d="M126.977,87.812c3.215-8.462-2.731-18.691-11.799-19.324c-9.759-0.681-14.342,10.911-11.366,18.678
					c2.779,7.258,11.448,11.634,17.873,6.14c4.841-4.141,4.937-12.974,2.681-18.365c-3.062-7.318-11.314-10.934-18.694-7.354
					c-7.27,3.526-8.104,12.472-5.252,19.232c2.928,6.942,9.978,12.925,17.917,10.348c7.772-2.523,8.24-12.575,5.708-18.966
					c-3.04-7.673-10.814-11.952-18.479-7.615c-7.517,4.253-5.592,14.67-2.239,20.888c3.441,6.385,11.485,11.508,18.287,6.713
					c6.118-4.313,5.422-12.894,2.923-19.045c-2.397-5.902-7.533-12.925-14.727-12.362c-8.608,0.673-11.468,10.295-10.512,17.568
					c1.215,9.232,11.458,14.407,17.468,5.484c2.372-3.521,3.409-7.847,2.235-11.986c-1.311-4.62-6.853-7.389-11.229-5.342
					c-3.396,1.588-4.764,4.947-5.007,8.495c-0.249,3.63,3.439,9.539,7.596,9.086c8.025-0.875,11.133-14.256,2.777-17.165
					c-8.429-2.935-11.161,8.82-6.604,13.99c6.537,7.416,14.256-3.678,9.253-10.302c-3.525-4.668-11.516-0.095-7.939,4.641
					c0.203,0.263,0.405,0.525,0.608,0.788c6.335-1.675,6.423-2.26,0.265-1.754c0.011,0.315,0.021,0.63,0.031,0.945
					c2.129,0.892,3.229,0.643,3.299-0.745c-0.612,0.039-1.225,0.078-1.838,0.117c0.213,0.375,0.251,0.788,0.114,1.237
					c-0.005,0.864-0.546,1.797-0.938,2.52c-0.836,1.542-0.314,1.62-0.865-0.276c-0.498-1.713-0.281-3.718,0.074-5.437
					c1.498-7.248,7.106,2.748,7.937,5.314c0.569,1.76,1.408,4.998-0.013,6.582c-1.703,1.898-4.619-2.648-5.256-3.706
					c-1.066-1.768-2.9-6.045-1.309-8.027c2.134-2.657,4.78,0.726,5.541,2.645c0.61,1.542,1.752,5.79-0.066,7.004
					c-2.12,1.415-4.954-2.252-5.808-3.626c-1.352-2.176-2.325-5.542-1.088-7.957c1.29-2.519,5.101-1.525,6.608,0.097
					c1.454,1.565,1.642,4.755,1.325,6.726c-0.133,0.829-0.357,2.024-0.89,2.694c-0.428,0.539-0.063,0.564-1.212-0.033
					c-2.704-1.407-3.438-6.341-0.825-8.15c4.039-2.797,5.528,4.634,4.567,7.162C116,90.92,124.892,93.298,126.977,87.812
					L126.977,87.812z"/>
			</g>
		</g>
		<g>
			<g>
				<path d="M428.909,91.441c15.478,1.205,10.139-29.127-5.508-20.77c-10.315,5.51-6.944,24.46,3.13,28.359
					c6.216,2.405,12.565-2.645,15.177-7.989c2.959-6.054,2.338-13.981-2.054-19.195c-4.91-5.83-12.771-5.277-18.676-1.302
					c-5.922,3.986-8.577,11.485-6.45,18.292c2.181,6.982,8.892,10.223,15.804,8.863c7.561-1.488,14.1-9.199,10.742-16.858
					c-2.778-6.337-11.259-9.06-17.298-5.805c-6.931,3.735-9.086,11.852-5.288,18.611c3.224,5.739,10.732,9.298,17.109,7.292
					c7.456-2.346,10.451-11.492,7.117-18.124c-3.053-6.071-11.796-8.689-17.494-4.998c-5.602,3.628-6.999,12.555-1.792,17.08
					c6.559,5.7,16.219,2.322,19.16-5.328c1.89-4.916-0.465-10.678-4.214-13.984c-4.455-3.93-10.092-3.522-14.524,0.054
					c-7.346,5.926-3.159,23.176,7.52,21.265c5.02-0.898,6.704-5.82,7.207-10.254c0.229-2.023-0.057-4.176-0.492-6.149
					c-0.694-3.146-2.841-5.407-4.185-8.237c-2.543-5.354-10.47-0.685-7.939,4.641c1.547,3.256,3.524,5.229,3.47,8.966
					c-0.01,0.684-0.12,1.164-0.279,1.822c-0.261,1.079-0.961,0.782,0.43,0.228c0.804-0.32,0.898,0.356,0.411-0.408
					c-0.421-0.66-0.489-1.542-0.535-2.295c-0.468-7.758,8.155,1.362,2.863,3.163c-1.271,0.433-2.688-0.092-3.018-0.618
					c0.122,0.194,0.07-0.798,0.344-1.41c0.344-0.767,0.882-1.258,1.753-1.129c5.404,0.799,3.965,8.243-1.095,6.86
					c-4.509-1.232-6.946-9.099-0.623-9.257c0.854-0.021,3.437,1.015,3.264,2.248c-0.364,2.591-4.702,4.261-6.975,3.772
					c-5.36-1.154-2.606-8.843,0.383-10.855c5.434-3.658,8.287,1.216,7.918,6.427c-0.129,1.817-1.171,3.516-2.404,4.777
					c-0.276,0.282-1.006,0.916-1.367,1.064c-0.736,0.302-0.469,0.252-1.069,0.082c-0.151-0.043-1.164-1.228-1.735-2.271
					c-0.69-1.26-1.062-2.816-1.195-4.232c-0.126-1.34-0.053-3.051,0.36-3.965c0.534-1.183,0.537-1.165,1.68-1.253
					c0.039-0.003,0.586,1.474,0.624,1.839c0.057,0.522,0.097,1.464-0.085,1.874c-0.427,0.963,1.053,0.009-0.17-0.086
					C422.993,81.786,423.038,90.984,428.909,91.441L428.909,91.441z"/>
			</g>
		</g>
	</g>
</g>
</svg>
