<?xml version="1.0" encoding="utf-8"?>
<!-- Generator: Adobe Illustrator 16.0.0, SVG Export Plug-In . SVG Version: 6.00 Build 0)  -->
<!DOCTYPE svg PUBLIC "-//W3C//DTD SVG 1.0//EN" "http://www.w3.org/TR/2001/REC-SVG-20010904/DTD/svg10.dtd">
<svg version="1.0" id="Capa_1" xmlns="http://www.w3.org/2000/svg" xmlns:xlink="http://www.w3.org/1999/xlink" x="0px" y="0px"
	 width="578.971px" height="325.483px" viewBox="0 0 578.971 325.483" enable-background="new 0 0 578.971 325.483"
	 xml:space="preserve">
<g>
	<g>
		<path fill="#FFFFFF" d="M430.193,244.673c21.841-31.721,14.312-72.955,18.202-110.244c1.022-9.827,1.559-13.001,11.959-13.521
			c7.799-0.519,17.161,0.52,24.44,3.12c17.163,6.758,21.842,26.002,43.162,24.961c34.842-1.56,57.201-49.4,29.642-74.363
			c-11.962-10.922-29.122-16.639-45.24-11.96c-7.282,2.081-15.082,6.239-19.243,13c-3.641,6.239-2.078,16.642-6.24,22.359
			c-2.6,4.162-16.121,8.322-21.318,5.204c-3.643-2.604-2.082-8.322-8.841-9.363c-4.682-0.519-9.882,4.159-13.001,6.76
			c0-5.719-3.119-10.92-9.882-10.398c-6.759,0.521-8.321,6.762-10.921,11.96c-3.641-9.361-6.76-5.198-11.438,0
			c-3.639,3.12-1.562,3.639-6.239,4.681c-2.081,1.04-5.723,0-8.32,0c-11.962,0.52-24.963,1.04-37.441,2.601
			c-1.561,4.159-3.643,8.839-3.121,12.999c1.561,7.8,6.24,4.68,9.88,8.318c3.641,4.162,1.042,10.923,8.319,11.965
			c6.762,0.517,8.322-7.283,10.401-11.441c8.841,19.759,16.642-15.604,27.04,3.119c6.762,11.96,6.762,27.042,4.16,40.041
			c-3.119,13.521-8.317,25.483-13.52,38.482c-2.08,5.72-4.682,11.961-5.199,18.201c-1.562,10.919,2.601,8.84,11.438,10.919
			c7.281,1.56,14.562,4.159,21.842,1.56"/>
	</g>
	<path fill="#FFFFFF" d="M17.054,169.194c-6.062,21.219-6.821,41.681,10.61,56.08c21.221,17.431,50.775,21.219,77.301,24.252
		c17.428,1.516,34.857,1.516,52.29,0.756c2.272,0,9.851-2.272,12.123-0.756c4.548,4.548-1.513,9.095,0,12.884
		c4.548,9.85,34.102,22.733,45.472,23.489c12.125,2.275,20.463-5.303,31.072-11.365c13.643-7.576,28.039-8.338,43.193-12.124
		c20.467-4.55,40.167-9.853,60.631-12.128c9.094-0.756,38.65,4.549,46.227-3.031c4.547-5.305,1.518-19.703-0.758-25.008
		c-11.367-36.377-36.375-78.816-66.688-103.066c-9.854-8.335-21.221-15.915-31.832-23.494c-6.062-4.547-29.556-12.882-28.799-22.731
		c0-4.55,15.916-15.159,18.947-21.981c3.789-9.851,3.789-20.463,3.789-31.07c-25.007-6.82-68.963,20.465-79.573,43.197
		c-12.123-13.642-27.282-25.765-47.743-27.283c-22.736-1.514-12.884,38.65-2.273,50.774c-21.221,20.463-30.275,51.37-61.348,62.739
		C81.508,156.146,33.725,162.88,17.054,169.194"/>
	<path d="M249.961,68.849c-17.055-6.476-36.48-5.01-53.869-0.686c-17.288,4.299-32.668,12.361-44.346,25.98
		c-11.576,13.503-19.64,29.753-33.092,41.66c-15.465,13.686-37.76,18.576-57.434,22.573c-8.842,1.795-17.499,3.1-26.475,3.876
		c-6.839,0.592-14.213,1.604-19.504,6.369c-5.854,5.268-6.508,16.302-6.318,23.588c0.238,9.093,3.496,17.91,8.652,25.335
		c10.766,15.511,29.083,22.812,47.06,25.708c21.956,3.535,44.538,5.326,66.746,5.93c12.221,0.331,24.471,0.07,36.658-0.91
		c11.794-0.948,23.361-3.651,34.771-6.676c12.148-3.22,24.107-7.49,36.781-7.738c11.959-0.235,23.814,1.479,35.631-1.2
		c2.382-0.54,1.371-4.193-1.007-3.655c-11.872,2.692-24.001,0.857-36.03,1.095c-11.557,0.226-22.639,4.12-33.691,7.123
		c-11.518,3.128-23.129,5.915-35.023,7.132c-12.131,1.24-24.438,1.316-36.618,1.076c-22.729-0.451-45.864-2.392-68.318-6.01
		c-19.457-3.133-38.661-12.239-47.751-30.68c-4.58-9.287-5.082-20.055-2.53-29.975c1.085-4.215,2.69-7.316,6.553-9.496
		c3.576-2.02,8.04-2.593,12.048-3.041c8.297-0.934,16.329-1.672,24.559-3.249c10.236-1.962,20.425-4.204,30.387-7.292
		c9.43-2.928,18.877-6.754,27.127-12.246c7.316-4.877,13.326-11.415,18.701-18.309c10.934-14.033,19.439-30.458,34.31-40.903
		c11.122-7.811,24.979-11.985,38.222-14.342c14.074-2.503,29.296-2.511,42.799,2.615C251.241,73.37,252.225,69.707,249.961,68.849
		L249.961,68.849z"/>
	<path d="M274.213,233.67c15.168-2.804,30.787,2.13,43.99,9.424c6.879,3.804,13.209,8.555,18.867,14.004
		c4.98,4.796,10.256,10.779,12.861,17.285c3.564,8.885,6.572,19.128,6.226,28.759c-0.118,3.312-2.852,10.972-7.272,6.501
		c-3.482-3.522-3.195-10.602-4.132-15.151c-1.218,0.337-2.437,0.674-3.653,1.008c0.951,2.947,1.703,5.969,1.806,9.075
		c0.058,1.754-1.585,5.385-3.499,2.847c-1.09-1.449-1.461-3.596-1.222-5.353c-1.241-0.169-2.481-0.337-3.722-0.505
		c-0.029,2.396-0.252,4.851-1.332,7.029c-0.739,1.492-2.093,1.785-3.6,1.133c-1.525-0.664-1.82-3.066-1.998-4.465
		c-0.705-5.508-0.922-10.511-2.756-15.873c-3.868-11.32-12.102-20.372-23.255-24.761c-11.437-4.497-24.748-4.88-36.833-4.002
		c-12.141,0.882-24.921,3.509-35.387,10.001c-2.068,1.284-0.168,4.562,1.914,3.27c11.469-7.116,25.707-9.323,38.982-9.773
		c13.045-0.441,28.477,0.837,39.113,9.176c5.276,4.136,9.037,9.94,11.457,16.13c1.266,3.235,2.256,6.778,2.649,10.233
		c0.296,2.6,0.192,5.194,0.649,7.783c0.725,4.133,4.882,7.944,9.238,5.974c4.293-1.942,4.892-7.718,4.944-11.854
		c0.026-2.086-3.429-2.654-3.722-0.504c-0.52,3.796,2.316,14.507,8.326,10.676c5.939-3.782,3.688-11.693,1.897-17.244
		c-0.752-2.332-4.146-1.38-3.653,1.008c1.106,5.374,1.031,11.873,4.695,16.328c3.143,3.815,8.871,3.549,11.768-0.461
		c3.162-4.378,2.617-10.652,1.957-15.691c-0.811-6.171-2.453-12.227-4.419-18.122c-4.648-13.936-15.655-24.797-27.47-33.049
		c-14.053-9.811-31.743-16.547-49.073-15.233c-1.796,0.136-3.585,0.418-5.353,0.746C270.805,230.457,271.824,234.112,274.213,233.67
		L274.213,233.67z"/>
	<path d="M166.727,148.733c0.512,9.395,6.447,15.602,16.092,14.762c8.771-0.762,17.713-6.319,22.299-13.808
		c1.281-2.088-1.995-3.991-3.27-1.91c-6.395,10.432-30.293,20.006-31.33,0.956C170.383,146.304,166.592,146.29,166.727,148.733
		L166.727,148.733z"/>
	<path d="M11.924,190.995c6.168,5.594,13.5,6.301,19.143-0.347c4.986-5.872,7.479-14.61,7.587-22.213
		c0.033-2.442-3.757-2.44-3.792,0c-0.143,10.037-7.686,31.282-20.26,19.88C12.8,186.679,10.111,189.353,11.924,190.995
		L11.924,190.995z"/>
	<path d="M209.369,67.47c10.932-11.617,22.363-22.875,35.707-31.725c13.684-9.074,29.109-14.608,45.303-17.05
		c-0.777-0.441-1.555-0.882-2.33-1.323c2.414,10.303-0.88,22.281-4.33,31.963c-3.334,9.355-9.404,22.336-20.113,24.819
		c-2.381,0.552-1.371,4.203,1.007,3.654c11.644-2.701,18.153-15.647,22.128-25.773c4.182-10.659,7.645-24.22,4.961-35.67
		c-0.253-1.092-1.342-1.472-2.33-1.323c-16.568,2.498-32.154,8.288-46.205,17.432c-13.666,8.892-25.354,20.498-36.476,32.314
		C205.016,66.567,207.691,69.251,209.369,67.47L209.369,67.47z"/>
	<path d="M211.438,66.128c-1.305-11.546-14.58-17.603-23.955-21.588c-11.408-4.847-23.486-7.645-35.031-12.068
		c-1.127-0.43-2.455,0.672-2.396,1.828c0.488,9.495-0.57,19.013-0.125,28.521c0.371,8.01,1.434,18.27,8.258,23.593
		c1.901,1.484,4.605-1.179,2.68-2.68c-6.77-5.281-7.025-15.959-7.259-23.779c-0.253-8.551,0.674-17.116,0.235-25.655
		c-0.799,0.611-1.601,1.218-2.398,1.826c10.273,3.937,21.006,6.552,31.27,10.539c8.29,3.216,23.744,8.94,24.936,19.463
		C207.922,68.527,211.713,68.555,211.438,66.128L211.438,66.128z"/>
	<path d="M265.428,80.646c26.996,16.319,55.211,31.8,77.244,54.807c12.041,12.575,21.074,28.101,29.251,43.372
		c8.091,15.107,15.213,30.713,23.173,45.889c1.137,2.166,4.404,0.25,3.27-1.91c-15.859-30.24-28.654-63.72-52.167-89.127
		c-22.077-23.862-51.354-39.674-78.858-56.301C265.242,76.107,263.34,79.386,265.428,80.646L265.428,80.646z"/>
	<path d="M85.939,156.389c3.566,2.945,4.429,7.203,5.228,11.546c0.786,4.229,1.696,8.18,3.802,11.97
		c4.246,7.655,12.231,13.046,19.627,17.3c17.326,9.971,37.571,14.702,57.51,14.076c9.352-0.294,19.072-1.828,27.415-6.24
		c9.081-4.799,12.437-14.339,19.54-21.095c7.572-7.2,20.629-6.299,30.121-8.701c8.836-2.235,17.131-7.264,24.006-13.134
		c19.592-16.731,24.714-43.332,16.494-67.184c-0.791-2.294-4.451-1.309-3.654,1.008c7.08,20.545,4.068,42.414-10.658,58.761
		c-6.73,7.478-15.463,12.86-24.898,16.209c-9.304,3.301-19.416,2.612-28.532,6.739c-9.381,4.249-12.61,14.777-20.032,21.242
		c-7.838,6.825-19.863,8.165-29.801,8.607c-20.783,0.924-41.881-4.859-59.468-15.888c-7.133-4.467-14.032-10.408-16.561-18.7
		c-2.05-6.729-1.546-14.312-7.456-19.196C86.753,152.165,84.057,154.83,85.939,156.389L85.939,156.389z"/>
	<path d="M168.309,247.506c-0.695,2.794-1.377,5.597-2.273,8.337c-0.76,2.331,2.9,3.318,3.656,1.007
		c0.891-2.737,1.576-5.543,2.271-8.336C172.559,246.142,168.902,245.138,168.309,247.506L168.309,247.506z"/>
	<path d="M257.038,233.736c22.226-0.188,44.262-9.501,63.813-19.322c19.629-9.861,40.465-23.28,49.477-44.265
		c0.951-2.218-2.311-4.15-3.271-1.911c-8.656,20.153-28.346,32.751-47.1,42.388c-19.113,9.816-41.089,19.138-62.919,19.322
		C254.596,229.968,254.592,233.758,257.038,233.736L257.038,233.736z"/>
	<path d="M313.116,239.8c14.336-1.205,28.511-7.758,40.743-14.973c11.846-6.987,25.828-17.252,29.29-31.384
		c0.581-2.374-3.073-3.378-3.651-1.009c-3.238,13.209-16.589,22.533-27.553,29.12c-11.519,6.922-25.254,13.312-38.829,14.454
		C310.699,236.214,310.682,240.005,313.116,239.8L313.116,239.8z"/>
	<path d="M310.768,229.644c2.566,2.882,9.16,1.206,7.861-3.273c-1.302-4.481-8.002-2.433-8.602,1.434
		c-0.16,1.019,0.243,2.03,1.322,2.329c0.906,0.25,2.172-0.304,2.33-1.322c0.026-0.175,0.066-0.334,0.122-0.502
		c-0.122,0.363,0.12-0.122,0.149-0.171c-0.199,0.293,0.188-0.147,0.204-0.163c-0.194,0.181,0.318-0.198,0.396-0.245
		c0.487-0.273-0.284,0.078,0.235-0.092c0.117-0.033,0.232-0.061,0.353-0.084c-0.216,0.029-0.214,0.037,0.012,0.025
		c0.503-0.01-0.326-0.102,0.137,0.042c-0.117-0.018-0.214-0.071-0.296-0.159c0.149,0.151,0.154,0.158,0.018,0.02
		c-0.172-0.278,0.029,0.303,0.012,0.002c0.008-0.113,0.045-0.217,0.113-0.305c-0.107,0.182-0.104,0.182,0.019-0.008
		c0.3-0.324-0.243,0.094,0.126-0.059c-0.075,0.034-0.737,0.169-0.396,0.13c-0.192,0.022-0.388,0.016-0.579,0.014
		c-0.236-0.021-0.256-0.018-0.072,0.009c-0.123-0.021-0.244-0.046-0.366-0.078c-0.058-0.013-0.575-0.229-0.208-0.057
		c-0.094-0.047-0.186-0.104-0.274-0.164c0.183,0.143,0.202,0.143,0.062,0C311.814,225.139,309.143,227.829,310.768,229.644
		L310.768,229.644z"/>
	<path d="M313.564,230.579c1.297,3.78,5.213,6.06,8.715,3.309c1.283-1.003,2.016-2.659,1.686-4.281
		c-0.459-2.244-2.566-3.409-4.537-4.138c-0.164,1.241-0.334,2.482-0.502,3.72c2.5,0.018,5.621-0.33,6.984-2.755
		c1.125-1.996,0.133-4.271-1.229-5.841c-1.324-1.525-3.57-2.633-5.611-2.389c-2.84,0.341-4.389,2.689-5.004,5.305
		c1.241,0.167,2.482,0.334,3.723,0.504c-0.113-2.374-1.018-4.725-3.514-5.396c-2.078-0.557-4.388,0.442-6.029,1.651
		c-1.617,1.186-3.229,2.91-3.238,5.037c-0.014,2.71,2.889,3.537,5.076,3.633c2.451,0.104,2.424-3.65,0-3.79
		c-3.771-0.224-8.825,1.644-7.521,6.356c1.277,4.615,7.156,4.908,10.807,3.427c2.232-0.905,1.256-4.571-1.009-3.654
		c-1.827,0.741-4.819,1.454-6.065-0.612c-0.271-0.45,0.253-0.74,0.636-1.122c0.824-0.835,2.092-0.665,4.092-0.604
		c0-1.266,0-2.527,0-3.79c-2-0.02-1.682-0.145-1.85-0.228c-0.129-0.067-0.128,0.204-0.161,0.422
		c0.096-0.571,0.681-1.374,1.454-1.945c0.902-0.663,1.902-1.137,2.78-1.133c0.186,0,0.304,0.037,0.343,0.089
		c0.363,0.47,0.398,1.075,0.426,1.659c0.098,2.071,3.21,2.659,3.716,0.503c0.16-0.687,0.327-1.454,0.787-2.013
		c0.282-0.338,0.638-0.52,0.764-0.533c0.873-0.107,1.692,0.319,2.409,0.981c0.417,0.386,0.579,0.631,0.845,1.161
		c0.061,0.117,0.082,0.394,0.045,0.529c0.043-0.157,0.01-0.008-0.104,0.108c0.104-0.108-0.338,0.22-0.385,0.238
		c-1,0.409-2.102,0.419-3.166,0.411c-2.247-0.012-2.434,3.004-0.504,3.722c1.217,0.45,2.391,1.015,1.375,1.933
		c-1.16,1.057-2.256-0.537-2.58-1.482C316.428,227.273,312.766,228.26,313.564,230.579L313.564,230.579z"/>
	<path d="M347.098,210.819c0.547,0.979,1.629,1.926,2.834,1.781c1.055-0.125,2.086-0.681,2.529-1.701
		c0.455-1.049,0.549-2.439-0.447-3.25c-1.119-0.903-2.482-0.848-3.781-0.37c-0.971,0.356-1.615,1.275-1.322,2.331
		c0.254,0.936,1.357,1.678,2.326,1.324c0.199-0.075,0.399-0.139,0.602-0.19c0.074-0.02,0.149-0.035,0.227-0.049
		c0.311-0.065-0.584,0.055-0.174,0.021c0.225-0.018,0.699,0.083-0.082-0.049c0.045,0.008,0.086,0.019,0.127,0.033
		c0.24,0.07-0.543-0.267-0.276-0.112c0.204,0.116-0.444-0.367-0.272-0.213c0.213,0.193-0.318-0.448-0.195-0.256
		c0.083,0.129,0.145,0.424-0.14-0.339c0.007,0.019,0.013,0.04,0.017,0.062c0.037,0.175,0.02,0.039-0.05-0.409
		c0.004,0.034,0.004,0.065,0.004,0.101c0.002,0.299,0.091-0.575,0.048-0.335c-0.032,0.188-0.213,0.551,0.105-0.179
		c-0.037,0.08-0.08,0.152-0.13,0.229c-0.134,0.196,0.358-0.449,0.206-0.266c-0.033,0.039-0.07,0.074-0.107,0.107
		c-0.115,0.108-0.33,0.24,0.266-0.202c-0.037,0.029-0.08,0.054-0.122,0.081c-0.14,0.074-0.385,0.135,0.315-0.132
		c-0.043,0.016-0.09,0.027-0.139,0.037c0.656-0.136,0.539-0.06,0.359-0.053c-0.311,0.01,0.559,0.094,0.315,0.045
		c-0.383-0.075,0.501,0.278,0.147,0.061c-0.219-0.132,0.434,0.354,0.23,0.181c-0.055-0.047-0.104-0.1-0.152-0.153
		c-0.189-0.21,0.316,0.431,0.146,0.19c-0.05-0.077-0.098-0.156-0.141-0.235c-0.504-0.901-1.716-1.196-2.594-0.682
		C346.875,208.757,346.592,209.922,347.098,210.819L347.098,210.819z"/>
	<path d="M346.594,212.446c-1.96,3.763-1.96,10.497,3.615,10.579c5.871,0.087,6.263-8.292,3.699-11.843
		c-0.994,0.766-1.987,1.531-2.977,2.295c3.843,3.845,8.855,2.029,9.412-3.399c0.695-6.75-5.615-7.253-10.039-4.122
		c-1.968,1.393-0.268,4.459,1.914,3.271c4.367-2.38,5.486-10.316-0.207-11.771c-6.506-1.656-8.588,6.503-4.87,10.465
		c0.28-1.054,0.558-2.11,0.838-3.167c-3.939,0.644-9.381,1.954-8.649,7.131c0.707,5.024,5.115,5.599,9.098,3.659
		c2.197-1.069,0.273-4.337-1.911-3.272c-3.002,1.462-4.894-1.74-1.651-2.992c1.294-0.504,2.759-0.647,4.12-0.871
		c1.484-0.24,1.72-2.225,0.835-3.166c-1.869-1.992,0.447-5.842,2.053-3.68c1.06,1.434-0.309,3.707-1.568,4.395
		c0.637,1.089,1.275,2.18,1.914,3.271c1.533-1.083,4.316-3.021,4.394,0.046c0.062,2.456-1.246,3.283-3.003,1.526
		c-1.482-1.483-4.264,0.511-2.975,2.298c0.9,1.247,2.037,5.255-0.13,6.057c-2.32,0.857-1.024-4.062-0.64-4.796
		C350.992,212.193,347.725,210.278,346.594,212.446L346.594,212.446z"/>
	<path d="M369.625,187.308c-0.168,0.166-0.338,0.335-0.504,0.503c-0.731,0.73-0.731,1.948,0,2.681c0.729,0.73,1.949,0.73,2.678,0
		c0.167-0.168,0.338-0.338,0.506-0.507c0.729-0.729,0.729-1.95,0-2.677C371.576,186.575,370.355,186.579,369.625,187.308
		L369.625,187.308z"/>
	<path d="M368.824,190.47c-1.625,3.719-2.219,10.535,3.204,11.029c6.513,0.595,4.146-8.63,1.792-11.414
		c-0.893,0.894-1.786,1.787-2.68,2.679c5.808,4.544,12.918-1.817,11.248-8.411c-0.738-2.921-3.328-4.499-6.17-3.967
		c-3.207,0.596-4.779,4.456-5.129,7.249c-0.172,1.392,1.754,2.416,2.852,1.636c5.402-3.828,2.893-13.279-4.299-12.291
		c-7.68,1.055-10.475,12.041-1.707,13.746c0.167-1.241,0.334-2.48,0.501-3.722c-4.31,0.17-8.975,2.896-7.982,7.893
		c0.919,4.632,5.467,4.988,8.564,2.162c1.812-1.651-0.874-4.322-2.679-2.679c-1.035,0.943-2.049,1.265-2.208-0.445
		c-0.224-2.404,2.448-3.067,4.305-3.143c2.057-0.083,2.685-3.297,0.505-3.72c-4.025-0.785-3.119-4.105-0.307-5.885
		c3.203-2.024,6.494,2.616,3.394,4.812c0.951,0.544,1.901,1.09,2.851,1.635c0.311-2.488,3.721-5.568,4.045-1.208
		c0.176,2.363-2.762,5.49-5.104,3.658c-1.905-1.488-4.286,0.78-2.68,2.679c0.551,0.652,2.436,4.509,1.086,4.917
		c-1.373,0.419-0.359-4.777-0.131-5.301C373.061,190.165,369.797,188.232,368.824,190.47L368.824,190.47z"/>
	<path d="M25.889,179.244c0.695-1.309,1.457-2.554,2.273-3.787c-1.09-0.64-2.182-1.276-3.27-1.913
		c-2.244,3.424-3.092,6.885-2.465,10.932c0.138,0.896,1.053,1.291,1.825,1.391c6.774,0.897,10.45-7.2,10.229-12.883
		c-0.046-1.129-0.838-1.765-1.893-1.895c-7.309-0.899-12.475,9.978-10.922,16.04c0.193,0.756,1.01,1.468,1.826,1.389
		c5.561-0.524,10.128-6.911,9.305-12.298c-0.975-6.39-8.528-4.709-11.729-1.65c-3.275,3.134-6.607,10.096-3.082,14.156
		c3.963,4.562,8.813,1.065,11.148-3.17c2.662-4.824,3.03-11.213-1.641-14.797c-4.895-3.751-10.327,1.977-12.509,5.926
		c-2.673,4.842-3.612,11.383,1.204,15.094c5.029,3.878,11.33-2.665,13.86-6.407c2.967-4.388,4.363-15.411-3.512-15.697
		c-7.162-0.261-11.933,8.049-10.497,14.425c1.65,7.335,11.002,5.902,14.751,1.443c2.492-2.963,3.11-7.103,1.414-10.568
		c-1.729-3.52-6.228-3.951-9.595-3.438c0.334,1.216,0.67,2.436,1.008,3.652c3.854-0.883,7.623-1.984,11.061-3.979
		c1.715-0.993,0.859-3.405-0.957-3.531c-3.783-0.261-7.222,0.483-10.43,2.532c-1.87,1.197-0.627,3.852,1.461,3.465
		c3.498-0.65,6.406-2.427,8.791-5.035c0.967-1.057,0.572-2.746-0.836-3.167c-5.603-1.673-12.871,0.79-14.832,6.628
		c-0.354,1.05,0.402,1.979,1.324,2.331c4.211,1.608,8.276-0.589,10.475-4.282c0.588-0.985,0.08-2.553-1.133-2.783
		c-10.052-1.89-19.172,16.206-6.6,17.293c4.162,0.358,7.332-4.291,8.43-7.697c1.279-3.98-1.502-7.02-5.49-5.426
		c-1.832,0.733-1.799,3.884,0.504,3.72c4.791-0.335,8.898-3.12,11.11-7.378c-1.153-0.486-2.31-0.974-3.462-1.461
		c-0.613,1.866-0.813,3.756-1.139,5.684c-0.326,1.95,2.528,3.572,3.463,1.459c0.392-0.878,0.748-1.771,1.138-2.651
		c-1.153-0.488-2.31-0.973-3.462-1.461c-0.795,2.194-1.834,4.122-3.221,5.99c-1.46,1.963,1.834,3.851,3.271,1.913
		c1.59-2.138,2.698-4.398,3.602-6.896c0.729-2.011-2.595-3.419-3.463-1.459c-0.391,0.879-0.746,1.772-1.135,2.651
		c1.152,0.488,2.307,0.975,3.459,1.46c0.324-1.927,0.527-3.817,1.139-5.683c0.67-2.041-2.473-3.363-3.463-1.459
		c-1.57,3.024-4.348,5.257-7.838,5.502c0.168,1.24,0.339,2.482,0.504,3.721c0.659-0.262,1.041-0.324,1.014-0.579
		c0.098,0.814-0.268,1.716-0.596,2.438c-0.779,1.726-2.322,3.726-4.365,3.823c-3.473,0.168-2.447-3.92-1.428-5.63
		c1.302-2.17,4.314-4.729,7.02-4.22c-0.375-0.927-0.753-1.854-1.13-2.782c-1.387,2.327-3.529,3.558-6.198,2.538
		c0.44,0.777,0.883,1.555,1.323,2.331c1.299-3.86,6.683-5.024,10.175-3.982c-0.28-1.054-0.559-2.107-0.836-3.165
		c-1.996,2.181-4.209,3.518-7.121,4.061c0.486,1.154,0.972,2.307,1.459,3.463c2.692-1.719,5.359-2.235,8.516-2.016
		c-0.318-1.177-0.637-2.356-0.957-3.531c-3.158,1.833-6.62,2.789-10.154,3.6c-2.432,0.556-1.348,4.011,1.008,3.652
		c8.683-1.32,6.234,10.361-0.743,10.403c-3.058,0.018-3.601-3.31-3.241-5.664c0.403-2.64,2.648-5.261,5.1-6.224
		c2.992-1.178,3.897,1.823,4.064,4.205c0.179,2.566-1.674,5.263-3.195,7.16c-1.469,1.83-3.588,3.797-6.041,3.928
		c-3.318,0.175-3.163-4.4-2.748-6.467c0.66-3.28,4.354-11.115,8.768-8.499c4.213,2.496,0.637,10.842-2.379,12.847
		c-2.203,1.465-3.02-2.007-2.773-3.495c0.426-2.543,2.004-4.876,3.828-6.622c1.818-1.736,4.922-1.895,4.922,1.368
		c0,2.477-3.178,6.364-5.688,6.601c0.607,0.464,1.217,0.929,1.828,1.391c-0.997-3.898,2.56-11.822,7.268-11.244
		c-0.631-0.63-1.266-1.262-1.895-1.893c0.144,3.732-1.791,9.712-6.442,9.095c0.608,0.464,1.218,0.926,1.827,1.39
		c-0.465-3.016,0.46-5.532,2.082-8.011c1.346-2.057-1.932-3.938-3.27-1.913c-0.822,1.236-1.582,2.477-2.275,3.789
		C21.473,179.489,24.744,181.404,25.889,179.244L25.889,179.244z"/>
	<path d="M199.138,67.725c-3.799-3.409-8.284-5.524-13.001-7.362c-5.891-2.296-12.061-5.24-18.149-6.86
		c-0.776-0.206-1.767,0.112-2.139,0.87c-2.003,4.098-1.545,8.393-0.933,12.77c0.557,3.986,1.477,8.264,5.404,10.189
		c2.182,1.074,4.103-2.193,1.911-3.271c-4.712-2.311-5.085-13.734-3.11-17.773c-0.713,0.291-1.426,0.578-2.139,0.869
		c4.999,1.332,9.857,3.865,14.746,5.617c5.238,1.881,10.527,3.858,14.729,7.631C198.27,72.033,200.959,69.36,199.138,67.725
		L199.138,67.725z"/>
	<path d="M224.633,65.682c8.047-1.516,12.793-9.157,19.113-13.616c8.549-6.034,18.818-9.314,29.012-11.204
		c-0.777-0.776-1.551-1.553-2.328-2.329c-4.006,10.166-11.32,18.535-17.24,27.586c-1.344,2.053,1.941,3.95,3.271,1.914
		c6.129-9.371,13.478-17.971,17.619-28.495c0.584-1.47-1.068-2.563-2.326-2.327c-9.379,1.736-18.443,4.728-26.707,9.525
		c-3.743,2.174-6.932,4.872-10.041,7.851c-3.312,3.17-6.708,6.562-11.377,7.441C221.232,62.479,222.248,66.13,224.633,65.682
		L224.633,65.682z"/>
	<path d="M19.582,216.997c10.949,4.047,22.197,7.505,33.938,7.983c11.775,0.478,22.797-3.321,32.07-10.493
		c1.932-1.491-0.771-4.152-2.68-2.678c-18.855,14.578-41.807,9.114-62.32,1.533C18.293,212.495,17.309,216.158,19.582,216.997
		L19.582,216.997z"/>
	<path d="M326.699,313.688c0.299,0.964,0.311,1.878,0.311,2.905c0.002,1.032,0.859,1.895,1.896,1.895
		c1.034,0,1.896-0.862,1.896-1.895c-0.004-1.316-0.055-2.645-0.448-3.913c-0.306-0.986-1.312-1.604-2.331-1.325
		C327.051,311.624,326.393,312.701,326.699,313.688L326.699,313.688z"/>
	<path d="M338.257,311.468c-0.548,1.167-0.636,2.34-0.636,3.611c0,1.032,0.861,1.896,1.895,1.896c1.035,0,1.893-0.864,1.893-1.896
		c0-0.415,0.004-0.827,0.027-1.24c0.021-0.223,0.016-0.203-0.016,0.053c0.014-0.096,0.031-0.189,0.055-0.285
		c0.023-0.108,0.26-0.656,0.053-0.224c0.441-0.935,0.27-2.037-0.678-2.593C340.019,310.304,338.697,310.537,338.257,311.468
		L338.257,311.468z"/>
	<path d="M349.365,313.184c0,0.36-0.006,0.716-0.025,1.076c-0.008,0.112-0.018,0.221-0.029,0.335c0.031-0.227,0.029-0.229-0.01-0.01
		c-0.021,0.104-0.249,0.717-0.055,0.296c-0.432,0.938-0.276,2.032,0.68,2.59c0.822,0.485,2.16,0.263,2.592-0.678
		c0.529-1.154,0.639-2.353,0.639-3.609c0-1.034-0.863-1.896-1.896-1.896S349.368,312.149,349.365,313.184L349.365,313.184z"/>
	<g>
		<g>
			<path d="M398.081,235.312c3.242-27.865,22.312-51.556,21.305-80.229c-0.503-14.296-8.462-27.013-9.598-41.2
				c-0.18-2.233,2.176-20.085,6.512-16.622c3.646,2.911,4.318,9.792,4.402,14.026c0.044,2.188,3.25,2.674,3.83,0.519
				c1.658-6.157,2.077-15.447,8.104-19.1c4.982-3.021,7.386,2.957,7.242,6.643c-0.129,3.295-1.493,6.688-3.308,9.396
				c-1.413,2.108,1.938,3.998,3.367,1.969c3.257-4.624,6.312-9.646,10.87-13.129c2.878-2.198,5.501-2.16,8.087,0.452
				c3.278,3.312-0.349,7.316-2.659,9.792c-3.977,4.263-6.975,7.461-9.009,13.072c-2.74,7.557-2.896,16.062-3.137,23.997
				c-0.482,15.905-1.616,31.848-2.566,47.738c-0.979,16.386-2.942,33.426-11.195,47.933c-1.246,2.189,2.124,4.154,3.367,1.969
				c8.885-15.617,10.771-33.874,11.823-51.49c1.143-19.107,1.354-38.393,3.099-57.445c0.484-5.283,1.632-10.521,3.886-15.34
				c1.437-3.074,4.167-5.285,6.49-7.676c3.679-3.783,7.271-9.371,3.407-14.345c-9.485-12.212-20.622,5.109-25.83,12.503
				c1.122,0.656,2.245,1.312,3.367,1.969c4.48-6.688,6.961-20.59-3.911-22.309c-11.32-1.791-13.259,14.952-15.254,22.364
				c1.276,0.173,2.553,0.346,3.83,0.519c-0.102-5.124-3.277-23.021-12.201-17.479c-4.585,2.848-5.949,10.812-6.478,15.604
				c-0.925,8.401,2.225,17.119,4.771,24.965c2.74,8.443,4.984,16.502,4.835,25.463c-0.151,9.04-2.702,17.879-5.691,26.34
				c-5.767,16.325-13.63,31.713-15.657,49.132C393.891,237.807,397.794,237.779,398.081,235.312L398.081,235.312z"/>
		</g>
	</g>
	<g>
		<g>
			<path d="M364.151,110.826c14.181,2.396,27.997-1.806,42.12-2.528c2.502-0.128,2.515-4.029,0-3.9
				c-13.695,0.701-27.347,4.988-41.083,2.669C362.729,106.65,361.676,110.408,364.151,110.826L364.151,110.826z"/>
		</g>
	</g>
	<g>
		<g>
			<path d="M465.034,105.18c7.658-0.121,15.224-1.44,22.882-1.562c0.955-0.015,2.093-0.882,1.95-1.95
				c-1.482-11.114,0.545-22.181,8.416-30.542c7.356-7.815,18.378-10.454,28.761-9.84C545.9,62.4,560.955,74.78,565.455,92.995
				c3.771,15.262-0.348,32.722-11.151,44.218c-5.62,5.98-13.078,9.579-21.109,10.938c-12.511,2.117-23.971-2.129-32.166-11.69
				c-2.633-3.07-4.672-6.54-7.77-9.197c-2.988-2.562-7.148-4.082-10.936-4.907c-10.376-2.261-21.313-3.736-31.846-1.771
				c-2.471,0.462-1.421,4.221,1.037,3.762c7.273-1.358,14.709-0.762,21.979,0.321c6.07,0.903,12.925,1.851,17.744,5.984
				c3.861,3.311,6.384,8.112,9.951,11.755c3.733,3.812,8.35,6.527,13.348,8.307c15.859,5.645,34.486-0.812,44.906-13.448
				c19.051-23.104,13.662-63.939-15.577-75.893c-13.79-5.638-30.052-5.908-42.822,2.412c-12.661,8.249-16.991,23.521-15.077,37.882
				c0.65-0.65,1.301-1.3,1.95-1.95c-7.658,0.121-15.224,1.44-22.882,1.562C462.521,101.319,462.518,105.22,465.034,105.18
				L465.034,105.18z"/>
		</g>
	</g>
	<g>
		<g>
			<path d="M411.474,126.758c-4.513,0.059-9.01,0.461-13.522,0.52c-0.854,0.012-1.668,0.585-1.88,1.432
				c-0.674,2.68-0.908,5.482-2.189,7.971c-1.552,3.012-5.093,1.588-5.955-0.653c-0.566-1.476-0.364-3.22-0.055-4.722
				c0.318-1.537-0.899-2.662-2.398-2.398c-3.469,0.608-5.923,2.018-6.888,5.523c-0.718,2.608-0.581,4.281-3.667,5.335
				c-3.764,1.285-4.554-5.295-4.207-7.42c0.164-1.002-0.244-2.155-1.361-2.399c-4.511-0.982-9.133,0.081-10.863-5.156
				c-1.475-4.462,0.843-11.083,2.342-15.324c-0.626,0.477-1.253,0.954-1.88,1.432c1.732-0.095,3.468-0.354,5.202-0.07
				c2.46,0.404,3.514-3.354,1.037-3.76c-2.124-0.35-4.094-0.188-6.239-0.07c-0.922,0.051-1.575,0.569-1.88,1.432
				c-1.89,5.344-3.929,12.6-2.078,18.199c2.202,6.666,7.534,5.819,13.322,7.08c-0.454-0.8-0.908-1.6-1.361-2.399
				c-0.728,4.452,0.819,12.065,6.559,12.385c2.619,0.146,5.759-0.968,7.204-3.316c2.135-3.471,0.779-6.829,5.796-7.71
				c-0.8-0.799-1.6-1.599-2.398-2.398c-0.925,4.479-0.065,11.395,5.755,11.858c7.687,0.611,8.51-6.587,9.964-12.38
				c-0.626,0.477-1.253,0.954-1.88,1.432c4.513-0.059,9.01-0.461,13.522-0.52C413.987,130.626,413.989,126.726,411.474,126.758
				L411.474,126.758z"/>
		</g>
	</g>
	<g>
		<g>
			<path d="M536.478,86.587c-0.814,5.464,2.156,10.485,7.492,12.161c5.237,1.645,10.579-2.748,10.91-8.016
				c0.631-10.054-15.313-15.986-17.363-4.146c-0.427,2.459,3.332,3.512,3.76,1.037c1.166-6.731,8.569-3.334,9.684,1.629
				c0.705,3.139-2.314,6.362-5.438,5.856c-3.427-0.555-5.782-4.144-5.284-7.485C540.604,85.164,536.847,84.106,536.478,86.587
				L536.478,86.587z"/>
		</g>
	</g>
	<g>
		<g>
			<path d="M417.316,95.11c1.662-2.54,3.019-5.263,4.682-7.801c1.383-2.11-1.995-4.062-3.367-1.969
				c-1.663,2.538-3.021,5.262-4.682,7.801C412.567,95.253,415.946,97.205,417.316,95.11L417.316,95.11z"/>
		</g>
	</g>
	<g>
		<g>
			<path d="M434.172,91.606c1.97-2.03,3.46-4.437,4.401-7.103c0.839-2.378-2.931-3.392-3.762-1.037
				c-0.712,2.02-1.91,3.849-3.397,5.382C429.663,90.654,432.418,93.414,434.172,91.606L434.172,91.606z"/>
		</g>
	</g>
	<g>
		<g>
			<path d="M458.073,94.645c0.662-1.855,2.036-3.235,3.399-4.599c1.779-1.78-0.979-4.538-2.758-2.758
				c-1.872,1.873-3.501,3.791-4.401,6.319C453.467,95.982,457.235,96.996,458.073,94.645L458.073,94.645z"/>
		</g>
	</g>
</g>
</svg>
