<?xml version="1.0" encoding="utf-8"?>
<!-- Generator: Adobe Illustrator 16.0.0, SVG Export Plug-In . SVG Version: 6.00 Build 0)  -->
<!DOCTYPE svg PUBLIC "-//W3C//DTD SVG 1.0//EN" "http://www.w3.org/TR/2001/REC-SVG-20010904/DTD/svg10.dtd">
<svg version="1.0" id="Capa_1" xmlns="http://www.w3.org/2000/svg" xmlns:xlink="http://www.w3.org/1999/xlink" x="0px" y="0px"
	 width="376.481px" height="214.489px" viewBox="0 0 376.481 214.489" enable-background="new 0 0 376.481 214.489"
	 xml:space="preserve">
<g>
	<g>
		<path d="M318.176,70.059c14.82,3.899,31.199,8.581,44.461,16.381c-7.801-10.143-18.723-17.162-26.521-26.521
			c7.799-2.34,21.841-11.699,21.06-21.841c-1.56-10.141-20.28-15.601-28.08-18.72c-31.202-14.041-64.743-9.362-98.285-9.362
			c-47.581,0-96.723,3.122-145.086,9.362C42.822,24.035,7.722,37.297,14.744,87.219c3.898,30.42,16.379,72.543,38.999,94.384
			c27.302,24.96,81.122,26.521,115.446,21.062c23.398-3.121,51.479-17.162,61.62-39.783c9.361-18.721,0.782-35.881-2.339-55.381
			c-3.9-17.162-1.561-82.684,31.201-63.184c11.701,6.24,14.041,22.623,24.962,29.642c10.139,6.239,19.499,3.12,29.64-0.779"/>
	</g>
	<g>
		<g>
			<path fill="#FFFFFF" d="M56.485,61.017c-11.053-7.666-15.834,9.576-16,17.361c-0.266,12.409,7.404,23.912,20.9,18.896
				c2.803-1.042,1.591-5.566-1.244-4.514c-10.338,3.843-14.775-4.367-14.977-13.667c-0.092-4.241,1.789-19.009,8.959-14.036
				C56.61,66.782,58.947,62.724,56.485,61.017L56.485,61.017z"/>
		</g>
	</g>
	<g>
		<g>
			<path fill="#FFFFFF" d="M59.298,87.313c1.554-1.287,3.334-1.882,5.209-2.518c-0.959-0.545-1.919-1.09-2.879-1.635
				c2.769,6.822,2.342,14.027,3.037,21.22c0.287,2.976,4.971,3.004,4.68,0c-0.734-7.598-0.279-15.258-3.203-22.464
				c-0.457-1.125-1.567-2.079-2.879-1.635c-2.699,0.916-5.066,1.894-7.275,3.721C53.661,85.93,56.991,89.222,59.298,87.313
				L59.298,87.313z"/>
		</g>
	</g>
	<g>
		<g>
			<path fill="#FFFFFF" d="M102.565,81.358c-4.097-6.736,1.439-19.263,5.461-24.939c-1.225,0.157-2.45,0.315-3.676,0.473
				c6.219,6.675,8.021,16.174,10.318,24.709c0.784,2.911,5.299,1.674,4.514-1.244c-2.53-9.396-4.688-19.439-11.521-26.773
				c-1.102-1.182-2.84-0.707-3.676,0.473c-5.077,7.169-10.531,21.328-5.461,29.664C100.09,86.294,104.138,83.944,102.565,81.358
				L102.565,81.358z"/>
		</g>
	</g>
	<g>
		<g>
			<path fill="#FFFFFF" d="M100.388,74.655c3.369-0.828,6.771-1.512,10.141-2.34c2.93-0.721,1.687-5.234-1.244-4.514
				c-3.369,0.829-6.771,1.512-10.141,2.34C96.214,70.862,97.457,75.376,100.388,74.655L100.388,74.655z"/>
		</g>
	</g>
	<g>
		<g>
			<path fill="#FFFFFF" d="M134.865,50.557c-13.562-1.401-17.722,31.979-0.156,28.778c2.966-0.541,1.706-5.051-1.244-4.514
				c-9.515,1.734-6.041-20.354,1.4-19.585C137.866,55.547,137.837,50.863,134.865,50.557L134.865,50.557z"/>
		</g>
	</g>
	<g>
		<g>
			<path fill="#FFFFFF" d="M141.97,56.177c-2.336,6.749-2.421,13.833-2.425,20.901c-0.002,3.019,4.679,3.019,4.68,0
				c0.004-6.671,0.052-13.283,2.259-19.657C147.474,54.562,142.951,53.343,141.97,56.177L141.97,56.177z"/>
		</g>
	</g>
	<g>
		<g>
			<path fill="#FFFFFF" d="M147.346,45.096c3.019,0,3.019-4.68,0-4.68S144.327,45.096,147.346,45.096L147.346,45.096z"/>
		</g>
	</g>
	<g>
		<g>
			<path fill="#FFFFFF" d="M154.286,82.381c2.529-10.788,5.709-22.091,12.656-30.948c-1.226-0.158-2.451-0.316-3.676-0.475
				c3.871,7.85,1.65,17.57,3.666,25.961c0.705,2.934,5.219,1.689,4.514-1.244c-2.15-8.945,0.04-18.607-4.139-27.078
				c-0.617-1.253-2.771-1.626-3.676-0.475c-7.492,9.555-11.123,21.346-13.859,33.015C149.084,84.072,153.597,85.318,154.286,82.381
				L154.286,82.381z"/>
		</g>
	</g>
	<g>
		<g>
			<path fill="#FFFFFF" d="M159.448,71.298c2.583-1.27,5.237-2.175,8.023-2.883c2.924-0.744,1.683-5.258-1.244-4.514
				c-3.177,0.809-6.197,1.908-9.141,3.355C154.378,68.588,156.751,72.624,159.448,71.298L159.448,71.298z"/>
		</g>
	</g>
	<g>
		<g>
			<path fill="#FFFFFF" d="M190.248,45.879c-9.474-1.21-10.474,6.092-8.296,13.47c1.167,3.951,2.777,7.788,3.461,11.869
				c0.807,4.817-3.455,4.305-7.021,3.604c-2.947-0.579-4.204,3.932-1.244,4.514c3.723,0.731,8.448,1.418,11.336-1.678
				c2.479-2.658,1.726-6.849,0.96-10.021c-0.979-4.054-2.637-7.911-3.642-11.96c-1.071-4.32-0.071-5.695,4.446-5.118
				C193.236,50.94,193.199,46.256,190.248,45.879L190.248,45.879z"/>
		</g>
	</g>
	<g>
		<g>
			<path fill="#FFFFFF" d="M82.604,103.602c0.104,9.669,1.622,19.185,3.204,28.702c1.505-0.415,3.009-0.829,4.514-1.244
				c-1.576-5.473-3.095-11.02-3.654-16.703c-0.152-1.553-0.826-8.395,2.594-5.73c3.047,2.375-1.76,8.531-3.936,9.597
				c-2.711,1.326-0.338,5.362,2.361,4.041c4.452-2.178,7.179-7.649,6.875-12.502c-0.291-4.658-5.533-7.908-9.736-5.659
				c-4.039,2.162-3.042,9.275-2.539,12.834c0.736,5.22,2.064,10.309,3.521,15.367c0.852,2.955,4.999,1.676,4.514-1.244
				c-1.516-9.109-2.938-18.203-3.038-27.458C87.251,100.585,82.57,100.582,82.604,103.602L82.604,103.602z"/>
		</g>
	</g>
	<g>
		<g>
			<path fill="#FFFFFF" d="M101.489,105.065c-2.983,3.309-3.206,10.019-1.017,13.776c3.05,5.233,9.704,0.627,10.451-3.834
				c0.734-4.378-1.88-9.077-5.507-11.438c-1.488-0.969-3.69-1.346-5.197-0.214c-2.178,1.636-2.268,4.51-2.015,7.004
				c0.3,2.973,4.983,3.002,4.68,0c-0.08-0.796-0.124-1.581-0.092-2.38c0.014-0.345,0.256-0.978,0.113-0.805
				c-0.256,0.309-0.247,0.17-0.632,0.115c0.473,0.067,0.488,0.13,1.011,0.471c1.668,1.086,2.999,3.588,3.097,5.626
				c0.053,1.081-0.367,1.898-1.14,2.628c-0.278,0.261-0.935,0.435-0.881,0.448c0.333,0.086-0.106-0.483-0.158-0.63
				c-0.687-1.955-0.708-6.012,0.597-7.457C106.815,106.142,103.516,102.821,101.489,105.065L101.489,105.065z"/>
		</g>
	</g>
	<g>
		<g>
			<path fill="#FFFFFF" d="M115.45,116.702c0.235,0.592,0.513,1.188,0.661,1.808c1.426-0.601,2.852-1.202,4.276-1.804
				c0.571,0.978,0.098,0.183,0.048-0.54c-0.062-0.909-0.085-1.822-0.104-2.733c-0.045-2.075,0.029-4.15,0.186-6.22
				c0.151-1.993,0.484-3.965,1.128-5.86c0.696-2.051,1.473-0.996,2.728,0.264c-0.121-0.945-0.243-1.891-0.365-2.836
				c-1.712,2.63-3.839,4.956-5.201,7.801c-0.416,0.87-0.494,2.159,0.365,2.836c5.375,4.23,12.241,4.719,18.815,5.365
				c3.003,0.295,2.975-4.388,0-4.68c-5.11-0.503-11.289-0.676-15.505-3.994c0.121,0.945,0.243,1.891,0.365,2.836
				c1.362-2.846,3.489-5.172,5.201-7.803c0.571-0.877,0.35-2.117-0.365-2.836c-4.804-4.816-9.487-2.641-11.059,3.524
				c-0.793,3.112-0.927,6.443-0.979,9.64c-0.036,2.174-0.443,5.638,0.701,7.599c1.363,2.335,4.89,0.757,4.277-1.803
				c-0.148-0.62-0.426-1.216-0.66-1.808C118.863,112.688,114.335,113.895,115.45,116.702L115.45,116.702z"/>
		</g>
	</g>
	<g>
		<g>
			<path fill="#FFFFFF" d="M82.687,142.185c3.477,10.793,4.68,23.845,13.084,32.232c1.137,1.134,3.634,0.769,3.912-1.032
				c1.371-8.894-3.032-20.558,1.842-28.56c1.574-2.586-2.475-4.936-4.041-2.363c-5.426,8.908-0.823,20.012-2.314,29.679
				c1.304-0.345,2.607-0.688,3.912-1.032c-7.704-7.688-8.688-20.254-11.881-30.168C86.278,138.08,81.759,139.304,82.687,142.185
				L82.687,142.185z"/>
		</g>
	</g>
	<g>
		<g>
			<path fill="#FFFFFF" d="M103.487,144.784c1.455,5.968,2.491,11.98,3.04,18.101c0.267,2.981,4.949,3.007,4.68,0
				c-0.585-6.532-1.652-12.973-3.206-19.345C107.286,140.608,102.772,141.853,103.487,144.784L103.487,144.784z"/>
		</g>
	</g>
	<g>
		<g>
			<path fill="#FFFFFF" d="M105.744,134.541c-0.173,0-0.347,0-0.52,0c-1.275,0-2.34,1.064-2.34,2.34s1.064,2.34,2.34,2.34
				c0.173,0,0.347,0,0.52,0c1.275,0,2.34-1.064,2.34-2.34S107.02,134.541,105.744,134.541L105.744,134.541z"/>
		</g>
	</g>
	<g>
		<g>
			<path fill="#FFFFFF" d="M128.202,134.188c-5.371-4.303-16.488-0.787-13.859,7.538c1.347,4.265,4.633,6.858,7.591,10.02
				c1.587,1.695,3.565,3.051,5.265,4.633c1.124,1.046,1.98,2.208,2.472,3.675c1.303,3.885-3.287,4.291-4.743,1.65
				c-1.457-2.644-5.499-0.283-4.041,2.361c4.162,7.55,13.174,4.758,13.542-3.545c0.183-4.148-3.831-7.484-6.647-9.851
				c-1.787-1.501-3.396-3.141-5.068-4.765c-1.18-1.145-2.218-2.304-3.144-3.674c-2.377-3.518,2.05-7.356,5.323-4.732
				C127.223,139.366,130.557,136.077,128.202,134.188L128.202,134.188z"/>
		</g>
	</g>
	<g>
		<g>
			<path fill="#FFFFFF" d="M136.168,145.203c0.574,4.87,1.505,9.688,2.079,14.559c0.349,2.96,5.033,2.993,4.68,0
				c-0.574-4.87-1.504-9.689-2.079-14.559C140.499,142.243,135.814,142.21,136.168,145.203L136.168,145.203z"/>
		</g>
	</g>
	<g>
		<g>
			<path fill="#FFFFFF" d="M138.508,134.542c3.019,0,3.019-4.68,0-4.68S135.489,134.542,138.508,134.542L138.508,134.542z"/>
		</g>
	</g>
	<g>
		<g>
			<path fill="#FFFFFF" d="M145.889,132.898c4.925-1.132,9.728-2.7,14.562-4.159c2.881-0.871,1.652-5.389-1.244-4.514
				c-4.834,1.46-9.637,3.027-14.562,4.159C141.704,129.062,142.951,133.573,145.889,132.898L145.889,132.898z"/>
		</g>
	</g>
	<g>
		<g>
			<path fill="#FFFFFF" d="M151.768,130.121c0.278,11.527,4.991,22.235,7.364,33.386c0.629,2.951,5.14,1.699,4.514-1.244
				c-2.281-10.715-6.931-21.072-7.198-32.142C156.375,127.108,151.694,127.102,151.768,130.121L151.768,130.121z"/>
		</g>
	</g>
	<g>
		<g>
			<path fill="#FFFFFF" d="M170.405,156.021c-1.059-6.424-3.468-17.059,0.957-22.684c-1.104,0-2.207,0-3.311,0
				c6.416,5.467,6.342,14.759,8.24,22.369c0.73,2.927,5.244,1.686,4.514-1.244c-2.125-8.516-2.263-18.315-9.443-24.436
				c-0.879-0.748-2.478-1.059-3.311,0c-5.812,7.393-3.569,18.685-2.16,27.238C166.382,160.237,170.892,158.972,170.405,156.021
				L170.405,156.021z"/>
		</g>
	</g>
	<g>
		<g>
			<path fill="#FFFFFF" d="M168.25,149.021c2.755-1.09,5.563-2.033,8.319-3.12c2.773-1.095,1.566-5.622-1.244-4.514
				c-2.756,1.087-5.564,2.03-8.319,3.12C164.233,145.604,165.44,150.132,168.25,149.021L168.25,149.021z"/>
		</g>
	</g>
	<g>
		<g>
			<path fill="#FFFFFF" d="M192.163,154.47c-0.735-0.675-1.715-4.37-2.213-5.889c-1.228-3.748-2.212-7.584-2.886-11.47
				c-0.267-1.539-0.362-3.093-0.3-4.65c0.053-1.29,2.195-4.993,3.557-3.12c2.742,3.773-0.582,8.791-3.549,11.086
				c-0.967,0.749-0.871,2.543,0,3.311c5.783,5.092,11.887,9.669,19.959,8.404c2.975-0.467,1.707-4.976-1.244-4.514
				c-6.127,0.961-11.139-3.443-15.404-7.201c0,1.104,0,2.207,0,3.311c4.676-3.62,7.234-9.856,4.867-15.561
				c-2.068-4.986-7.212-5.109-10.509-1.275c-4.012,4.664-2.087,11.349-0.782,16.719c0.943,3.881,2.049,11.273,5.195,14.158
				C191.073,159.814,194.392,156.513,192.163,154.47L192.163,154.47z"/>
		</g>
	</g>
	<g>
		<g>
			<path fill="#FFFFFF" d="M77.321,88.159c-1.364-8.527-5.42-16.365-5.672-25.094c-0.047-1.609,0.242-3.188,0.915-4.655
				c1.202-2.622,6.32-4.249,7.638-0.763c1.483,3.922-2.871,7.552-5.061,10.206c-2.98,3.612-2.66,6.597,0.631,9.699
				c4.339,4.089,8.861,8.817,14.531,10.884c2.843,1.035,4.057-3.488,1.244-4.514c-4.338-1.58-7.276-5.279-10.729-8.17
				c-0.572-0.479-3.346-2.356-3.202-3.188c0.298-1.715,2.825-3.723,3.92-5.025c3.896-4.634,5.41-11.88-0.349-15.708
				c-5.951-3.957-12.877,2.631-13.965,8.126c-1.961,9.901,4.057,19.896,5.584,29.446C73.284,92.377,77.793,91.11,77.321,88.159
				L77.321,88.159z"/>
		</g>
	</g>
	<g>
		<g>
			<path fill="#FFFFFF" d="M214.43,123.88c-0.058,6.39-0.908,12.636-2.255,18.877c-0.635,2.942,3.877,4.193,4.514,1.244
				c1.432-6.64,2.36-13.32,2.421-20.121C219.137,120.86,214.456,120.863,214.43,123.88L214.43,123.88z"/>
		</g>
	</g>
	<g>
		<g>
			<path fill="#FFFFFF" d="M214.432,156.641c3.019,0,3.019-4.68,0-4.68S211.413,156.641,214.432,156.641L214.432,156.641z"/>
		</g>
	</g>
	<g>
		<g>
			<path fill="#FFFFFF" d="M25.981,78.259c4.235,6.504,4.234,14.938,7.801,21.84c1.386,2.683,5.424,0.314,4.041-2.361
				c-3.578-6.926-3.508-15.25-7.801-21.84C28.383,73.379,24.329,75.722,25.981,78.259L25.981,78.259z"/>
		</g>
	</g>
	<g>
		<g>
			<path fill="#FFFFFF" d="M26.443,69.279c3.019,0,3.019-4.68,0-4.68S23.425,69.279,26.443,69.279L26.443,69.279z"/>
		</g>
	</g>
</g>
</svg>
