<?xml version="1.0" encoding="utf-8"?>
<!-- Generator: Adobe Illustrator 16.0.0, SVG Export Plug-In . SVG Version: 6.00 Build 0)  -->
<!DOCTYPE svg PUBLIC "-//W3C//DTD SVG 1.1//EN" "http://www.w3.org/Graphics/SVG/1.1/DTD/svg11.dtd">
<svg version="1.1" id="Capa_1" xmlns="http://www.w3.org/2000/svg" xmlns:xlink="http://www.w3.org/1999/xlink" x="0px" y="0px"
	 width="376.48px" height="136.493px" viewBox="0 0 376.48 136.493" enable-background="new 0 0 376.48 136.493"
	 xml:space="preserve">
<g>
	<g>
		<g>
			<path fill="#FFFFFF" d="M31.248,117.68c110.691,0,221.382,0,332.073,0c3.019,0,3.019-4.68,0-4.68c-110.691,0-221.382,0-332.073,0
				C28.23,113,28.23,117.68,31.248,117.68L31.248,117.68z"/>
		</g>
	</g>
	<g>
		<g>
			<path fill="#FFFFFF" d="M40.897,21.171c-8.721-0.429-17.443-0.858-26.164-1.287c-3.018-0.148-3.004,4.533,0,4.681
				c8.721,0.428,17.443,0.857,26.164,1.287C43.915,26,43.9,21.319,40.897,21.171L40.897,21.171z"/>
		</g>
	</g>
	<g>
		<g>
			<path fill="#FFFFFF" d="M11.656,24.274c5.328,5.884,10.658,11.767,15.987,17.65c2.03,2.241,5.33-1.079,3.31-3.31
				c-5.33-5.883-10.659-11.766-15.987-17.65C12.936,18.723,9.636,22.043,11.656,24.274L11.656,24.274z"/>
		</g>
	</g>
	<g>
		<g>
			<path fill="#FFFFFF" d="M27.84,41.611c0,24.576,0,49.153,0,73.729c0,3.019,4.68,3.019,4.68,0c0-24.576,0-49.153,0-73.729
				C32.52,38.593,27.84,38.593,27.84,41.611L27.84,41.611z"/>
		</g>
	</g>
</g>
</svg>
