<?xml version="1.0" encoding="utf-8"?>
<!-- Generator: Adobe Illustrator 16.0.0, SVG Export Plug-In . SVG Version: 6.00 Build 0)  -->
<!DOCTYPE svg PUBLIC "-//W3C//DTD SVG 1.0//EN" "http://www.w3.org/TR/2001/REC-SVG-20010904/DTD/svg10.dtd">
<svg version="1.0" id="Capa_1" xmlns="http://www.w3.org/2000/svg" xmlns:xlink="http://www.w3.org/1999/xlink" x="0px" y="0px"
	 width="376.481px" height="136.493px" viewBox="0 0 376.481 136.493" enable-background="new 0 0 376.481 136.493"
	 xml:space="preserve">
<g>
	<g>
		<g>
			<path fill="#FFFFFF" d="M12.926,121.451c110.69,0,221.381,0,332.071,0c3.018,0,3.018-4.68,0-4.68c-110.69,0-221.381,0-332.071,0
				C9.907,116.771,9.907,121.451,12.926,121.451L12.926,121.451z"/>
		</g>
	</g>
	<g>
		<g>
			<path fill="#FFFFFF" d="M336.501,22.318c8.722-0.432,17.443-0.861,26.166-1.289c3.004-0.146,3.018-4.828,0-4.68
				c-8.723,0.428-17.444,0.857-26.166,1.289C333.497,17.787,333.483,22.468,336.501,22.318L336.501,22.318z"/>
		</g>
	</g>
	<g>
		<g>
			<path fill="#FFFFFF" d="M362.435,17.43c-5.33,5.884-10.66,11.767-15.988,17.65c-2.021,2.231,1.279,5.552,3.309,3.311
				c5.329-5.885,10.659-11.768,15.988-17.652C367.764,18.508,364.464,15.188,362.435,17.43L362.435,17.43z"/>
		</g>
	</g>
	<g>
		<g>
			<path fill="#FFFFFF" d="M345.31,36.754c0,27.556,0,55.112,0,82.668c0,3.018,4.68,3.018,4.68,0c0-27.556,0-55.112,0-82.668
				C349.989,33.736,345.31,33.736,345.31,36.754L345.31,36.754z"/>
		</g>
	</g>
</g>
</svg>
