<?xml version="1.0" encoding="utf-8"?>
<!-- Generator: Adobe Illustrator 16.0.0, SVG Export Plug-In . SVG Version: 6.00 Build 0)  -->
<!DOCTYPE svg PUBLIC "-//W3C//DTD SVG 1.1//EN" "http://www.w3.org/Graphics/SVG/1.1/DTD/svg11.dtd">
<svg version="1.1" id="Capa_1" xmlns="http://www.w3.org/2000/svg" xmlns:xlink="http://www.w3.org/1999/xlink" x="0px" y="0px"
	 width="160px" height="64.659px" viewBox="0 0 160 64.659" enable-background="new 0 0 160 64.659" xml:space="preserve">
<g>
	<g>
		<path d="M29.736,19.308c0.362-1.095,0.51-2.191,0.44-3.269c-0.068-1.171-0.372-2.294-0.915-3.352
			c-0.537-1.066-1.293-1.983-2.285-2.77c-0.979-0.788-2.196-1.388-3.63-1.813c-1.438-0.417-3.097-0.578-4.96-0.462
			c-1.433,0.085-2.76,0.394-3.997,0.938c-1.233,0.534-2.359,1.259-3.383,2.165c-1.023,0.913-1.924,1.98-2.715,3.213
			C7.503,15.189,6.853,16.533,6.338,18c-0.517,1.465-0.885,3.033-1.109,4.682c-0.224,1.658-0.286,3.362-0.174,5.12
			c0.061,1.023,0.174,2.113,0.358,3.266c0.168,1.145,0.403,2.286,0.706,3.416c0.31,1.116,0.677,2.201,1.107,3.225
			c0.435,1.024,0.943,1.921,1.537,2.68c0.585,0.767,1.258,1.363,2.001,1.797c0.745,0.429,1.572,0.631,2.489,0.563
			c0.85-0.043,1.633-0.261,2.34-0.61c0.699-0.375,1.331-0.837,1.884-1.414c0.553-0.573,1.021-1.226,1.422-1.969
			c0.395-0.742,0.727-1.536,0.979-2.343c0.265-0.827,0.442-1.648,0.561-2.503c0.104-0.851,0.152-1.664,0.129-2.447
			c-0.002-0.069-0.012-0.185-0.021-0.369c-0.005-0.173-0.009-0.386-0.017-0.622c-0.008-0.246-0.015-0.505-0.021-0.794
			c-0.004-0.291-0.011-0.58-0.017-0.871c-0.023-0.677-0.038-1.432-0.053-2.247c1.729-0.37,3.229-0.918,4.48-1.651
			c1.256-0.734,2.282-1.582,3.081-2.536C28.802,21.423,29.377,20.4,29.736,19.308 M24.964,20.247
			c-0.491,0.528-1.121,1.005-1.885,1.417c-0.775,0.415-1.691,0.747-2.774,0.977l0.069-1.327l0.76-4.355
			c-0.004-0.041-0.004-0.08,0.003-0.105c0-0.034,0-0.081-0.003-0.165c-0.014-0.273-0.088-0.498-0.219-0.675
			c-0.118-0.167-0.272-0.304-0.454-0.397c-0.178-0.09-0.375-0.154-0.591-0.184c-0.215-0.024-0.423-0.031-0.614-0.02
			c-0.658,0.042-1.205,0.232-1.63,0.59c-0.421,0.355-0.76,0.793-1.005,1.31c-0.256,0.518-0.429,1.084-0.54,1.69
			c-0.104,0.604-0.177,1.19-0.205,1.748c-0.03,0.552,0.018,2.331,0.011,2.33c0.081,0.697,0.472,4.715,0.472,4.715
			c0.033,0.512,0.06,1.137,0.073,1.865c0.026,0.732,0.021,1.496-0.009,2.299c-0.025,0.807-0.094,1.607-0.207,2.416
			c-0.105,0.797-0.275,1.522-0.507,2.179c-0.229,0.636-0.532,1.174-0.907,1.595c-0.375,0.422-0.854,0.639-1.413,0.668
			c-0.551,0.047-1.014-0.167-1.411-0.608c-0.386-0.438-0.72-1.019-1.002-1.733c-0.281-0.718-0.511-1.512-0.693-2.404
			c-0.171-0.892-0.315-1.787-0.427-2.651c-0.104-0.875-0.186-1.705-0.238-2.473c-0.051-0.777-0.089-1.389-0.12-1.843
			c-0.062-1.12-0.048-2.261,0.037-3.441c0.089-1.181,0.277-2.341,0.548-3.475c0.271-1.126,0.638-2.198,1.108-3.202
			c0.464-1.013,1.032-1.901,1.697-2.683c0.667-0.781,1.44-1.406,2.336-1.891c0.883-0.479,1.882-0.756,3.013-0.825
			c1.497-0.086,2.757,0.006,3.764,0.293c1.015,0.286,1.83,0.677,2.455,1.176c0.618,0.502,1.068,1.062,1.349,1.701
			c0.279,0.639,0.436,1.264,0.475,1.891c0.036,0.638-0.051,1.257-0.264,1.88C25.798,19.142,25.443,19.716,24.964,20.247"/>
	</g>
	<g>
		<path d="M40.598,34.949c0.093-0.473,0.081-0.959,0.202-1.42l-0.202,0.067c-0.471,0.373-2.482,2.214-3.15,2.63
			c-0.667,0.397-1.373,0.776-2.11,1.105c-0.734,0.326-1.483,0.591-2.243,0.799c-0.77,0.187-1.486,0.246-2.149,0.19
			c-0.216-0.019-0.401-0.073-0.587-0.125c-0.175-0.057-0.34-0.157-0.498-0.286c-0.158-0.128-0.309-0.297-0.45-0.504
			c-0.138-0.225-0.275-0.492-0.408-0.807c0.983-0.169,1.917-0.457,2.792-0.857c0.876-0.384,1.636-0.873,2.297-1.411
			c0.651-0.556,1.183-1.166,1.592-1.813c0.401-0.652,0.645-1.333,0.713-2.019c0.057-0.636,0.003-1.217-0.175-1.746
			c-0.169-0.533-0.438-0.99-0.793-1.395c-0.355-0.395-0.793-0.726-1.305-0.973c-0.513-0.255-1.084-0.409-1.708-0.473
			c-0.764-0.075-1.476-0.007-2.129,0.208c-0.652,0.213-1.254,0.523-1.799,0.935c-0.555,0.417-1.045,0.9-1.479,1.471
			c-0.435,0.569-0.815,1.171-1.127,1.814c-0.311,0.643-0.567,1.305-0.753,1.982c-0.193,0.681-0.312,1.331-0.373,1.95
			c-0.091,0.932-0.047,1.822,0.139,2.688c0.174,0.846,0.489,1.634,0.957,2.309c0.459,0.694,1.058,1.267,1.802,1.718
			c0.753,0.45,1.646,0.733,2.684,0.84c0.668,0.056,1.329,0.046,1.993-0.033c0.664-0.095,1.312-0.231,1.946-0.419
			c0.621-0.201,1.228-0.422,1.806-0.695c0.581-0.27,1.13-0.549,1.639-0.837c0.258-0.15,0.521-0.305,0.772-0.467
			c0.562-0.313,0.946-1.087,1.379-1.67C40.051,36.844,40.415,35.851,40.598,34.949 M29.004,32.908
			c0.05-0.344,0.138-0.696,0.238-1.048c0.112-0.359,0.25-0.713,0.425-1.063c0.171-0.347,0.388-0.651,0.644-0.906
			c0.253-0.265,0.556-0.469,0.915-0.615c0.354-0.145,0.774-0.189,1.249-0.147c0.267,0.033,0.479,0.211,0.628,0.553
			c0.152,0.334,0.207,0.753,0.157,1.255c-0.041,0.358-0.212,0.71-0.522,1.053c-0.32,0.354-0.694,0.676-1.133,0.949
			c-0.434,0.285-0.896,0.503-1.39,0.671c-0.486,0.158-0.933,0.213-1.335,0.178C28.902,33.542,28.946,33.254,29.004,32.908"/>
	</g>
	<g>
		<path d="M52.981,37.644c-0.537,0.372-1.113,0.695-1.753,0.966c-0.77,0.325-1.628,0.577-2.569,0.735
			c-0.938,0.16-1.968,0.198-3.091,0.134l-0.074-0.369c1.029-0.367,1.923-0.812,2.695-1.336c0.76-0.502,1.404-1.069,1.917-1.68
			c0.515-0.629,0.903-1.273,1.174-1.97c0.273-0.691,0.432-1.412,0.475-2.168c0.064-0.942-0.012-1.752-0.224-2.416
			c-0.216-0.665-0.53-1.226-0.95-1.666c-0.413-0.441-0.915-0.767-1.489-0.988c-0.58-0.222-1.201-0.356-1.887-0.403
			c-0.907-0.063-1.702,0.056-2.367,0.347c-0.664,0.295-1.248,0.708-1.75,1.245c-0.499,0.534-0.914,1.179-1.264,1.924
			c-0.344,0.746-0.643,1.543-0.889,2.391c-0.123,0.391-0.227,0.801-0.338,1.208c-0.114,0.466-0.229,0.932-0.319,1.406
			c-0.191,0.9-0.372,1.78-0.555,2.643c-0.432,0.583-0.833,1.158-1.232,1.729c-0.586,0.857-1.133,1.697-1.643,2.509
			c-0.361,0.59-0.719,1.195-1.066,1.84c-0.343,0.624-0.665,1.243-0.956,1.85c-0.285,0.629-0.517,1.216-0.695,1.783
			c-0.186,0.55-0.288,1.067-0.32,1.521c-0.046,0.783-0.043,1.529,0.016,2.249c0.053,0.714,0.192,1.354,0.41,1.889
			c0.214,0.55,0.522,0.99,0.926,1.324c0.4,0.352,0.918,0.537,1.556,0.574c0.791,0.062,1.577-0.207,2.346-0.794
			c0.78-0.587,1.484-1.445,2.13-2.581c0.646-1.139,1.19-2.512,1.639-4.139c0.451-1.626,0.738-3.464,0.867-5.491l0.024-0.3
			c0.907,0.205,1.636,0.366,2.166,0.497c0.538,0.135,0.942,0.222,1.229,0.305c0.289,0.065,0.491,0.13,0.6,0.157
			c0.121,0.025,0.213,0.041,0.291,0.046c0.646,0.056,1.306-0.008,1.98-0.147c0.678-0.142,1.317-0.338,1.943-0.606
			c0.616-0.27,1.194-0.587,1.727-0.951c0.146-0.106,0.277-0.22,0.411-0.332c-0.37-0.544-0.66-1.176-0.861-1.851
			C53.112,38.364,53.039,38.018,52.981,37.644 M39.789,42.539c-0.024,0.279-0.065,0.62-0.106,1.037
			c-0.044,0.42-0.105,0.921-0.179,1.517c-0.041,0.334-0.083,0.732-0.112,1.165c-0.038,0.435-0.086,0.878-0.13,1.332
			c-0.057,0.451-0.117,0.895-0.178,1.328c-0.053,0.432-0.136,0.824-0.243,1.155c-0.094,0.333-0.218,0.608-0.354,0.817
			c-0.138,0.191-0.298,0.29-0.48,0.281c-0.212-0.033-0.392-0.111-0.521-0.271c-0.133-0.164-0.244-0.365-0.32-0.563
			c-0.075-0.197-0.127-0.412-0.152-0.606c-0.021-0.216-0.031-0.361-0.026-0.439c0.008-0.145,0.052-0.385,0.14-0.706
			c0.081-0.321,0.187-0.711,0.323-1.154c0.136-0.443,0.293-0.918,0.475-1.439c0.176-0.503,0.374-1.025,0.589-1.527
			c0.205-0.521,0.429-1.007,0.666-1.471c0.229-0.47,0.461-0.883,0.694-1.249C39.85,41.966,39.817,42.231,39.789,42.539
			 M43.581,37.647c0.038-0.649,0.101-1.313,0.182-1.965c0.081-0.667,0.193-1.295,0.332-1.898c0.138-0.601,0.293-1.171,0.474-1.692
			c0.186-0.522,0.407-0.968,0.658-1.352c0.258-0.373,0.549-0.665,0.871-0.875c0.33-0.2,0.698-0.296,1.105-0.264
			c0.362,0.021,0.645,0.143,0.845,0.364c0.187,0.219,0.315,0.472,0.38,0.768c0.068,0.292,0.078,0.61,0.045,0.935
			c-0.042,0.334-0.101,0.605-0.17,0.852c-0.168,0.516-0.38,1.008-0.63,1.506c-0.259,0.479-0.575,0.938-0.954,1.383
			c-0.387,0.443-0.834,0.86-1.343,1.228C44.863,37.028,44.266,37.356,43.581,37.647"/>
	</g>
	<g>
		<path d="M65.688,37.04c-0.637,0.458-1.311,0.883-2.021,1.277c-0.714,0.372-1.441,0.706-2.188,0.949
			c-0.745,0.255-1.456,0.379-2.123,0.363c-0.212-0.002-0.403-0.024-0.592-0.087c-0.177-0.041-0.359-0.132-0.52-0.232
			c-0.161-0.117-0.32-0.278-0.485-0.492c-0.155-0.196-0.315-0.456-0.474-0.76c0.974-0.252,1.887-0.599,2.723-1.056
			c0.847-0.458,1.562-0.997,2.186-1.593c0.608-0.602,1.097-1.237,1.451-1.924c0.352-0.688,0.539-1.373,0.55-2.059
			c0.013-0.64-0.083-1.216-0.296-1.733c-0.215-0.515-0.514-0.961-0.899-1.33c-0.383-0.368-0.853-0.662-1.376-0.874
			c-0.529-0.211-1.108-0.318-1.737-0.341c-0.765-0.015-1.47,0.113-2.103,0.365c-0.635,0.264-1.212,0.621-1.729,1.07
			c-0.52,0.451-0.97,0.976-1.366,1.574c-0.39,0.604-0.714,1.232-0.982,1.893c-0.27,0.663-0.463,1.347-0.601,2.037
			c-0.138,0.695-0.215,1.349-0.225,1.965c-0.009,0.55,0.023,1.085,0.102,1.592c0.058,0.374,0.131,0.72,0.229,1.083
			c0.201,0.675,0.491,1.307,0.861,1.851c0.089,0.134,0.174,0.266,0.274,0.393c0.51,0.643,1.157,1.174,1.929,1.576
			c0.78,0.383,1.691,0.6,2.745,0.62c0.666,0.015,1.329-0.043,1.984-0.178c0.656-0.137,1.281-0.344,1.901-0.564
			c0.612-0.245,1.193-0.522,1.759-0.832c0.552-0.309,1.073-0.626,1.563-0.943c1.116-0.753,2.182-1.632,3.178-2.628l-1.775-2.515
			C67.188,35.905,66.314,36.582,65.688,37.04 M57.011,34.378c0.031-0.339,0.081-0.703,0.159-1.07
			c0.081-0.367,0.198-0.731,0.346-1.081c0.143-0.36,0.339-0.684,0.572-0.956c0.233-0.281,0.522-0.506,0.867-0.683
			c0.338-0.167,0.753-0.247,1.239-0.239c0.26,0.006,0.484,0.17,0.664,0.5c0.174,0.325,0.254,0.742,0.247,1.242
			c-0.008,0.358-0.156,0.723-0.442,1.095c-0.287,0.369-0.64,0.718-1.044,1.032c-0.42,0.312-0.862,0.569-1.348,0.763
			c-0.473,0.188-0.911,0.29-1.319,0.282C56.958,35.012,56.983,34.717,57.011,34.378"/>
	</g>
	<g>
		<path d="M96.733,35.582c-0.205,0.177-0.437,0.363-0.654,0.522c-0.448,0.314-0.904,0.59-1.377,0.812
			c-0.46,0.238-0.907,0.412-1.348,0.541c-0.439,0.132-0.849,0.186-1.209,0.189c-0.407,0.002-0.725-0.105-0.97-0.354
			c-0.23-0.249-0.442-0.57-0.598-0.981c-0.16-0.41-0.297-0.879-0.419-1.403c-0.103-0.541-0.236-1.107-0.38-1.692
			c-0.145-0.587-0.314-1.18-0.529-1.785c-0.199-0.614-0.474-1.185-0.814-1.736c-0.354-0.543-0.787-1.039-1.29-1.482
			c-0.522-0.442-1.152-0.803-1.911-1.083c1.239-0.082,2.367-0.269,3.371-0.543c1.003-0.283,1.889-0.637,2.663-1.054
			c0.776-0.412,1.453-0.887,2.011-1.411c0.543-0.522,1.016-1.069,1.364-1.625c0.349-0.564,0.615-1.137,0.783-1.714
			c0.183-0.569,0.261-1.124,0.257-1.644c-0.002-0.802-0.14-1.546-0.406-2.236c-0.249-0.68-0.617-1.296-1.072-1.858
			c-0.45-0.561-0.996-1.048-1.618-1.479c-0.622-0.433-1.309-0.794-2.036-1.084c-0.732-0.29-1.495-0.508-2.309-0.657
			c-0.796-0.147-1.615-0.221-2.418-0.216c-1.844,0.007-3.589,0.266-5.229,0.766c-1.638,0.491-3.16,1.186-4.549,2.067
			c-1.393,0.88-2.646,1.923-3.759,3.136c-1.107,1.198-2.058,2.523-2.84,3.963c-0.784,1.433-1.38,2.962-1.782,4.576
			c-0.416,1.615-0.618,3.269-0.611,4.953c0.004,0.937,0.083,1.865,0.243,2.821c0.15,0.937,0.373,1.847,0.664,2.729
			s0.657,1.716,1.096,2.483c0.441,0.781,0.951,1.443,1.538,2.016c0.575,0.575,1.229,1.025,1.953,1.35
			c0.727,0.321,1.522,0.499,2.394,0.496c1.172-0.027,2.159-0.37,2.965-1.072c0.807-0.688,1.484-1.697,2.012-3.016
			c0.53-1.316,0.956-2.919,1.269-4.807c0.312-1.889,0.579-4.021,0.776-6.405l1.026-0.003c0.426-0.003,0.788,0.192,1.077,0.58
			c0.285,0.396,0.52,0.911,0.739,1.543c0.203,0.642,0.384,1.373,0.576,2.19c0.168,0.818,0.351,1.659,0.563,2.519
			c0.19,0.86,0.412,1.686,0.682,2.51c0.269,0.806,0.595,1.539,0.995,2.19c0.396,0.634,0.873,1.154,1.437,1.53
			c0.562,0.396,1.23,0.581,2.035,0.579c0.687-0.004,1.39-0.072,2.074-0.228c0.686-0.153,1.318-0.359,1.926-0.579
			c0.604-0.24,1.161-0.495,1.659-0.749c0.514-0.273,0.948-0.523,1.309-0.739c0.377-0.231,0.663-0.414,0.863-0.562
			c0.215-0.147,0.309-0.224,0.309-0.215l-0.13-0.202c-0.458-0.253-0.88-0.552-1.239-0.907
			C97.419,36.681,97.037,36.163,96.733,35.582 M82.596,24.369c0.082-0.89,0.188-1.667,0.306-2.356
			c0.114-0.676,0.167-1.216,0.175-1.635l-0.002-0.147c-0.001-0.375-0.101-0.696-0.276-0.938c-0.175-0.241-0.548-0.365-1.076-0.362
			c-0.419,0.002-0.771,0.092-1.059,0.277c-0.286,0.178-0.53,0.42-0.736,0.703c-0.208,0.285-0.369,0.612-0.494,0.968
			c-0.119,0.346-0.217,0.699-0.282,1.05c-0.055,0.35-0.104,0.672-0.126,0.974c-0.029,0.314-0.048,0.55-0.057,0.72
			c0,0-0.478,4.301-0.483,4.767c-0.009,0.48-0.026,1.015-0.065,1.621c-0.031,0.615-0.082,1.269-0.146,1.96
			c-0.054,0.698-0.146,1.386-0.248,2.077c-0.099,0.673-0.235,1.343-0.39,1.972c-0.17,0.646-0.353,1.192-0.566,1.69
			c-0.217,0.479-0.461,0.874-0.743,1.163c-0.283,0.288-0.604,0.436-0.982,0.438c-0.72,0.003-1.348-0.224-1.863-0.661
			c-0.517-0.439-0.946-1.009-1.27-1.718c-0.335-0.689-0.575-1.495-0.73-2.379c-0.153-0.883-0.242-1.766-0.249-2.647
			c-0.005-1.133,0.104-2.339,0.298-3.6c0.208-1.257,0.548-2.504,1.005-3.735c0.458-1.234,1.068-2.41,1.812-3.53
			c0.741-1.119,1.641-2.111,2.706-2.967c1.058-0.848,2.292-1.531,3.696-2.034c1.41-0.506,3.009-0.77,4.799-0.778
			c0.984-0.003,1.828,0.1,2.567,0.317c0.737,0.222,1.374,0.514,1.866,0.895c0.512,0.373,0.883,0.793,1.144,1.285
			c0.265,0.491,0.394,1.001,0.397,1.533c0.005,0.54-0.133,1.104-0.403,1.688c-0.272,0.583-0.737,1.117-1.417,1.61
			c-0.663,0.497-1.585,0.9-2.721,1.233C85.826,24.145,84.364,24.333,82.596,24.369"/>
	</g>
	<g>
		<path d="M109.329,35.08c-0.321,0.188-0.669,0.376-1.064,0.588c-0.688,0.342-1.4,0.646-2.142,0.917
			c-0.742,0.265-1.49,0.457-2.241,0.59c-0.756,0.132-1.458,0.138-2.094,0.021c-0.214-0.032-0.396-0.081-0.562-0.163
			c-0.166-0.064-0.32-0.173-0.463-0.312c-0.14-0.135-0.273-0.312-0.401-0.539c-0.12-0.212-0.24-0.482-0.335-0.796
			c0.964-0.099,1.903-0.296,2.781-0.613c0.88-0.333,1.654-0.72,2.343-1.214c0.671-0.484,1.236-1.027,1.682-1.628
			c0.443-0.609,0.727-1.239,0.849-1.904c0.111-0.614,0.104-1.185-0.026-1.713c-0.129-0.528-0.359-0.995-0.673-1.415
			c-0.315-0.417-0.719-0.768-1.195-1.046c-0.472-0.284-1.017-0.483-1.612-0.585c-0.74-0.132-1.441-0.124-2.084,0.029
			c-0.662,0.157-1.266,0.417-1.834,0.775c-0.568,0.349-1.075,0.789-1.538,1.304c-0.466,0.527-0.879,1.081-1.244,1.678
			c-0.349,0.607-0.646,1.224-0.888,1.874c-0.225,0.648-0.412,1.266-0.505,1.863c-0.154,0.889-0.199,1.758-0.084,2.614
			c0.021,0.183,0.068,0.379,0.101,0.558c0.135,0.634,0.342,1.224,0.647,1.776c0.259,0.451,0.574,0.861,0.954,1.218
			c0.205,0.216,0.435,0.405,0.671,0.583c0.692,0.508,1.546,0.841,2.552,1.016c0.636,0.118,1.293,0.153,1.937,0.123
			c0.641-0.028,1.294-0.12,1.917-0.257c0.621-0.138,1.242-0.312,1.826-0.521c0.583-0.223,1.122-0.442,1.647-0.688
			c0.34-0.16,0.699-0.336,1.035-0.533c-0.104-0.432-0.142-0.889-0.126-1.379C109.181,36.491,109.25,35.754,109.329,35.08
			 M100.12,32.636c0.054-0.231,0.107-0.517,0.195-0.839c0.07-0.334,0.185-0.663,0.318-1.008c0.134-0.34,0.296-0.669,0.482-0.998
			c0.191-0.32,0.431-0.601,0.702-0.832c0.27-0.236,0.58-0.414,0.929-0.522c0.368-0.115,0.779-0.129,1.237-0.05
			c0.243,0.049,0.445,0.247,0.569,0.581c0.104,0.348,0.126,0.751,0.05,1.237c-0.073,0.344-0.265,0.669-0.593,0.993
			c-0.327,0.312-0.721,0.591-1.167,0.828c-0.442,0.241-0.907,0.423-1.41,0.537C100.949,32.685,100.511,32.703,100.12,32.636"/>
	</g>
	<g>
		<path d="M125.749,35.888c-0.437,0.556-0.83,1.043-1.215,1.466c-0.596,0.677-1.141,1.237-1.618,1.676
			c-0.477,0.442-0.911,0.784-1.311,1.048c-0.396,0.262-0.745,0.47-1.071,0.641c0.336-1.827,0.666-3.549,0.99-5.15
			c0.13-0.688,0.27-1.354,0.41-2.048c0.143-0.682,0.282-1.333,0.417-1.946c0.139-0.619,0.261-1.164,0.382-1.654
			c0.098-0.479,0.2-0.871,0.284-1.14c0.033-0.134,0.05-0.25,0.053-0.344c0.01-0.312-0.102-0.553-0.316-0.708
			c-0.229-0.154-0.513-0.235-0.843-0.245c-0.286-0.007-0.584,0.026-0.899,0.112c-0.315,0.095-0.62,0.234-0.914,0.413
			c-0.293,0.188-0.562,0.422-0.801,0.705c-0.221,0.273-0.385,0.6-0.489,0.966l-1.305,4.743c-0.046,0.357-0.161,0.788-0.32,1.297
			c-0.165,0.524-0.384,1.015-0.646,1.492c-0.238,0.493-0.534,0.886-0.886,1.237c-0.329,0.331-0.69,0.493-1.096,0.478
			c-0.257-0.007-0.454-0.067-0.61-0.199s-0.285-0.297-0.383-0.512c-0.102-0.196-0.15-0.436-0.176-0.697
			c-0.026-0.24-0.036-0.51-0.028-0.783c0.015-0.512,0.073-1.129,0.185-1.799c0.114-0.686,0.256-1.38,0.425-2.084
			c0.167-0.712,0.351-1.394,0.572-2.066c0.208-0.669,0.429-1.253,0.633-1.747c0.078-0.16,0.127-0.312,0.152-0.453
			c0.026-0.139,0.045-0.271,0.063-0.385c0.012-0.405-0.116-0.707-0.384-0.908c-0.271-0.194-0.586-0.304-0.976-0.314
			c-0.443-0.012-0.901,0.095-1.37,0.341c-0.476,0.236-0.852,0.598-1.122,1.074c-0.353,0.67-0.67,1.343-0.953,2.003
			c-0.286,0.66-0.53,1.341-0.723,2.053c-0.209,0.705-0.365,1.464-0.468,2.245c-0.036,0.128-0.051,0.257-0.063,0.388
			c-0.079,0.674-0.148,1.411-0.171,2.218c-0.016,0.49,0.022,0.948,0.126,1.379c0.034,0.204,0.089,0.385,0.154,0.558
			c0.2,0.577,0.489,1.065,0.865,1.479c0.358,0.411,0.786,0.729,1.286,0.962c0.48,0.221,0.977,0.345,1.506,0.359
			c0.595,0.019,1.214-0.124,1.868-0.422c0.642-0.298,1.262-0.685,1.863-1.197l-0.485,1.495c-0.794,0.633-1.601,1.271-2.383,1.957
			c-0.8,0.67-1.553,1.369-2.279,2.075c-0.726,0.706-1.389,1.421-2.027,2.116c-0.614,0.717-1.142,1.411-1.615,2.083
			c-0.454,0.655-0.807,1.283-1.081,1.905c-0.272,0.604-0.417,1.136-0.432,1.638c-0.02,0.71,0.085,1.261,0.3,1.695
			c0.234,0.432,0.527,0.78,0.876,1.01c0.36,0.246,0.744,0.408,1.173,0.506c0.428,0.08,0.831,0.143,1.193,0.153
			c0.939,0.027,1.782-0.108,2.579-0.402c0.775-0.293,1.489-0.719,2.126-1.28c0.655-0.54,1.237-1.217,1.75-2
			c0.526-0.798,0.993-1.665,1.413-2.607c0.421-0.957,0.78-1.979,1.096-3.062c0.332-1.103,0.618-2.214,0.849-3.372
			c1.098-0.613,2.114-1.264,3.053-1.92c0.407-0.283,0.818-0.579,1.219-0.893c0.424-0.335,0.833-0.659,1.224-0.991
			c0.375-0.336,0.74-0.689,1.057-1.027c0.18-0.19,0.337-0.394,0.483-0.58c-0.358-0.535-0.654-1.121-0.87-1.764
			C125.913,36.738,125.825,36.319,125.749,35.888 M112.831,52.553c-0.349,0.424-0.741,0.757-1.158,1.014
			c-0.422,0.26-0.856,0.381-1.309,0.351c-0.437-0.012-0.64-0.215-0.627-0.62c0.006-0.256,0.105-0.566,0.277-0.932
			c0.17-0.382,0.414-0.788,0.711-1.224c0.297-0.41,0.634-0.86,1.03-1.339c0.38-0.461,0.793-0.91,1.228-1.348
			c0.436-0.438,0.878-0.849,1.328-1.216c0.449-0.382,0.894-0.702,1.33-0.973c-0.093,0.434-0.23,0.915-0.397,1.471
			c-0.185,0.553-0.38,1.117-0.623,1.692c-0.229,0.574-0.498,1.12-0.797,1.67C113.522,51.649,113.199,52.127,112.831,52.553"/>
	</g>
	<g>
		<path d="M138.779,37.696c-0.047-0.261-0.033-0.516,0.055-0.766c0.073-0.231,0.187-0.466,0.323-0.663
			c0.133-0.218,0.273-0.397,0.416-0.561c0.146-0.161,0.239-0.289,0.317-0.388c0.483-0.629,0.882-1.148,1.184-1.568
			c0.299-0.42,0.556-0.806,0.756-1.138c0.076-0.116,0.135-0.221,0.186-0.338c-0.436,0.427-3.258,2.427-3.86,2.889
			c-0.603,0.48-1.251,0.913-1.927,1.296c-0.688,0.402-1.393,0.728-2.119,0.996c-0.705,0.27-1.393,0.408-2.055,0.409
			c-0.198,0.003-0.386-0.015-0.582-0.071c-0.172-0.035-0.343-0.102-0.503-0.214c-0.161-0.111-0.321-0.263-0.479-0.452
			c-0.17-0.205-0.337-0.435-0.501-0.727c0.955-0.271,1.831-0.65,2.628-1.121c0.816-0.469,1.494-1.01,2.078-1.611
			c0.582-0.599,1.046-1.241,1.377-1.913c0.321-0.674,0.481-1.346,0.477-2.019c-0.002-0.624-0.117-1.176-0.332-1.679
			c-0.228-0.5-0.532-0.923-0.925-1.275c-0.38-0.344-0.833-0.617-1.365-0.815c-0.512-0.184-1.078-0.286-1.685-0.281
			c-0.768,0.006-1.435,0.143-2.044,0.417c-0.628,0.274-1.165,0.635-1.667,1.09c-0.485,0.45-0.915,0.974-1.272,1.568
			c-0.373,0.604-0.677,1.221-0.922,1.878c-0.23,0.652-0.41,1.318-0.521,1.995c-0.118,0.675-0.167,1.323-0.161,1.928
			c0.003,0.451,0.035,0.89,0.093,1.324c0.076,0.432,0.164,0.851,0.295,1.263c0.216,0.644,0.512,1.229,0.87,1.764
			c0.103,0.136,0.203,0.272,0.295,0.4c0.524,0.617,1.161,1.104,1.921,1.476c0.785,0.358,1.679,0.531,2.699,0.523
			c0.645-0.005,1.299-0.07,1.93-0.224c0.627-0.149,1.239-0.362,1.833-0.599c0.601-0.254,1.147-0.538,1.689-0.855
			c0.542-0.315,1.036-0.654,1.498-0.978c0.112-0.068,0.222-0.159,0.311-0.229c-0.02-0.045-0.046-0.066-0.069-0.099
			C138.92,38.19,138.851,37.984,138.779,37.696 M129.609,33.675c0-0.239,0.006-0.525,0.022-0.859c0.02-0.341,0.057-0.69,0.134-1.05
			c0.06-0.349,0.167-0.708,0.303-1.064c0.135-0.354,0.308-0.67,0.521-0.948c0.228-0.28,0.505-0.506,0.829-0.68
			c0.327-0.181,0.732-0.269,1.194-0.271c0.267-0.002,0.481,0.152,0.669,0.463c0.182,0.309,0.279,0.716,0.283,1.209
			c0.002,0.341-0.134,0.701-0.405,1.07c-0.271,0.372-0.598,0.718-0.997,1.033c-0.401,0.325-0.833,0.58-1.287,0.788
			C130.417,33.567,129.99,33.671,129.609,33.675"/>
	</g>
	<g>
		<path d="M155,34.433l-0.762-3.564c-0.432,0.494-0.872,0.927-1.318,1.304c-0.107,0.084-0.219,0.166-0.306,0.248
			c-0.354,0.283-0.687,0.555-1.013,0.798c-0.435,0.329-0.853,0.629-1.254,0.929c-0.396,0.316-0.759,0.633-1.085,0.963
			c-0.142-0.686-0.289-1.271-0.441-1.754c-0.154-0.493-0.308-0.924-0.467-1.278c-0.17-0.366-0.331-0.691-0.475-0.969
			c-0.149-0.268-0.289-0.53-0.408-0.772c-0.133-0.25-0.256-0.497-0.364-0.764c-0.113-0.254-0.189-0.551-0.267-0.883
			c0.007-0.119,0.101-0.324,0.267-0.609c0.163-0.288,0.342-0.596,0.535-0.938c0.178-0.333,0.337-0.681,0.478-1.033
			c0.136-0.351,0.175-0.653,0.128-0.905c-0.026-0.131-0.08-0.28-0.131-0.448c-0.051-0.178-0.165-0.327-0.326-0.46
			c-0.157-0.127-0.394-0.227-0.695-0.271c-0.298-0.058-0.71-0.034-1.211,0.079c-0.306,0.063-0.579,0.166-0.817,0.307
			c-0.22,0.144-0.435,0.309-0.606,0.499c-0.175,0.181-0.329,0.385-0.463,0.602c-0.133,0.218-0.255,0.437-0.354,0.658
			c-0.498,0.987-0.905,1.821-1.209,2.477c-0.306,0.658-0.568,1.209-0.776,1.673c-0.228,0.453-0.407,0.843-0.562,1.183
			c-0.11,0.221-0.22,0.444-0.35,0.67c-0.069,0.106-0.124,0.221-0.202,0.328c-0.199,0.342-0.458,0.716-0.758,1.138
			c-0.301,0.422-0.7,0.938-1.182,1.584c-0.061,0.082-0.171,0.21-0.317,0.373c-0.143,0.158-0.284,0.357-0.417,0.558
			c-0.136,0.215-0.251,0.432-0.321,0.682c-0.089,0.233-0.103,0.487-0.041,0.746c0.058,0.289,0.128,0.494,0.229,0.636
			c0.021,0.033,0.058,0.074,0.086,0.1c0.068,0.074,0.157,0.153,0.236,0.183c0.119,0.042,0.26,0.072,0.411,0.036
			c0.151-0.018,0.309-0.044,0.477-0.077c0.136-0.023,0.279-0.073,0.422-0.108c0.142-0.035,0.284-0.101,0.424-0.155
			c0.172,0.565,0.437,1.02,0.767,1.365c0.354,0.363,0.757,0.622,1.22,0.784c0.46,0.161,0.965,0.236,1.533,0.241
			c0.57,0.001,1.167-0.057,1.787-0.191c0.873-0.177,1.791-0.47,2.717-0.876c0.923-0.405,1.833-0.873,2.707-1.419
			c0.681-0.398,1.307-0.847,1.932-1.326c0.187-0.143,0.373-0.283,0.549-0.428C153.79,35.723,154.444,35.091,155,34.433
			 M145.474,37.224c-0.25,0.208-0.573,0.351-0.991,0.428c-0.335,0.079-0.65,0.065-0.948-0.045c-0.3-0.106-0.573-0.236-0.823-0.383
			c-0.25-0.151-0.454-0.293-0.638-0.4c-0.2-0.13-0.357-0.192-0.481-0.151l3.253-4.945c0.079,0.156,0.186,0.351,0.312,0.573
			c0.122,0.227,0.223,0.466,0.342,0.729c0.121,0.253,0.232,0.524,0.319,0.81c0.106,0.291,0.189,0.58,0.246,0.868
			c0.062,0.344,0.111,0.664,0.109,0.977c0.002,0.312-0.064,0.601-0.169,0.869C145.895,36.817,145.723,37.036,145.474,37.224"/>
	</g>
</g>
</svg>
