<?xml version="1.0" encoding="utf-8"?>
<!-- Generator: Adobe Illustrator 16.0.0, SVG Export Plug-In . SVG Version: 6.00 Build 0)  -->
<!DOCTYPE svg PUBLIC "-//W3C//DTD SVG 1.0//EN" "http://www.w3.org/TR/2001/REC-SVG-20010904/DTD/svg10.dtd">
<svg version="1.0" id="Capa_1" xmlns="http://www.w3.org/2000/svg" xmlns:xlink="http://www.w3.org/1999/xlink" x="0px" y="0px"
	 width="203.5px" height="68.75px" viewBox="0 0 203.5 68.75" enable-background="new 0 0 203.5 68.75" xml:space="preserve">
<g>
	<g>
		<path d="M34.467,17.23c0.48-1.46,0.678-2.92,0.587-4.368c-0.088-1.56-0.499-3.048-1.215-4.465
			c-0.719-1.416-1.731-2.646-3.046-3.691c-1.312-1.047-2.929-1.85-4.846-2.414c-1.914-0.565-4.123-0.769-6.612-0.621
			c-1.905,0.117-3.674,0.531-5.323,1.248c-1.646,0.715-3.15,1.681-4.515,2.894c-1.363,1.21-2.569,2.641-3.619,4.282
			c-1.05,1.641-1.917,3.437-2.602,5.394c-0.69,1.954-1.18,4.036-1.48,6.242s-0.38,4.481-0.239,6.824
			c0.083,1.364,0.239,2.815,0.478,4.349c0.227,1.535,0.545,3.051,0.949,4.551c0.404,1.504,0.894,2.935,1.472,4.3
			c0.581,1.364,1.263,2.562,2.05,3.58c0.782,1.028,1.672,1.825,2.663,2.402c0.997,0.57,2.106,0.823,3.321,0.747
			c1.138-0.064,2.182-0.342,3.117-0.818c0.941-0.487,1.778-1.107,2.519-1.875c0.734-0.763,1.366-1.645,1.894-2.637
			c0.531-0.991,0.967-2.033,1.31-3.123c0.345-1.095,0.59-2.206,0.74-3.341c0.145-1.129,0.206-2.214,0.171-3.254
			c-0.003-0.092-0.009-0.254-0.021-0.493c-0.006-0.236-0.012-0.518-0.024-0.834c-0.012-0.32-0.023-0.673-0.032-1.058
			c-0.009-0.388-0.018-0.772-0.023-1.16c-0.024-0.906-0.047-1.902-0.071-2.991c2.312-0.494,4.306-1.231,5.978-2.209
			c1.675-0.979,3.046-2.103,4.108-3.375C33.222,20.05,33.989,18.686,34.467,17.23 M28.103,18.481
			c-0.652,0.706-1.487,1.336-2.513,1.893c-1.026,0.549-2.256,0.984-3.695,1.293l0.091-1.771l1.018-5.8
			c-0.006-0.063-0.006-0.107,0.003-0.146c0-0.038,0-0.11-0.003-0.215c-0.021-0.369-0.118-0.668-0.292-0.896
			c-0.168-0.227-0.372-0.407-0.607-0.535c-0.245-0.124-0.501-0.207-0.788-0.239c-0.286-0.037-0.56-0.047-0.826-0.029
			c-0.879,0.05-1.599,0.312-2.167,0.788c-0.566,0.472-1.015,1.056-1.345,1.744c-0.333,0.692-0.569,1.442-0.713,2.255
			c-0.142,0.81-0.239,1.59-0.277,2.329c-0.035,0.737,0.021,3.105,0.012,3.104c0.109,0.937,0.634,6.292,0.634,6.292
			c0.041,0.683,0.077,1.51,0.097,2.48c0.036,0.976,0.03,2-0.012,3.07c-0.039,1.076-0.13,2.15-0.274,3.22
			c-0.147,1.077-0.369,2.041-0.675,2.902c-0.307,0.856-0.711,1.566-1.215,2.123c-0.501,0.56-1.133,0.861-1.885,0.905
			c-0.731,0.045-1.354-0.227-1.876-0.813c-0.516-0.584-0.961-1.356-1.342-2.307c-0.375-0.954-0.681-2.024-0.92-3.218
			c-0.23-1.191-0.422-2.371-0.566-3.537c-0.145-1.165-0.253-2.264-0.318-3.294c-0.071-1.031-0.124-1.851-0.162-2.459
			c-0.086-1.483-0.068-3.013,0.047-4.588c0.121-1.579,0.366-3.122,0.734-4.625c0.363-1.506,0.85-2.93,1.472-4.278
			c0.62-1.348,1.375-2.537,2.262-3.573c0.891-1.037,1.926-1.877,3.114-2.519c1.177-0.646,2.519-1.013,4.02-1.103
			c2-0.118,3.681,0.009,5.022,0.391c1.351,0.38,2.439,0.907,3.265,1.569c0.832,0.668,1.434,1.422,1.805,2.271
			c0.372,0.848,0.581,1.688,0.628,2.519c0.053,0.847-0.065,1.678-0.348,2.501C29.217,17.006,28.748,17.77,28.103,18.481"/>
	</g>
	<g>
		<path d="M48.951,38.08c0.129-0.636,0.112-1.267,0.268-1.886l-0.268,0.081c-0.631,0.507-3.306,2.95-4.2,3.5
			c-0.891,0.549-1.826,1.043-2.811,1.488c-0.979,0.44-1.981,0.789-2.999,1.052c-1.021,0.255-1.973,0.345-2.858,0.259
			c-0.286-0.027-0.542-0.084-0.782-0.162c-0.239-0.085-0.463-0.211-0.667-0.38c-0.209-0.167-0.41-0.397-0.599-0.683
			c-0.186-0.288-0.375-0.641-0.551-1.063c1.318-0.229,2.557-0.612,3.725-1.139c1.168-0.529,2.186-1.163,3.067-1.899
			c0.867-0.735,1.578-1.539,2.121-2.414c0.537-0.869,0.855-1.767,0.943-2.686c0.083-0.843,0.006-1.618-0.224-2.325
			c-0.227-0.714-0.583-1.327-1.059-1.861c-0.48-0.531-1.064-0.966-1.746-1.3c-0.684-0.333-1.442-0.54-2.268-0.623
			c-1.023-0.1-1.97-0.01-2.84,0.274c-0.87,0.283-1.672,0.699-2.407,1.243c-0.731,0.551-1.386,1.203-1.97,1.962
			c-0.581,0.755-1.083,1.562-1.499,2.416c-0.416,0.854-0.755,1.737-1.009,2.644c-0.25,0.912-0.416,1.777-0.498,2.608
			c-0.118,1.226-0.056,2.416,0.183,3.566c0.239,1.148,0.664,2.182,1.277,3.098c0.616,0.919,1.418,1.68,2.412,2.284
			c0.994,0.602,2.186,0.978,3.572,1.112c0.894,0.084,1.775,0.069,2.66-0.051c0.888-0.116,1.749-0.298,2.589-0.555
			c0.834-0.252,1.64-0.56,2.416-0.92c0.775-0.355,1.501-0.726,2.176-1.108c0.354-0.201,0.696-0.409,1.039-0.627
			c0.746-0.422,1.262-1.461,1.837-2.237C48.219,40.604,48.703,39.286,48.951,38.08 M33.491,35.361
			c0.071-0.456,0.18-0.922,0.318-1.402c0.147-0.478,0.336-0.947,0.566-1.411c0.233-0.46,0.519-0.867,0.855-1.214
			c0.342-0.348,0.749-0.618,1.224-0.812c0.472-0.193,1.026-0.259,1.667-0.196c0.351,0.037,0.634,0.28,0.832,0.731
			c0.207,0.453,0.277,1.007,0.212,1.675c-0.047,0.477-0.28,0.944-0.699,1.41c-0.418,0.469-0.917,0.891-1.501,1.265
			c-0.578,0.379-1.197,0.67-1.852,0.887c-0.658,0.209-1.253,0.293-1.785,0.238C33.361,36.206,33.414,35.818,33.491,35.361"/>
	</g>
	<g>
		<path d="M65.463,41.683c-0.72,0.483-1.486,0.919-2.336,1.276c-1.032,0.439-2.173,0.769-3.427,0.982
			c-1.248,0.216-2.622,0.273-4.123,0.176l-0.101-0.479c1.375-0.503,2.569-1.097,3.592-1.784c1.018-0.682,1.876-1.435,2.557-2.252
			c0.687-0.819,1.209-1.689,1.566-2.611c0.36-0.928,0.575-1.888,0.64-2.899c0.085-1.255-0.018-2.336-0.298-3.221
			c-0.289-0.888-0.711-1.631-1.269-2.218c-0.557-0.588-1.224-1.029-1.988-1.324c-0.772-0.296-1.61-0.474-2.513-0.531
			c-1.215-0.083-2.274,0.07-3.162,0.458c-0.885,0.394-1.666,0.939-2.333,1.66c-0.664,0.715-1.224,1.574-1.687,2.569
			c-0.454,0.997-0.855,2.059-1.188,3.182c-0.159,0.527-0.301,1.068-0.445,1.609c-0.153,0.621-0.304,1.248-0.431,1.886
			c-0.248,1.205-0.496,2.379-0.731,3.524c-0.575,0.776-1.118,1.541-1.643,2.301c-0.782,1.139-1.516,2.252-2.194,3.348
			c-0.481,0.787-0.956,1.599-1.418,2.441c-0.466,0.839-0.888,1.671-1.274,2.486c-0.38,0.817-0.69,1.599-0.932,2.353
			c-0.242,0.753-0.384,1.43-0.422,2.037c-0.068,1.054-0.065,2.055,0.012,3.009c0.08,0.948,0.266,1.787,0.555,2.516
			c0.283,0.726,0.699,1.313,1.229,1.767c0.54,0.453,1.23,0.706,2.076,0.763c1.053,0.067,2.097-0.286,3.129-1.069
			c1.035-0.783,1.982-1.925,2.84-3.432c0.861-1.512,1.587-3.354,2.18-5.525c0.602-2.171,0.982-4.608,1.165-7.309l0.023-0.399
			c1.215,0.257,2.186,0.475,2.896,0.646c0.708,0.177,1.257,0.31,1.637,0.408c0.386,0.099,0.652,0.17,0.802,0.211
			c0.156,0.04,0.283,0.063,0.389,0.07c0.858,0.058,1.737-0.012,2.64-0.197c0.896-0.188,1.755-0.459,2.583-0.812
			c0.829-0.355,1.599-0.783,2.312-1.281c0.192-0.135,0.366-0.279,0.543-0.424c-0.496-0.743-0.882-1.567-1.147-2.483
			C65.637,42.641,65.54,42.169,65.463,41.683 M47.874,48.193c-0.038,0.37-0.085,0.833-0.147,1.386
			c-0.056,0.556-0.136,1.234-0.233,2.03c-0.059,0.454-0.112,0.977-0.156,1.553c-0.044,0.578-0.106,1.17-0.171,1.778
			c-0.071,0.604-0.15,1.196-0.23,1.772c-0.08,0.574-0.188,1.089-0.327,1.538c-0.127,0.454-0.289,0.814-0.469,1.078
			c-0.183,0.264-0.398,0.387-0.651,0.373c-0.277-0.021-0.51-0.142-0.69-0.358c-0.177-0.221-0.318-0.473-0.421-0.747
			c-0.101-0.271-0.168-0.545-0.204-0.812c-0.03-0.273-0.047-0.468-0.039-0.586c0.012-0.191,0.074-0.503,0.183-0.937
			c0.109-0.434,0.256-0.943,0.437-1.536c0.18-0.592,0.392-1.229,0.628-1.914c0.239-0.683,0.499-1.367,0.785-2.049
			c0.283-0.683,0.578-1.339,0.888-1.961c0.307-0.633,0.619-1.178,0.935-1.653C47.951,47.434,47.916,47.78,47.874,48.193
			 M52.926,41.688c0.059-0.878,0.138-1.751,0.248-2.631c0.109-0.877,0.253-1.723,0.437-2.53c0.183-0.804,0.392-1.561,0.637-2.256
			c0.242-0.699,0.54-1.296,0.878-1.796c0.339-0.499,0.726-0.888,1.159-1.165c0.434-0.276,0.926-0.396,1.478-0.36
			c0.481,0.032,0.855,0.19,1.118,0.485c0.257,0.292,0.428,0.635,0.51,1.03c0.089,0.39,0.106,0.804,0.056,1.243
			c-0.05,0.437-0.127,0.811-0.218,1.131c-0.227,0.688-0.51,1.354-0.849,2.002c-0.336,0.647-0.764,1.263-1.271,1.855
			c-0.507,0.593-1.103,1.144-1.781,1.651C54.643,40.856,53.843,41.301,52.926,41.688"/>
	</g>
	<g>
		<path d="M82.398,40.874c-0.844,0.615-1.743,1.179-2.687,1.694c-0.95,0.515-1.92,0.938-2.917,1.279
			c-0.997,0.333-1.941,0.493-2.832,0.47c-0.283-0.003-0.545-0.037-0.79-0.104c-0.242-0.062-0.478-0.173-0.696-0.326
			c-0.215-0.15-0.431-0.367-0.64-0.639c-0.209-0.271-0.424-0.61-0.637-1.017c1.3-0.329,2.51-0.801,3.63-1.415
			c1.121-0.613,2.088-1.324,2.914-2.12c0.814-0.804,1.459-1.66,1.932-2.568c0.472-0.909,0.723-1.828,0.74-2.748
			c0.018-0.85-0.112-1.616-0.395-2.306c-0.286-0.688-0.685-1.283-1.204-1.775c-0.513-0.491-1.132-0.884-1.832-1.165
			c-0.71-0.28-1.48-0.431-2.312-0.45c-1.026-0.022-1.961,0.144-2.813,0.486c-0.844,0.347-1.61,0.821-2.301,1.421
			c-0.693,0.604-1.294,1.305-1.816,2.106c-0.525,0.795-0.961,1.64-1.315,2.521c-0.354,0.885-0.622,1.789-0.802,2.713
			c-0.183,0.922-0.286,1.805-0.301,2.635c-0.015,0.723,0.035,1.428,0.139,2.115c0.077,0.486,0.174,0.958,0.307,1.427
			c0.266,0.916,0.652,1.74,1.147,2.483c0.121,0.178,0.236,0.35,0.363,0.517c0.678,0.867,1.539,1.564,2.574,2.094
			c1.036,0.528,2.256,0.803,3.654,0.833c0.888,0.022,1.772-0.064,2.646-0.241c0.876-0.182,1.716-0.436,2.533-0.749
			c0.823-0.319,1.599-0.687,2.348-1.102c0.743-0.413,1.439-0.841,2.088-1.269c1.492-1.009,2.908-2.18,4.244-3.504l-2.371-3.356
			C84.406,39.369,83.244,40.261,82.398,40.874 M70.837,37.32c0.035-0.46,0.109-0.932,0.215-1.421
			c0.109-0.49,0.259-0.975,0.457-1.452c0.189-0.479,0.448-0.902,0.761-1.275c0.313-0.372,0.699-0.672,1.153-0.901
			c0.46-0.226,1.009-0.333,1.651-0.321c0.354,0.009,0.655,0.231,0.888,0.663c0.236,0.439,0.342,0.991,0.333,1.656
			c-0.012,0.476-0.209,0.961-0.59,1.458c-0.383,0.499-0.85,0.956-1.395,1.377c-0.558,0.42-1.147,0.756-1.79,1.021
			c-0.637,0.26-1.221,0.387-1.761,0.375C70.769,38.174,70.795,37.78,70.837,37.32"/>
	</g>
	<g>
		<path d="M123.806,38.933c-0.283,0.241-0.581,0.47-0.885,0.686c-0.6,0.423-1.21,0.786-1.82,1.097
			c-0.616,0.309-1.215,0.544-1.802,0.714c-0.584,0.173-1.127,0.254-1.619,0.26c-0.537,0.003-0.965-0.159-1.283-0.483
			c-0.321-0.325-0.59-0.759-0.799-1.301c-0.216-0.541-0.396-1.171-0.555-1.887c-0.153-0.713-0.33-1.464-0.521-2.244
			c-0.192-0.783-0.422-1.575-0.696-2.384s-0.638-1.582-1.101-2.311c-0.457-0.73-1.032-1.388-1.713-1.979
			c-0.688-0.59-1.534-1.071-2.552-1.441c1.667-0.11,3.162-0.354,4.495-0.73s2.516-0.845,3.557-1.398
			c1.044-0.557,1.935-1.184,2.675-1.884c0.74-0.699,1.351-1.42,1.826-2.169c0.475-0.749,0.825-1.51,1.053-2.278
			c0.229-0.77,0.342-1.502,0.336-2.197c-0.003-1.069-0.183-2.063-0.534-2.976c-0.351-0.91-0.828-1.737-1.438-2.482
			c-0.602-0.743-1.321-1.402-2.159-1.974c-0.835-0.577-1.743-1.058-2.713-1.444c-0.977-0.386-1.997-0.677-3.07-0.876
			c-1.074-0.196-2.156-0.295-3.238-0.288c-2.448,0.01-4.772,0.35-6.966,1.013c-2.186,0.664-4.214,1.583-6.067,2.759
			c-1.855,1.174-3.527,2.567-5.014,4.178c-1.48,1.604-2.746,3.373-3.784,5.288c-1.044,1.918-1.837,3.955-2.383,6.108
			c-0.549,2.154-0.817,4.353-0.805,6.599c0.006,1.246,0.112,2.493,0.312,3.756c0.204,1.259,0.501,2.478,0.888,3.655
			c0.389,1.179,0.876,2.28,1.463,3.31c0.587,1.022,1.268,1.92,2.05,2.681c0.775,0.765,1.651,1.367,2.613,1.805
			c0.967,0.435,2.029,0.65,3.188,0.646c1.561-0.01,2.885-0.48,3.958-1.412c1.077-0.936,1.97-2.278,2.675-4.036
			c0.71-1.754,1.277-3.891,1.699-6.404c0.419-2.516,0.77-5.359,1.041-8.532l1.368-0.004c0.566-0.004,1.035,0.252,1.419,0.772
			c0.38,0.519,0.708,1.207,0.987,2.059c0.28,0.853,0.534,1.827,0.768,2.92c0.227,1.093,0.478,2.208,0.746,3.35
			c0.263,1.143,0.572,2.261,0.926,3.349c0.354,1.093,0.796,2.066,1.321,2.919c0.522,0.854,1.165,1.536,1.911,2.053
			c0.746,0.519,1.651,0.773,2.71,0.771c0.938-0.006,1.867-0.11,2.77-0.318c0.908-0.206,1.758-0.464,2.572-0.771
			c0.808-0.312,1.548-0.644,2.221-1.002c0.672-0.361,1.25-0.687,1.743-0.987c0.492-0.297,0.873-0.548,1.149-0.745
			c0.271-0.197,0.413-0.286,0.413-0.272l-0.168-0.277c-0.616-0.331-1.174-0.73-1.666-1.216
			C124.711,40.383,124.212,39.706,123.806,38.933 M104.941,23.979c0.124-1.188,0.26-2.234,0.41-3.144
			c0.147-0.906,0.228-1.631,0.239-2.184l-0.003-0.196c-0.003-0.503-0.127-0.921-0.366-1.248c-0.238-0.326-0.723-0.486-1.444-0.482
			c-0.555,0.003-1.021,0.125-1.404,0.366c-0.38,0.243-0.711,0.556-0.982,0.94c-0.274,0.384-0.493,0.812-0.655,1.286
			c-0.168,0.47-0.289,0.939-0.375,1.404c-0.085,0.463-0.145,0.898-0.18,1.302c-0.029,0.41-0.056,0.727-0.071,0.958
			c0,0-0.631,5.73-0.64,6.357c-0.012,0.634-0.039,1.351-0.085,2.163c-0.047,0.812-0.112,1.683-0.195,2.61
			c-0.083,0.924-0.195,1.846-0.336,2.761c-0.136,0.912-0.318,1.794-0.525,2.641c-0.215,0.847-0.466,1.594-0.749,2.243
			c-0.289,0.645-0.619,1.162-0.994,1.547c-0.375,0.383-0.808,0.579-1.303,0.582c-0.97,0.005-1.802-0.284-2.489-0.868
			c-0.69-0.584-1.262-1.342-1.699-2.281c-0.439-0.939-0.764-2-0.973-3.18c-0.207-1.178-0.313-2.356-0.325-3.531
			c-0.006-1.518,0.133-3.118,0.401-4.802c0.274-1.678,0.723-3.341,1.333-4.979c0.616-1.643,1.421-3.212,2.413-4.708
			c0.991-1.495,2.194-2.812,3.607-3.951c1.416-1.138,3.061-2.045,4.937-2.722c1.869-0.672,3.999-1.019,6.391-1.032
			c1.304-0.004,2.451,0.139,3.439,0.428c0.984,0.296,1.813,0.686,2.479,1.184c0.67,0.497,1.177,1.068,1.52,1.72
			c0.348,0.65,0.516,1.33,0.521,2.042c0.009,0.724-0.174,1.473-0.53,2.252c-0.36,0.777-0.982,1.492-1.879,2.147
			c-0.899,0.659-2.108,1.205-3.646,1.643C109.251,23.68,107.301,23.925,104.941,23.979"/>
	</g>
	<g>
		<path d="M140.602,38.251c-0.434,0.26-0.909,0.518-1.428,0.784c-0.908,0.465-1.855,0.872-2.846,1.23
			c-0.991,0.348-1.991,0.611-2.997,0.787c-1.012,0.173-1.94,0.182-2.799,0.031c-0.271-0.049-0.519-0.123-0.746-0.222
			c-0.224-0.097-0.431-0.234-0.619-0.419c-0.186-0.177-0.363-0.417-0.528-0.709c-0.156-0.295-0.312-0.651-0.457-1.073
			c1.301-0.123,2.539-0.396,3.71-0.823c1.174-0.423,2.212-0.957,3.124-1.605c0.908-0.646,1.66-1.376,2.253-2.181
			c0.593-0.802,0.971-1.65,1.127-2.538c0.142-0.811,0.129-1.569-0.039-2.277c-0.168-0.707-0.466-1.334-0.888-1.891
			c-0.425-0.551-0.955-1.018-1.599-1.399c-0.634-0.376-1.354-0.639-2.149-0.779c-0.988-0.174-1.917-0.161-2.784,0.044
			c-0.87,0.211-1.678,0.551-2.434,1.026c-0.755,0.476-1.441,1.063-2.064,1.75c-0.625,0.69-1.171,1.438-1.643,2.235
			c-0.475,0.801-0.873,1.628-1.186,2.492c-0.315,0.863-0.545,1.691-0.687,2.491c-0.207,1.187-0.245,2.344-0.101,3.48
			c0.032,0.251,0.076,0.495,0.127,0.738c0.177,0.854,0.466,1.642,0.873,2.373c0.339,0.604,0.764,1.143,1.259,1.631
			c0.286,0.274,0.581,0.535,0.911,0.777c0.918,0.663,2.05,1.115,3.386,1.353c0.858,0.153,1.72,0.206,2.59,0.16
			c0.867-0.043,1.72-0.156,2.557-0.336c0.835-0.183,1.643-0.419,2.422-0.711c0.778-0.283,1.513-0.59,2.203-0.91
			c0.463-0.215,0.926-0.455,1.383-0.7c-0.13-0.575-0.188-1.187-0.165-1.851C140.403,40.151,140.48,39.167,140.602,38.251
			 M128.326,35.001c0.054-0.311,0.136-0.69,0.242-1.125c0.106-0.439,0.254-0.885,0.428-1.341c0.177-0.45,0.395-0.895,0.651-1.326
			c0.263-0.432,0.572-0.803,0.933-1.113c0.354-0.317,0.772-0.547,1.247-0.697c0.478-0.147,1.021-0.169,1.634-0.062
			c0.342,0.061,0.596,0.32,0.755,0.772c0.159,0.46,0.186,1.006,0.077,1.649c-0.086,0.454-0.349,0.894-0.791,1.315
			c-0.442,0.421-0.958,0.792-1.557,1.11c-0.59,0.326-1.215,0.562-1.87,0.72C129.421,35.062,128.837,35.089,128.326,35.001"/>
	</g>
	<g>
		<path d="M162.496,39.342c-0.581,0.736-1.123,1.396-1.628,1.954c-0.796,0.894-1.516,1.634-2.158,2.221
			c-0.644,0.59-1.222,1.055-1.746,1.401c-0.52,0.344-0.997,0.631-1.437,0.864c0.457-2.449,0.902-4.738,1.336-6.87
			c0.174-0.906,0.359-1.812,0.546-2.731c0.188-0.913,0.374-1.78,0.551-2.601c0.187-0.817,0.343-1.55,0.499-2.2
			c0.153-0.646,0.277-1.159,0.377-1.529c0.051-0.174,0.077-0.323,0.08-0.453c0.015-0.42-0.127-0.731-0.425-0.939
			c-0.295-0.207-0.67-0.317-1.118-0.332c-0.38-0.011-0.778,0.04-1.203,0.156c-0.425,0.116-0.831,0.299-1.224,0.545
			s-0.746,0.561-1.053,0.935c-0.31,0.375-0.531,0.802-0.664,1.29l-1.736,6.333c-0.068,0.463-0.216,1.035-0.431,1.726
			c-0.225,0.688-0.502,1.353-0.844,1.995c-0.339,0.64-0.731,1.183-1.186,1.634c-0.445,0.448-0.941,0.667-1.475,0.643
			c-0.336-0.01-0.607-0.102-0.817-0.274c-0.209-0.174-0.38-0.396-0.501-0.669c-0.121-0.271-0.201-0.579-0.239-0.92
			c-0.041-0.341-0.056-0.696-0.044-1.056c0.023-0.696,0.112-1.499,0.254-2.407c0.147-0.905,0.336-1.831,0.562-2.772
			c0.228-0.945,0.479-1.858,0.762-2.758c0.289-0.895,0.569-1.672,0.852-2.327c0.092-0.215,0.166-0.419,0.204-0.606
			c0.041-0.184,0.067-0.358,0.073-0.516c0.015-0.534-0.153-0.938-0.504-1.204c-0.357-0.267-0.781-0.407-1.292-0.423
			c-0.593-0.018-1.206,0.131-1.837,0.45c-0.641,0.318-1.13,0.799-1.486,1.44c-0.481,0.895-0.909,1.781-1.283,2.662
			c-0.381,0.88-0.699,1.792-0.962,2.738c-0.262,0.948-0.475,1.953-0.631,3.001c-0.023,0.168-0.05,0.336-0.067,0.507
			c-0.121,0.916-0.198,1.9-0.233,2.961c-0.023,0.664,0.035,1.275,0.165,1.851c0.05,0.255,0.121,0.503,0.207,0.737
			c0.276,0.769,0.66,1.431,1.149,1.977c0.49,0.542,1.06,0.97,1.711,1.271c0.646,0.307,1.318,0.469,2.015,0.491
			c0.793,0.028,1.625-0.157,2.482-0.559c0.867-0.398,1.699-0.933,2.507-1.602l-0.657,2.003c-1.07,0.821-2.132,1.681-3.186,2.588
			c-1.05,0.909-2.059,1.836-3.025,2.771c-0.968,0.937-1.864,1.887-2.695,2.833c-0.829,0.954-1.546,1.873-2.156,2.758
			c-0.61,0.886-1.091,1.731-1.454,2.541c-0.359,0.807-0.552,1.533-0.575,2.188c-0.029,0.942,0.104,1.7,0.401,2.275
			c0.304,0.574,0.693,1.022,1.168,1.344c0.472,0.32,0.994,0.538,1.565,0.659c0.566,0.122,1.098,0.19,1.593,0.206
			c1.239,0.042,2.386-0.137,3.431-0.529c1.041-0.391,1.99-0.957,2.849-1.7c0.858-0.738,1.634-1.631,2.33-2.684
			c0.692-1.05,1.318-2.203,1.875-3.472c0.558-1.264,1.051-2.626,1.475-4.081c0.422-1.457,0.803-2.955,1.124-4.496
			c1.451-0.823,2.805-1.676,4.067-2.563c0.536-0.376,1.079-0.771,1.637-1.192c0.561-0.428,1.1-0.866,1.61-1.315
			c0.516-0.456,0.99-0.911,1.415-1.37c0.245-0.263,0.457-0.516,0.652-0.772c-0.49-0.704-0.885-1.483-1.159-2.353
			C162.718,40.472,162.585,39.916,162.496,39.342 M145.267,61.556c-0.475,0.562-0.987,1.014-1.542,1.35
			c-0.558,0.341-1.136,0.497-1.743,0.478c-0.581-0.018-0.861-0.298-0.844-0.833c0.009-0.332,0.136-0.751,0.369-1.251
			c0.229-0.499,0.545-1.035,0.943-1.611c0.396-0.57,0.853-1.169,1.374-1.792c0.522-0.619,1.068-1.219,1.646-1.802
			c0.581-0.584,1.171-1.127,1.772-1.629c0.602-0.499,1.194-0.931,1.775-1.288c-0.139,0.577-0.321,1.228-0.546,1.962
			c-0.228,0.731-0.498,1.48-0.814,2.245c-0.318,0.763-0.672,1.511-1.073,2.237C146.181,60.346,145.744,60.991,145.267,61.556"/>
	</g>
	<g>
		<path d="M179.87,41.735c-0.073-0.341-0.053-0.674,0.057-0.998c0.108-0.326,0.253-0.627,0.437-0.899
			c0.174-0.277,0.359-0.522,0.548-0.743c0.195-0.217,0.337-0.385,0.428-0.508c0.652-0.846,1.177-1.553,1.581-2.11
			c0.398-0.556,0.734-1.06,1.012-1.51c0.091-0.149,0.177-0.295,0.257-0.445c-0.578,0.566-4.354,3.237-5.159,3.857
			c-0.805,0.621-1.663,1.196-2.571,1.725c-0.911,0.529-1.847,0.969-2.811,1.322c-0.956,0.355-1.873,0.538-2.74,0.54
			c-0.277,0.004-0.533-0.022-0.775-0.081c-0.236-0.054-0.469-0.155-0.685-0.298c-0.218-0.142-0.434-0.346-0.646-0.604
			c-0.215-0.259-0.428-0.58-0.651-0.97c1.259-0.356,2.427-0.851,3.503-1.484c1.077-0.63,2-1.344,2.778-2.148
			c0.773-0.801,1.381-1.653,1.817-2.553c0.434-0.901,0.648-1.799,0.643-2.699c-0.003-0.826-0.153-1.57-0.451-2.237
			c-0.292-0.664-0.699-1.226-1.218-1.693c-0.52-0.467-1.127-0.829-1.826-1.088c-0.695-0.252-1.448-0.38-2.259-0.373
			c-1,0.009-1.908,0.19-2.726,0.553c-0.813,0.361-1.551,0.842-2.206,1.451c-0.654,0.602-1.227,1.302-1.713,2.097
			c-0.487,0.793-0.894,1.624-1.212,2.5c-0.322,0.869-0.555,1.758-0.708,2.663s-0.228,1.765-0.219,2.574
			c0.006,0.604,0.054,1.188,0.142,1.767c0.089,0.574,0.222,1.13,0.393,1.674c0.274,0.869,0.669,1.648,1.159,2.353
			c0.13,0.18,0.257,0.359,0.395,0.526c0.688,0.828,1.546,1.487,2.566,1.97c1.026,0.49,2.221,0.726,3.58,0.714
			c0.87-0.008,1.729-0.107,2.578-0.312c0.843-0.2,1.663-0.469,2.45-0.801c0.788-0.332,1.534-0.709,2.248-1.137
			c0.716-0.425,1.383-0.855,2.005-1.295c0.142-0.104,0.28-0.214,0.419-0.318c-0.032-0.041-0.073-0.074-0.109-0.124
			C180.056,42.405,179.95,42.119,179.87,41.735 M167.625,36.389c0-0.321,0.009-0.702,0.035-1.155
			c0.029-0.45,0.086-0.913,0.177-1.391c0.089-0.479,0.225-0.953,0.404-1.426c0.177-0.469,0.413-0.895,0.708-1.264
			c0.292-0.372,0.661-0.674,1.097-0.91c0.442-0.234,0.977-0.354,1.599-0.358c0.349-0.003,0.644,0.204,0.879,0.623
			c0.248,0.414,0.369,0.953,0.375,1.606c0.003,0.463-0.174,0.942-0.534,1.435c-0.356,0.497-0.799,0.956-1.324,1.38
			c-0.527,0.425-1.097,0.771-1.71,1.046C168.716,36.247,168.15,36.383,167.625,36.389"/>
	</g>
	<g>
		<path d="M201.488,37.403l-1.021-4.76c-0.572,0.655-1.162,1.231-1.758,1.735c-0.136,0.115-0.277,0.224-0.41,0.336
			c-0.457,0.375-0.905,0.734-1.348,1.062c-0.578,0.437-1.133,0.848-1.66,1.252c-0.531,0.396-1.015,0.823-1.457,1.27
			c-0.188-0.906-0.384-1.687-0.59-2.339c-0.206-0.653-0.413-1.225-0.625-1.71c-0.213-0.488-0.419-0.915-0.61-1.282
			c-0.201-0.366-0.387-0.71-0.563-1.037c-0.18-0.326-0.34-0.659-0.478-1.012c-0.142-0.345-0.26-0.742-0.352-1.178
			c0.012-0.167,0.127-0.438,0.352-0.817c0.221-0.383,0.46-0.796,0.704-1.248c0.242-0.451,0.457-0.911,0.644-1.378
			c0.18-0.465,0.238-0.87,0.168-1.212c-0.038-0.172-0.095-0.37-0.171-0.599c-0.077-0.23-0.225-0.429-0.442-0.603
			c-0.21-0.18-0.517-0.304-0.921-0.372c-0.397-0.074-0.94-0.039-1.622,0.106c-0.409,0.083-0.77,0.224-1.076,0.412
			c-0.307,0.192-0.578,0.415-0.813,0.662c-0.239,0.248-0.445,0.518-0.62,0.805c-0.177,0.291-0.333,0.583-0.463,0.877
			c-0.669,1.323-1.206,2.426-1.613,3.3c-0.41,0.877-0.755,1.619-1.044,2.227c-0.289,0.609-0.536,1.134-0.743,1.582
			c-0.142,0.295-0.304,0.593-0.478,0.895c-0.08,0.147-0.162,0.295-0.254,0.444c-0.274,0.452-0.613,0.951-1.015,1.512
			c-0.4,0.559-0.926,1.263-1.577,2.107c-0.092,0.124-0.233,0.292-0.428,0.512c-0.189,0.214-0.378,0.461-0.552,0.738
			c-0.18,0.271-0.324,0.574-0.434,0.899c-0.109,0.328-0.13,0.658-0.056,0.997c0.082,0.385,0.183,0.67,0.312,0.857
			c0.032,0.05,0.073,0.084,0.105,0.123c0.104,0.114,0.21,0.207,0.331,0.251c0.153,0.063,0.339,0.083,0.542,0.055
			c0.204-0.026,0.416-0.066,0.644-0.116c0.18-0.036,0.368-0.084,0.558-0.139c0.188-0.054,0.377-0.12,0.562-0.207
			c0.236,0.749,0.581,1.358,1.029,1.827c0.457,0.471,0.991,0.81,1.607,1.029c0.616,0.217,1.304,0.33,2.056,0.338
			c0.758,0.001,1.558-0.086,2.392-0.263c1.162-0.241,2.365-0.633,3.607-1.168c1.238-0.533,2.454-1.163,3.625-1.883
			c0.896-0.552,1.739-1.15,2.557-1.77c0.251-0.19,0.507-0.376,0.749-0.566C199.869,39.118,200.754,38.268,201.488,37.403
			 M188.786,41.128c-0.324,0.261-0.761,0.45-1.315,0.566c-0.454,0.095-0.879,0.073-1.277-0.068
			c-0.401-0.134-0.761-0.304-1.085-0.499c-0.324-0.202-0.61-0.387-0.861-0.554c-0.248-0.171-0.46-0.238-0.628-0.203l4.32-6.587
			c0.121,0.209,0.257,0.465,0.419,0.763c0.159,0.304,0.312,0.626,0.466,0.972c0.156,0.343,0.298,0.708,0.431,1.094
			c0.133,0.388,0.239,0.771,0.318,1.154c0.095,0.441,0.142,0.873,0.139,1.293c0.003,0.421-0.07,0.804-0.221,1.158
			C189.344,40.564,189.11,40.868,188.786,41.128"/>
	</g>
</g>
</svg>
