<?xml version="1.0" encoding="utf-8"?>
<!-- Generator: Adobe Illustrator 16.0.0, SVG Export Plug-In . SVG Version: 6.00 Build 0)  -->
<!DOCTYPE svg PUBLIC "-//W3C//DTD SVG 1.0//EN" "http://www.w3.org/TR/2001/REC-SVG-20010904/DTD/svg10.dtd">
<svg version="1.0" id="Capa_1" xmlns="http://www.w3.org/2000/svg" xmlns:xlink="http://www.w3.org/1999/xlink" x="0px" y="0px"
	 width="573px" height="519px" viewBox="0 0 573 519" enable-background="new 0 0 573 519" xml:space="preserve">
<g>
	<path fill="#0B68CB" d="M108.578,404.573c-11.723-3.403-26.469-1.135-38.19,0.378s-45.753,6.806-41.594,25.712
		c3.781,18.528,38.19,15.503,51.047,15.503c10.587,0,22.309-1.134,32.896,1.134c7.94,1.513,3.024,4.916-1.513,7.184
		c-4.159,2.269-34.031,12.856-20.419,19.284c5.672,2.647,12.856,2.647,18.906,2.647c9.831,0.378,19.662-0.378,29.115-1.134
		c20.419-1.891,40.837-6.05,61.256-7.184c22.31-1.513,44.618,0.756,66.928,3.781c11.722,1.891,23.443,4.16,35.165,6.05
		c7.562,0.756,19.662,3.781,27.225,0.378c8.697-4.159-5.293-10.587-9.831-10.587c1.891-1.134,4.159-1.512,6.429-1.891
		c7.562-1.134,15.503-1.512,23.064-2.269c12.101-1.134,24.578-2.269,37.057-3.781c9.831-1.134,20.797-2.269,30.249-5.672
		c16.638-6.05-8.696-13.234-14.746-15.125c-6.429-2.269-14.369-3.781-20.419-7.184c-3.781-1.891-4.537-3.781-0.378-5.672
		c6.428-3.403,14.368-4.538,21.553-6.05c7.94-1.891,16.26-3.403,23.821-6.806c3.025-1.135,7.941-3.025,4.538-6.428
		c-4.538-4.159-15.503-4.159-21.175-4.916c-47.266-5.672-95.665-1.891-142.93-1.891c-37.812,0-75.625-0.378-113.437,0.378
		c-15.503,0.378-32.896-1.134-48.021,3.781"/>
</g>
<g>
	<path fill="#FFEAF7" d="M195.959,390.097c0.706-0.059,1.479-0.294,2.287-0.656c-0.503,0.134-1.016,0.208-1.541,0.182
		C196.455,389.782,196.207,389.939,195.959,390.097z"/>
</g>
<g opacity="0.3">
	<path fill="#0B68CB" d="M107.443,407.976c-5.672,0.756-12.856,4.538-13.612,10.965c-0.756,8.319,12.856,10.587,17.771,14.369
		c7.94,5.672,5.672,16.259,15.881,20.797c17.016,7.184,40.081-1.891,55.584-9.075c6.429-3.025,12.479-6.428,19.284-8.319
		c6.05-1.513,12.101-1.513,18.15-2.269c6.428-0.756,26.468-2.647,20.797-13.613c-2.27-4.916-8.697-9.075-14.369-9.453
		c-4.916-0.378-10.209,0.378-15.125,0.378c-11.722,0.378-23.065,0.756-34.409,1.134c-12.855,0.378-25.712,0.756-38.568,0.756
		c-6.05,0-12.1,0-17.771-1.513c-6.05-1.512-10.966-3.025-17.771-3.025"/>
</g>
<g opacity="0.3">
	<path fill="#0B68CB" d="M293.101,417.807c-9.831-0.378-33.652-1.891-34.03,12.478c-0.378,5.672,4.159,7.185,8.318,10.209
		c5.294,3.781,0.756,5.293-0.756,9.831c-2.27,5.672,4.159,6.05,8.318,6.05c6.807-0.378,13.234-0.378,20.04-0.756
		c5.672,0,11.344-1.135,16.638-3.025c6.05-1.891,4.537-6.428,4.537-11.722c0-6.05,5.294-18.15-0.378-22.687
		C310.116,413.648,299.151,414.404,293.101,417.807"/>
</g>
<g>
	<path fill="#0B68CB" d="M221.258,96.782c6.05,8.319,10.209,17.016,14.369,26.468c6.806,15.503,14.368,30.628,24.577,44.619
		c8.319,10.965,44.24,42.35,17.394,53.693c-22.309,9.831-34.787-22.688-38.946-38.569c-4.537-16.637-5.672-34.031-10.966-50.29
		c-1.512-4.159-3.402-8.318-5.672-12.478c-1.512-2.269-3.402-4.537-4.537-7.184c-1.891-4.16,0.757-7.185,3.403-10.587"/>
</g>
<g>
	<path fill="#FFEAF7" d="M220.754,97.16c0-0.252-0.252-0.504-0.252-0.504c1.009,5.042,3.024,9.831,5.042,14.621
		c3.529,9.075,7.562,17.646,11.092,26.721c5.545,14.369,13.864,34.787,2.772,48.652c-6.554,8.066-16.89,13.612-25.713,18.401
		c-11.091,5.798-24.956,11.092-37.56,7.059c-11.848-3.781-17.897-15.125-20.167-26.721c-2.521-12.1-2.772-25.46-0.251-37.56
		c3.781-17.646,15.124-33.022,29.745-43.358c10.839-7.562,22.183-11.596,34.787-6.554"/>
</g>
<g>
	<path fill="#FFEAF7" d="M193.655,324.411c10.209-8.318,21.931-14.747,34.03-20.796c7.941-3.781,15.882-7.941,24.2-10.966
		c5.672-2.269,12.478-4.537,18.528-3.403c8.696,1.512,15.503,11.344,21.175,17.771c5.293,6.428,10.587,12.856,14.368,20.418
		c8.697,16.259,17.394,31.762,19.662,50.668c1.513,9.831,1.135,24.956,13.234,28.359c5.294,1.512,12.856-0.756,17.771,2.269
		c4.538,2.269-1.512,3.025-4.159,3.403c2.269-0.378,6.05,1.135,6.429,3.781c0.378,3.403-6.051,4.538-6.429,1.513
		c1.135,0.756,4.538,1.891,4.159,3.403c0,1.891-3.781,1.513-4.915,1.513c5.294,1.134,5.672,4.159-0.378,3.781
		c-4.16-0.378-8.319-1.134-12.856-1.134c-7.562,0-15.503,1.512-23.443,0.756c-0.757-11.344-5.672-21.553-8.697-32.141
		c-3.403-10.965-7.94-21.175-12.1-31.762c-2.646-5.672-4.537-12.1-7.562-17.771c-1.891-4.16-3.781-5.672-8.318-3.403
		c-6.429,3.403-12.101,9.075-18.528,13.234c-9.453,6.05-19.662,10.965-30.25,15.503c-8.318,3.781-16.259,7.562-24.577,11.722
		c-6.807,3.403-13.612,7.562-21.175,9.075c-23.065,4.159-22.688-28.737-17.016-42.728c3.403-8.318,8.696-15.125,16.637-19.662
		c4.538-2.269,9.075-4.538,13.234-7.94"/>
</g>
<g>
	<path fill="#FFEAF7" d="M193.655,324.411c10.209-8.318,21.931-14.747,34.03-20.796c7.941-3.781,15.882-7.941,24.2-10.966
		c5.672-2.269,12.478-4.537,18.528-3.403c8.696,1.512,15.503,11.344,21.175,17.771c5.293,6.428,10.587,12.856,14.368,20.418
		c8.697,16.259,17.394,31.762,19.662,50.668c1.513,9.831,1.135,24.956,13.234,28.359c5.294,1.512,12.856-0.756,17.771,2.269
		c4.538,2.269-1.512,3.025-4.159,3.403c2.269-0.378,6.05,1.135,6.429,3.781c0.378,3.403-6.051,4.538-6.429,1.513
		c1.135,0.756,4.538,1.891,4.159,3.403c0,1.891-3.781,1.513-4.915,1.513c5.294,1.134,5.672,4.159-0.378,3.781
		c-4.16-0.378-8.319-1.134-12.856-1.134c-7.562,0-15.503,1.512-23.443,0.756c-0.757-11.344-5.672-21.553-8.697-32.141
		c-3.403-10.965-7.94-21.175-12.1-31.762c-2.646-5.672-4.537-12.1-7.562-17.771c-1.891-4.16-3.781-5.672-8.318-3.403
		c-6.429,3.403-12.101,9.075-18.528,13.234c-9.453,6.05-19.662,10.965-30.25,15.503c-8.318,3.781-16.259,7.562-24.577,11.722
		c-6.807,3.403-13.612,7.562-21.175,9.075c-23.065,4.159-22.688-28.737-17.016-42.728c3.403-8.318,8.696-15.125,16.637-19.662
		c4.538-2.269,9.075-4.538,13.234-7.94"/>
</g>
<g opacity="0.2">
	<path fill="#FF7FA3" d="M193.655,324.411c10.209-8.318,21.931-14.747,34.03-20.796c7.941-3.781,15.882-7.941,24.2-10.966
		c5.672-2.269,12.478-4.537,18.528-3.403c8.696,1.512,15.503,11.344,21.175,17.771c5.293,6.428,10.587,12.856,14.368,20.418
		c8.697,16.259,17.394,31.762,19.662,50.668c1.513,9.831,1.135,24.956,13.234,28.359c5.294,1.512,12.856-0.756,17.771,2.269
		c4.538,2.269-1.512,3.025-4.159,3.403c2.269-0.378,6.05,1.135,6.429,3.781c0.378,3.403-6.051,4.538-6.429,1.513
		c1.135,0.756,4.538,1.891,4.159,3.403c0,1.891-3.781,1.513-4.915,1.513c5.294,1.134,5.672,4.159-0.378,3.781
		c-4.16-0.378-8.319-1.134-12.856-1.134c-7.562,0-15.503,1.512-23.443,0.756c-0.757-11.344-5.672-21.553-8.697-32.141
		c-3.403-10.965-7.94-21.175-12.1-31.762c-2.646-5.672-4.537-12.1-7.562-17.771c-1.891-4.16-3.781-5.672-8.318-3.403
		c-6.429,3.403-12.101,9.075-18.528,13.234c-9.453,6.05-19.662,10.965-30.25,15.503c-8.318,3.781-16.259,7.562-24.577,11.722
		c-6.807,3.403-13.612,7.562-21.175,9.075c-23.065,4.159-22.688-28.737-17.016-42.728c3.403-8.318,8.696-15.125,16.637-19.662
		c4.538-2.269,9.075-4.538,13.234-7.94"/>
</g>
<g>
	<path fill="#FFEAF7" d="M140.845,195.22c-10.083,52.433-25.208,103.857-35.292,156.29c-3.528,19.158-5.546,38.82,3.529,57.475
		c7.562,15.628,21.175,29.241,39.325,31.258c20.67,2.017,41.845-9.579,58.986-20.167c18.654-11.596,34.283-26.721,50.417-40.837
		c4.032-3.528,27.955-25.133,27.955-25.133s-3.291,15.184-2.467,19.895c5.613,32.085,8.416,40.908,7.911,57.041
		c0,15.629,2.396,22.309,18.528,24.831c2.521,0.503,27.225,2.016,20.671-6.05c2.521,0,9.579,0.503,11.092-1.513
		c4.033-5.042-7.059-4.538-9.075-5.042c3.024,0.504,9.579,1.008,10.587-2.521c-7.058-0.504-14.62-1.009-18.653-7.562
		c-3.529-5.546-3.529-14.117-4.033-20.671c-2.017-18.15-3.025-36.3-2.521-54.45c0.505-16.637,6.555-38.316-1.008-54.449
		c-8.571-16.133-28.737-14.116-43.358-9.075c-8.065,3.025-15.125,7.562-22.688,12.1c-7.058,4.034-15.124,7.562-22.183,12.1
		c-6.05,3.53-35.291,27.729-34.282,7.562c0.503-13.612,10.587-28.233,17.646-39.828c8.066-12.604,13.107-28.737,17.142-43.358
		c3.024-10.587,0-22.183-3.529-32.266c-4.538-13.612-11.596-28.737-23.695-37.308c-17.646-12.1-45.88-8.066-54.954,12.604
		c-2.018,3.529-3.025,7.058-4.538,11.092"/>
</g>
<g opacity="0.3">
	<path fill="#FFEAF7" d="M144.121,248.787c-1.135,19.662,7.562,39.703,17.771,55.584c4.538,6.806,9.075,13.612,12.856,20.796
		c4.159,7.562,8.318,15.125,14.368,21.553c13.613,13.991,32.896,15.503,51.425,11.344c12.856-3.025,24.956-8.318,36.678-13.99
		c8.319-4.16,17.016-8.319,24.956-13.612c4.159-3.025,14.747-11.344,12.856-18.15c-1.513-6.05-9.075,3.781-10.966,5.672
		c1.513-2.269,3.403-4.538,3.781-7.562c0-0.756,0.756-6.05,0-6.806c-2.646-1.891-6.806,9.075-8.318,10.965
		c-0.378-5.293,2.269-8.697-1.135-13.99c-3.403,2.646-2.646,8.697-5.672,11.722c0-3.403,1.135-7.185,0.757-10.587
		c-4.916,5.293-9.831,10.209-15.882,13.234c-7.562,3.781-15.503,6.428-23.065,9.832c-16.637,7.184-33.652,15.125-49.533,2.646
		c-12.479-9.831-14.369-22.687-15.882-37.434c-1.134-8.697-1.891-17.394-3.024-26.09c-0.757-7.562-1.513-15.881-6.05-22.31
		c-4.538-6.806-13.234-9.075-21.553-6.806c-7.562,1.891-12.101,7.562-15.504,13.991"/>
</g>
<g>
	<path fill="#FFEAF7" d="M306.133,294.657c-0.36,0.867-0.634,1.739-0.844,2.362c-0.206,0.612-0.401,1.229-0.584,1.85
		C305.426,297.648,305.795,296.133,306.133,294.657z"/>
</g>
<g>
	<path fill="#FFEAF7" d="M145.634,244.25c-1.135,19.663,7.562,39.703,17.771,55.584c4.537,6.806,9.075,13.612,12.856,20.796
		c4.159,7.562,8.318,15.125,14.368,21.553c13.612,13.99,32.896,15.503,51.425,11.344c12.856-3.025,24.956-8.319,36.678-13.991
		c8.318-4.159,17.016-8.319,24.956-13.612c4.159-3.025,14.747-11.344,12.856-18.15c-1.513-6.05-9.075,3.781-10.966,5.672
		c1.513-2.269,3.403-4.538,3.781-7.562c0-0.756,0.756-6.05,0-6.806c-2.647-1.891-6.807,9.075-8.318,10.965
		c-0.379-5.293,2.269-8.697-1.135-13.99c-3.403,2.647-2.646,8.697-5.672,11.722c0-3.403,1.135-7.184,0.756-10.587
		c-4.915,5.294-9.831,10.209-15.881,13.234c-7.562,3.781-15.503,6.428-23.065,9.831c-16.637,7.184-33.652,15.125-49.534,2.647
		c-12.478-9.831-14.368-22.688-15.881-37.434c-1.134-8.697-1.891-17.394-3.024-26.09c-0.757-7.562-1.513-15.881-6.051-22.309
		c-4.537-6.806-13.233-9.075-21.553-6.806c-7.562,1.891-12.1,7.562-15.503,13.99"/>
</g>
<g>
	<g>
		<path fill="#FFFFFF" d="M182.155,265.624c4.839,17.154,5.103,35.686,14.256,51.415c8.564,14.716,28.084,11.886,41.97,8.246
			c17.49-4.586,34.452-12.798,48.508-24.149c3.622-2.924,7.641-5.904,11.907-7.829c1.26-0.568,8.197-3.782,5.356-0.335
			c-1.47,1.783-6.645,5.624-6.292,8.197c0.045,0.326,0.424,0.549,0.724,0.551c2.038,0.011,4.229-2.061,5.857-3.094
			c1.316-0.835,2.704-1.602,4.077-2.339c2.669,0.107,2.664,1.108-0.014,3.003c-1.025,1.251-2.176,2.415-3.268,3.607
			c-0.396,0.433-0.168,1.358,0.53,1.28c3.077-0.345,5.245-2.979,7.897-4.362c5.368-2.801,1.146,2.463-0.306,3.68
			c-1.466,1.229-3.118,2.261-4.341,3.75c-0.448,0.546-0.047,1.479,0.729,1.253c1.554-0.452,2.951-1.028,4.406-1.718
			c1.3-0.674,2.629-1.286,3.988-1.834c3.641-1.47,0.792,2.588,0.519,2.866c-1.864,1.889-4.102,3.103-5.861,5.104
			c-1.931,2.197-3.891,4.007-6.276,5.744c-0.773,0.563-0.026,1.865,0.758,1.295c3.657-2.663,6.276-6.259,9.845-8.951
			c2.117-1.597,4.024-3.184,4.812-5.793c1.646-5.447-12.21,1.73-12.589,1.84c0.243,0.418,0.486,0.835,0.729,1.253
			c2.354-2.867,9.8-5.875,7.945-10.561c-0.162-0.409-0.485-0.601-0.923-0.524c-2.032,0.355-3.648,1.014-5.474,1.966
			c-2.008,1.048-3.424,3.217-5.86,3.49c0.177,0.427,0.354,0.854,0.53,1.28c2.108-2.304,5.652-5.21,6.327-8.418
			c0.066-0.315-0.033-0.692-0.345-0.847c-3.942-1.971-9.189,3.143-12.472,5.048c-0.594,1.265-0.647,1.5-0.161,0.708
			c0.443-0.583,0.906-1.149,1.388-1.701c1.04-1.225,2.131-2.407,3.203-3.604c1.089-1.216,2.439-2.546,2.529-4.264
			c0.161-3.08-7.261,0.477-8.186,0.886c-9.299,4.123-16.532,11.939-25.188,17.155c-9.928,5.981-20.855,10.428-31.887,13.897
			c-10.799,3.396-24.559,6.374-35.323,1.44c-10.083-4.621-13.688-18.123-16.057-27.926c-2.491-10.309-3.641-20.881-6.524-31.105
			C183.34,264.295,181.893,264.691,182.155,265.624L182.155,265.624z"/>
	</g>
</g>
<g opacity="0.2">
	<g>
		<path fill="#FF7FA3" d="M196.302,255.707c1.935,0,1.935-3,0-3S194.367,255.707,196.302,255.707L196.302,255.707z"/>
	</g>
</g>
<g opacity="0.2">
	<g>
		<path fill="#FF7FA3" d="M220.467,249.669c-0.171,0.366-0.275,0.632-0.308,1.037c-0.038,0.487,0.307,1.08,0.743,1.295
			c0.857,0.422,1.555,0.1,2.172-0.515c0.579-0.577,0.577-1.544,0-2.121c-0.578-0.579-1.542-0.577-2.121,0
			c-0.054,0.054-0.107,0.107-0.162,0.16c-0.137,0.122-0.093,0.087,0.133-0.104c0.504,0,1.009,0,1.514,0
			c-0.007-0.003-0.014-0.007-0.021-0.01c0.247,0.432,0.495,0.863,0.742,1.295c-0.034,0.159-0.068,0.318-0.103,0.477
			c0.346-0.741,0.216-1.611-0.538-2.052C221.863,248.747,220.812,248.928,220.467,249.669L220.467,249.669z"/>
	</g>
</g>
<g opacity="0.2">
	<path fill="#FF7FA3" d="M194.033,201.27c2.269,2.521,7.31,2.017,10.335,2.017c5.799,0,10.587-0.756,16.134-2.521
		c0.504,5.293,2.016,11.091-0.504,15.881c-3.277,6.806-12.1,9.075-18.655,6.302c-5.545-2.269-9.074-7.814-12.855-12.099
		c-3.276-3.53-6.051-7.059-7.311-11.848c-1.26-4.538-1.765-9.327-2.269-13.864c3.528,3.025,5.294,7.562,8.571,10.335
		c2.269,2.017,5.041,5.042,7.813,5.798"/>
</g>
<g opacity="0.2">
	<path fill="#FF7FA3" d="M186.849,272.798c2.647-1.324,5.483-2.08,7.94-3.97c2.27-1.513,4.538-3.592,6.617-4.916
		c0.567,3.403-0.566,5.293-1.891,8.318c-1.323,3.214-1.323,6.617-2.646,9.642c-0.756,1.891-4.537,8.319-6.807,8.13
		c-2.836,0-2.457-15.314-2.646-17.394"/>
</g>
<g opacity="0.2">
	<path fill="#FF7FA3" d="M218.422,270.718c-2.836-3.781-3.214-9.453-5.294-13.613c-3.024,6.617-4.727,15.125-3.024,22.12
		c0.567,2.647,2.079,4.727,3.97,1.702c1.513-2.836,2.458-6.05,3.971-8.697"/>
</g>
<g>
	<path fill="#FF7FA3" d="M207.835,142.157c0.756,3.592,0.945,7.374,1.701,11.155c0.756,5.104,1.135,12.289,4.727,16.259
		c4.916,5.293,11.344,1.512,11.532-4.916c0.189-6.995-4.537-13.045-8.507-18.149c-2.27-3.025-6.807-10.209-9.265-3.781"/>
</g>
<g>
	<g>
		<path fill="#FF7FA3" d="M215.898,135.876c0.573-1.762,0.619-3.68,1.883-5.137c-0.854-0.354-1.707-0.707-2.561-1.061
			c0,1.008,0,2.017,0,3.025c0,1.528,2.011,2,2.795,0.757c0.892-1.413,1.559-3.037,2.99-3.999c-0.752-0.432-1.505-0.864-2.257-1.295
			c-0.071,0.643-0.222,1.267-0.45,1.87c-0.517,1.606,2.003,2.698,2.741,1.156c0.501-1.046,0.924-2.39,1.983-2.991
			c1.102-0.625,2.588-0.323,3.781-1.008c1.677-0.963,0.167-3.556-1.514-2.591c-1.47,0.844-3.17,0.261-4.535,1.498
			c-1.093,0.991-1.679,2.268-2.306,3.578c0.913,0.386,1.827,0.771,2.741,1.156c0.29-0.903,0.465-1.728,0.558-2.667
			c0.109-1.114-1.363-1.896-2.257-1.295c-1.928,1.296-2.857,3.159-4.066,5.075c0.932,0.252,1.863,0.505,2.795,0.757
			c0-1.008,0-2.017,0-3.025c0-1.241-1.679-2.078-2.561-1.061c-1.694,1.953-1.882,4.088-2.654,6.46
			C212.405,136.923,215.303,137.707,215.898,135.876L215.898,135.876z"/>
	</g>
</g>
<g>
	<g>
		<path fill="#FF7FA3" d="M200.574,143.039c0.153-5.511-8.798-4.088-10.608-0.505c-0.468,0.925-0.039,1.844,0.896,2.203
			c1.216,0.468,2.327,0.341,3.569,0c1.923-0.528,1.058-3.147-0.797-2.893c-2.936,0.403-6.213,1.101-7.955,3.714
			c-0.69,1.035,0.253,2.152,1.295,2.257c1.545,0.156,2.772-0.048,4.034-0.96c1.161-0.839,0.833-2.781-0.757-2.795
			c-3.886-0.036-7.507,2.122-9.361,5.533c-0.925,1.7,1.666,3.214,2.59,1.514c1.365-2.51,3.9-4.073,6.771-4.046
			c-0.252-0.932-0.505-1.863-0.757-2.795c-0.779,0.606-1.619,0.791-2.521,0.551c0.432,0.752,0.863,1.505,1.295,2.257
			c1.19-1.784,4.219-2.069,6.162-2.336c-0.266-0.964-0.531-1.928-0.797-2.893c-0.641,0.266-1.299,0.266-1.976,0
			c0.299,0.734,0.598,1.469,0.896,2.203c0.456-0.901,5.069-2.821,5.019-1.009C197.521,144.975,200.521,144.97,200.574,143.039
			L200.574,143.039z"/>
	</g>
</g>
<g>
	<g>
		<path fill="#FF7FA3" d="M188.991,161.729c2.894,1.411,5.879,0.038,7.867-2.252c1.263-1.453-0.851-3.584-2.121-2.121
			c-0.983,1.132-2.642,2.558-4.232,1.782C188.773,158.293,187.252,160.88,188.991,161.729L188.991,161.729z"/>
	</g>
</g>
<g>
	<g>
		<path fill="#FF7FA3" d="M223.779,146.304c4.09,0.173,5.492-3.745,6.74-6.899c0.713-1.801-2.189-2.575-2.893-0.798
			c-0.718,1.813-1.425,4.799-3.848,4.697C221.844,143.222,221.853,146.222,223.779,146.304L223.779,146.304z"/>
	</g>
</g>
<g>
	<g>
		<path fill="#FF7FA3" d="M221.763,182.903c1.457-0.943,3.08-1.579,4.537-2.521c1.618-1.046,0.116-3.645-1.514-2.591
			c-1.457,0.942-3.081,1.579-4.537,2.521C218.631,181.359,220.134,183.958,221.763,182.903L221.763,182.903z"/>
	</g>
</g>
<g opacity="0.2">
	<path fill="#FF7FA3" d="M165.549,308.656c-5.547,4.538-8.068,12.604-10.588,19.158c-3.024,8.57-9.58,18.654-6.05,28.233
		c3.528,10.083,11.595,15.125,21.175,8.067c4.537-3.53,11.091-8.571,14.116-14.117c3.024-5.545,0.504-9.075-2.521-13.612
		c-4.032-5.545-6.554-10.587-8.569-17.141c-1.513-5.042-3.025-8.066-7.06-10.587"/>
</g>
<g opacity="0.2">
	<path fill="#FF7FA3" d="M286.547,354.032c0.757,2.269-1.512,7.058-2.017,9.579c-1.008,4.79-1.008,10.084,0,14.873
		c2.521,13.864,4.789,27.477,8.067,41.089c1.512,7.059,3.024,13.612,7.31,19.411c2.269-6.554,4.034-13.108,4.537-19.914
		c0.505-10.336-0.756-20.671-1.26-31.006c-0.504-10.083-0.504-19.41,1.513-29.241c1.008-5.042,3.276-13.864-4.79-12.856
		c-5.041,0.756-10.335,4.033-13.108,8.571"/>
</g>
<g opacity="0.1">
	<path fill="#FF7FA3" d="M189.874,127.788c-0.378,0.378-0.378,0.378-0.757,0.378c-4.159,7.94-0.756,18.906,1.891,26.468
		c4.16,11.722,11.344,21.553,24.2,23.822c4.537,0.756,15.881,0.756,11.344,8.318c-4.159,6.05-9.2,10.997-15.629,13.643
		c-5.294,2.269-12.478,0.474-18.149-2.173c-6.05-3.025-11.219-8.697-13.865-14.369c-3.024-5.672-6.05-8.823-8.696-14.873
		c-3.025-7.562-3.025-16.259-4.16-24.2c-1.134-9.075-3.024-23.444,7.941-27.225c8.696-3.025,14.746,3.025,15.124,10.965"/>
</g>
<g>
	<g>
		<path fill="#0B68CB" d="M135.803,81.279c-8.697,10.209-15.125,20.796-17.394,34.409c-2.269,17.015,0.756,34.409,3.024,51.046
			c1.891,13.99,3.781,28.359-0.378,42.35c-3.781,11.722-11.344,22.309-13.99,34.787c-6.429,32.518,29.871,64.28,60.877,49.912
			c18.528-8.697,21.554-30.25,20.797-48.021c-1.513-26.09-9.075-51.803-14.368-77.137c-3.781-20.419-5.672-41.215-9.831-61.634
			c-2.647-11.344-7.185-20.041-17.772-24.956c-2.269-0.756-4.537-1.513-6.806-2.269"/>
	</g>
	<g>
		<path fill="#0B68CB" d="M176.262,139.51c12.855-1.512,23.821-10.965,33.652-18.906c8.697-6.806,26.091-18.528,18.15-31.384
			c-6.051-10.209-18.906-14.369-30.25-15.503c-8.697-1.134-17.394-4.159-26.469-4.538c-12.1-0.378-22.309,5.294-30.25,14.747"/>
	</g>
	<g>
		<g>
			<path fill="#0B68CB" d="M139.836,89.311c-9.794,4.794-16.224,15.851-20.812,25.289c-6.413,13.193-3.336,28.09-0.832,41.85
				c2.758,15.159,2.971,29.354-5.729,42.675c-7.486,11.461-20.588,17.526-27.111,29.874c-0.903,1.709,1.687,3.225,2.59,1.514
				c6.037-11.426,17.716-17.1,25.209-27.225c7.757-10.48,10.639-22.11,9.783-35.04c-1.011-15.272-6.938-29.898-3.688-45.328
				c1.31-6.218,4.888-12.027,8.31-17.295c3.509-5.401,7.906-10.841,13.794-13.723C143.087,91.051,141.566,88.464,139.836,89.311
				L139.836,89.311z"/>
		</g>
	</g>
	<g>
		<g>
			<path fill="#0B68CB" d="M165.362,127.305c2.984,18.282,11.033,34.87,17.88,51.908c7.98,19.859,4.492,40.741,1.278,61.235
				c-0.297,1.892,2.594,2.705,2.893,0.798c2.98-19.004,6.604-38.949,0.591-57.729c-6.188-19.327-16.436-36.711-19.749-57.01
				C167.944,124.602,165.054,125.413,165.362,127.305L165.362,127.305z"/>
		</g>
	</g>
</g>
<g opacity="0.1">
	<path fill="#FF7FA3" d="M155.465,297.06c-5.042,16.638-12.604,31.762-18.149,47.896c-5.547,16.133-7.562,39.829,10.587,48.904
		c21.175,10.083,47.391-3.025,68.565-4.538c5.042-0.504,14.117-0.504,14.117,6.05c0,6.554-8.067,12.604-12.604,16.133
		c-12.604,9.075-28.232,14.117-42.35,19.662c-14.116,5.546-28.737,9.075-42.35,0c-12.1-8.066-23.191-22.687-27.225-36.803
		c-4.538-15.629,1.513-30.25,3.529-45.879c2.521-16.133,0-32.267,8.066-47.392c5.546-10.587,24.704-32.266,33.275-12.604
		c1.512,3.529,2.016,7.562,3.024,11.091"/>
</g>
<g>
	<path fill="#FFEAF7" d="M249.081,288.49c-3.529-9.075-6.05-16.637-6.555-25.712c0-7.562-0.504-14.621,0-21.679
		c0-7.058,1.513-15.125-2.017-21.679c-2.521-6.05-8.066-7.562-12.604-11.091c-0.864-0.863-2.092-0.989-1.796-1.64l-1.229,1.64
		c-1.252-0.224-2.312-0.161-3.206,0.135c1.579,11.217,2.98,22.148-0.593,32.764c0.361,1.504,0.644,2.685,0.774,3.401
		c2.016,11.091,5.041,22.688,4.537,33.779c-0.505,5.546-0.505,11.092-0.505,16.637c0,7.059,1.009,10.587-5.041,15.629
		c-10.588,8.57-13.612,22.183-17.142,34.787c-1.513,5.545-2.521,11.092-4.537,16.637c-2.521,6.05-11.597,10.083-11.092,16.637
		c3.529-1.008,6.05-3.025,9.579-5.042c-2.017,2.017-12.1,12.1-11.092,13.109c1.513,4.033,13.612-4.538,15.125-6.05
		c-2.017,2.521-4.033,5.041-6.555,7.058c-1.512,1.512-5.545,3.529-2.521,4.537c4.033,2.017,13.108-7.058,14.621-10.083
		c-1.009,2.521-2.017,5.546-4.033,7.562c-2.018,2.016-5.546,3.025-5.546,6.554c18.653-4.033,23.191-26.72,27.225-42.853
		c1.513-7.562,2.017-15.125,4.033-22.184c2.521-9.075,8.066-15.125,14.117-21.678C249.585,302.606,252.105,297.564,249.081,288.49z"
		/>
</g>
<g>
	<path fill="#FFEAF7" d="M192.384,384.875c3.578-1.224,8.383-4.515,10.295-6.054c-0.365,0.273-0.728,0.525-1.061,0.757
		c-2.219,1.54-4.503,2.906-6.974,3.878C193.905,383.948,193.151,384.42,192.384,384.875z"/>
</g>
<g>
	<path fill="#FFEAF7" d="M213.672,384.591c-0.641,0.728-1.319,1.427-2.04,2.099c-0.259,0.249-0.525,0.496-0.805,0.741
		c-0.216,0.186-0.457,0.215-0.677,0.162c-2.362,1.814-4.894,3.479-7.351,5.241c4.617-1.741,8.243-4.756,11.157-8.528
		C213.861,384.399,213.77,384.497,213.672,384.591z"/>
</g>
<g>
	<path fill="#FFEAF7" d="M222.989,364.693c-0.157,0.387-0.322,0.771-0.505,1.146c-1.321,2.702-2.239,5.359-2.783,8.245
		C220.978,371.048,222.051,367.877,222.989,364.693z"/>
</g>
<g opacity="0.1">
	<path fill="#FF7FA3" d="M249.081,288.49c-3.529-9.075-6.05-16.637-6.555-25.712c0-7.562-0.504-14.621,0-21.679
		c0-7.058,1.513-15.125-2.017-21.679c-2.521-6.05-8.066-7.562-12.604-11.091c-0.864-0.863-2.092-0.989-1.796-1.64l-1.229,1.64
		c-0.109-0.02-0.211-0.028-0.317-0.043c4.901,6.155,8.474,12.506,7.401,21.196c-0.412,3.335-1.203,6.549-2.189,9.703
		c1.043,2.079,2.098,4.174,2.954,6.335c3.388,8.553,5.674,17.478,7.46,26.487c1.1,5.549,4.702,14.435,1.509,19.875
		c-1.396,2.379-3.693,4.013-5.199,6.318c-2.323,3.557-2.205,7.044-2.775,11.078c-0.687,4.845-3.352,8.474-5.089,12.941
		c-1.734,4.461-1.654,9.178-1.887,13.883c-0.195,3.932-0.401,8.44-2.554,11.884c-0.647,1.036-1.451,2.278-2.423,3.323
		c0.313,0.58,0.552,1.272,0.693,2.097c0.521,3.04,0.613,6.285,0.09,9.39c0.845-3.204,1.596-6.345,2.326-9.268
		c1.513-7.562,2.017-15.125,4.033-22.184c2.521-9.075,8.066-15.125,14.117-21.678C249.585,302.606,252.105,297.564,249.081,288.49z"
		/>
</g>
<g opacity="0.1">
	<path fill="#FF7FA3" d="M209.096,375.845c-3.05-3.308-6.416-7.16-7.189-11.719c-0.161-0.954,1.296-1.362,1.459-0.402
		c0.014,0.085,0.041,0.167,0.058,0.252c0.464-4.272,2.246-8.492,4.776-11.941c1.149-1.568,3.245-3.197,5.553-4.307
		c-1.154-1.768-1.881-3.953-2.204-5.801c-1.496-8.557,3.447-15.81,6.184-23.654c0.946-2.713,1.835-5.455,2.647-8.22
		c-8.876,8.598-11.723,21.175-15.002,32.885c-1.513,5.545-2.521,11.092-4.537,16.637c-2.403,5.768-10.757,9.704-11.096,15.737
		c0.047-0.156,0.145-0.302,0.315-0.414c3.74-2.45,5.27-8.908,10.401-9.084c0.389-0.013,0.642,0.259,0.718,0.588
		c0.475,0.141,0.827,0.78,0.385,1.271c-0.88,0.976-1.99,2.647-3.272,4.108c0.339-0.203,0.679-0.407,1.036-0.611
		c-2.017,2.017-12.101,12.1-11.091,13.108c0.179,0.48,0.515,0.773,0.96,0.929c-0.101-0.22-0.12-0.477,0.024-0.68
		c0.296-0.414,0.67-0.725,1.082-0.984c0.062-0.236,0.224-0.438,0.505-0.497c0.479-0.101,0.948-0.225,1.412-0.357
		c2.194-0.911,3.747-3.354,5.229-5.045c1.647-1.878,3.125-3.938,5.183-5.393c0.798-0.564,1.553,0.748,0.764,1.306
		c-0.654,0.462-1.265,1.027-1.851,1.65c0.036-0.005,0.069-0.008,0.105-0.008c0.91-0.894,1.935-1.63,3.242-1.889
		c0.498-0.099,0.928,0.214,0.957,0.729c0.099,1.775-1.208,3.217-2.619,4.353c-1.975,2.466-3.958,4.922-6.425,6.896
		c-1.504,1.504-5.496,3.507-2.562,4.521c-0.004-0.236,0.098-0.474,0.353-0.635c0.257-0.163,0.515-0.327,0.773-0.492
		c0.019-0.16,0.081-0.313,0.208-0.43c1.198-1.102,2.638-1.736,4.071-2.392c3.439-2.407,6.644-5.155,8.761-8.799
		c0.498-0.857,1.713-0.106,1.307,0.764c-0.082,0.175-0.17,0.343-0.256,0.515c0.303,0.258,0.455,0.749,0.138,1.151
		c-0.378,0.476-0.764,0.951-1.154,1.424c-0.876,2.24-1.859,4.678-3.571,6.391c-1.956,1.956-5.324,2.97-5.527,6.248
		c0.032-0.035,0.066-0.069,0.108-0.102c3.952-3.061,8.479-5.656,12.201-8.977c1.303-1.434,2.363-2.953,3.328-4.565
		C212.696,379.293,210.338,377.192,209.096,375.845z"/>
</g>
<g>
	<g>
		<path fill="#FFFFFF" d="M207.565,330.272c-1.348,2.209-1.74,4.688-2.345,7.174c-1.259,5.18-2.963,10.377-5.198,15.215
			c-3.272,7.082-8.288,12.462-12.456,18.875c-1.232,1.896-1.429,4.998,1.459,5.112c3.409,0.135,7.169-4.973,9.509-6.899
			c-0.354-0.354-0.707-0.707-1.061-1.061c-3.847,4.359-8.281,8.558-11.604,13.339c-0.901,1.296-0.77,3.545,1.178,3.693
			c6.014,0.459,12.165-8.122,16.401-11.434c-0.354-0.354-0.707-0.707-1.061-1.061c-4.42,4.209-8.855,8.972-12.249,14.083
			c-0.699,1.052-2.127,4.812,0.472,4.744c3.019-0.08,5.901-2.835,8.144-4.575c3.291-2.554,6.453-5.351,9.421-8.275
			c-0.354-0.354-0.707-0.707-1.061-1.061c-1.422,1.423-16.141,13.713-11.192,16.681c2.767,1.659,9.54-4.085,11.397-5.43
			c4.83-3.497,8.52-7.794,11.757-12.744c7.977-12.195,10.047-26.833,14.248-40.505c2.351-7.652,3.04-15.364,7.423-22.267
			c3.487-5.491,8.12-10.101,11.407-15.744c0.488-0.837-0.809-1.592-1.295-0.757c-4.831,8.292-12.298,14.716-15.391,24
			c-1.916,5.754-2.81,11.856-4.607,17.663c-1.721,5.556-2.909,11.218-4.437,16.824c-3.1,11.379-8.509,22.605-17.561,30.394
			c-2.423,2.085-5.061,3.818-7.838,5.38c-0.637,0.354-1.272,0.711-1.905,1.074c-0.771-0.353-1.543-0.706-2.314-1.059
			c0.48-0.797,1.025-1.548,1.636-2.254c2.941-3.647,6.428-6.889,9.732-10.195c0.685-0.685-0.371-1.74-1.061-1.061
			c-3.815,3.758-7.931,7.352-12.323,10.416c-1.1,0.767-2.265,1.486-3.54,1.918c-1.547,0.523,2.577-5.579,2.711-5.738
			c3.049-3.609,6.058-7.186,9.486-10.451c0.72-0.685-0.321-1.639-1.061-1.061c-3.849,3.009-7.137,6.608-11.199,9.377
			c-1.089,0.743-2.324,1.482-3.651,1.655c-1.637,0.212,1.71-4.013,2.079-4.406c3.066-3.272,5.949-6.74,8.917-10.103
			c0.648-0.734-0.319-1.67-1.061-1.061c-2.493,2.052-4.617,4.472-7.453,6.093c-1.414-1.198-1.616-2.311-0.606-3.337
			c0.608-0.938,1.416-1.788,2.159-2.625c1.714-1.928,3.203-4.044,4.642-6.181c2.985-4.432,5.343-9.331,7.235-14.318
			c2.052-5.407,2.405-12.363,5.41-17.291C209.365,330.201,208.068,329.448,207.565,330.272L207.565,330.272z"/>
	</g>
</g>
<g>
	<path fill="#FFFFFF" d="M236.005,150.097c-0.757,1.891,0.378,3.403,0.756,4.916c0.757,3.781,0.378,7.941-1.134,11.722
		c-0.757,2.269-3.025,4.916-1.891,7.184c1.134,2.647,3.781,2.647,6.05,1.134c3.403-3.025,3.024-11.722,1.891-15.881
		c-1.135-3.025-6.05-14.369-6.429-4.916"/>
</g>
<g>
	<path fill="#212F59" d="M211.174,241.351c-2.269,6.05-2.016,12.604-5.041,18.401c-2.269,5.042-7.562,14.621,1.766,16.134
		c8.569,1.513,10.335-9.075,12.855-14.873c2.521-6.302,9.075-12.856,6.807-20.167c-1.009-3.781-4.537-6.554-8.318-6.05
		c-4.034,0.253-6.303,3.781-8.319,6.806"/>
</g>
<circle fill="#0B68CB" cx="227.938" cy="252.568" r="4.159"/>
<circle fill="#FF7FA3" cx="243.784" cy="231.103" r="7.724"/>
<circle fill="#FFFFFF" cx="280.497" cy="241.603" r="4.033"/>
<circle fill="#FFFFFF" cx="305.312" cy="201.707" r="8.431"/>
<circle fill="#FFFFFF" cx="315.144" cy="28.527" r="8.431"/>
<circle fill="#0B68CB" cx="283.822" cy="125.85" r="6.254"/>
<circle fill="#FF7FA3" cx="306.475" cy="163.326" r="6.456"/>
<circle fill="#FF7FA3" cx="327.147" cy="126.165" r="3.544"/>
<circle fill="#FFFFFF" cx="300.034" cy="79.893" r="1.386"/>
<path fill="#FFFFFF" d="M209.081,249.966c-0.118,0.588-0.259,1.167-0.419,1.74c-0.314,1.849-0.782,3.792-1.489,5.585
	c-0.276,0.9-0.644,1.772-1.132,2.582c0.847,0.561,1.846,0.909,2.937,0.909c2.988,0,5.411-2.422,5.411-5.411
	C214.389,252.417,212.022,250.022,209.081,249.966z"/>
<g>
	<g>
		<path fill="#FF7FA3" d="M146.881,491.668c-1.853-19.281,6.463-38.202,3.58-57.416c-2.897-19.32-18.065-31.745-28.892-46.826
			c-6.185-8.616-9.09-17.937-9.638-28.474c-0.465-8.946,1.027-17.967-0.204-26.877c-1.048-7.579-3.805-14.216-9.2-19.72
			c-2.756-2.811-6.017-5.047-8.712-7.936c-4.13-4.425-4.718-11.437-2.224-16.797c0.812-1.742-1.774-3.267-2.59-1.514
			c-2.674,5.745-2.44,12.296,0.699,17.806c1.748,3.066,4.755,5.398,7.402,7.633c4.197,3.543,7.532,7.378,9.64,12.523
			c3.58,8.739,2.337,18.721,2.129,27.901c-0.2,8.817,0.367,18.145,4.004,26.314c8.25,18.529,27.104,30.422,33.292,50.03
			c6.48,20.539-4.3,42.41-2.287,63.353C144.064,493.576,147.066,493.594,146.881,491.668L146.881,491.668z"/>
	</g>
</g>
<g>
	<path fill="#FF7FA3" d="M139.08,410.749c-0.756-1.764-1.009-3.781-1.513-5.797c-1.009-2.773-2.269-5.798-2.269-8.823
		c0.252-4.79,2.269-10.083,4.537-14.117c2.772-5.042,7.814-8.066,10.335-12.856c-1.513,9.075-0.252,18.15-2.521,27.225
		c-0.756,2.773-1.764,4.79-3.781,6.806c-1.764,1.512-4.285,2.269-5.294,4.286"/>
</g>
<g>
	<path fill="#FF7FA3" d="M110.09,354.787c-0.756-1.26-0.503-2.772-1.008-4.285c-1.008-3.529-3.529-7.059-6.302-9.328
		c-8.066-6.302-18.149-7.562-27.225-11.091c0.756,14.369,19.914,24.452,33.022,21.931"/>
</g>
<g>
	<path fill="#FF7FA3" d="M109.334,326.807c0.756-1.261,0.253-3.529,0.504-5.042c0.757-4.789,2.27-10.587,6.303-13.864
		c2.521-2.017,5.798-3.277,8.822-4.286c2.018-0.756,4.286-1.764,4.286,0.756c0,3.277-3.277,8.067-4.79,10.839
		c-1.513,2.521-2.772,5.546-5.041,7.311c-2.773,2.017-7.562,4.538-10.84,3.277"/>
</g>
<g>
	<g>
		<path fill="#FF7FA3" d="M265.627,476.708c3.08-21.591,1.673-50.172,24.366-61.559c1.811-0.908,0.22-3.618-1.586-2.712
			c-23.656,11.87-22.589,40.861-25.81,63.436C262.315,477.853,265.342,478.707,265.627,476.708L265.627,476.708z"/>
	</g>
</g>
<g>
	<g>
		<path fill="#FF7FA3" d="M321.335,408.264c7.678-3.604,16.012-6.401,22.421-12.137c5.457-4.884,8.825-11.941,10.908-18.835
			c3.335-11.039,5.138-32.583-7.22-38.942c-9.774-5.03-20.67,3.602-19.114,13.975c1.504,10.03,19.027,6.187,16.382-1.717
			c-0.61-1.825-3.509-1.042-2.893,0.798c0.756,2.259-3.368,3.584-4.665,3.984c-3.065,0.945-5.199-1.067-5.932-3.863
			c-1.234-4.711,2.251-9.181,6.401-10.837c11.532-4.605,15.512,9.299,16.115,17.725c0.712,9.955-1.601,20.264-6.667,28.844
			c-6.017,10.189-17.131,13.666-27.251,18.415C318.07,406.495,319.595,409.08,321.335,408.264L321.335,408.264z"/>
	</g>
</g>
<g>
	<path fill="#FF7FA3" d="M352.655,379.428c0-1.701,1.701-3.025,2.836-4.159c3.403-3.781,7.185-6.05,11.911-8.129
		c7.373-3.214,15.881-4.538,23.821-4.538c-0.757,1.323-1.891,2.269-2.836,3.214c-1.891,1.891-3.403,3.781-5.104,5.483
		c-4.538,4.159-10.021,7.184-15.881,8.319c-5.105,0.945-9.453-1.324-14.369-1.135"/>
</g>
<g>
	<path fill="#FF7FA3" d="M338.098,397.956c0.567-1.135,1.134-1.891,1.701-3.025c1.513-3.025,1.513-6.996,1.702-10.398
		c0.188-6.996-2.27-11.722-4.916-17.961c-3.214,5.672-6.05,12.667-4.537,19.284c0.756,4.159,2.457,7.374,4.537,10.965"/>
</g>
<g>
	<path fill="#FF7FA3" d="M268.712,442.196c-0.188-2.647,5.672-5.672,7.374-6.617c5.104-2.836,10.776-4.349,16.448-4.916
		c3.402-0.189,7.373-1.324,10.776-1.324c-3.971,8.508-13.612,16.07-23.065,17.394c-2.647,0.378-5.861,0-8.13-1.323
		C270.792,444.465,270.035,443.142,268.712,442.196"/>
</g>
<g>
	<path fill="#FF7FA3" d="M146.138,462.174c1.765-4.034-1.008-7.562-3.781-10.587c-5.041-5.798-11.092-11.848-17.142-16.385
		c-1.26,8.067,1.26,19.158,8.319,24.2C136.307,461.418,142.861,463.939,146.138,462.174"/>
</g>
<g>
	<g>
		<path fill="#FF7FA3" d="M83.548,448.887c-7.431-9.447-12.855-22.614-7.918-34.19c3.566-8.361,9.703-14.055,5.265-23.549
			c-3.469-7.421-11.729-12.334-19.409-14.143c-4.026-0.948-8.289-0.009-12.18,1.057c-6.562,1.798-12.294,0.873-18.601-1.403
			c-1.824-0.659-2.603,2.241-0.797,2.893c4.317,1.559,8.521,2.608,13.126,2.622c5.035,0.015,9.674-2.319,14.707-2.526
			c10.854-0.446,24.537,11.106,21.22,22.448c-1.374,4.701-5.115,8.48-6.781,13.108c-1.436,3.989-2.379,8.319-1.606,12.57
			c1.464,8.054,5.815,16.831,10.854,23.235C82.622,452.528,84.729,450.39,83.548,448.887L83.548,448.887z"/>
	</g>
</g>
<g>
	<path fill="#FF7FA3" d="M77.572,387.18c-1.513-3.403-4.538-5.672-5.294-9.453c-1.513-6.428,3.024-10.966,6.428-15.881
		c3.781,2.269,6.05,11.344,5.294,15.503c-0.756,4.538-3.781,7.185-7.185,9.832"/>
</g>
<g>
	<path fill="#FF7FA3" d="M60.557,378.861c-3.781-2.647-10.21,2.269-13.234,4.916c-3.403,3.403-7.185,8.319-8.697,13.234
		c6.429,0.378,13.991,0,18.15-4.916c3.402-3.781,4.537-7.185,4.537-12.1"/>
</g>
<g>
	<path fill="#FF7FA3" d="M72.467,422.912c-0.756-1.513,1.891-5.483,2.836-6.617c1.891-2.458,4.916-4.16,7.374-5.861
		c2.269-1.702,5.672-4.916,8.696-4.538c0.945,2.647-1.134,7.374-2.458,9.642c-2.079,3.025-3.781,6.05-6.995,7.94
		c-2.457,1.513-7.184,3.025-9.453,1.134"/>
</g>
<g>
	<g>
		<path fill="#FF7FA3" d="M55.071,348.591c-2.581-6.206-5.143-10.766-11.883-12.85c-6.197-1.916-13.528-0.792-19.311,1.87
			c-1.118,0.515-0.821,2.004,0,2.591c4.761,3.4,9.852,5.947,15.291,8.063c2.418,0.941,4.813,1.996,7.294,2.758
			c2.104,0.646,4.239-0.295,6.3-0.587c1.909-0.271,1.094-3.161-0.797-2.893c-8.902,1.263-19.433-4.833-26.574-9.932
			c0,0.864,0,1.727,0,2.591c4.241-1.953,8.812-2.507,13.438-2.21c7.383,0.475,10.695,5.015,13.35,11.396
			C52.91,351.148,55.814,350.377,55.071,348.591L55.071,348.591z"/>
	</g>
</g>
<g>
	<g>
		<path fill="#FF7FA3" d="M269.34,277.798c1.103-4.333,7.534-8.451,11.012-10.743c5.374-3.542,11.641-6.043,18.043-6.811
			c-0.482-0.633-0.964-1.266-1.446-1.899c-1.311,6.064-3.944,10.769-9.111,14.317c-4.249,2.917-13.296,4.349-18.033,3.038
			c-1.867-0.517-2.659,2.377-0.797,2.893c6.183,1.712,14.776-0.341,20.344-3.34c5.964-3.212,9.12-9.77,10.49-16.11
			c0.185-0.855-0.421-2.022-1.446-1.899c-7.064,0.846-13.527,3.507-19.558,7.22c-4.382,2.698-11.055,7.285-12.39,12.535
			C265.97,278.876,268.863,279.671,269.34,277.798L269.34,277.798z"/>
	</g>
</g>
<g>
	<g>
		<path fill="#FF7FA3" d="M379.113,404.5c4.176-4.351,11.551-4.811,17.194-3.9c7.22,1.165,13.64,6.227,20.061,9.428
			c0-0.864,0-1.727,0-2.591c-5.842,3.866-12.595,4.922-19.49,4.73c-3.898-0.108-7.584-0.919-11.028-2.779
			c-2.889-1.559-3.502-4.644-5.729-6.758c-1.401-1.332-3.526,0.787-2.121,2.121c2.495,2.37,3.354,5.178,6.335,7.228
			c3.177,2.184,7.328,2.735,11.06,3.096c7.711,0.746,15.985-0.745,22.487-5.047c0.875-0.58,1.068-2.058,0-2.591
			c-7.07-3.525-14.135-9.064-22.216-9.952c-6.35-0.697-14.021,0.044-18.674,4.893C375.653,403.774,377.771,405.898,379.113,404.5
			L379.113,404.5z"/>
	</g>
</g>
<g>
	<g>
		<path fill="#FF7FA3" d="M191.765,459.436c7.178-5.037,17.458-5.566,23.673,1.136c5.292,5.707,11.257,9.994,19.034,11.366
			c-0.221-0.835-0.441-1.671-0.662-2.507c-7.449,6.482-19.983,6.433-27.8,1.088c-5.537-3.786-10.873-12.606-18.026-13.123
			c-1.932-0.139-1.918,2.862,0,3c4.893,0.353,9.974,7.628,13.604,10.549c3.41,2.745,7.064,4.937,11.299,6.097
			c7.049,1.933,17.605-0.757,23.044-5.491c0.811-0.705,0.426-2.315-0.662-2.507c-5.751-1.015-10.283-3.546-14.58-7.448
			c-2.858-2.595-5.073-5.962-8.769-7.457c-7.036-2.847-15.491-1.63-21.669,2.705C188.68,457.947,190.177,460.55,191.765,459.436
			L191.765,459.436z"/>
	</g>
</g>
<g>
	<g>
		<path fill="#FF7FA3" d="M331.218,476.342c6.78-5.69,13.857-13.18,23.517-12.417c-0.482-0.633-0.964-1.266-1.446-1.899
			c-3.314,8.222-14.129,17.907-23.509,13.85c-1.756-0.759-3.285,1.824-1.514,2.591c11.396,4.929,23.793-5.417,27.915-15.643
			c0.393-0.973-0.575-1.83-1.446-1.899c-10.497-0.829-18.248,7.093-25.638,13.295C327.613,475.466,329.747,477.577,331.218,476.342
			L331.218,476.342z"/>
	</g>
</g>
<g>
	<g>
		<path fill="#FF7FA3" d="M72.212,307.039c2.006-5.412-0.433-11.709-2.236-16.887c-2.253-6.466-7.631-10.484-10.519-16.535
			c-0.608-1.275-2.344-0.747-2.741,0.358c-4.362,12.122-2.494,28.901,11.635,33.103c1.858,0.553,2.647-2.343,0.797-2.893
			c-12.545-3.731-13.298-18.966-9.539-29.413c-0.914,0.119-1.827,0.239-2.741,0.358c2.371,4.968,6.564,8.447,9.111,13.257
			c2.433,4.593,5.18,12.892,3.341,17.853C68.646,308.059,71.546,308.836,72.212,307.039L72.212,307.039z"/>
	</g>
</g>
<g>
	<g>
		<path fill="#FF7FA3" d="M114.576,109.208c-3.263,3.927-3.808,10.297-0.229,14.357c4.096,4.647,10.883,4.665,16.19,2.038
			c8.538-4.225,14.479-12.296,22.273-17.672c9.141-6.303,19.116-6.888,29.854-6.571c13.263,0.392,30.096-0.013,37.451-13.35
			c2.767-5.016,1.952-11.123-1.732-15.352c-4.738-5.438-11.877-2.596-17.292-0.237c-1.77,0.771-0.241,3.355,1.514,2.591
			c3.37-1.468,6.423-3.059,10.208-2.28c4.033,0.829,5.888,5.135,5.937,8.799c0.076,5.769-4.641,9.997-9.181,12.683
			c-10.191,6.03-22.39,4.032-33.642,4.034c-11.914,0.002-21.288,4.062-30.484,11.478c-5.111,4.121-9.267,9.242-14.991,12.58
			c-3.409,1.988-7.793,2.804-11.504,1.232c-4.565-1.934-5.119-8.756-2.251-12.208C117.924,109.853,115.813,107.718,114.576,109.208
			L114.576,109.208z"/>
	</g>
</g>
<g>
	<g>
		<path fill="#FF7FA3" d="M117.023,111.186c0.506-0.248,1.057-0.415,1.638-0.426c0.817-0.016,1.5-0.67,1.5-1.5
			c0-0.806-0.683-1.516-1.5-1.5c-1.131,0.021-2.144,0.342-3.151,0.835c-0.734,0.359-0.929,1.387-0.538,2.052
			C115.407,111.391,116.289,111.545,117.023,111.186L117.023,111.186z"/>
	</g>
</g>
<g>
	<path fill="#FF7FA3" d="M128.114,125.141c-3.277-1.26-7.059,7.437-7.689,9.58c-0.882,2.772-1.385,6.176-1.134,9.327
		c4.286-1.008,7.814-4.916,9.074-9.075c0.757-2.269,2.018-8.319-1.007-9.832"/>
</g>
<g>
	<path fill="#FF7FA3" d="M138.575,117.201c0.252,0.126,0.127,0-0.126,0c-0.631-0.252-1.26-0.378-2.016-0.378
		c-1.891-0.252-3.403-1.008-5.043-2.017c-2.142-1.513-3.403-5.419-3.276-8.066c1.513-0.252,3.403,0.378,4.789,0.63
		c1.891,0.504,3.403,1.387,4.79,2.647c1.891,1.639,2.395,3.781,2.395,6.176"/>
</g>
<g>
	<path fill="#FF7FA3" d="M170.086,100.06c-3.025,2.016-5.168,3.907-6.05,7.562c-1.009,3.781-0.505,7.815-0.378,11.596
		c2.269-0.756,4.915-2.899,6.554-4.664c1.512-1.638,2.143-4.033,2.646-6.176c0.756-3.277-0.253-5.672-2.521-7.814"/>
</g>
<g>
	<path fill="#FF7FA3" d="M189.37,99.807c0.882-2.898,0.756-5.419,2.772-7.94c1.135-1.386,2.395-2.647,3.781-3.781
		c1.009-0.756,2.646-2.269,4.034-2.269c1.638,4.033,1.26,8.697-2.647,11.217c-2.018,1.261-4.033,2.143-6.303,2.899"/>
</g>
<g>
	<path fill="#FF7FA3" d="M219.745,80.523c1.009-1.26,1.135-3.655,1.513-5.293c1.387-5.167,5.925-7.437,10.588-9.201
		c1.134,1.387,0.378,5.168,0,6.68c-0.757,2.773-3.15,6.05-5.672,7.688c-2.017,1.26-4.285,1.387-6.429,2.143"/>
</g>
<g>
	<g>
		<path fill="#FF7FA3" d="M111.59,119.722c0.045,0.373-0.251,0.787-0.545,0.983c0.089-0.06,0.343-0.138-0.049,0.01
			c0.194-0.073,0.4-0.118,0.603-0.161c0.105-0.022,0.213-0.04,0.319-0.058c0.363-0.061-0.342,0.04,0,0
			c0.146-0.017,0.294-0.028,0.441-0.03c0.817-0.013,1.5-0.673,1.5-1.5c0-0.808-0.683-1.513-1.5-1.5
			c-0.657,0.01-1.339,0.121-1.973,0.296c-0.86,0.239-1.921,0.917-1.797,1.96c0.097,0.812,0.609,1.5,1.5,1.5
			C110.834,121.222,111.687,120.536,111.59,119.722L111.59,119.722z"/>
	</g>
</g>
<g>
	<g>
		<path fill="#FF7FA3" d="M133.355,123.303c0.087,0.065,0.167,0.138,0.24,0.218c-0.083-0.104-0.078-0.084,0.014,0.061
			c-0.055-0.142-0.053-0.13,0.006,0.036c0.044,0.134,0.076,0.273,0.11,0.41c0.199,0.792,1.07,1.261,1.845,1.047
			c0.801-0.22,1.248-1.053,1.048-1.845c-0.196-0.777-0.508-1.525-1.142-2.048c-0.63-0.521-1.502-0.619-2.121,0
			C132.818,121.718,132.725,122.781,133.355,123.303L133.355,123.303z"/>
	</g>
</g>
<g>
	<g>
		<path fill="#FF7FA3" d="M145.646,105.353c0.026,1.194,0.359,2.561,1.087,3.53c0.489,0.653,1.285,0.987,2.052,0.539
			c0.645-0.378,1.03-1.397,0.538-2.052c-0.463-0.618-0.662-1.344-0.677-2.016C148.604,103.421,145.604,103.417,145.646,105.353
			L145.646,105.353z"/>
	</g>
</g>
<g>
	<g>
		<path fill="#FF7FA3" d="M178.093,100.962c0.107,0.372,0.107-0.162,0,0.21c-0.228,0.785,0.268,1.631,1.048,1.845
			c0.796,0.219,1.617-0.263,1.845-1.047c0.177-0.61,0.177-1.196,0-1.806c-0.228-0.785-1.049-1.267-1.845-1.047
			C178.36,99.332,177.865,100.177,178.093,100.962L178.093,100.962z"/>
	</g>
</g>
<g>
	<g>
		<path fill="#FF7FA3" d="M204.62,99.842c0.134,0.061,0.253,0.127,0.375,0.208c-0.215-0.142,0.206,0.202,0.249,0.243
			c0.314,0.297,0.649,0.575,1.014,0.81c0.688,0.444,1.652,0.144,2.052-0.538c0.428-0.729,0.147-1.61-0.538-2.053
			c-0.4-0.259,0.167,0.17-0.186-0.136c-0.15-0.13-0.291-0.271-0.437-0.406c-0.303-0.28-0.639-0.547-1.016-0.718
			c-0.744-0.337-1.607-0.221-2.052,0.539C203.701,98.439,203.875,99.505,204.62,99.842L204.62,99.842z"/>
	</g>
</g>
<g>
	<g>
		<path fill="#FF7FA3" d="M216.016,86.521c-0.038-0.032-0.072-0.068-0.102-0.107c-0.606,0.785-1.212,1.57-1.818,2.355
			c0.382,0.275,0.783,0.388,1.229,0.513c0.469,0.131,0.923,0.321,1.375,0.501c0.761,0.304,1.646-0.325,1.845-1.047
			c0.235-0.855-0.289-1.542-1.048-1.845c-0.397-0.159-0.796-0.314-1.203-0.449c-0.169-0.056-0.342-0.101-0.516-0.144
			c0.177,0.044-0.107-0.076-0.168-0.12c-0.541-0.39-1.376-0.208-1.818,0.235c-0.628,0.627-0.507,1.481,0,2.121
			c0.03,0.04,0.064,0.075,0.103,0.107c0.574,0.582,1.546,0.575,2.121,0C216.597,88.062,216.59,87.103,216.016,86.521L216.016,86.521
			z"/>
	</g>
</g>
<g>
	<g>
		<path fill="#FF7FA3" d="M214.039,68.675c-0.203,0.333-0.333,0.711-0.472,1.075c-0.067,0.178-0.134,0.357-0.203,0.535
			c-0.066,0.167-0.072,0.181-0.019,0.042c-0.056,0.125-0.121,0.245-0.188,0.364c-0.405,0.71-0.173,1.636,0.538,2.052
			c0.699,0.409,1.648,0.171,2.052-0.539c0.228-0.399,0.396-0.831,0.563-1.259c0.067-0.174,0.131-0.35,0.197-0.524
			c0.066-0.167,0.062-0.16-0.013,0.021c0.038-0.088,0.084-0.171,0.134-0.254c0.426-0.699,0.157-1.645-0.538-2.052
			C215.376,67.718,214.463,67.978,214.039,68.675L214.039,68.675z"/>
	</g>
</g>
<g>
	<g>
		<path fill="#FF7FA3" d="M40.536,375.335c-0.711-0.134-1.571,0.024-1.914,0.758c-0.318,0.682-0.204,1.263,0.084,1.921
			c0.279,0.64,0.695,1.215,1.082,1.793c0.453,0.679,1.314,0.971,2.052,0.539c0.674-0.395,0.993-1.372,0.538-2.052
			c-0.223-0.333-0.446-0.665-0.657-1.006c-0.109-0.177-0.213-0.359-0.31-0.544c-0.049-0.093-0.168-0.397,0.007,0.041
			c-0.017-0.044-0.031-0.089-0.043-0.134c0.183,0.831-0.363,1.357-1.636,1.578c0.803,0.151,1.614-0.211,1.845-1.047
			C41.787,376.442,41.341,375.486,40.536,375.335L40.536,375.335z"/>
	</g>
</g>
<g>
	<g>
		<path fill="#FF7FA3" d="M72.299,390.516c1.315-0.206,2.604-0.656,3.949-0.513c0.814,0.087,1.5-0.748,1.5-1.5
			c0-0.883-0.688-1.414-1.5-1.5c-1.602-0.17-3.18,0.375-4.746,0.621c-0.81,0.127-1.246,1.125-1.048,1.845
			C70.689,390.323,71.492,390.643,72.299,390.516L72.299,390.516z"/>
	</g>
</g>
<g>
	<g>
		<path fill="#FF7FA3" d="M81.908,403.438c-0.043,0.222-0.045,0.248-0.007,0.078c0.084-0.354-0.147,0.262,0.039-0.078
			c0.021-0.038,0.268-0.365,0.072-0.125c0.088-0.108,0.188-0.207,0.286-0.306c0.101-0.101,0.21-0.192,0.319-0.283
			c-0.227,0.189,0.128-0.081,0.148-0.095c0.21-0.141,0.435-0.255,0.667-0.354c0.754-0.319,0.911-1.416,0.538-2.053
			c-0.452-0.772-1.299-0.856-2.052-0.538c-1.484,0.628-2.927,2.08-3.012,3.753c-0.041,0.817,0.714,1.5,1.5,1.5
			C81.257,404.938,81.867,404.255,81.908,403.438L81.908,403.438z"/>
	</g>
</g>
<g>
	<g>
		<path fill="#FF7FA3" d="M69.841,429.841c-0.096,0.04-0.192,0.044-0.291,0.013c0.162,0.053,0.172,0.047,0.029-0.017
			c0.089,0.041,0.174,0.087,0.257,0.137c0,0,0.389,0.28,0.193,0.122c0.16,0.129,0.308,0.276,0.453,0.422
			c0.068,0.071,0.137,0.145,0.202,0.219c0.022,0.025,0.318,0.39,0.109,0.117c0.496,0.647,1.28,0.99,2.052,0.538
			c0.64-0.375,1.037-1.402,0.538-2.053c-1.081-1.411-2.441-2.655-4.34-2.391c-0.812,0.113-1.243,1.135-1.048,1.845
			C68.233,429.658,69.032,429.954,69.841,429.841L69.841,429.841z"/>
	</g>
</g>
<g>
	<g>
		<path fill="#FF7FA3" d="M121.98,387.435c0.322-0.087,0.639-0.045,0.948,0.125c0.18,0.179,0.359,0.359,0.538,0.538
			c0.154,0.2,0.03,1.25,0.152,0.874c-0.161,0.498-0.03,0.096,0.052-0.044c0.151-0.257,0.331-0.498,0.51-0.736
			c-0.252,0.335,0.035-0.042,0.087-0.106c0.099-0.123,0.2-0.244,0.303-0.365c0.123-0.145,0.249-0.289,0.382-0.425
			c1.355-1.382-0.765-3.504-2.121-2.121c-0.636,0.648-1.216,1.399-1.703,2.163c-0.367,0.574-0.544,1.145-0.439,1.827
			c0.158,1.02,1.241,1.292,2.089,1.164c0.811-0.122,1.245-1.129,1.048-1.845C123.589,387.624,122.788,387.313,121.98,387.435
			L121.98,387.435z"/>
	</g>
</g>
<g>
	<g>
		<path fill="#FF7FA3" d="M107.254,368.812c0.657,0.493,1.306,1.006,1.965,1.656c0.582,0.574,1.54,0.581,2.121,0
			c0.575-0.575,0.582-1.547,0-2.121c-0.795-0.784-1.681-1.456-2.572-2.125c-0.655-0.492-1.675-0.106-2.052,0.538
			C106.267,367.527,106.602,368.322,107.254,368.812L107.254,368.812z"/>
	</g>
</g>
<g>
	<g>
		<path fill="#FF7FA3" d="M112.33,339.348c0.373-0.703,0.848-1.156,1.468-1.776c0.578-0.578,0.578-1.543,0-2.121
			c-0.578-0.578-1.543-0.578-2.121,0c-0.72,0.72-1.456,1.476-1.937,2.383c-0.383,0.723-0.189,1.626,0.538,2.052
			C110.961,340.286,111.948,340.07,112.33,339.348L112.33,339.348z"/>
	</g>
</g>
<g>
	<g>
		<path fill="#FF7FA3" d="M92.487,311.489c1.114,0.347,2.288,0.411,3.403,0.756c1.853,0.575,2.639-2.321,0.797-2.893
			c-1.114-0.346-2.288-0.41-3.403-0.756C91.432,308.021,90.646,310.917,92.487,311.489L92.487,311.489z"/>
	</g>
</g>
<g>
	<g>
		<path fill="#FF7FA3" d="M91.912,300.969c0.73-1.112,1.35-2.291,2.079-3.403c1.065-1.623-1.533-3.124-2.59-1.514
			c-0.73,1.112-1.35,2.291-2.079,3.402C88.257,301.077,90.855,302.578,91.912,300.969L91.912,300.969z"/>
	</g>
</g>
<g>
	<g>
		<path fill="#FF7FA3" d="M151.482,439.927c-0.011-0.124-0.022-0.215,0.035-0.334c0.142-0.291,0.341-0.523,0.557-0.759
			c0.485-0.532,1.055-0.988,1.615-1.438c0.64-0.512,0.53-1.591,0-2.121c-0.625-0.625-1.483-0.511-2.121,0
			c-1.391,1.113-3.252,2.668-3.086,4.652c0.068,0.814,0.631,1.5,1.5,1.5C150.749,441.427,151.551,440.743,151.482,439.927
			L151.482,439.927z"/>
	</g>
</g>
<g>
	<g>
		<path fill="#FF7FA3" d="M272.493,423.113c-0.797,0.058-1.399,0.458-1.649,1.236c-0.189,0.586,0.06,1.214,0.327,1.727
			c0.351,0.674,0.867,1.325,1.396,1.867c0.57,0.585,1.549,0.572,2.121,0c0.584-0.583,0.57-1.536,0-2.121
			c-0.11-0.113-0.212-0.233-0.313-0.354c-0.06-0.071-0.117-0.145-0.174-0.217c0.272,0.345-0.02-0.033-0.07-0.104
			c-0.135-0.188-0.258-0.382-0.37-0.584c-0.056-0.101-0.154-0.381,0.017,0.065c-0.015-0.041-0.026-0.083-0.035-0.125
			c0.187,0.733-0.229,1.271-1.249,1.612c0.815-0.059,1.5-0.638,1.5-1.5C273.993,423.84,273.31,423.054,272.493,423.113
			L272.493,423.113z"/>
	</g>
</g>
<g>
	<g>
		<path fill="#FF7FA3" d="M282.439,421.704c0.113-0.114,0.104-0.122-0.025-0.023c0.006-0.004,0.403-0.213,0.181-0.122
			c0.325-0.134,0.674-0.212,1.016-0.289c0.582-0.13,1.175-0.203,1.76-0.314c0.804-0.153,1.252-1.105,1.048-1.845
			c-0.229-0.834-1.043-1.201-1.845-1.047c-1.409,0.269-3.248,0.346-4.255,1.52c-0.532,0.62-0.611,1.51,0,2.121
			C280.863,422.249,281.906,422.325,282.439,421.704L282.439,421.704z"/>
	</g>
</g>
<g>
	<g>
		<path fill="#FF7FA3" d="M329.138,402.378c0.036,0.062,0.066,0.127,0.093,0.194c0.095,0.283,0.021-0.193-0.005-0.007
			c0.044-0.314,0.148-0.623,0.247-0.923c0.194-0.595,0.476-1.165,0.618-1.775c0.44-1.882-2.452-2.681-2.893-0.798
			c-0.408,1.745-1.831,3.861-0.182,5.43C328.417,405.832,330.542,403.714,329.138,402.378L329.138,402.378z"/>
	</g>
</g>
<g>
	<g>
		<path fill="#FF7FA3" d="M346.795,393.201c1.491-0.845,3.286-1.316,4.936-1.74c1.873-0.481,1.078-3.375-0.797-2.893
			c-1.897,0.487-3.94,1.071-5.652,2.042C343.599,391.564,345.109,394.156,346.795,393.201L346.795,393.201z"/>
	</g>
</g>
<g>
	<g>
		<path fill="#FF7FA3" d="M356.625,346.181c-0.839,0.514-1.287,1.435-1.657,2.309c-0.376,0.888-0.722,1.802-0.923,2.748
			c-0.402,1.887,2.489,2.689,2.893,0.798c0.146-0.683,0.373-1.347,0.617-1.999c0.12-0.321,0.266-0.628,0.425-0.932
			c0.079-0.15,0.17-0.293,0.264-0.435c-0.142,0.213,0.261-0.121-0.104,0.103C359.785,347.764,358.279,345.168,356.625,346.181
			L356.625,346.181z"/>
	</g>
</g>
<g>
	<g>
		<path fill="#FF7FA3" d="M334.329,340.481c-0.03,1.077-0.459,2.071-0.93,3.024c-0.854,1.728,1.733,3.249,2.59,1.514
			c0.713-1.442,1.294-2.91,1.34-4.538C337.383,338.546,334.383,338.551,334.329,340.481L334.329,340.481z"/>
	</g>
</g>
<g>
	<g>
		<path fill="#FF7FA3" d="M328.064,350.691c-0.004,0.042-0.206,0.608-0.065,0.378c-0.212,0.346,0.046-0.026,0.132-0.109
			c0.094-0.09,0.195-0.172,0.296-0.254c-0.227,0.186,0.22-0.156,0.264-0.187c0.481-0.34,0.991-0.642,1.467-0.991
			c0.658-0.483,0.984-1.292,0.538-2.053c-0.381-0.65-1.392-1.023-2.052-0.538c-1.357,0.997-3.421,1.851-3.579,3.753
			c-0.068,0.816,0.733,1.5,1.5,1.5C327.434,352.191,327.997,351.505,328.064,350.691L328.064,350.691z"/>
	</g>
</g>
<g>
	<path fill="#FFFFFF" d="M181.052,99.429c-1.513-1.891-3.277-3.655-5.42-4.916c-2.521-1.513-7.059-3.655-9.327-0.756
		c-2.646,3.403,1.891,5.167,4.411,5.546c2.773,0.504,5.546,1.26,8.445,1.386c-3.151,0.63-6.681,1.891-8.949,4.159
		c-1.639,1.513-4.916,7.437-1.891,8.949c2.899,1.638,7.562-3.025,9.074-5.042c1.261-1.765,2.269-3.908,2.899-6.05
		c-0.126,3.529-0.126,7.058,0.252,10.587c0.127,2.017,1.639,6.806,4.538,6.05c3.402-1.135,1.891-7.437,1.134-9.706
		c-0.883-2.395-1.261-6.302-3.151-8.066c1.388,3.655,5.672,6.554,8.697,8.697c1.639,1.134,3.529,2.269,5.546,2.143
		c2.143-0.252,2.521-1.891,1.765-3.655c-1.387-2.773-4.789-5.294-7.311-7.059c-1.891-1.387-3.907-1.513-5.924-2.521
		c4.159,0,8.57-0.504,12.227-3.025c1.891-1.386,6.175-6.68,2.269-8.319c-3.277-1.386-8.067,2.017-10.714,3.781
		c-2.017,1.261-3.781,2.899-5.672,4.538c0.252-3.277,0.378-6.806-1.386-9.705c-1.135-2.143-4.034-3.781-5.799-1.134
		c-2.521,4.16,1.639,9.453,3.025,13.234"/>
</g>
<g>
	<path fill="#FFFFFF" d="M111.543,119.788c-1.045-1.307-2.266-2.526-3.746-3.397c-1.742-1.045-4.878-2.526-6.446-0.523
		c-1.829,2.353,1.308,3.572,3.05,3.833c1.916,0.348,3.832,0.871,5.836,0.958c-2.178,0.436-4.617,1.307-6.185,2.875
		c-1.133,1.045-3.398,5.14-1.307,6.185c2.003,1.132,5.227-2.091,6.271-3.485c0.871-1.22,1.568-2.7,2.004-4.181
		c-0.087,2.439-0.087,4.878,0.175,7.317c0.086,1.394,1.131,4.704,3.136,4.182c2.352-0.784,1.307-5.14,0.784-6.708
		c-0.61-1.655-0.871-4.355-2.179-5.575c0.959,2.526,3.92,4.53,6.012,6.011c1.132,0.784,2.438,1.568,3.833,1.481
		c1.48-0.174,1.741-1.307,1.219-2.526c-0.958-1.917-3.311-3.659-5.052-4.878c-1.308-0.958-2.701-1.045-4.095-1.742
		c2.874,0,5.923-0.348,8.449-2.09c1.307-0.958,4.269-4.617,1.568-5.75c-2.265-0.958-5.574,1.394-7.404,2.614
		c-1.395,0.871-2.613,2.003-3.92,3.136c0.174-2.265,0.261-4.705-0.959-6.708c-0.783-1.481-2.787-2.613-4.007-0.784
		c-1.742,2.875,1.133,6.533,2.091,9.146"/>
</g>
<g>
	<path fill="#FFFFFF" d="M205.317,72.901c-1.045-1.307-2.266-2.527-3.746-3.398c-1.742-1.045-4.878-2.526-6.446-0.522
		c-1.83,2.352,1.307,3.572,3.049,3.833c1.917,0.348,3.832,0.871,5.837,0.958c-2.178,0.436-4.617,1.307-6.186,2.875
		c-1.132,1.045-3.397,5.14-1.306,6.185c2.002,1.132,5.226-2.091,6.271-3.485c0.871-1.219,1.568-2.7,2.004-4.181
		c-0.087,2.438-0.087,4.877,0.174,7.317c0.087,1.394,1.132,4.704,3.136,4.182c2.352-0.784,1.307-5.14,0.785-6.708
		c-0.61-1.655-0.872-4.355-2.179-5.575c0.958,2.526,3.92,4.53,6.011,6.011c1.133,0.784,2.439,1.568,3.833,1.481
		c1.481-0.174,1.742-1.307,1.22-2.526c-0.958-1.916-3.311-3.658-5.053-4.878c-1.307-0.958-2.7-1.045-4.094-1.743
		c2.874,0,5.923-0.348,8.449-2.09c1.307-0.958,4.269-4.617,1.567-5.75c-2.264-0.958-5.574,1.394-7.404,2.614
		c-1.394,0.871-2.612,2.003-3.92,3.136c0.175-2.265,0.262-4.705-0.958-6.708c-0.784-1.481-2.787-2.614-4.008-0.784
		c-1.741,2.875,1.133,6.533,2.092,9.146"/>
</g>
<circle fill="#FF7FA3" cx="181.949" cy="98.94" r="3.544"/>
<circle fill="#FF7FA3" cx="206.148" cy="72.472" r="2.157"/>
<circle fill="#FF7FA3" cx="112.374" cy="119.359" r="2.157"/>
</svg>
