<?xml version="1.0" encoding="utf-8"?>
<!-- Generator: Adobe Illustrator 16.0.0, SVG Export Plug-In . SVG Version: 6.00 Build 0)  -->
<!DOCTYPE svg PUBLIC "-//W3C//DTD SVG 1.0//EN" "http://www.w3.org/TR/2001/REC-SVG-20010904/DTD/svg10.dtd">
<svg version="1.0" id="Capa_1" xmlns="http://www.w3.org/2000/svg" xmlns:xlink="http://www.w3.org/1999/xlink" x="0px" y="0px"
	 width="267.214px" height="154.331px" viewBox="0 0 267.214 154.331" enable-background="new 0 0 267.214 154.331"
	 xml:space="preserve">
<g>
	<g>
		<path fill="#FFFFFF" d="M59.569,107.833c-5.068,8.107-8.108,31.419-0.507,38.008c6.588-6.589,5.575-20.778,11.657-28.886
			c8.612-12.163,8.104,3.042,8.104,10.642c0,6.079-1.518,23.815,6.589,19.254c9.628-6.078,6.083-26.854,15.201-34.963
			c9.63-8.614,28.38-4.055,40.034-2.536c15.204,1.521,26.354,2.03,28.377,18.245c0.507,5.574,0,28.378,10.135,20.775
			c8.109-6.08,1.521-24.83,8.617-32.432c3.037,4.562,2.531,29.9,12.158,27.872c7.098-1.014,3.549-33.446,3.549-38.513
			c0.509-24.325,24.326-14.19,37.499-27.871c5.067-4.561,10.136-12.669,13.683-18.242c6.08-8.615,6.08-13.683-5.067-13.683
			c-6.589,0-14.696,3.041-21.281,1.521c-8.11-2.533-10.138-9.63-15.204-14.19c-5.068-5.066-9.629-1.013-15.201-4.054
			c-6.59-3.545-6.081-17.736-14.696-20.269c-2.026,8.107-3.04,16.216-5.068,23.816c-4.562-4.561-6.079-14.697-13.682-16.218
			c-4.054,11.15,9.12,25.846,4.56,35.474c-4.56,9.123-30.91,1.014-39.019,1.014c-23.312-0.508-41.045,11.655-62.835,15.71
			C46.9,72.361,24.096,74.896,3.32,72.361c2.533,13.176,17.23,19.763,28.884,19.258c10.135,0,28.379-1.016,27.87,13.681"/>
		<g>
			<path d="M57.928,106.875c-3.693,6.182-4.878,13.922-5.287,21c-0.369,6.378,0.094,14.634,5.078,19.308
				c0.734,0.688,1.969,0.776,2.686,0c5.625-6.047,6.213-14.917,8.602-22.466c1.016-3.204,3.377-9.036,6.811-10.397
				c0.441-0.176,1.072,7.229,1.093,8.084c0.122,5.029-2.947,29.686,7.304,26.953c6.129-1.633,8.465-8.809,9.83-14.247
				c1.779-7.063,2.119-15.749,7.34-21.333c6.104-6.527,17.518-5.391,25.49-4.498c8.19,0.918,16.574,1.904,24.701,3.265
				c3.994,0.67,8.021,1.825,11.057,4.628c3.239,2.989,4.372,7.835,4.604,12.07c0.346,6.352,0.05,13.969,3.443,19.607
				c3.829,6.365,11.436,1.015,13.326-4.074c1.588-4.275,1.623-8.953,1.801-13.454c0.181-4.642,0.105-10.306,3.314-14.036
				c-0.994-0.127-1.989-0.254-2.982-0.385c2.473,4.107,2.318,10.597,3.26,15.211c0.915,4.497,2.254,10.731,6.73,13.072
				c10.924,5.713,10.191-16.658,10.125-21.532c-0.138-9.994-4.493-25.944,5.949-32.151c5.111-3.036,11.604-3.578,17.217-5.298
				c6.957-2.131,12.215-6.13,16.882-11.655c4.237-5.018,7.615-10.721,11.216-16.193c1.848-2.805,4.33-7.272,2.551-10.684
				c-1.944-3.719-6.77-4.004-10.468-4.064c-7.276-0.124-15.356,3.977-22.39,0.98c-5.201-2.217-7.853-7.77-11.438-11.793
				c-1.724-1.934-3.684-3.358-6.128-4.205c-2.863-0.99-6.104-0.132-9.05-0.763c-4.927-1.059-6.443-7.723-8.122-11.688
				c-1.784-4.214-4.271-7.911-8.751-9.459c-0.958-0.329-2.104,0.368-2.34,1.328c-1.915,7.892-3.035,15.951-5.065,23.816
				c1.062-0.278,2.117-0.558,3.177-0.839c-5.184-5.555-6.117-14.6-14.523-16.703c-1.035-0.259-2.014,0.323-2.336,1.329
				c-2.26,7.01,0.66,14.161,2.98,20.759c1.992,5.665,5.412,15.005-2.63,17.125c-6.132,1.613-13.374,0.068-19.483-0.917
				c-6.335-1.021-12.328-2.095-18.777-1.781c-19.454,0.951-36.824,10.992-55.561,15.177c-21.375,4.776-44.024,7.03-65.842,4.49
				c-1.299-0.152-2.07,1.318-1.833,2.404c2.886,13.206,16.222,20.25,28.903,20.674c9.359,0.312,27.893-2.202,27.784,11.76
				c-0.018,2.452,3.782,2.45,3.802,0c0.098-12.647-12.148-15.24-22.46-15.561c-6.486-0.198-12.628,0.287-18.913-1.793
				c-7.531-2.497-13.729-8.211-15.449-16.09c-0.611,0.801-1.222,1.604-1.834,2.405c22.287,2.595,44.99-0.06,66.852-4.624
				c20.502-4.281,38.822-15.494,60.285-15.132c11.784,0.198,24.842,6.675,36.355,1.648c5.887-2.57,5.489-9.951,4.238-15.151
				c-1.882-7.817-7.406-16.152-4.752-24.385c-0.78,0.44-1.557,0.883-2.338,1.329c7.021,1.753,8.39,10.952,12.846,15.725
				c0.97,1.044,2.823,0.518,3.174-0.839c2.029-7.864,3.149-15.925,5.066-23.817c-0.779,0.444-1.559,0.887-2.336,1.329
				c6.678,2.305,7.293,11.998,11,17.127c1.754,2.432,4.458,3.956,7.433,4.311c2.014,0.24,4.019,0.125,6.034,0.213
				c3.088,0.135,5.271,2.68,7.109,4.878c5.399,6.467,9.322,12.426,18.613,12.472c3.562,0.018,24.859-5.369,23.893,1.532
				c-0.521,3.681-3.62,7.127-5.557,10.157c-3.019,4.722-6.156,9.395-9.997,13.502c-4.987,5.325-10.983,7.664-17.919,9.388
				c-5.318,1.324-11.23,2.388-15.545,6.029c-4.604,3.887-6.324,10.006-6.18,15.882c0.137,5.671,0.707,11.33,0.838,17.007
				c0.135,5.593,0.864,13.287-2,18.363c-1.082,1.915-3.377,0.243-4.236-0.976c-1.83-2.601-2.484-6.081-3.137-9.13
				c-1.078-5.044-0.918-11.598-3.645-16.116c-0.595-0.988-2.168-1.336-2.984-0.385c-4.586,5.333-4.256,12.905-4.543,19.528
				c-0.153,3.557-0.342,7.319-2.004,10.54c-0.996,1.922-4.16,4.794-5.924,2.264c-2.953-4.226-2.613-11.19-2.85-16.111
				c-0.287-5.982-1.467-11.9-5.793-16.337c-4.521-4.632-11.651-5.571-17.742-6.312c-8.32-1.013-16.652-2.447-25.008-3.106
				c-7.504-0.591-16.523-0.228-22.574,4.874c-5.537,4.662-7.018,12.022-8.432,18.777c-0.912,4.352-1.713,8.856-3.826,12.816
				c-0.865,1.62-2.539,3.901-4.527,4.154c-1.369,0.179-1.785-2.369-2.001-3.271c-1.755-7.376-0.159-15.623-0.63-23.153
				c-0.154-2.466-0.352-6.811-2.867-8.218c-3.119-1.74-5.849,1.358-7.619,3.59c-3.327,4.188-4.895,9.367-6.195,14.479
				c-1.368,5.357-2.277,11.911-6.178,15.911c0.895,0,1.791,0,2.686,0c-4.468-4-4.232-12.216-3.908-17.823
				c0.352-6.059,1.561-12.997,4.717-18.272C62.47,106.815,59.186,104.772,57.928,106.875L57.928,106.875z"/>
		</g>
	</g>
	<g>
		<path d="M245.924,46.646c-0.318,2.455,0.211,5.248,2.227,6.886c1.65,1.341,3.748,1.817,5.822,1.386
			c1.936-0.398,3.509-2.062,3.025-4.118c-0.612-2.604-4.212-3.772-6.389-4.467c-0.898-0.288-2.19,0.327-2.336,1.327
			c-0.225,1.525-0.115,2.855,0.894,4.079c0.804,0.977,2.225,1.178,3.39,0.931c1.189-0.249,2.124-1.24,2.476-2.37
			c0.438-1.425-0.347-2.86-1.304-3.857c-0.568-0.594-1.604-0.755-2.302-0.299c-0.478,0.313-0.866,0.646-1.132,1.16
			c-0.146,0.28-0.225,0.531-0.278,0.831c-0.032,0.177-0.208,0.454-0.032,0.211c-0.609,0.843-0.148,2.115,0.681,2.6
			c0.96,0.563,1.993,0.155,2.599-0.68c0.17-0.23,0.259-0.493,0.355-0.758c0.029-0.12,0.047-0.24,0.061-0.363
			c0.096-0.371-0.016-0.279-0.336,0.282c-0.768-0.1-1.535-0.199-2.303-0.298c0.092,0.093,0.18,0.187,0.264,0.286
			c-0.242-0.274,0.046,0.11,0.075,0.163c-0.21-0.375-0.04-0.082-0.006,0.053c-0.132-0.531-0.065,0.127,0.014-0.444
			c-0.021,0.163-0.187,0.424,0.056-0.066c-0.164,0.332,0.309-0.335,0.059-0.063c-0.254,0.273,0.379-0.25,0.062-0.051
			c-0.318,0.204,0.44-0.147,0.08-0.026c-0.148,0.049-0.484,0.056,0.098,0.005c-0.148,0.014-0.492-0.052,0.096,0.04
			c-0.148-0.021-0.446-0.173,0.061,0.06c-0.146-0.066-0.348-0.291,0.033,0.049c-0.293-0.262,0.227,0.371,0.014,0.012
			c0.236,0.393,0.043,0.115,0-0.049c-0.127-0.469,0.014,0.404-0.008-0.139c0-0.002,0.043-0.596-0.002-0.288
			c-0.777,0.444-1.559,0.887-2.337,1.329c1.228,0.389,1.888,0.611,2.966,1.244c0.157,0.094,0.31,0.196,0.461,0.3
			c0.168,0.122,0.137,0.098-0.09-0.076c0.084,0.069,0.168,0.145,0.249,0.22c0.124,0.117,0.474,0.578,0.077,0.043
			c0.111,0.149,0.29,0.601,0.029-0.049c0.066,0.168,0.096,0.538,0.006-0.182c0.057,0.452,0.08-0.32,0.041-0.146
			c-0.085,0.384,0.254-0.468,0.049-0.128c-0.098,0.161,0.389-0.416,0.051-0.095c-0.209,0.197,0.463-0.321,0.108-0.088
			c-0.104,0.068-0.218,0.123-0.331,0.177c0.653-0.306-0.18,0.026-0.425,0.073c-0.321,0.059,0.554-0.057,0.053-0.013
			c-0.159,0.013-0.317,0.015-0.475,0.013c-0.159-0.002-0.326-0.018-0.487-0.035c0.676,0.074,0.07-0.002-0.088-0.04
			c-0.135-0.03-0.266-0.069-0.396-0.112c-0.067-0.021-0.132-0.045-0.196-0.07c-0.367-0.133,0.424,0.193,0.07,0.027
			c-0.162-0.074-0.314-0.168-0.463-0.262c-0.061-0.038-0.122-0.078-0.182-0.12c-0.326-0.227,0.348,0.288,0.044,0.026
			c-0.114-0.098-0.22-0.205-0.323-0.312c-0.359-0.383,0.172,0.279-0.131-0.164c-0.113-0.17-0.21-0.354-0.3-0.535
			c-0.087-0.186-0.075-0.151,0.036,0.099c-0.05-0.125-0.089-0.252-0.131-0.382c-0.057-0.18-0.096-0.366-0.135-0.551
			c-0.021-0.098-0.037-0.196-0.051-0.293c0.078,0.488,0.01-0.042,0.004-0.123c-0.042-0.6,0.006-1.202,0.086-1.797
			c0.131-1.032-0.965-1.901-1.902-1.901C246.689,44.744,246.057,45.618,245.924,46.646L245.924,46.646z"/>
	</g>
	<g>
		<path d="M224.712,46.898c-1.61,5.737-4.275,11.081-9.226,14.619c-4.718,3.369-10.693,4.161-16.342,4.147
			c-5.361-0.014-10.918-0.767-16.166-1.822c-5.507-1.11-12.023-3.096-14.465-8.657c-0.984-2.239-4.26-0.302-3.28,1.921
			c2.603,5.923,9.048,8.481,14.921,9.988c6.371,1.636,13.392,2.357,19.955,2.372c6.329,0.015,12.748-1.42,17.951-5.134
			c5.479-3.915,8.539-10.094,10.312-16.423C229.034,45.546,225.367,44.543,224.712,46.898L224.712,46.898z"/>
	</g>
	<g>
		<path d="M178.147,32.703c3.133,0.853,6.157,0.227,9.279-0.378c4.161-0.808,8.661-0.666,12.891-0.693
			c2.45-0.015,2.45-3.816,0-3.801c-3.679,0.024-7.351,0.189-11.022,0.381c-3.438,0.179-6.672,1.771-10.139,0.828
			C176.791,28.394,175.785,32.061,178.147,32.703L178.147,32.703z"/>
	</g>
	<g>
		<path d="M152.877,57.161c-1.971,5.694-3.869,11.573-7.92,16.178c-5.805,6.597-14.143,7.406-22.307,6.029
			c-6.82-1.149-12.811-2.021-19.63-0.391c-4.192,1.001-8.23,2.114-12.341,0.169c-3.967-1.878-7.395-6.765-5.021-11.021
			c1.199-2.143-2.086-4.058-3.281-1.917c-4.133,7.399,2.139,14.919,9.121,17.347c3.985,1.388,8.619,0.047,12.529-0.914
			c5.65-1.386,10.674-0.86,16.34,0.165c9.32,1.686,17.485,1.34,25.16-4.761c6.077-4.834,8.578-12.834,11.014-19.873
			C157.348,55.848,153.673,54.859,152.877,57.161L152.877,57.161z"/>
	</g>
	<g>
		<path d="M107.379,89.793c2.896,2.747,7.076,4.136,10.666,1.818c0.92-0.596,1.147-1.636,0.68-2.601
			c-1.722-3.562-7.875-6.816-10.965-3.044c-1.54,1.879,1.133,4.586,2.688,2.687c1.424-1.737,4.326,0.891,4.996,2.277
			c0.228-0.866,0.455-1.733,0.682-2.599c-2.125,1.369-4.365,0.381-6.059-1.226C108.289,85.421,105.599,88.106,107.379,89.793
			L107.379,89.793z"/>
	</g>
	<g>
		<path d="M148.43,77.307c-2.315,1.419-4.072,4.298-2.98,7.042c1.195,3.014,4.436,3.387,7.014,1.862
			c2.924-1.729,4.914-5.663,2.537-8.629c-2.301-2.871-6.395-1.603-8.476,0.782c-1.603,1.84,1.073,4.539,2.688,2.688
			c0.592-0.679,1.143-1.163,2.012-1.35c0.262-0.06,0.654,0.103,0.848,0.289c0.162,0.151,0.283,0.403,0.18,0.871
			c-0.191,0.856-0.967,1.587-1.707,2.065c-0.312,0.204-0.471,0.277-0.812,0.382c-0.555,0.168,0.285,0.018-0.242,0.052
			c-0.529,0.029,0.324,0.1-0.16,0c-0.479-0.1,0.297,0.182-0.119-0.038c-0.416-0.221,0.253,0.256-0.084-0.067
			c-0.086-0.081-0.08-0.086-0.121-0.212c-0.031-0.103-0.059-0.208-0.076-0.314c0.094,0.437,0.012-0.07,0.012-0.157
			c-0.004-0.544-0.09,0.352,0.014-0.194c0.033-0.181,0.094-0.357,0.152-0.532c-0.113,0.33,0.143-0.233,0.15-0.243
			c0.264-0.46-0.162,0.135,0.198-0.285c0.276-0.321,0.544-0.513,0.894-0.729C152.434,79.312,150.525,76.023,148.43,77.307
			L148.43,77.307z"/>
	</g>
	<g>
		<path d="M239.058,59.187c0,0,3-3.801,0-3.801C237.058,55.386,237.058,59.187,239.058,59.187
			C239.058,59.187,237.058,59.187,239.058,59.187z"/>
	</g>
	<g>
		<path d="M244.058,64.507c0,0,3-3.8,0-3.8C242.058,60.707,242.058,64.507,244.058,64.507
			C244.058,64.507,242.058,64.507,244.058,64.507z"/>
	</g>
	<g>
		<path d="M23.971,76.29c-0.37,3.01-1.828,8.252-4.762,9.759c-2.18,1.121-0.258,4.399,1.918,3.281
			c4.242-2.179,6.112-8.699,6.645-13.04C28.066,73.859,24.264,73.89,23.971,76.29L23.971,76.29z"/>
	</g>
	<g>
		<g>
			<path d="M191.9,51.421c1.668-1.696,3.416-3.235,5.717-3.981c2.978-0.966,5.451,1.418,7.084,3.587
				c1.492,1.982,4.882,0.043,3.367-1.969c-2.297-3.052-4.854-5.335-8.774-5.713c-3.938-0.38-7.61,2.734-10.151,5.318
				C187.379,50.457,190.135,53.217,191.9,51.421L191.9,51.421z"/>
		</g>
	</g>
</g>
</svg>
