<?xml version="1.0" encoding="utf-8"?>
<!-- Generator: Adobe Illustrator 16.0.0, SVG Export Plug-In . SVG Version: 6.00 Build 0)  -->
<!DOCTYPE svg PUBLIC "-//W3C//DTD SVG 1.0//EN" "http://www.w3.org/TR/2001/REC-SVG-20010904/DTD/svg10.dtd">
<svg version="1.0" id="Capa_1" xmlns="http://www.w3.org/2000/svg" xmlns:xlink="http://www.w3.org/1999/xlink" x="0px" y="0px"
	 width="1002.362px" height="371.189px" viewBox="0 0 1002.362 371.189" enable-background="new 0 0 1002.362 371.189"
	 xml:space="preserve">
<g>
	<g>
		<path fill="#FFFFFF" d="M46.617,269.811C23.924,219.002-3.998,161.259,6.474,109.293C18.69,46.935,116.427,4.206,207.184,15.754
			c139.623,17.322,274.014,33.49,417.128,18.477c71.558-8.083,143.112-16.167,214.675-17.322
			c41.887-1.154,94.246-4.62,127.404,16.168c57.598,38.107,29.668,120.1,6.984,163.983c-31.418,64.67-95.996,69.289-188.494,81.993
			c-85.524,12.7-176.275,16.164-263.545,17.321c-68.066,0-132.643-10.395-200.707-8.085c-73.303,2.311-178.02,17.321-244.346-9.236
			c-13.959-6.928-24.434-10.395-31.414-21.944"/>
	</g>
	<g>
		<path d="M21.941,231.82c92.041,76.444,210.607,42.123,319.811,42.123c73.324,0,146.646,12.481,219.969,12.481
			c82.684,0,165.367-3.121,246.489-18.722c40.562-6.24,78.001-23.4,115.444-39.002c62.404-28.08,59.283,9.361,43.684,56.163
			c-7.803,24.96-9.363,34.32-34.324,45.241c-24.959,10.921-54.602,15.601-81.121,17.161c-73.324,3.119-146.646,3.119-218.41,10.919
			c-123.244,14.041-249.607,3.12-371.292-4.68c-78.003-4.681-224.649,18.721-244.931-81.123c-1.561-10.92-9.358-42.122,9.359-34.32"
			/>
	</g>
</g>
</svg>
