<?xml version="1.0" encoding="utf-8"?>
<!-- Generator: Adobe Illustrator 16.0.0, SVG Export Plug-In . SVG Version: 6.00 Build 0)  -->
<!DOCTYPE svg PUBLIC "-//W3C//DTD SVG 1.0//EN" "http://www.w3.org/TR/2001/REC-SVG-20010904/DTD/svg10.dtd">
<svg version="1.0" id="Capa_1" xmlns="http://www.w3.org/2000/svg" xmlns:xlink="http://www.w3.org/1999/xlink" x="0px" y="0px"
	 width="458.268px" height="325.984px" viewBox="0 0 458.268 325.984" enable-background="new 0 0 458.268 325.984"
	 xml:space="preserve">
<g>
	<g>
		<path fill="#FFFFFF" d="M270.511,123c-27.704-6.925-54.419-3.958-82.124-2.968c-17.314,0.494-33.146,0-50.461-2.474
			c-16.821-1.979-29.189,0.989-26.221-20.284c4.947-31.168-27.212-57.389-54.914-64.81c-17.811-4.947-37.105,0-39.58,20.283
			c-1.484,11.38,2.971,23.747-0.496,34.136c-1.977,7.424-7.914,7.424-10.389,13.359c-1.977,4.946,1.486,12.367,2.475,17.315
			c0.99,5.441,0,10.389,0.99,15.335c1.484,6.926,6.924,13.357,8.906,20.284c2.475,10.39,8.409,28.693,15.828,36.609
			c11.381,11.874,22.266-1.978,33.645-1.483c11.871,0.494,24.736,12.863,34.135,19.293c22.758,15.338,46.504,22.758,72.232,11.381
			c22.258-9.895,43.534,3.957,64.311,10.883c5.938,1.978,12.37,2.969,17.314,5.443"/>
		<g>
			<path d="M28.311,83.306c2.656-2.667,5.684-4.331,9.512-4.15c3.574,0.168,6.893,2.412,9.516,4.646
				c1.209,1.028,2.967-0.713,1.752-1.749c-3.288-2.798-6.91-4.922-11.268-5.371c-4.354-0.449-8.305,1.907-11.262,4.877
				C25.434,82.689,27.186,84.438,28.311,83.306L28.311,83.306z"/>
		</g>
		<g>
			<path d="M26.533,82.893c4.157,8.983,19.131,9.796,23.575,0.658c0.693-1.428-1.441-2.68-2.137-1.248
				c-3.672,7.55-15.9,6.689-19.302-0.66C28,80.196,25.867,81.454,26.533,82.893L26.533,82.893z"/>
		</g>
		<g>
			<path d="M32.418,80.366c1.524,0.799,2.674,4.328,0.295,4.665c0.508,0.511,1.018,1.016,1.524,1.522
				c0.39-2.353,2.259-6.841-1.667-7.302c-1.229-0.146-2.027,1.266-2.283,2.242c-0.313,1.204-0.033,2.605,0.891,3.463
				c0.434,0.398,0.982,0.449,1.5,0.194c2.375-1.177,1.885-3.778-0.426-4.645c-2.467-0.924-4.232,0.975-3.535,3.41
				c0.24,0.831,1.092,1.059,1.818,0.736c0.352-0.154,0.633-0.419,0.907-0.687c0.288-0.278,0.479-0.812,0.32-1.203
				c-0.405-0.987-1.69-1.728-2.563-0.712c-1.031,1.207,0.71,2.964,1.75,1.749c0.027-0.029,0.053-0.059,0.078-0.089
				c-0.294,0.12-0.584,0.241-0.877,0.361c-0.094-0.034-0.186-0.068-0.282-0.103c-0.188-0.247-0.38-0.491-0.566-0.737
				c0.024,0.061,0.052,0.125,0.075,0.188c0.107-0.399,0.213-0.801,0.318-1.203c-0.105,0.145-0.244,0.245-0.409,0.301
				c0.605,0.245,1.21,0.492,1.816,0.74c-0.212-0.738-0.341-0.637,0.338-0.424c0.188,0.058,0.44,0.274,0.466,0.313
				c-0.273-0.424,0.276-0.507-0.476-0.134c0.497,0.063,0.997,0.127,1.499,0.191c-0.305-0.28-0.328-0.652-0.26-1.056
				c0.021-0.113,0.073-0.364,0.156-0.472c-0.283,0.367-0.445-0.3-0.211,0.261c0.447,1.071-0.586,2.87-0.764,3.959
				c-0.168,0.995,0.541,1.657,1.518,1.52c4.643-0.658,3.592-7.46,0.297-9.188C32.256,77.49,31.004,79.626,32.418,80.366
				L32.418,80.366z"/>
		</g>
		<g>
			<path d="M26.496,70.637c1.937-1.471,3.803-3.027,6.133-3.833c-0.465-0.606-0.93-1.21-1.395-1.814
				c-0.625,1.387-1.438,2.658-2.227,3.956c-0.773,1.268,0.911,2.363,1.941,1.499c0.951-0.799,1.909-1.581,2.929-2.291
				c0.485-0.341,0.999-0.632,1.519-0.918c0.113-0.062,3.395-1.123,1.967,0.472c0.648,0.499,1.295,0.999,1.942,1.496
				c2.015-4.132,6.187-2.265,7.388,1.438c0.489,1.511,2.877,0.864,2.383-0.658c-1.82-5.628-8.898-8.192-11.907-2.025
				c-0.583,1.199,0.956,2.602,1.942,1.499c2.049-2.285,1.346-4.912-1.932-5.248c-2.88-0.293-5.973,2.804-7.98,4.487
				c0.646,0.499,1.295,0.999,1.941,1.499c0.793-1.297,1.605-2.568,2.227-3.958c0.402-0.896-0.258-2.208-1.395-1.817
				c-2.561,0.883-4.594,2.463-6.729,4.082C23.994,69.454,25.225,71.604,26.496,70.637L26.496,70.637z"/>
		</g>
		<g>
			<path d="M16.677,53.903c-1.417,4.479-1.886,9.076-0.747,13.672c0.759,3.073,1.112,5.691,0.664,8.863
				c-0.373,2.628-1.069,5.204-1.562,7.811c-0.299,1.556,2.086,2.223,2.383,0.656c0.896-4.719,2.307-9.383,1.794-14.231
				c-0.278-2.651-1.343-5.054-1.481-7.753c-0.146-2.844,0.484-5.668,1.338-8.359C19.547,53.036,17.158,52.389,16.677,53.903
				L16.677,53.903z"/>
		</g>
		<g>
			<path d="M14.654,109.313c-0.448,4.195-0.85,7.483,3.086,10.007c3.205,2.059,7.617,2.567,11.346,2.606
				c1.594,0.02,1.594-2.455,0-2.472c-2.809-0.031-5.577-0.458-8.232-1.382c-1.443-0.5-2.871-1.332-3.73-2.624
				c-1.076-1.623-0.184-4.35,0.004-6.136C17.297,107.729,14.823,107.743,14.654,109.313L14.654,109.313z"/>
		</g>
		<g>
			<path d="M17.708,117.852c-2.349,0.895-1.548,3.871-1.046,5.729c0.873,3.227,2.299,6.298,3.529,9.397
				c1.441,3.628,2.502,6.932,5.215,9.888c3.136,3.414,7.691,4.975,12.252,4.622c1.583-0.121,1.593-2.595,0-2.474
				c-3.832,0.299-7.211-0.822-10.047-3.439c-2.586-2.389-3.648-5.469-4.81-8.674c-0.814-2.24-1.808-4.416-2.647-6.649
				c-0.461-1.239-0.881-2.49-1.225-3.767c-0.143-0.526-0.262-1.066-0.32-1.607c-0.055-0.485,0.216-0.819-0.244-0.646
				C19.839,119.673,19.2,117.282,17.708,117.852L17.708,117.852z"/>
		</g>
		<g>
			<path d="M37.496,147.28c1.311,0.377,2.691,0.084,3.955-0.331c1.512-0.491,0.865-2.88-0.656-2.385
				c-0.836,0.272-1.77,0.582-2.641,0.33C36.619,144.454,35.967,146.84,37.496,147.28L37.496,147.28z"/>
		</g>
		<path d="M18.984,75.382c-2.453,1.981-4.092,6.433-5.729,9.154c-1.771,3.092-3.953,5.936-5.314,9.275
			c-2.184,4.946-2.318,10.389,3.816,13.109c2.592,1.114,5.999,1.483,8.046-0.618c2.316-2.35,1.228-5.565,0.409-8.288
			c-1.908-6.308-2.592-13.851-1.362-20.406"/>
		<g>
			<path d="M90.43,91.871c2.041-0.793,8.077-5.764,9.381-1.83c0.563,1.701-4.281,4.585-5.332,5.484
				c-2.268,1.943-1.916,4.763-1.039,7.309c0.664,1.927,1.081,5.152-1.84,5.352c-2.131,0.146-3.273-2.402-2.943-4.151
				c0.293-1.558-2.092-2.224-2.385-0.657c-0.756,4.019,2.636,8.568,7.02,6.944c2.046-0.756,3.097-2.896,3.229-4.945
				c0.163-2.525-2.727-5.664-0.551-7.863c2.188-2.209,7.412-4.559,6.113-8.471c-0.658-1.991-3.08-3.084-5.021-2.938
				c-2.758,0.205-4.822,2.424-7.289,3.384C88.303,90.056,88.941,92.448,90.43,91.871L90.43,91.871z"/>
		</g>
		<path d="M17.168,38.071c-2.639,1.814-8.367,15.173-5.068,18.14c2.143,1.979,13.357-12.037,16.327-13.191
			c1.649,6.267,2.804,10.389,7.914,15.007c6.925,6.432,4.946-2.311,5.113-7.09c5.114,2.967,6.927,10.554,11.871,14.18
			c2.308,1.649,6.103,3.794,7.917,0.662c0.824-1.65,0.164-4.62,0.164-6.432c3.3,2.473,3.794,11.376,4.619,15.169
			c1.978,8.576,6.264,4.619,9.4-0.657c-1.156,6.43-2.805,12.696-2.805,19.295c0.166,2.306,0.33,7.749,4.123,6.76
			c2.473-0.826,3.133-5.441,3.793-7.586c-0.166,2.802-1.484,5.275-1.484,8.08c0,2.146,0.66,7.751,3.463,8.245
			c3.461,0.661,4.946-8.575,5.443-11.05c1.318-4.946,1.647-7.42,6.926-9.399c2.142-0.822,6.76-2.475,7.585,0.497
			c0.658,2.802-2.808,5.274-4.454,6.759c-2.638,2.476-3.627,4.948-2.143,8.576c0.165-0.163,0.328-0.163,0.495-0.327
			c0.328,4.779-1.155,11.871,2.144,15.663c1.65,1.979,5.936,5.113,8.74,3.792c2.474-1.317,3.134-6.76,4.947-9.069
			c0.164,2.146-0.329,4.454,0.494,6.762c1.484,3.794,2.639,3.135,3.629-0.165c2.473-7.915,6.267-15.006,7.914-23.252
			c2.309-11.048,4.124-21.932,4.784-33.145c0.493-10.227-2.476-21.274-7.093-30.345C116.98,23.561,108.074,17.13,98.016,12.51
			c-4.287-1.978-8.738-3.797-13.191-4.953c-5.275-1.154-11.048-0.832-16.328-0.832c-6.266,0-12.529,0-18.799,0
			c-5.771,0-7.914,0.996-11.707,5.283c-3.959,4.287-6.264,5.793-10.555,14.369C20.51,30.007,19.641,34.113,17.168,38.071"/>
		<g>
			<path d="M53.657,142.092c-1.12-0.455-2.073-1.896-2.797-2.797c-1.553-1.937-2.873-4.079-4.147-6.207
				c-2.953-4.941-5.535-10.188-7.378-15.646c-0.704-2.08-1.317-4.264-1.404-6.469c-0.023-0.672,0.008-1.41,0.3-2.025
				c0.616-1.28,2.012,1.531,2.342,2.108c3.617,6.337,5.736,13.559,10.89,18.917c0.595,0.62,1.923,0.394,2.067-0.544
				c0.25-1.598-0.127-3.269-0.393-4.842c-0.451-2.67-0.993-5.321-1.455-7.988c-0.328-1.884-2.717-12.302,0.326-13.021
				c-0.352,0.082-0.831-0.283-0.617,0.012c0.184,0.257,0.33,0.544,0.475,0.823c0.502,0.947,0.869,1.965,1.244,2.965
				c0.963,2.589,1.773,5.233,2.578,7.872c1.26,4.151,2.223,8.45,3.701,12.529c0.374,1.033,2.165,1.32,2.387,0
				c0.834-4.983,0.142-10.051-0.183-15.051c-0.33-5.063-0.563-10.77,2.696-14.998c-0.648,0.086-1.295,0.168-1.943,0.253
				c3.996,4.564,3.913,10.98,4.053,16.706c0.131,5.368,0.336,10.891,3.011,15.693c0.532,0.957,1.966,0.708,2.261-0.293
				c0.739-2.515,0.583-5.372,0.773-7.963c0.043-0.6,1.182-8.548,2.26-7.507c0.891,0.862,0.844,3.138,0.928,4.256
				c0.123,1.646,0.115,3.304,0.121,4.951c0.014,3.974,0.855,7.707,2.331,11.403c1.673,4.189,4.987,8.955,4.231,13.638
				c-0.736,4.562-5.184,8.114-9.603,8.705c-4.629,0.619-8.489-2.914-11.536-5.905c-3.165-3.105-6.062-6.709-8.1-10.658
				c-0.73-1.42-2.867-0.167-2.135,1.246c2.449,4.75,6.1,9.014,10.014,12.615c3.47,3.189,7.767,5.988,12.695,5.049
				c4.797-0.911,8.673-4.181,10.547-8.657c2.205-5.261-1.199-10.87-3.27-15.597c-2.153-4.924-2.623-9.484-2.73-14.737
				c-0.05-2.185,0.146-8.187-2.924-8.804c-6.756-1.363-4.971,13.845-5.988,17.307c0.752-0.1,1.506-0.199,2.262-0.296
				c-5.666-10.176,0.674-23.614-7.451-32.9c-0.578-0.663-1.492-1.535-1.943-0.949c-6.633,8.602-1.125,23.438-2.764,29.438
				c0.797,0,1.592,0,2.387,0c-1.712-2-2.818-8.508-4.311-13.311c-0.84-2.695-1.702-4.805-2.805-7.406
				c-0.502-1.186-1.281-3.174-2.898-3.174c-4.87,0-3.473,9.196-3.136,11.862c0.395,3.142,0.991,6.326,1.575,9.434
				c0.365,1.963,1.253,4.625,0.942,6.605c0.69-0.183,1.38-0.345,2.069-0.528c-3.693-3.839-5.717-8.771-8.01-13.496
				c-1.281-2.645-2.475-5.772-4.623-7.835c-1.842-1.77-3.98-0.511-4.791,1.543c-0.795,2.011-0.199,4.602,0.269,6.609
				c1.506,6.461,4.705,12.688,7.989,18.403c1.453,2.527,3.027,5.01,4.828,7.308c1.132,1.446,2.377,3.026,4.122,3.736
				C54.479,145.076,55.113,142.683,53.657,142.092L53.657,142.092z"/>
		</g>
		<g>
			<path d="M57.979,153.429c-2.94,2.216-5.784,4.502-7.7,7.699c-0.438,0.731,0.004,1.546,0.74,1.818
				c10.391,3.836,22.34-2.995,31.035-8.16c4.342-2.575,8.312-6.134,8.873-11.428c0.525-4.969-5.182-3.741-7.883-2.463
				c-1.44,0.684-0.186,2.815,1.25,2.136c0.867-0.411,3.977-2.023,4.166-0.132c0.193,1.958-1.148,4.107-2.314,5.543
				c-2.516,3.102-6.58,5.002-10.018,6.89c-7.01,3.849-16.408,8.199-24.451,5.228c0.244,0.606,0.494,1.212,0.738,1.818
				c1.689-2.823,4.217-4.859,6.812-6.812C60.484,154.616,59.256,152.469,57.979,153.429L57.979,153.429z"/>
		</g>
		<g>
			<path d="M40.465,147.817c3.824-0.068,7.472-1.008,10.848-2.806c1.408-0.753,0.159-2.886-1.248-2.137
				c-2.996,1.597-6.211,2.408-9.6,2.468C38.871,145.374,38.869,147.847,40.465,147.817L40.465,147.817z"/>
		</g>
		<g>
			<path d="M17.047,125.555c-4.086-0.039-9.302,0.952-8.77,6.131c0.455,4.403,3.59,8.319,5.426,12.221
				c0.68,1.443,2.812,0.187,2.135-1.247c-1.479-3.15-3.483-6.068-4.656-9.36c-0.404-1.145-0.881-2.811-0.039-3.88
				c1.238-1.57,4.164-1.407,5.904-1.39C18.645,128.047,18.643,125.572,17.047,125.555L17.047,125.555z"/>
		</g>
		<g>
			<path d="M88.949,144.188c2.518,0.177,5.262,3.451,6.951,5.052c2.219,2.109,4.297,4.357,6.438,6.541
				c3.293,3.36,7.543,6.107,11.306,8.911c4.613,3.443,9.282,6.812,13.808,10.372c7.641,6.004,14.177,13.371,22.549,18.43
				c2.334,1.41,12.138,4.971,12.085-0.409c-0.015-1.595-2.489-1.595-2.474,0c0.012,1.206-5.988-0.753-6.734-1.029
				c-3.807-1.401-7.129-4.398-10.184-6.975c-3.443-2.905-6.701-6.02-10.098-8.98c-3.509-3.061-7.291-5.824-11.026-8.602
				c-6.896-5.129-14.113-9.972-20.097-16.174c-2.22-2.304-4.48-4.576-6.938-6.625c-1.585-1.321-3.445-2.832-5.585-2.983
				C87.354,141.605,87.365,144.079,88.949,144.188L88.949,144.188z"/>
		</g>
		<g>
			<path d="M110.633,154.827c0.27-4.686,1.744-9.078,5.312-12.262c3.065-2.73,7.344-3.772,11.34-3.98
				c10.012-0.521,18.924,4.193,26.312,10.533c5.199,4.462,9.781,9.59,14.713,14.332c4.908,4.719,10.334,8.696,14.791,13.896
				c4.447,5.186,8.734,11.671,9.148,18.66c0.375,6.347-2.383,13.538-7.117,17.82c-3.939,3.566-9.43,5.241-14.5,6.397
				c-5.343,1.216-10.846,1.664-16.307,1.904c-14.396,0.631-27.462-3.553-39.795-10.811c-11.995-7.061-23.513-14.561-34.799-22.703
				c-10.198-7.355-21.002-14.991-27.316-26.166c-0.785-1.388-2.92-0.142-2.135,1.247c6.274,11.105,16.822,18.832,26.963,26.162
				c11.941,8.629,24.111,16.576,36.811,24.049c12.191,7.177,25.486,11.241,39.686,10.718c10.554-0.388,22.549-1.417,31.434-7.693
				c4.588-3.239,7.418-8.584,8.814-13.92c1.541-5.895,0.566-11.664-2.119-17.035c-6.134-12.271-17.645-19.954-27.043-29.467
				c-7.751-7.851-15.724-15.861-26.592-19.024c-7.475-2.175-16.574-2.263-23.076,2.561c-4.719,3.497-6.672,9.097-6.999,14.782
				C108.066,156.42,110.543,156.412,110.633,154.827L110.633,154.827z"/>
		</g>
		<g>
			<path d="M12.469,127.619c-1.616-10.854-8.561-21.956-3.836-32.937c-0.467,0.191-0.933,0.38-1.397,0.568
				c1.772,0.608,1.554,4.026,1.565,5.486c0.016,1.595,2.485,1.595,2.475,0c-0.024-2.878-0.18-6.772-3.385-7.871
				c-0.471-0.164-1.189,0.088-1.393,0.57c-5.115,11.891,1.835,23.08,3.584,34.841C10.316,129.85,12.697,129.178,12.469,127.619
				L12.469,127.619z"/>
		</g>
		<g>
			<path d="M13.051,142.129c5.518,14.211,9.275,29.522,18.016,42.237c3.441,5.004,8.281,10.073,14.64,10.789
				c8.091,0.911,14.94-5.302,19.876-10.925c1.044-1.193-0.699-2.951-1.752-1.749c-4.504,5.133-10.982,11.413-18.488,10.137
				c-6.03-1.025-10.325-6.585-13.402-11.415c-7.761-12.17-11.33-26.405-16.502-39.731C14.864,139.999,12.473,140.639,13.051,142.129
				L13.051,142.129z"/>
		</g>
		<g>
			<path d="M91.422,142.047c9.979,0.323,20.734-7.575,24.812-16.446c0.662-1.438-1.471-2.692-2.135-1.243
				c-3.732,8.112-13.504,15.511-22.678,15.215C89.824,139.521,89.83,141.994,91.422,142.047L91.422,142.047z"/>
		</g>
		<g>
			<path d="M189.545,213.737c5.41,0.763,10.573,2.979,15.9,4.23c5.611,1.317,10.773,3.029,15.678,6.11
				c4.664,2.929,9.165,5.295,14.43,6.99c5.734,1.843,11.636,3.076,17.314,5.097c1.506,0.537,2.15-1.854,0.658-2.387
				c-5.391-1.916-10.974-3.18-16.449-4.828c-5.646-1.698-10.403-4.308-15.361-7.421c-4.566-2.867-9.547-4.494-14.764-5.748
				c-2.804-0.672-5.609-1.303-8.359-2.175c-2.806-0.891-5.457-1.842-8.395-2.253C188.64,211.135,187.968,213.517,189.545,213.737
				L189.545,213.737z"/>
		</g>
		<g>
			<path d="M113.317,118.627c3.729-1.841,9.179-1.078,13.181-0.886c5.879,0.283,11.764,0.679,17.622,1.232
				c14.196,1.341,28.079,2.875,42.362,2.033c27.986-1.648,56.441-6.572,83.537,3.353c1.5,0.548,2.141-1.843,0.656-2.387
				c-27.266-9.987-56.016-5.176-84.193-3.44c-14.904,0.918-29.427-0.85-44.242-2.207c-5.67-0.52-11.382-0.871-17.072-1.118
				c-4.152-0.181-9.248-0.616-13.098,1.284C110.639,117.195,111.893,119.328,113.317,118.627L113.317,118.627z"/>
		</g>
		<g>
			<path d="M20.217,107.586c-1.994,1.267-2.721,3.349-3.373,5.52c-0.389,1.291,1.17,1.926,2.068,1.205
				c1.724-1.387,2.885-3.353,4.861-4.426c-0.622-0.355-1.24-0.712-1.863-1.067c0.084,2.47-0.732,5.051,0.83,7.219
				c0.535,0.746,1.621,0.978,2.137,0.132c1.041-1.713,1.113-4.443,1.444-5.443c-0.796,0-1.593,0-2.388,0
				c1.178,3,1.877,5.92,4.691,7.701c0.746,0.467,1.523-0.104,1.818-0.804c0.904-2.152,0.844-4.525,0.496-6.792
				c-0.797,0.219-1.592,0.425-2.388,0.643c0.823,2.479,1.985,4.704,3.948,6.472c1.18,1.067,2.936-0.682,1.746-1.75
				c-1.65-1.492-2.615-3.3-3.307-5.395c-0.514-1.545-2.623-0.894-2.388,0.659c0.286,1.844,0.237,3.702-0.495,5.441
				c0.607-0.246,1.214-0.493,1.817-0.742c-2.159-1.364-2.655-4.131-3.553-6.352c-0.403-0.994-2.154-1.383-2.388-0.03
				c-0.283,1.68-0.283,3.948-1.193,4.948c0.712,0,1.424,0,2.137,0c-1.219-1-0.424-3.998-0.492-5.939
				c-0.031-0.951-1.021-1.508-1.861-1.053c-2.182,1.188-3.461,3.292-5.363,4.819c0.689,0.401,1.378,0.808,2.07,1.208
				c0.445-1.481,0.846-3.159,2.232-4.041C22.806,108.864,21.568,106.728,20.217,107.586L20.217,107.586z"/>
		</g>
		<g>
			<path d="M21.041,132.148c1.693,0.904,1.338,5.208,1.973,6.884c0.635,1.662,2.288,3.104,4.128,2.831
				c3.212-0.476,1.735-7.57,1.323-9.463c-0.797,0.22-1.592,0.438-2.385,0.657c1.27,4.721,3.788,12.094,9.273,13.232
				c0.402,0.084,0.924,0.031,1.203-0.318c2.736-3.428-1.426-8.601-2.94-11.723c-0.711,0.416-1.425,0.832-2.136,1.249
				c1.719,3.501,4.076,9.931,8.832,9.885c2.422-0.022,3.621-2.285,3.366-4.428c-0.312-2.616-1.946-5.016-3.301-7.201
				c-0.851-1.369-2.825-0.175-2.137,1.247c1.706,3.531,4.561,8.725,8.819,9.475c0.778,0.136,1.573-0.329,1.567-1.192
				c-0.021-3.445-1.872-6.251-3.015-9.399c-0.793,0.221-1.589,0.438-2.385,0.658c0.545,1.374,5.374,11.841,7.17,7.093
				c0.562-1.495-1.828-2.137-2.387-0.658c1.29-0.021,1.668-0.251,1.131-0.688c-0.264-0.275-0.463-0.625-0.672-0.942
				c-0.43-0.654-0.805-1.346-1.18-2.035c-0.605-1.107-1.211-2.252-1.678-3.428c-0.575-1.453-2.936-0.857-2.385,0.658
				c1.047,2.882,2.906,5.595,2.924,8.741c0.523-0.397,1.045-0.794,1.568-1.191c-3.564-0.629-5.918-5.386-7.343-8.338
				c-0.712,0.417-1.425,0.833-2.137,1.247c0.808,1.299,1.589,2.596,2.255,3.971c0.727,1.505,1.326,5.154-1.502,3.567
				c-2.713-1.523-4.08-5.641-5.378-8.29c-0.7-1.435-2.825-0.18-2.136,1.249c0.811,1.671,4.746,6.946,3.326,8.725
				c0.402-0.105,0.803-0.212,1.203-0.318c-4.49-0.933-6.514-7.673-7.545-11.504c-0.418-1.548-2.727-0.892-2.385,0.657
				c0.277,1.277,0.424,2.567,0.486,3.871c0.035,0.704,0.025,1.423-0.1,2.121c-0.033,0.193-0.095,0.38-0.19,0.555
				c0.214-0.413-0.569-0.771-0.794-1.107c-1.698-2.547,0.012-6.775-3.193-8.485C20.883,129.262,19.633,131.397,21.041,132.148
				L21.041,132.148z"/>
		</g>
		<g>
			<path d="M76.199,101.016c-2.949,2.401-4.264,6.181-5.596,9.616c-0.523,1.359,1.541,2.09,2.258,0.954
				c2.013-3.173,3.492-7.633,2.272-11.341c-0.273-0.823-1.067-1.069-1.816-0.74c-1.913,0.837-2.661,4.052-3.08,5.84
				c-0.442,1.888-0.869,4.835,1.099,6.025c1.983,1.2,3.884-1.308,4.856-2.658c0.839-1.169,1.569-2.423,2.37-3.623
				c0.531-0.8,1.279-2.127,2.305-2.334c-0.465-0.191-0.934-0.381-1.399-0.569c1.14,1.997,0.689,4.437,0.655,6.632
				c-0.023,1.597,2.451,1.595,2.475,0c0.041-2.703,0.404-5.432-0.993-7.879c-0.287-0.505-0.854-0.68-1.395-0.568
				c-3.323,0.676-4.917,5.741-6.891,8.037c-0.198,0.229-0.415,0.453-0.664,0.628c-0.314,0.226-0.112,0.224-0.188,0
				c-0.277-0.788-0.07-1.817,0.068-2.613c0.211-1.202,0.746-4.22,2.028-4.781c-0.604-0.247-1.208-0.494-1.817-0.738
				c1.02,3.092-0.351,6.805-2.018,9.435c0.754,0.318,1.508,0.637,2.261,0.954c1.184-3.055,2.337-6.392,4.96-8.526
				C79.187,101.759,77.424,100.02,76.199,101.016L76.199,101.016z"/>
		</g>
		<g>
			<path d="M23.889,76.991c7.145,0.182,14.244-1.505,21.415-1.356c2.923,0.062,6.898,0.188,8.507,3.032
				c2.651,4.686-0.074,12.142-4.127,15.082c-3.89,2.817-10.012,3.314-14.657,3.006c-4.257-0.282-7.499-2.617-8.884-6.656
				c-1.312-3.838-0.365-7.734-0.928-11.635c-0.527-3.651-4.375-3.393-7.096-2.666c-1.541,0.412-0.883,2.796,0.656,2.383
				c2.361-0.628,4.002-0.847,4.129,1.92c0.104,2.246-0.159,4.469,0.062,6.716c0.406,4.095,1.97,7.918,5.404,10.339
				c3.627,2.563,8.553,2.288,12.719,1.813c5.232-0.602,10.052-2.153,13.306-6.512c2.798-3.749,3.545-9.827,1.944-14.159
				c-1.227-3.32-4.34-4.419-7.594-4.868c-8.328-1.147-16.555,1.3-24.857,1.086C22.293,74.478,22.299,76.951,23.889,76.991
				L23.889,76.991z"/>
		</g>
		<g>
			<path d="M54.314,79.711c10.184,0.112,20.241,3.653,29.604,7.377c0.109-0.81,0.219-1.619,0.328-2.431
				c-5.42-0.385-10.799-1.202-16.117-2.316c-2.488-0.521-4.953-1.148-7.384-1.883c-2.872-0.867-4.968-2.767-7.038-4.835
				c-0.293,0.701-0.582,1.406-0.875,2.109c5.527-0.349,10.807,3.085,15.901,4.847c5.901,2.042,11.956,3.604,17.906,5.5
				c1.524,0.483,2.172-1.905,0.659-2.387c-5.952-1.896-11.992-3.502-17.907-5.5c-5.368-1.809-10.716-5.301-16.56-4.932
				c-1.046,0.062-1.677,1.31-0.875,2.108c1.752,1.748,3.495,3.348,5.701,4.498c2.518,1.318,5.504,1.877,8.245,2.513
				c6.017,1.397,12.186,2.315,18.343,2.753c1.504,0.106,1.525-1.953,0.329-2.432c-9.579-3.807-19.841-7.35-30.261-7.464
				C52.721,77.221,52.723,79.692,54.314,79.711L54.314,79.711z"/>
		</g>
		<g>
			<path d="M58.688,172.921c6.728,0.962,13.713-2.912,19.421-6.005c3.148-1.705,6.266-3.522,9.276-5.468
				c4.228-2.733,7.889-6.27,11.833-9.374c1.256-0.986-0.508-2.724-1.745-1.749c-3.563,2.801-6.894,5.881-10.604,8.488
				c-2.613,1.842-5.465,3.406-8.24,4.984c-3.119,1.773-6.321,3.436-9.648,4.788c-2.947,1.197-6.406,2.413-9.637,1.951
				C57.783,170.315,57.111,172.699,58.688,172.921L58.688,172.921z"/>
		</g>
		<g>
			<path d="M69.98,182.571c14.65-4.64,27.129-13.071,38.639-23.078c1.209-1.046-0.551-2.787-1.747-1.749
				c-11.187,9.728-23.31,17.933-37.548,22.442C67.807,180.665,68.455,183.053,69.98,182.571L69.98,182.571z"/>
		</g>
		<g>
			<path d="M82.352,191.229c7.094-1.779,13.342-6.11,19.109-10.451c2.73-2.058,5.285-4.205,7.652-6.677
				c2.523-2.636,4.939-5.434,8.163-7.239c1.39-0.779,0.144-2.916-1.249-2.136c-2.715,1.521-4.907,3.687-7.044,5.919
				c-2.595,2.711-5.175,5.237-8.155,7.526c-5.727,4.41-12.028,8.888-19.135,10.672C80.145,189.23,80.801,191.616,82.352,191.229
				L82.352,191.229z"/>
		</g>
		<g>
			<path d="M93.281,200.504c6.326-4.08,12.662-8.149,18.656-12.712c2.798-2.132,5.441-4.367,7.88-6.905
				c2.522-2.628,4.916-5.4,7.847-7.593c1.264-0.946,0.029-3.093-1.246-2.136c-5.329,3.981-9.322,9.417-14.532,13.565
				c-6.286,4.999-13.11,9.297-19.854,13.644C90.697,199.229,91.938,201.371,93.281,200.504L93.281,200.504z"/>
		</g>
		<g>
			<path d="M103.424,207.676c12.875-6.673,22.328-17.562,31.912-28.145c1.068-1.181-0.676-2.935-1.75-1.75
				c-9.443,10.429-18.723,21.18-31.411,27.759C100.758,206.275,102.01,208.411,103.424,207.676L103.424,207.676z"/>
		</g>
		<g>
			<path d="M118.514,216.085c10.637-7.644,15.697-20.359,22.458-31.115c0.851-1.355-1.29-2.595-2.134-1.25
				c-6.492,10.325-11.361,22.891-21.574,30.231C115.98,214.873,117.213,217.021,118.514,216.085L118.514,216.085z"/>
		</g>
		<g>
			<path d="M133.854,222.572c7.631-8.945,9.012-21.094,13.181-31.714c0.581-1.486-1.812-2.124-2.388-0.658
				c-3.984,10.155-5.248,22.074-12.545,30.622C131.074,222.03,132.816,223.788,133.854,222.572L133.854,222.572z"/>
		</g>
		<g>
			<path d="M145.178,224.548c5.682-8.461,4.959-19.579,6.553-29.237c0.26-1.559-2.123-2.228-2.383-0.657
				c-1.554,9.415-0.775,20.413-6.305,28.646C142.15,224.627,144.295,225.864,145.178,224.548L145.178,224.548z"/>
		</g>
		<g>
			<path d="M162.907,220.46c-0.11-8.902-3.114-17.379-4.743-26.054c-0.294-1.566-2.68-0.902-2.387,0.659
				c1.592,8.452,4.549,16.721,4.656,25.395C160.455,222.056,162.93,222.057,162.907,220.46L162.907,220.46z"/>
		</g>
		<g>
			<path d="M159.312,196.847c5.316,5.983,10.799,11.653,12.545,19.736c0.336,1.56,2.721,0.898,2.386-0.656
				c-1.837-8.504-7.589-14.53-13.181-20.828C160.001,193.902,158.258,195.658,159.312,196.847L159.312,196.847z"/>
		</g>
		<g>
			<path d="M162.414,194.239c9.176,1.008,22.137,2.532,27.133,11.509c0.771,1.396,2.91,0.147,2.133-1.247
				c-5.486-9.863-19.168-11.627-29.266-12.734C160.83,191.593,160.846,194.068,162.414,194.239L162.414,194.239z"/>
		</g>
		<g>
			<path d="M160.516,191.721c4.412-1.233,8.52-3.241,12.803-4.835c4.93-1.837,9.746-2.176,14.741-0.359
				c1.501,0.55,2.141-1.843,0.655-2.382c-4.661-1.7-9.271-1.698-14.012-0.327c-5.08,1.468-9.738,4.09-14.844,5.519
				C158.324,189.768,158.979,192.153,160.516,191.721L160.516,191.721z"/>
		</g>
		<g>
			<path d="M150.92,191.405c8.424-7.661,17.739-15.354,29.385-16.999c1.576-0.222,0.902-2.605-0.656-2.383
				c-12.043,1.696-21.768,9.712-30.476,17.632C147.99,190.731,149.742,192.475,150.92,191.405L150.92,191.405z"/>
		</g>
		<g>
			<path d="M142.949,185.712c5.131-9.231,14.879-18.714,25.73-20.21c1.572-0.217,0.9-2.6-0.658-2.385
				c-11.436,1.578-21.803,11.622-27.207,21.347C140.039,185.86,142.176,187.105,142.949,185.712L142.949,185.712z"/>
		</g>
		<g>
			<path d="M129.396,177.498c5.527-2.923,9.455-8.053,14.537-11.611c5.475-3.831,11.477-6.6,18.066-7.806
				c1.57-0.286,0.901-2.67-0.656-2.383c-6.543,1.192-12.461,3.912-17.975,7.584c-5.395,3.596-9.473,9.039-15.223,12.08
				C126.738,176.109,127.988,178.243,129.396,177.498L129.396,177.498z"/>
		</g>
		<g>
			<path d="M121.977,169.142c7.423-8.798,17.128-16.094,28.644-18.233c1.569-0.29,0.901-2.677-0.655-2.386
				c-11.889,2.206-22.07,9.783-29.736,18.869C119.207,168.604,120.947,170.362,121.977,169.142L121.977,169.142z"/>
		</g>
		<g>
			<path d="M116.359,162.906c1.75-4.313,6.627-7.672,10.072-10.585c5.112-4.324,10.56-8.645,17.432-9.53
				c1.559-0.204,1.576-2.679,0-2.475c-6.961,0.899-12.781,4.757-18.014,9.226c-4.207,3.593-9.731,7.418-11.874,12.706
				C113.375,163.729,115.769,164.363,116.359,162.906L116.359,162.906z"/>
		</g>
		<g>
			<path d="M13.828,137.023c2.322-1.159,4.848-1.858,7.223-2.906c1.459-0.642,0.197-2.771-1.247-2.137
				c-2.378,1.048-4.895,1.745-7.226,2.906C11.152,135.6,12.405,137.731,13.828,137.023L13.828,137.023z"/>
		</g>
		<g>
			<path d="M16.846,143.609c2.875-1.265,5.795-2.419,8.658-3.71c1.453-0.656,0.195-2.785-1.248-2.136
				c-2.863,1.29-5.784,2.443-8.658,3.71C14.142,142.115,15.4,144.247,16.846,143.609L16.846,143.609z"/>
		</g>
		<g>
			<path d="M18.035,153.629c5.035-1.366,9.4-4.244,14.147-6.309c1.46-0.635,0.2-2.766-1.249-2.136
				c-4.55,1.978-8.732,4.75-13.557,6.059C15.838,151.66,16.494,154.046,18.035,153.629L18.035,153.629z"/>
		</g>
		<g>
			<path d="M22.784,164.14c6.915-3.545,12.729-8.757,19.294-12.862c1.35-0.842,0.108-2.984-1.248-2.136
				c-6.563,4.104-12.383,9.316-19.295,12.863C20.117,162.733,21.366,164.868,22.784,164.14L22.784,164.14z"/>
		</g>
		<g>
			<path d="M29.166,172.921c8.125-2.711,14.082-9.652,20.088-15.404c1.152-1.106-0.597-2.853-1.748-1.75
				c-5.664,5.427-11.334,12.211-18.996,14.771C27.003,171.04,27.648,173.43,29.166,172.921L29.166,172.921z"/>
		</g>
		<g>
			<path d="M32.383,181.581c7.332-2.208,13.652-6.629,19.835-11.008c1.29-0.914,0.06-3.06-1.247-2.137
				c-5.999,4.246-12.13,8.617-19.244,10.759C30.201,179.655,30.852,182.041,32.383,181.581L32.383,181.581z"/>
		</g>
		<g>
			<path d="M41.287,187.517c6.215-1.966,11.174-7.203,15.389-11.944c1.055-1.188-0.686-2.943-1.75-1.749
				c-3.912,4.401-8.522,9.481-14.297,11.307C39.115,185.612,39.762,188,41.287,187.517L41.287,187.517z"/>
		</g>
		<g>
			<path d="M47.766,190.608c0.99-0.741,1.979-1.483,2.969-2.225c0.537-0.407,0.816-1.062,0.442-1.694
				c-0.311-0.531-1.15-0.848-1.69-0.442c-0.992,0.741-1.979,1.484-2.968,2.226c-0.54,0.404-0.814,1.062-0.442,1.692
				C46.387,190.696,47.226,191.015,47.766,190.608L47.766,190.608z"/>
		</g>
		<g>
			<path d="M62.893,187.764c5.118,1.74,10.395,2.715,15.789,3.014c1.593,0.089,1.586-2.386,0-2.474
				c-5.184-0.286-10.217-1.255-15.131-2.923C62.035,184.864,61.393,187.255,62.893,187.764L62.893,187.764z"/>
		</g>
		<g>
			<path d="M99.662,148.434c13.396-5.277,22.918-18.429,27.83-31.537c0.56-1.494-1.832-2.136-2.385-0.656
				c-4.578,12.21-13.599,24.88-26.102,29.809C97.54,146.627,98.179,149.017,99.662,148.434L99.662,148.434z"/>
		</g>
		<g>
			<path d="M123.959,136.984c4.427-4.13,5.831-10.546,7.49-16.129c0.456-1.532-1.934-2.184-2.386-0.659
				c-1.534,5.17-2.757,11.218-6.855,15.039C121.039,136.326,122.793,138.07,123.959,136.984L123.959,136.984z"/>
		</g>
		<g>
			<path d="M137.182,119.783c-0.365,5.369-1.16,10.768-2.428,15.997c-0.375,1.553,2.006,2.209,2.385,0.658
				c1.319-5.437,2.139-11.072,2.52-16.655C139.767,118.19,137.291,118.2,137.182,119.783L137.182,119.783z"/>
		</g>
		<g>
			<path d="M144.106,118.795c0.192,6.874-0.925,13.672-1.931,20.448c-0.235,1.561,2.148,2.232,2.383,0.659
				c1.042-6.993,2.219-14.014,2.023-21.107C146.539,117.202,144.064,117.198,144.106,118.795L144.106,118.795z"/>
		</g>
		<g>
			<path d="M157.881,121.719c-0.363-0.078-0.393-0.593-0.25,0.022c0.07,0.302,0.049,0.637,0.053,0.945
				c0.012,0.975-0.102,1.957-0.213,2.924c-0.312,2.701-0.857,5.379-1.383,8.043c-0.883,4.47-2.244,9.031-2.581,13.588
				c-0.114,1.591,2.358,1.582,2.476,0c0.396-5.375,2.117-10.78,3.092-16.072c0.371-1.997,2.943-11.085-0.536-11.834
				C156.98,118.999,156.32,121.384,157.881,121.719L157.881,121.719z"/>
		</g>
		<g>
			<path d="M169.586,121.269c1.086,12.377-4.803,24.024-4.449,36.361c0.045,1.593,2.516,1.598,2.471,0
				c-0.352-12.334,5.541-23.967,4.453-36.361C171.922,119.693,169.447,119.68,169.586,121.269L169.586,121.269z"/>
		</g>
		<g>
			<path d="M182,122.339c2.008,9.967-1.223,20.016-2.986,29.771c-0.6,3.312-0.965,6.677-1.379,10.018
				c-0.266,2.167-1.177,6.062,0.287,8c0.945,1.26,3.096,0.028,2.134-1.248c-0.593-0.788-0.318-2.323-0.276-3.239
				c0.072-1.562,0.278-3.119,0.475-4.668c0.494-3.876,1.023-7.729,1.785-11.563c1.812-9.132,4.225-18.401,2.347-27.727
				C184.068,120.118,181.684,120.782,182,122.339L182,122.339z"/>
		</g>
		<g>
			<path d="M195.359,118.628c1.764,11.358-0.21,22.896-2.331,34.065c-1.02,5.384-2.123,10.747-2.986,16.158
				c-0.747,4.678-1.96,9.363-0.868,14.092c0.359,1.556,2.742,0.896,2.384-0.658c-1.147-4.974,0.445-10.335,1.276-15.255
				c0.924-5.452,2.064-10.867,3.073-16.303c2.001-10.786,3.535-21.825,1.835-32.757
				C197.498,116.397,195.113,117.069,195.359,118.628L195.359,118.628z"/>
		</g>
		<g>
			<path d="M208.425,119.535c0.755,7.636-0.644,15.113-2.054,22.588c-1.439,7.618-2.243,15.293-3.066,22.996
				c-0.854,7.967-1.727,15.933-3,23.846c-1.256,7.79-4.354,15.161-5.443,23.004c-0.217,1.56,2.166,2.23,2.385,0.659
				c1.093-7.831,3.891-15.271,5.443-23.007c1.551-7.713,2.145-15.713,2.982-23.528c0.871-8.119,1.738-16.19,3.26-24.221
				c1.391-7.378,2.709-14.802,1.965-22.337C210.742,117.965,208.268,117.95,208.425,119.535L208.425,119.535z"/>
		</g>
		<g>
			<path d="M224.547,115.746c-2.76,17.307-5.277,34.648-7.949,51.969c-1.295,8.401-2.392,16.892-4.179,25.205
				c-1.72,7.989-4.183,15.856-4.493,24.076c-0.057,1.597,2.418,1.592,2.475,0c0.311-8.277,2.859-16.245,4.592-24.293
				c1.793-8.329,2.842-16.87,4.139-25.286c2.621-17.004,5.094-34.026,7.801-51.014C227.182,114.844,224.795,114.172,224.547,115.746
				L224.547,115.746z"/>
		</g>
		<g>
			<path d="M239.141,116.651c1.235,8.241-1.324,16.676-3.164,24.638c-2.164,9.366-3.668,18.89-5.406,28.344
				c-1.692,9.19-3.361,18.546-6.197,27.467c-2.52,7.927-6.402,15.628-6.549,24.104c-0.027,1.595,2.444,1.594,2.47,0
				c0.153-8.712,4.429-16.736,6.921-24.92c2.859-9.381,4.505-19.202,6.262-28.834c1.689-9.29,3.263-18.607,5.419-27.804
				c1.809-7.706,3.821-15.697,2.63-23.653C241.291,114.42,238.907,115.089,239.141,116.651L239.141,116.651z"/>
		</g>
		<g>
			<path d="M252.498,120.855c2.21,8.559-1.07,17.097-1.865,25.609c-0.889,9.549-2.102,19.068-3.674,28.53
				c-1.54,9.254-3.771,18.321-5.668,27.497c-0.921,4.451-1.609,8.944-2.667,13.368c-0.493,2.067-1.233,4.066-1.503,6.182
				c-0.305,2.415-0.324,4.932-1.32,7.194c-0.635,1.446,1.496,2.705,2.137,1.249c1.584-3.596,1.252-7.587,2.367-11.315
				c1.389-4.653,2.117-9.487,3.021-14.246c1.855-9.791,4.354-19.43,6.017-29.272c1.634-9.672,2.835-19.422,3.763-29.187
				c0.836-8.787,4.064-17.421,1.777-26.269C254.485,118.655,252.098,119.311,252.498,120.855L252.498,120.855z"/>
		</g>
		<g>
			<path d="M71.797,110.395c-3.089,0.701-3.318,4.33-3.627,8.33c0.824,0,1.646,0,2.473,0c0.047,0,0.205-2.268,0.247-3.182
				c0.06-1.377-2.205-1.944-2.429-0.56c-0.271,1.675-0.504,3.221-0.291,4.915c0.191,1.562,2.669,1.521,2.473-0.057
				c-0.184-1.479-0.033-2.935,0.201-4.4c-0.809-0.109-1.617-0.233-2.43-0.344c-0.038,0.913-0.197,1.805-0.244,2.716
				c-0.09,1.628,2.281,1.532,2.473-0.005c0.15-1.223,0.301-4.916,1.812-5.259C74.01,112.199,73.35,110.041,71.797,110.395
				L71.797,110.395z"/>
		</g>
		<g>
			<path d="M59.379,156.772c1.516,1.586,2.756,3.305,4.701,4.4c1.41,0.792,2.543-1.235,1.25-2.137
				c-1.676-1.167-3.424-2.202-5.196-3.217c-0.316,0.756-0.634,1.508-0.952,2.262c0.512,0.118,0.973,0.377,1.484,0.496
				c1.552,0.354,2.201-1.969,0.656-2.388c-2.859-0.774-5.354,1.165-6.218,3.834c-0.239,0.729,0.404,1.624,1.19,1.563
				c2.074-0.156,3.371-1.249,4.161-3.131c0.334-0.796-0.481-1.521-1.192-1.567c-2.117-0.142-3.641,1.119-4.159,3.135
				c-0.157,0.596,0.187,1.414,0.864,1.521c2.647,0.414,5.027-0.378,7.582-0.99c1.127-0.268,1.238-2.199,0-2.386
				c-1.047-0.155-1.995-0.095-3.051-0.043c-1.461,0.074-1.6,1.924-0.328,2.429c1.961,0.782,3.77,0.461,5.652-0.371
				c1.053-0.463,0.621-1.965-0.295-2.262c-0.852-0.272-1.621-1.034-2.476-1.306c-0.109,0.809-0.218,1.109-0.329,2.109
				c1.238,0,2.458,0,2.458,0c1,0,1-3,0-3c0,0-1.22,0-2.458,0c-1.428,0-1.641,2.588-0.328,3.014c0.852,0.27,1.623,1.002,2.473,1.277
				c-0.096-0.752-0.195-1.362-0.291-2.115c-1.307,0.575-2.428,0.725-3.75,0.197c-0.107,0.811-0.571,1.655-0.682,2.467
				c0.795-0.041,2.037-0.127,2.037-0.011c0-0.795,0-1.59,0-2.386c-1,0.49-3.787,1.325-5.913,0.991
				c0.286,0.507,0.752,1.015,1.041,1.521c0.254-0.976,0.855-1.386,1.862-1.317c-0.396-0.521-0.751-1.046-1.146-1.566
				c-0.342,0.815-0.889,1.252-1.757,1.319c0.4,0.521,0.809,1.042,1.204,1.564c0.451-1.382,1.658-2.519,3.187-2.104
				c0.217-0.794,0.44-1.59,0.659-2.388c-0.511-0.114-0.97-0.376-1.481-0.491c-1.345-0.31-2.202,1.542-0.954,2.258
				c1.771,1.013,3.521,2.049,5.195,3.217c0.416-0.713,0.834-1.425,1.25-2.137c-1.748-0.982-2.844-2.589-4.205-4.013
				C60.021,153.869,58.277,155.622,59.379,156.772L59.379,156.772z"/>
		</g>
		<g>
			<path d="M84,143.53c-0.021,0.996-0.224,1.975-0.247,2.968c-0.036,1.44,2.009,1.977,2.429,0.68
				c0.293-0.908,0.509-2.453,0.538-2.453c-0.825,0-1.649,0-2.474,0c0,1-0.055,1.57-0.572,2.49c0.752,0.316,1.508,0.461,2.261,0.777
				c0.44-1.078,0.985-2.263,1.907-3.004c-0.703-0.291-1.408-0.628-2.111-0.919c0,0.732-0.01,1.4-0.324,2.074
				c0.754,0.318,1.506,0.625,2.26,0.942c0.273-1.009,0.715-1.965,0.99-2.975c0.416-1.539-1.969-2.196-2.385-0.658
				c-0.258,0.943-0.678,1.799-1.113,2.67c-0.711,1.422,1.422,2.677,2.133,1.247c0.529-1.055,1.053-2.121,1.365-3.264
				c-0.795-0.218-1.592-0.438-2.385-0.657c-0.277,1.008-0.717,1.96-0.991,2.969c-0.356,1.321,1.653,2.251,2.261,0.952
				c0.51-1.095,0.66-2.146,0.664-3.344c0.002-1.168-1.311-1.52-2.111-0.874c-1.256,1.009-1.949,2.55-2.545,4.008
				c-0.537,1.319,1.584,2.144,2.262,0.954c0.732-1.299,0.907-2.619,0.909-4.088c0.002-1.599-2.421-1.591-2.474,0
				c-0.023,0.734-0.225,1.445-0.449,2.145c0.81,0.108,1.621,0.22,2.43,0.327c0.021-0.993,0.223-1.972,0.248-2.968
				C86.51,141.935,84.035,141.938,84,143.53L84,143.53z"/>
		</g>
		<g>
			<path d="M8.673,122.593c-2.29,1.278-2.825,4.715-0.913,6.56c0.616,0.593,1.9-0.049,2.07-1.002
				c0.17-0.986,0.207-3.426,0.207-3.426c-0.822,0-1.647,0-2.475,0c0.047,0,0.213,1.76,0.501,2.4c0.655,1.451,2.787,0.424,2.137-1.02
				c-0.103-0.219-0.147-0.343-0.163-0.582c-0.096-1.577-2.471-1.549-2.475,0.059c0,0.765,0.012,1.581-0.117,2.337
				c0.688-0.182,1.375-0.35,2.064-0.53c-0.783-0.756-0.51-2.155,0.409-2.668C11.312,123.94,10.066,121.814,8.673,122.593
				L8.673,122.593z"/>
		</g>
		<g>
			<path d="M7.234,126.133c-0.154,1.335,0.248,2.573,0.829,3.758c0.297,0.605,1.143,0.766,1.692,0.443
				c0.611-0.36,0.738-1.087,0.444-1.691c-0.401-0.819-0.599-1.597-0.493-2.51c0.08-0.671-0.622-1.235-1.236-1.235
				C7.737,124.897,7.314,125.467,7.234,126.133L7.234,126.133z"/>
		</g>
		<g>
			<path d="M54.28,161.995c2.782-1.428,5.083-3.681,6.38-6.543c-0.564,0.146-1.127,0.295-1.691,0.443
				c2.592,1.835,3.797,4.242,7.222,4.622c1.585,0.174,1.565-2.3,0-2.474c-2.573-0.285-3.997-2.885-5.972-4.283
				c-0.512-0.361-1.432-0.136-1.693,0.443c-1.143,2.518-3.042,4.395-5.492,5.656C51.611,160.592,52.865,162.726,54.28,161.995
				L54.28,161.995z"/>
		</g>
		<g>
			<path d="M86.803,143.817c0.23-0.054-0.369-0.32-0.387-0.475c0.029,0.225-0.01,0.45-0.051,0.67
				c-0.129,0.68-0.382,1.343-0.629,1.986c-0.413,1.062-0.926,2.101-1.486,3.092c0.712,0.416,1.424,0.833,2.137,1.248
				c0.166-0.33,0.328-0.659,0.496-0.988c0.635-1.274-0.875-2.439-1.944-1.5c-0.075,0.067-0.155,0.137-0.231,0.206
				c0.689,0.179,1.379,0.361,2.067,0.544c-0.006-0.021-0.012-0.04-0.017-0.061c-0.04,0.319-0.082,0.638-0.124,0.954
				c0.081-0.161,0.161-0.316,0.249-0.474c0.75-1.407-1.383-2.655-2.139-1.249c-0.259,0.488-0.506,0.913-0.355,1.487
				c0.25,0.948,1.389,1.14,2.068,0.545c0.078-0.067,0.155-0.136,0.23-0.203c-0.646-0.5-1.295-1-1.943-1.499
				c-0.164,0.328-0.33,0.66-0.494,0.989c-0.707,1.416,1.348,2.649,2.137,1.248c0.994-1.766,5.002-10.105-0.24-8.907
				C84.589,141.785,85.248,144.17,86.803,143.817L86.803,143.817z"/>
		</g>
		<g>
			<path d="M78.189,96.383c-0.506,2.789-0.847,6.342-1.198,8.342c0.821,0,1.647,0,2.474,0c-0.164-2-0.209-4.959-1.033-7.352
				c-0.268-0.779-1.448-1.307-2.068-0.512c-1.235,1.584-1.821,3.417-2.67,5.215c0.771,0.208,1.541,0.423,2.308,0.633
				c0.022-1.168,0.126-2.308,0.288-3.46c0.209-1.532-1.928-2.235-2.387-0.656c-0.766,2.62-1.85,7.116,1.062,8.818
				c1.379,0.807,2.625-1.33,1.252-2.135c-1.549-0.905-0.317-4.695,0.072-6.023c-0.795-0.22-1.592-0.438-2.387-0.659
				c-0.19,1.371-0.346,2.736-0.373,4.123c-0.025,1.175,1.768,1.76,2.304,0.625c0.735-1.562,1.205-3.322,2.28-4.699
				c-0.689-0.18-1.379-0.363-2.068-0.546c0.756,2.193,0.795,4.474,0.946,6.763c0.108,1.625,2.28,1.556,2.474,0
				c0.323-2.591,0.643-5.215,1.109-7.785C80.857,95.516,78.474,94.814,78.189,96.383L78.189,96.383z"/>
		</g>
		<g>
			<path d="M92.16,95.096c0.717-1.197,1.828-2.021,3.218-2.236c-0.51-0.505-1.015-1.015-1.523-1.521
				c-0.567,2.085-2.646,3.461-3.967,5.063c-1.01,1.217,0.73,2.979,1.747,1.748c1.635-1.974,3.898-3.568,4.607-6.151
				c0.268-0.99-0.623-1.661-1.523-1.524c-1.988,0.309-3.681,1.681-4.695,3.373C89.197,95.216,91.338,96.462,92.16,95.096
				L92.16,95.096z"/>
		</g>
		<g>
			<path d="M59.264,81.69c3.512-0.196,6.923,0.265,10.309,1.193c1.539,0.422,2.195-1.966,0.655-2.387
				c-3.584-0.981-7.245-1.49-10.964-1.281C57.676,79.306,57.67,81.78,59.264,81.69L59.264,81.69z"/>
		</g>
		<g>
			<path d="M51.639,77.319c2.113,5.393,1.527,10.938-2.805,15.021c-4.244,4.004-10.533,4.418-16.046,3.951
				c-6.628-0.56-6.968-7.345-6.791-12.551c0.083-2.377,0.661-8.317-2.85-8.605c-0.573-0.049-1.017,0.419-1.189,0.906
				c-1.289,3.566-0.112,7.973,0.235,11.644c0.311,3.306,1.025,7.345,3.828,9.503c2.479,1.911,5.592,2.171,8.619,2.185
				c3.047,0.014,6.697-0.255,9.293-2.021c1.311-0.891,0.075-3.036-1.248-2.137c-3.514,2.394-10.656,2.471-14.396,0.551
				c-3.266-1.676-3.514-6.621-3.773-9.784c-0.247-2.987-1.225-6.377-0.174-9.281c-0.398,0.303-0.795,0.606-1.194,0.907
				c0.483,0.041,0.396,5.456,0.375,6.133c-0.058,2.109-0.088,4.035,0.229,6.146c0.407,2.697,1.574,5.709,3.968,7.262
				c2.726,1.769,6.026,1.756,9.165,1.735c5.781-0.036,11.49-1.918,15.276-6.472c3.726-4.485,3.922-10.497,1.862-15.751
				C53.451,75.192,51.059,75.832,51.639,77.319L51.639,77.319z"/>
		</g>
		<g>
			<path d="M23.561,77.07c4.909,0.731,9.777,0.293,14.695-0.083c5.258-0.403,10.456-0.129,15.689,0.497
				c1.328,0.162,1.535-1.688,0.623-2.305c-0.383-0.292-0.797-0.539-1.238-0.742c-0.096,0.755-0.193,0.498-0.293,1.252
				c3.061-0.9,2.24,2.035,1.695,3.035c0.793,0,1.59,0,2.383,0c-0.42-1-0.459-2.834-1.109-4.682c-0.465-1.307-2.38-0.598-2.433,0.835
				c-0.028,0.81,0.01,1.407,0.169,2.188c0.318,1.564,2.703,1.024,2.385-0.532c-0.023-0.426-0.053-0.789-0.08-1.215
				c-0.809,0.109-1.619,0.252-2.429,0.36c0.649,1.841,0.694,3.811,1.114,5.706c0.27,1.224,2.064,1.146,2.383,0.007
				c1.113-3.975,0.509-8.625-4.736-7.082c-0.984,0.289-1.272,1.749-0.293,2.263c0.438,0.201,0.849,0.451,1.235,0.743
				c0.206-0.769,0.415-1.536,0.624-2.306c-4.612-0.552-9.237-0.878-13.881-0.623c-5.279,0.292-10.566,1.082-15.845,0.297
				C22.658,74.453,21.989,76.834,23.561,77.07L23.561,77.07z"/>
		</g>
		<g>
			<path d="M20.634,77.403c-1.441-0.348-2.98,0-4.293,0.621c-0.61,0.289-0.764,1.15-0.442,1.692
				c0.361,0.618,1.081,0.732,1.689,0.444c0.688-0.326,1.632-0.555,2.388-0.37C21.525,80.17,22.184,77.786,20.634,77.403
				L20.634,77.403z"/>
		</g>
		<g>
			<path d="M130.008,117.312c-0.025,1.283-0.473,2.45-0.944,3.629c-0.251,0.628,0.269,1.355,0.864,1.521
				c0.703,0.194,1.272-0.238,1.521-0.864c0.557-1.396,0.998-2.77,1.033-4.285C132.516,115.715,130.045,115.718,130.008,117.312
				L130.008,117.312z"/>
		</g>
	</g>
	<g>
		<path d="M246.006,231.165c6.238,5.46,14.041,7.801,21.059,12.479c22.623,13.262,40.562,32.763,62.404,46.802
			c30.422,18.722,69.422,31.201,105.305,28.082c9.359-0.781,17.939,0.779,18.721-8.58c2.339-17.941-29.642-33.541-41.343-40.561
			c-15.601-8.581-54.603-24.183-58.501-45.242c-3.9-24.183,21.061-8.58,31.98-5.461c13.26,3.899,29.64,7.8,42.9,4.681
			c28.082-6.24,3.9-19.501-8.578-27.302c-32.764-20.281-64.746-36.661-100.624-50.701c-16.384-5.46-34.322-11.699-48.362-21.841
			c-19.502,24.181-22.623,74.102-26.521,104.523c0.781,0.778,2.34,0.778,3.119,1.561"/>
	</g>
</g>
</svg>
